<svg id="Layer_1" data-name="Layer 1" xmlns="http://www.w3.org/2000/svg" viewBox="0 0 1297.96 1297.96"><defs><style>.cls-1,.cls-2{fill:none;stroke:#231f20;stroke-miterlimit:10;}.cls-1{stroke-width:1.96px;}.cls-2{stroke-width:2.5px;}</style></defs><title>circles</title><rect class="cls-1" x="0.98" y="0.98" width="1296" height="1296"/><path class="cls-2" d="M648,1226C329.11,1226,71.06,967.92,71.06,649S329.11,72,648,72s576.94,258.07,576.94,577S966.89,1226,648,1226Z" transform="translate(0.98 -0.02)"/><path class="cls-2" d="M1128.78,649c0-265.77-215-480.82-480.78-480.82S167.22,383.23,167.22,649s215,480.82,480.78,480.82S1128.78,914.77,1128.78,649Z" transform="translate(0.98 -0.02)"/><path class="cls-2" d="M648,1033.66c-212.6,0-384.63-172-384.63-384.66S435.4,264.34,648,264.34s384.63,172,384.63,384.66S860.6,1033.66,648,1033.66Z" transform="translate(0.98 -0.02)"/><path class="cls-2" d="M936.47,649c0-159.46-129-288.49-288.47-288.49S359.53,489.54,359.53,649,488.55,937.49,648,937.49,936.47,808.46,936.47,649Z" transform="translate(0.98 -0.02)"/><path class="cls-2" d="M648,841.33A192.33,192.33,0,1,1,840.31,649,192.21,192.21,0,0,1,648,841.33Z" transform="translate(0.98 -0.02)"/><path class="cls-2" d="M744.16,649A96.16,96.16,0,1,0,648,745.16,96.11,96.11,0,0,0,744.16,649Z" transform="translate(0.98 -0.02)"/></svg>