  0
SECTION
  2
HEADER
  9
$ACADVER
  1
AC1024
  9
$ACADMAINTVER
 70
     6
  9
$DWGCODEPAGE
  3
UNDEFINED
  9
$INSBASE
 10
0.0
 20
0.0
 30
0.0
  9
$EXTMIN
 10
1.000000000000000E+20
 20
1.000000000000000E+20
 30
1.000000000000000E+20
  9
$EXTMAX
 10
-1.000000000000000E+20
 20
-1.000000000000000E+20
 30
-1.000000000000000E+20
  9
$LIMMIN
 10
0.0
 20
0.0
  9
$LIMMAX
 10
12.0
 20
9.0
  9
$ORTHOMODE
 70
     0
  9
$REGENMODE
 70
     1
  9
$FILLMODE
 70
     1
  9
$QTEXTMODE
 70
     0
  9
$MIRRTEXT
 70
     1
  9
$LTSCALE
 40
1.0
  9
$ATTMODE
 70
     1
  9
$TEXTSIZE
 40
0.2
  9
$TRACEWID
 40
0.05
  9
$TEXTSTYLE
  7
Standard
  9
$CLAYER
  8
0
  9
$CELTYPE
  6
ByLayer
  9
$CECOLOR
 62
   256
  9
$CELTSCALE
 40
1.0
  9
$DISPSILH
 70
     0
  9
$DIMSCALE
 40
1.0
  9
$DIMASZ
 40
0.18
  9
$DIMEXO
 40
0.0625
  9
$DIMDLI
 40
0.38
  9
$DIMRND
 40
0.0
  9
$DIMDLE
 40
0.0
  9
$DIMEXE
 40
0.18
  9
$DIMTP
 40
0.0
  9
$DIMTM
 40
0.0
  9
$DIMTXT
 40
0.18
  9
$DIMCEN
 40
0.09
  9
$DIMTSZ
 40
0.0
  9
$DIMTOL
 70
     0
  9
$DIMLIM
 70
     0
  9
$DIMTIH
 70
     1
  9
$DIMTOH
 70
     1
  9
$DIMSE1
 70
     0
  9
$DIMSE2
 70
     0
  9
$DIMTAD
 70
     0
  9
$DIMZIN
 70
     0
  9
$DIMBLK
  1

  9
$DIMASO
 70
     1
  9
$DIMSHO
 70
     1
  9
$DIMPOST
  1

  9
$DIMAPOST
  1

  9
$DIMALT
 70
     0
  9
$DIMALTD
 70
     2
  9
$DIMALTF
 40
25.4
  9
$DIMLFAC
 40
1.0
  9
$DIMTOFL
 70
     0
  9
$DIMTVP
 40
0.0
  9
$DIMTIX
 70
     0
  9
$DIMSOXD
 70
     0
  9
$DIMSAH
 70
     0
  9
$DIMBLK1
  1

  9
$DIMBLK2
  1

  9
$DIMSTYLE
  2
Standard
  9
$DIMCLRD
 70
     0
  9
$DIMCLRE
 70
     0
  9
$DIMCLRT
 70
     0
  9
$DIMTFAC
 40
1.0
  9
$DIMGAP
 40
0.09
  9
$DIMJUST
 70
     0
  9
$DIMSD1
 70
     0
  9
$DIMSD2
 70
     0
  9
$DIMTOLJ
 70
     1
  9
$DIMTZIN
 70
     0
  9
$DIMALTZ
 70
     0
  9
$DIMALTTZ
 70
     0
  9
$DIMUPT
 70
     0
  9
$DIMDEC
 70
     4
  9
$DIMTDEC
 70
     4
  9
$DIMALTU
 70
     2
  9
$DIMALTTD
 70
     2
  9
$DIMTXSTY
  7
Standard
  9
$DIMAUNIT
 70
     0
  9
$DIMADEC
 70
     0
  9
$DIMALTRND
 40
0.0
  9
$DIMAZIN
 70
     0
  9
$DIMDSEP
 70
    46
  9
$DIMATFIT
 70
     3
  9
$DIMFRAC
 70
     0
  9
$DIMLDRBLK
  1

  9
$DIMLUNIT
 70
     2
  9
$DIMLWD
 70
    -2
  9
$DIMLWE
 70
    -2
  9
$DIMTMOVE
 70
     0
  9
$DIMFXL
 40
1.0
  9
$DIMFXLON
 70
     0
  9
$DIMJOGANG
 40
0.7853981633974483
  9
$DIMTFILL
 70
     0
  9
$DIMTFILLCLR
 70
     0
  9
$DIMARCSYM
 70
     0
  9
$DIMLTYPE
  6

  9
$DIMLTEX1
  6

  9
$DIMLTEX2
  6

  9
$DIMTXTDIRECTION
 70
     0
  9
$LUNITS
 70
     2
  9
$LUPREC
 70
     4
  9
$SKETCHINC
 40
0.1
  9
$FILLETRAD
 40
0.5
  9
$AUNITS
 70
     0
  9
$AUPREC
 70
     0
  9
$MENU
  1
.
  9
$ELEVATION
 40
0.0
  9
$PELEVATION
 40
0.0
  9
$THICKNESS
 40
0.0
  9
$LIMCHECK
 70
     0
  9
$CHAMFERA
 40
0.5
  9
$CHAMFERB
 40
0.5
  9
$CHAMFERC
 40
1.0
  9
$CHAMFERD
 40
0.0
  9
$SKPOLY
 70
     0
  9
$TDCREATE
 40
2458423.72091434
  9
$TDUCREATE
 40
2458424.054247685
  9
$TDUPDATE
 40
2458423.72091434
  9
$TDUUPDATE
 40
2458424.054247685
  9
$TDINDWG
 40
0.0000000116
  9
$TDUSRTIMER
 40
0.0000000116
  9
$USRTIMER
 70
     1
  9
$ANGBASE
 50
0.0
  9
$ANGDIR
 70
     0
  9
$PDMODE
 70
     0
  9
$PDSIZE
 40
0.0
  9
$PLINEWID
 40
0.0
  9
$SPLFRAME
 70
     0
  9
$SPLINETYPE
 70
     6
  9
$SPLINESEGS
 70
     8
  9
$HANDSEED
  5
C3
  9
$SURFTAB1
 70
     6
  9
$SURFTAB2
 70
     6
  9
$SURFTYPE
 70
     6
  9
$SURFU
 70
     6
  9
$SURFV
 70
     6
  9
$UCSBASE
  2

  9
$UCSNAME
  2

  9
$UCSORG
 10
0.0
 20
0.0
 30
0.0
  9
$UCSXDIR
 10
1.0
 20
0.0
 30
0.0
  9
$UCSYDIR
 10
0.0
 20
1.0
 30
0.0
  9
$UCSORTHOREF
  2

  9
$UCSORTHOVIEW
 70
     0
  9
$UCSORGTOP
 10
0.0
 20
0.0
 30
0.0
  9
$UCSORGBOTTOM
 10
0.0
 20
0.0
 30
0.0
  9
$UCSORGLEFT
 10
0.0
 20
0.0
 30
0.0
  9
$UCSORGRIGHT
 10
0.0
 20
0.0
 30
0.0
  9
$UCSORGFRONT
 10
0.0
 20
0.0
 30
0.0
  9
$UCSORGBACK
 10
0.0
 20
0.0
 30
0.0
  9
$PUCSBASE
  2

  9
$PUCSNAME
  2

  9
$PUCSORG
 10
0.0
 20
0.0
 30
0.0
  9
$PUCSXDIR
 10
1.0
 20
0.0
 30
0.0
  9
$PUCSYDIR
 10
0.0
 20
1.0
 30
0.0
  9
$PUCSORTHOREF
  2

  9
$PUCSORTHOVIEW
 70
     0
  9
$PUCSORGTOP
 10
0.0
 20
0.0
 30
0.0
  9
$PUCSORGBOTTOM
 10
0.0
 20
0.0
 30
0.0
  9
$PUCSORGLEFT
 10
0.0
 20
0.0
 30
0.0
  9
$PUCSORGRIGHT
 10
0.0
 20
0.0
 30
0.0
  9
$PUCSORGFRONT
 10
0.0
 20
0.0
 30
0.0
  9
$PUCSORGBACK
 10
0.0
 20
0.0
 30
0.0
  9
$USERI1
 70
     0
  9
$USERI2
 70
     0
  9
$USERI3
 70
     0
  9
$USERI4
 70
     0
  9
$USERI5
 70
     0
  9
$USERR1
 40
0.0
  9
$USERR2
 40
0.0
  9
$USERR3
 40
0.0
  9
$USERR4
 40
0.0
  9
$USERR5
 40
0.0
  9
$WORLDVIEW
 70
     1
  9
$SHADEDGE
 70
     3
  9
$SHADEDIF
 70
    70
  9
$TILEMODE
 70
     1
  9
$MAXACTVP
 70
    64
  9
$PINSBASE
 10
0.0
 20
0.0
 30
0.0
  9
$PLIMCHECK
 70
     0
  9
$PEXTMIN
 10
1.000000000000000E+20
 20
1.000000000000000E+20
 30
1.000000000000000E+20
  9
$PEXTMAX
 10
-1.000000000000000E+20
 20
-1.000000000000000E+20
 30
-1.000000000000000E+20
  9
$PLIMMIN
 10
0.0
 20
0.0
  9
$PLIMMAX
 10
12.0
 20
9.0
  9
$UNITMODE
 70
     0
  9
$VISRETAIN
 70
     1
  9
$PLINEGEN
 70
     0
  9
$PSLTSCALE
 70
     1
  9
$TREEDEPTH
 70
  3020
  9
$CMLSTYLE
  2
Standard
  9
$CMLJUST
 70
     0
  9
$CMLSCALE
 40
1.0
  9
$PROXYGRAPHICS
 70
     1
  9
$MEASUREMENT
 70
     0
  9
$CELWEIGHT
370
    -1
  9
$ENDCAPS
280
     0
  9
$JOINSTYLE
280
     0
  9
$LWDISPLAY
290
     1
  9
$INSUNITS
 70
     1
  9
$HYPERLINKBASE
  1

  9
$STYLESHEET
  1

  9
$XEDIT
290
     1
  9
$CEPSNTYPE
380
     0
  9
$PSTYLEMODE
290
     1
  9
$FINGERPRINTGUID
  2
{7AFB9D36-D7DA-8486-4651-BA16EB1F5D18}
  9
$VERSIONGUID
  2
{FAEB1C32-E019-11D5-929B-00C0DF256EC4}
  9
$EXTNAMES
290
     1
  9
$PSVPSCALE
 40
0.0
  9
$OLESTARTUP
290
     0
  9
$SORTENTS
280
   127
  9
$INDEXCTL
280
     0
  9
$HIDETEXT
280
     1
  9
$XCLIPFRAME
280
     2
  9
$HALOGAP
280
     0
  9
$OBSCOLOR
 70
   257
  9
$OBSLTYPE
280
     0
  9
$INTERSECTIONDISPLAY
280
     0
  9
$INTERSECTIONCOLOR
 70
   257
  9
$DIMASSOC
280
     2
  9
$PROJECTNAME
  1

  9
$CAMERADISPLAY
290
     0
  9
$LENSLENGTH
 40
50.0
  9
$CAMERAHEIGHT
 40
0.0
  9
$STEPSPERSEC
 40
2.0
  9
$STEPSIZE
 40
6.0
  9
$3DDWFPREC
 40
2.0
  9
$PSOLWIDTH
 40
0.25
  9
$PSOLHEIGHT
 40
4.0
  9
$LOFTANG1
 40
1.570796326794897
  9
$LOFTANG2
 40
1.570796326794897
  9
$LOFTMAG1
 40
0.0
  9
$LOFTMAG2
 40
0.0
  9
$LOFTPARAM
 70
     7
  9
$LOFTNORMALS
280
     1
  9
$LATITUDE
 40
37.795
  9
$LONGITUDE
 40
-122.394
  9
$NORTHDIRECTION
 40
0.0
  9
$TIMEZONE
 70
 -8000
  9
$LIGHTGLYPHDISPLAY
280
     1
  9
$TILEMODELIGHTSYNCH
280
     1
  9
$CMATERIAL
347
3C
  9
$SOLIDHIST
280
     1
  9
$SHOWHIST
280
     1
  9
$DWFFRAME
280
     2
  9
$DGNFRAME
280
     2
  9
$REALWORLDSCALE
290
     1
  9
$INTERFERECOLOR
 62
   256
  9
$CSHADOW
280
     0
  9
$SHADOWPLANELOCATION
 40
0.0
  0
ENDSEC
  0
SECTION
  2
CLASSES
  0
CLASS
  1
ACDBDICTIONARYWDFLT
  2
AcDbDictionaryWithDefault
  3
ObjectDBX Classes
 90
        0
 91
        4
280
     0
281
     0
  0
CLASS
  1
VISUALSTYLE
  2
AcDbVisualStyle
  3
ObjectDBX Classes
 90
     4095
 91
        4
280
     0
281
     0
  0
CLASS
  1
MATERIAL
  2
AcDbMaterial
  3
ObjectDBX Classes
 90
     1153
 91
        4
280
     0
281
     0
  0
CLASS
  1
SUN
  2
AcDbSun
  3
SCENEOE
 90
     1024
 91
        4
280
     0
281
     0
  0
ENDSEC
  0
SECTION
  2
TABLES
  0
TABLE
  2
VPORT
  5
8
330
0
100
AcDbSymbolTable
 70
     1
  0
VPORT
  5
29
330
8
100
AcDbSymbolTableRecord
100
AcDbViewportTableRecord
  2
*Active
 70
     0
 10
0.0
 20
0.0
 11
1.0
 21
1.0
 12
0.0
 22
0.0
 13
0.0
 23
0.0
 14
0.5
 24
0.5
 15
0.5
 25
0.5
 16
0.0
 26
0.0
 36
1.0
 17
12.0
 27
-9.0
 37
0.0
 40
18.0
 41
1.333333333333333
 42
50.0
 43
0.0
 44
0.0
 50
0.0
 51
0.0
 71
     0
 72
   100
 73
     1
 74
     3
 75
     0
 76
     0
 77
     0
 78
     0
281
     0
 65
     1
110
0.0
120
0.0
130
0.0
111
1.0
121
0.0
131
0.0
112
0.0
122
1.0
132
0.0
 79
     0
146
0.0
 60
     3
 61
     5
292
     1
282
     1
141
0.0
142
0.0
 63
   250
361
3F
  0
ENDTAB
  0
TABLE
  2
LTYPE
  5
5
330
0
100
AcDbSymbolTable
 70
     1
  0
LTYPE
  5
14
330
5
100
AcDbSymbolTableRecord
100
AcDbLinetypeTableRecord
  2
ByBlock
 70
     0
  3

 72
    65
 73
     0
 40
0.0
  0
LTYPE
  5
15
330
5
100
AcDbSymbolTableRecord
100
AcDbLinetypeTableRecord
  2
ByLayer
 70
     0
  3

 72
    65
 73
     0
 40
0.0
  0
LTYPE
  5
16
330
5
100
AcDbSymbolTableRecord
100
AcDbLinetypeTableRecord
  2
Continuous
 70
     0
  3
Solid line
 72
    65
 73
     0
 40
0.0
  0
ENDTAB
  0
TABLE
  2
LAYER
  5
2
330
0
100
AcDbSymbolTable
 70
     2
  0
LAYER
  5
10
330
2
100
AcDbSymbolTableRecord
100
AcDbLayerTableRecord
  2
0
 70
     0
 62
     7
  6
Continuous
370
    -3
390
F
347
3E
  0
LAYER
  5
40
330
2
100
AcDbSymbolTableRecord
100
AcDbLayerTableRecord
  2
Layer 1
 70
     0
 62
     7
  6
Continuous
370
    -3
390
F
347
3E
  0
ENDTAB
  0
TABLE
  2
STYLE
  5
3
330
0
100
AcDbSymbolTable
 70
     1
  0
STYLE
  5
11
330
3
100
AcDbSymbolTableRecord
100
AcDbTextStyleTableRecord
  2
Standard
 70
     0
 40
0.0
 41
1.0
 50
0.0
 71
     0
 42
0.2
  3
txt
  4

  0
ENDTAB
  0
TABLE
  2
VIEW
  5
6
330
0
100
AcDbSymbolTable
 70
     0
  0
ENDTAB
  0
TABLE
  2
UCS
  5
7
330
0
100
AcDbSymbolTable
 70
     0
  0
ENDTAB
  0
TABLE
  2
APPID
  5
9
330
0
100
AcDbSymbolTable
 70
     1
  0
APPID
  5
12
330
9
100
AcDbSymbolTableRecord
100
AcDbRegAppTableRecord
  2
ACAD
 70
     0
  0
ENDTAB
  0
TABLE
  2
DIMSTYLE
  5
A
330
0
100
AcDbSymbolTable
 70
     1
100
AcDbDimStyleTable
  0
DIMSTYLE
105
27
330
A
100
AcDbSymbolTableRecord
100
AcDbDimStyleTableRecord
  2
Standard
 70
     0
178
     0
340
11
  0
ENDTAB
  0
TABLE
  2
BLOCK_RECORD
  5
1
330
0
100
AcDbSymbolTable
 70
     8
  0
BLOCK_RECORD
  5
1F
330
1
100
AcDbSymbolTableRecord
100
AcDbBlockTableRecord
  2
*Model_Space
340
22
 70
     0
280
     1
281
     0
  0
BLOCK_RECORD
  5
1B
330
1
100
AcDbSymbolTableRecord
100
AcDbBlockTableRecord
  2
*Paper_Space
340
1E
 70
     0
280
     1
281
     0
  0
BLOCK_RECORD
  5
23
330
1
100
AcDbSymbolTableRecord
100
AcDbBlockTableRecord
  2
*Paper_Space0
340
26
 70
     0
280
     1
281
     0
  0
BLOCK_RECORD
  5
85
330
1
100
AcDbSymbolTableRecord
100
AcDbBlockTableRecord
  2
block 2
340
0
102
{BLKREFS
331
86
102
}
 70
     0
280
     1
281
     0
  0
BLOCK_RECORD
  5
89
330
1
100
AcDbSymbolTableRecord
100
AcDbBlockTableRecord
  2
block 3
340
0
102
{BLKREFS
331
8A
102
}
 70
     0
280
     1
281
     0
  0
BLOCK_RECORD
  5
91
330
1
100
AcDbSymbolTableRecord
100
AcDbBlockTableRecord
  2
block 4
340
0
102
{BLKREFS
331
92
102
}
 70
     0
280
     1
281
     0
  0
BLOCK_RECORD
  5
99
330
1
100
AcDbSymbolTableRecord
100
AcDbBlockTableRecord
  2
block 5
340
0
102
{BLKREFS
331
9A
102
}
 70
     0
280
     1
281
     0
  0
BLOCK_RECORD
  5
A1
330
1
100
AcDbSymbolTableRecord
100
AcDbBlockTableRecord
  2
block 6
340
0
102
{BLKREFS
331
A2
102
}
 70
     0
280
     1
281
     0
  0
BLOCK_RECORD
  5
A9
330
1
100
AcDbSymbolTableRecord
100
AcDbBlockTableRecord
  2
block 7
340
0
102
{BLKREFS
331
AA
102
}
 70
     0
280
     1
281
     0
  0
BLOCK_RECORD
  5
B1
330
1
100
AcDbSymbolTableRecord
100
AcDbBlockTableRecord
  2
block 8
340
0
102
{BLKREFS
331
B2
102
}
 70
     0
280
     1
281
     0
  0
ENDTAB
  0
ENDSEC
  0
SECTION
  2
BLOCKS
  0
BLOCK
  5
20
330
1F
100
AcDbEntity
  8
0
100
AcDbBlockBegin
  2
*Model_Space
 70
     0
 10
0.0
 20
0.0
 30
0.0
  3
*Model_Space
  1

  0
ENDBLK
  5
21
330
1F
100
AcDbEntity
  8
0
100
AcDbBlockEnd
  0
BLOCK
  5
1C
330
1B
100
AcDbEntity
 67
     1
  8
0
100
AcDbBlockBegin
  2
*Paper_Space
 70
     0
 10
0.0
 20
0.0
 30
0.0
  3
*Paper_Space
  1

  0
ENDBLK
  5
1D
330
1B
100
AcDbEntity
 67
     1
  8
0
100
AcDbBlockEnd
  0
BLOCK
  5
24
330
23
100
AcDbEntity
  8
0
100
AcDbBlockBegin
  2
*Paper_Space0
 70
     0
 10
0.0
 20
0.0
 30
0.0
  3
*Paper_Space0
  1

  0
ENDBLK
  5
25
330
23
100
AcDbEntity
  8
0
100
AcDbBlockEnd
  0
BLOCK
  5
87
330
85
100
AcDbEntity
  8
0
100
AcDbBlockBegin
  2
block 2
 70
     0
 10
0.0
 20
0.0
 30
0.0
  3
block 2
  1

  0
INSERT
  5
8A
330
85
100
AcDbEntity
  8
Layer 1
100
AcDbBlockReference
  2
block 3
 10
0.0
 20
0.0
 30
0.0
  0
INSERT
  5
92
330
85
100
AcDbEntity
  8
Layer 1
100
AcDbBlockReference
  2
block 4
 10
0.0
 20
0.0
 30
0.0
  0
INSERT
  5
9A
330
85
100
AcDbEntity
  8
Layer 1
100
AcDbBlockReference
  2
block 5
 10
0.0
 20
0.0
 30
0.0
  0
INSERT
  5
A2
330
85
100
AcDbEntity
  8
Layer 1
100
AcDbBlockReference
  2
block 6
 10
0.0
 20
0.0
 30
0.0
  0
INSERT
  5
AA
330
85
100
AcDbEntity
  8
Layer 1
100
AcDbBlockReference
  2
block 7
 10
0.0
 20
0.0
 30
0.0
  0
INSERT
  5
B2
330
85
100
AcDbEntity
  8
Layer 1
100
AcDbBlockReference
  2
block 8
 10
0.0
 20
0.0
 30
0.0
  0
ENDBLK
  5
88
330
85
100
AcDbEntity
  8
0
100
AcDbBlockEnd
  0
BLOCK
  5
8B
330
89
100
AcDbEntity
  8
0
100
AcDbBlockBegin
  2
block 3
 70
     0
 10
0.0
 20
0.0
 30
0.0
  3
block 3
  1

  0
SPLINE
  5
8D
330
89
100
AcDbEntity
  8
Layer 1
 62
   179
420
  2301728
370
    35
100
AcDbSpline
210
0.0
220
0.0
230
1.0
 70
    11
 71
     3
 72
    17
 73
    13
 74
     0
 42
0.0000000001
 43
0.0000000001
 12
1.0
 22
0.0
 32
0.0
 13
1.0
 23
0.0
 33
0.0
 40
0.0
 40
0.0
 40
0.0
 40
0.0
 40
1.0
 40
1.0
 40
1.0
 40
2.0
 40
2.0
 40
2.0
 40
3.0
 40
3.0
 40
3.0
 40
4.0
 40
4.0
 40
4.0
 40
4.0
 10
3.116819149887028
 20
-0.6753788167790288
 30
0.0
 10
3.116819149887028
 20
-0.6971223108656532
 30
0.0
 10
3.099192565233478
 20
-0.7147488955192279
 30
0.0
 10
3.077449071146904
 20
-0.7147488955191773
 30
0.0
 10
3.05570557706033
 20
-0.7147488955192279
 30
0.0
 10
3.038078992406731
 20
-0.6971223108656532
 30
0.0
 10
3.038078992406731
 20
-0.6753788167790541
 30
0.0
 10
3.038078992406731
 20
-0.6536353226924297
 30
0.0
 10
3.05570557706028
 20
-0.636008738038855
 30
0.0
 10
3.077449071146904
 20
-0.6360087380388803
 30
0.0
 10
3.099192565233478
 20
-0.6360087380388803
 30
0.0
 10
3.116819149887028
 20
-0.6536353226924297
 30
0.0
 10
3.116819149887028
 20
-0.6753788167790288
 30
0.0
  0
SPLINE
  5
8E
330
89
100
AcDbEntity
  8
Layer 1
 62
   179
420
  2301728
370
    35
100
AcDbSpline
210
0.0
220
0.0
230
1.0
 70
    11
 71
     3
 72
    17
 73
    13
 74
     0
 42
0.0000000001
 43
0.0000000001
 12
1.0
 22
0.0
 32
0.0
 13
1.0
 23
0.0
 33
0.0
 40
0.0
 40
0.0
 40
0.0
 40
0.0
 40
1.0
 40
1.0
 40
1.0
 40
2.0
 40
2.0
 40
2.0
 40
3.0
 40
3.0
 40
3.0
 40
4.0
 40
4.0
 40
4.0
 40
4.0
 10
5.823008974984759
 20
-3.381568641876735
 30
0.0
 10
5.823008974984759
 20
-3.403312135963385
 30
0.0
 10
5.80538239033121
 20
-3.420938720616934
 30
0.0
 10
5.783638896244585
 20
-3.420938720616909
 30
0.0
 10
5.761895402158012
 20
-3.420938720616934
 30
0.0
 10
5.744268817504462
 20
-3.403312135963359
 30
0.0
 10
5.744268817504462
 20
-3.381568641876786
 30
0.0
 10
5.744268817504462
 20
-3.359825147790136
 30
0.0
 10
5.761895402158012
 20
-3.342198563136586
 30
0.0
 10
5.783638896244636
 20
-3.342198563136586
 30
0.0
 10
5.80538239033121
 20
-3.342198563136586
 30
0.0
 10
5.823008974984759
 20
-3.359825147790136
 30
0.0
 10
5.823008974984759
 20
-3.381568641876735
 30
0.0
  0
SPLINE
  5
8F
330
89
100
AcDbEntity
  8
Layer 1
 62
   179
420
  2301728
370
    35
100
AcDbSpline
210
0.0
220
0.0
230
1.0
 70
    11
 71
     3
 72
    17
 73
    13
 74
     0
 42
0.0000000001
 43
0.0000000001
 12
1.0
 22
0.0
 32
0.0
 13
1.0
 23
0.0
 33
0.0
 40
0.0
 40
0.0
 40
0.0
 40
0.0
 40
1.0
 40
1.0
 40
1.0
 40
2.0
 40
2.0
 40
2.0
 40
3.0
 40
3.0
 40
3.0
 40
4.0
 40
4.0
 40
4.0
 40
4.0
 10
3.195386570018879
 20
-0.7539462369108555
 30
0.0
 10
3.195386570018879
 20
-0.7756897309974798
 30
0.0
 10
3.17775998536533
 20
-0.7933163156510292
 30
0.0
 10
3.156016491278706
 20
-0.7933163156510292
 30
0.0
 10
3.134272997192132
 20
-0.7933163156510292
 30
0.0
 10
3.116646412538582
 20
-0.7756897309974798
 30
0.0
 10
3.116646412538582
 20
-0.7539462369108807
 30
0.0
 10
3.116646412538582
 20
-0.732202742824231
 30
0.0
 10
3.134272997192132
 20
-0.7145761581706817
 30
0.0
 10
3.156016491278756
 20
-0.7145761581706817
 30
0.0
 10
3.17775998536533
 20
-0.7145761581706817
 30
0.0
 10
3.195386570018879
 20
-0.732202742824231
 30
0.0
 10
3.195386570018879
 20
-0.7539462369108555
 30
0.0
  0
SPLINE
  5
90
330
89
100
AcDbEntity
  8
Layer 1
 62
   179
420
  2301728
370
    35
100
AcDbSpline
210
0.0
220
0.0
230
1.0
 70
    11
 71
     3
 72
    17
 73
    13
 74
     0
 42
0.0000000001
 43
0.0000000001
 12
1.0
 22
0.0
 32
0.0
 13
1.0
 23
0.0
 33
0.0
 40
0.0
 40
0.0
 40
0.0
 40
0.0
 40
1.0
 40
1.0
 40
1.0
 40
2.0
 40
2.0
 40
2.0
 40
3.0
 40
3.0
 40
3.0
 40
4.0
 40
4.0
 40
4.0
 40
4.0
 10
5.744441554852957
 20
-3.303001221744934
 30
0.0
 10
5.744441554852957
 20
-3.324744715831558
 30
0.0
 10
5.726814970199357
 20
-3.342371300485107
 30
0.0
 10
5.705071476112784
 20
-3.342371300485082
 30
0.0
 10
5.68332798202621
 20
-3.342371300485107
 30
0.0
 10
5.66570139737266
 20
-3.324744715831558
 30
0.0
 10
5.66570139737261
 20
-3.303001221744934
 30
0.0
 10
5.66570139737261
 20
-3.281257727658309
 30
0.0
 10
5.683327982026159
 20
-3.26363114300476
 30
0.0
 10
5.705071476112784
 20
-3.26363114300476
 30
0.0
 10
5.726814970199357
 20
-3.26363114300476
 30
0.0
 10
5.744441554852907
 20
-3.281257727658309
 30
0.0
 10
5.744441554852957
 20
-3.303001221744934
 30
0.0
  0
ENDBLK
  5
8C
330
89
100
AcDbEntity
  8
0
100
AcDbBlockEnd
  0
BLOCK
  5
93
330
91
100
AcDbEntity
  8
0
100
AcDbBlockBegin
  2
block 4
 70
     0
 10
0.0
 20
0.0
 30
0.0
  3
block 4
  1

  0
SPLINE
  5
95
330
91
100
AcDbEntity
  8
Layer 1
 62
   179
420
  2301728
370
    35
100
AcDbSpline
210
0.0
220
0.0
230
1.0
 70
    11
 71
     3
 72
    17
 73
    13
 74
     0
 42
0.0000000001
 43
0.0000000001
 12
1.0
 22
0.0
 32
0.0
 13
1.0
 23
0.0
 33
0.0
 40
0.0
 40
0.0
 40
0.0
 40
0.0
 40
1.0
 40
1.0
 40
1.0
 40
2.0
 40
2.0
 40
2.0
 40
3.0
 40
3.0
 40
3.0
 40
4.0
 40
4.0
 40
4.0
 40
4.0
 10
20.88318085011004
 20
-0.6753788172181632
 30
0.0
 10
20.88318085010908
 20
-0.6971223113047876
 30
0.0
 10
20.90080743476187
 20
-0.7147488959591454
 30
0.0
 10
20.92255092884844
 20
-0.7147488959600802
 30
0.0
 10
20.94429442293502
 20
-0.7147488959610907
 30
0.0
 10
20.96192100758938
 20
-0.6971223113083245
 30
0.0
 10
20.96192100759034
 20
-0.6753788172217253
 30
0.0
 10
20.96192100759135
 20
-0.653635323135101
 30
0.0
 10
20.94429442293856
 20
-0.6360087384807179
 30
0.0
 10
20.92255092885193
 20
-0.6360087384797831
 30
0.0
 10
20.90080743476536
 20
-0.6360087384787978
 30
0.0
 10
20.88318085011105
 20
-0.653635323131564
 30
0.0
 10
20.88318085011004
 20
-0.6753788172181632
 30
0.0
  0
SPLINE
  5
96
330
91
100
AcDbEntity
  8
Layer 1
 62
   179
420
  2301728
370
    35
100
AcDbSpline
210
0.0
220
0.0
230
1.0
 70
    11
 71
     3
 72
    17
 73
    13
 74
     0
 42
0.0000000001
 43
0.0000000001
 12
1.0
 22
0.0
 32
0.0
 13
1.0
 23
0.0
 33
0.0
 40
0.0
 40
0.0
 40
0.0
 40
0.0
 40
1.0
 40
1.0
 40
1.0
 40
2.0
 40
2.0
 40
2.0
 40
3.0
 40
3.0
 40
3.0
 40
4.0
 40
4.0
 40
4.0
 40
4.0
 10
18.17699102489084
 20
-3.381568642194351
 30
0.0
 10
18.17699102488988
 20
-3.403312136281
 30
0.0
 10
18.19461760954262
 20
-3.420938720935358
 30
0.0
 10
18.21636110362925
 20
-3.420938720936293
 30
0.0
 10
18.23810459771582
 20
-3.420938720937304
 30
0.0
 10
18.25573118237018
 20
-3.403312136284512
 30
0.0
 10
18.25573118237114
 20
-3.381568642197938
 30
0.0
 10
18.2557311823721
 20
-3.359825148111288
 30
0.0
 10
18.23810459771936
 20
-3.342198563456956
 30
0.0
 10
18.21636110363273
 20
-3.342198563455971
 30
0.0
 10
18.19461760954616
 20
-3.34219856345501
 30
0.0
 10
18.1769910248918
 20
-3.359825148107752
 30
0.0
 10
18.17699102489084
 20
-3.381568642194351
 30
0.0
  0
SPLINE
  5
97
330
91
100
AcDbEntity
  8
Layer 1
 62
   179
420
  2301728
370
    35
100
AcDbSpline
210
0.0
220
0.0
230
1.0
 70
    11
 71
     3
 72
    17
 73
    13
 74
     0
 42
0.0000000001
 43
0.0000000001
 12
1.0
 22
0.0
 32
0.0
 13
1.0
 23
0.0
 33
0.0
 40
0.0
 40
0.0
 40
0.0
 40
0.0
 40
1.0
 40
1.0
 40
1.0
 40
2.0
 40
2.0
 40
2.0
 40
3.0
 40
3.0
 40
3.0
 40
4.0
 40
4.0
 40
4.0
 40
4.0
 10
20.8046134299747
 20
-0.7539462373464528
 30
0.0
 10
20.80461342997369
 20
-0.7756897314330773
 30
0.0
 10
20.82224001462648
 20
-0.7933163160874098
 30
0.0
 10
20.84398350871311
 20
-0.7933163160883951
 30
0.0
 10
20.86572700279968
 20
-0.7933163160893804
 30
0.0
 10
20.88335358745399
 20
-0.7756897314366142
 30
0.0
 10
20.883353587455
 20
-0.7539462373500151
 30
0.0
 10
20.88335358745596
 20
-0.7322027432633654
 30
0.0
 10
20.86572700280322
 20
-0.7145761586090328
 30
0.0
 10
20.84398350871659
 20
-0.7145761586080476
 30
0.0
 10
20.82224001463002
 20
-0.7145761586070623
 30
0.0
 10
20.80461342997566
 20
-0.7322027432598285
 30
0.0
 10
20.8046134299747
 20
-0.7539462373464528
 30
0.0
  0
SPLINE
  5
98
330
91
100
AcDbEntity
  8
Layer 1
 62
   179
420
  2301728
370
    35
100
AcDbSpline
210
0.0
220
0.0
230
1.0
 70
    11
 71
     3
 72
    17
 73
    13
 74
     0
 42
0.0000000001
 43
0.0000000001
 12
1.0
 22
0.0
 32
0.0
 13
1.0
 23
0.0
 33
0.0
 40
0.0
 40
0.0
 40
0.0
 40
0.0
 40
1.0
 40
1.0
 40
1.0
 40
2.0
 40
2.0
 40
2.0
 40
3.0
 40
3.0
 40
3.0
 40
4.0
 40
4.0
 40
4.0
 40
4.0
 10
18.25555844502618
 20
-3.303001222066086
 30
0.0
 10
18.25555844502517
 20
-3.324744716152711
 30
0.0
 10
18.27318502967801
 20
-3.342371300807043
 30
0.0
 10
18.29492852376459
 20
-3.342371300808003
 30
0.0
 10
18.31667201785116
 20
-3.342371300809014
 30
0.0
 10
18.33429860250547
 20
-3.324744716156248
 30
0.0
 10
18.33429860250653
 20
-3.303001222069623
 30
0.0
 10
18.33429860250749
 20
-3.281257727982999
 30
0.0
 10
18.31667201785475
 20
-3.263631143328666
 30
0.0
 10
18.29492852376812
 20
-3.263631143327681
 30
0.0
 10
18.27318502968155
 20
-3.263631143326696
 30
0.0
 10
18.25555844502719
 20
-3.281257727979462
 30
0.0
 10
18.25555844502618
 20
-3.303001222066086
 30
0.0
  0
ENDBLK
  5
94
330
91
100
AcDbEntity
  8
0
100
AcDbBlockEnd
  0
BLOCK
  5
9B
330
99
100
AcDbEntity
  8
0
100
AcDbBlockBegin
  2
block 5
 70
     0
 10
0.0
 20
0.0
 30
0.0
  3
block 5
  1

  0
SPLINE
  5
9D
330
99
100
AcDbEntity
  8
Layer 1
 62
   179
420
  2301728
370
    35
100
AcDbSpline
210
0.0
220
0.0
230
1.0
 70
    11
 71
     3
 72
    17
 73
    13
 74
     0
 42
0.0000000001
 43
0.0000000001
 12
1.0
 22
0.0
 32
0.0
 13
1.0
 23
0.0
 33
0.0
 40
0.0
 40
0.0
 40
0.0
 40
0.0
 40
1.0
 40
1.0
 40
1.0
 40
2.0
 40
2.0
 40
2.0
 40
3.0
 40
3.0
 40
3.0
 40
4.0
 40
4.0
 40
4.0
 40
4.0
 10
9.173673399506418
 20
-0.6753788167790288
 30
0.0
 10
9.173673399506418
 20
-0.6971223108656532
 30
0.0
 10
9.15604681485287
 20
-0.7147488955192279
 30
0.0
 10
9.134303320766245
 20
-0.7147488955191773
 30
0.0
 10
9.112559826679671
 20
-0.7147488955192279
 30
0.0
 10
9.094933242026121
 20
-0.6971223108656532
 30
0.0
 10
9.094933242026071
 20
-0.6753788167790541
 30
0.0
 10
9.094933242026071
 20
-0.6536353226924297
 30
0.0
 10
9.11255982667962
 20
-0.636008738038855
 30
0.0
 10
9.134303320766294
 20
-0.6360087380388803
 30
0.0
 10
9.156046814852818
 20
-0.6360087380388803
 30
0.0
 10
9.173673399506368
 20
-0.6536353226924297
 30
0.0
 10
9.173673399506418
 20
-0.6753788167790288
 30
0.0
  0
SPLINE
  5
9E
330
99
100
AcDbEntity
  8
Layer 1
 62
   179
420
  2301728
370
    35
100
AcDbSpline
210
0.0
220
0.0
230
1.0
 70
    11
 71
     3
 72
    17
 73
    13
 74
     0
 42
0.0000000001
 43
0.0000000001
 12
1.0
 22
0.0
 32
0.0
 13
1.0
 23
0.0
 33
0.0
 40
0.0
 40
0.0
 40
0.0
 40
0.0
 40
1.0
 40
1.0
 40
1.0
 40
2.0
 40
2.0
 40
2.0
 40
3.0
 40
3.0
 40
3.0
 40
4.0
 40
4.0
 40
4.0
 40
4.0
 10
11.87986322460415
 20
-3.381568641876735
 30
0.0
 10
11.87986322460415
 20
-3.403312135963385
 30
0.0
 10
11.8622366399506
 20
-3.420938720616934
 30
0.0
 10
11.84049314586398
 20
-3.420938720616909
 30
0.0
 10
11.8187496517774
 20
-3.420938720616934
 30
0.0
 10
11.80112306712385
 20
-3.403312135963359
 30
0.0
 10
11.8011230671238
 20
-3.381568641876786
 30
0.0
 10
11.8011230671238
 20
-3.359825147790136
 30
0.0
 10
11.81874965177735
 20
-3.342198563136586
 30
0.0
 10
11.84049314586398
 20
-3.342198563136586
 30
0.0
 10
11.86223663995055
 20
-3.342198563136586
 30
0.0
 10
11.8798632246041
 20
-3.359825147790136
 30
0.0
 10
11.87986322460415
 20
-3.381568641876735
 30
0.0
  0
SPLINE
  5
9F
330
99
100
AcDbEntity
  8
Layer 1
 62
   179
420
  2301728
370
    35
100
AcDbSpline
210
0.0
220
0.0
230
1.0
 70
    11
 71
     3
 72
    17
 73
    13
 74
     0
 42
0.0000000001
 43
0.0000000001
 12
1.0
 22
0.0
 32
0.0
 13
1.0
 23
0.0
 33
0.0
 40
0.0
 40
0.0
 40
0.0
 40
0.0
 40
1.0
 40
1.0
 40
1.0
 40
2.0
 40
2.0
 40
2.0
 40
3.0
 40
3.0
 40
3.0
 40
4.0
 40
4.0
 40
4.0
 40
4.0
 10
9.252240819638219
 20
-0.7539462369108555
 30
0.0
 10
9.252240819638219
 20
-0.7756897309974798
 30
0.0
 10
9.23461423498467
 20
-0.7933163156510292
 30
0.0
 10
9.212870740898097
 20
-0.7933163156510292
 30
0.0
 10
9.191127246811522
 20
-0.7933163156510292
 30
0.0
 10
9.173500662157922
 20
-0.7756897309974798
 30
0.0
 10
9.173500662157922
 20
-0.7539462369108807
 30
0.0
 10
9.173500662157922
 20
-0.732202742824231
 30
0.0
 10
9.191127246811472
 20
-0.7145761581706817
 30
0.0
 10
9.212870740898097
 20
-0.7145761581706817
 30
0.0
 10
9.23461423498467
 20
-0.7145761581706817
 30
0.0
 10
9.252240819638219
 20
-0.732202742824231
 30
0.0
 10
9.252240819638219
 20
-0.7539462369108555
 30
0.0
  0
SPLINE
  5
A0
330
99
100
AcDbEntity
  8
Layer 1
 62
   179
420
  2301728
370
    35
100
AcDbSpline
210
0.0
220
0.0
230
1.0
 70
    11
 71
     3
 72
    17
 73
    13
 74
     0
 42
0.0000000001
 43
0.0000000001
 12
1.0
 22
0.0
 32
0.0
 13
1.0
 23
0.0
 33
0.0
 40
0.0
 40
0.0
 40
0.0
 40
0.0
 40
1.0
 40
1.0
 40
1.0
 40
2.0
 40
2.0
 40
2.0
 40
3.0
 40
3.0
 40
3.0
 40
4.0
 40
4.0
 40
4.0
 40
4.0
 10
11.8012958044723
 20
-3.303001221744934
 30
0.0
 10
11.8012958044723
 20
-3.324744715831558
 30
0.0
 10
11.78366921981875
 20
-3.342371300485107
 30
0.0
 10
11.76192572573212
 20
-3.342371300485082
 30
0.0
 10
11.74018223164555
 20
-3.342371300485107
 30
0.0
 10
11.722555646992
 20
-3.324744715831558
 30
0.0
 10
11.722555646992
 20
-3.303001221744934
 30
0.0
 10
11.722555646992
 20
-3.281257727658309
 30
0.0
 10
11.74018223164555
 20
-3.26363114300476
 30
0.0
 10
11.76192572573217
 20
-3.26363114300476
 30
0.0
 10
11.7836692198187
 20
-3.26363114300476
 30
0.0
 10
11.80129580447225
 20
-3.281257727658309
 30
0.0
 10
11.8012958044723
 20
-3.303001221744934
 30
0.0
  0
ENDBLK
  5
9C
330
99
100
AcDbEntity
  8
0
100
AcDbBlockEnd
  0
BLOCK
  5
A3
330
A1
100
AcDbEntity
  8
0
100
AcDbBlockBegin
  2
block 6
 70
     0
 10
0.0
 20
0.0
 30
0.0
  3
block 6
  1

  0
SPLINE
  5
A5
330
A1
100
AcDbEntity
  8
Layer 1
 62
   179
420
  2301728
370
    35
100
AcDbSpline
210
0.0
220
0.0
230
1.0
 70
    11
 71
     3
 72
    17
 73
    13
 74
     0
 42
0.0000000001
 43
0.0000000001
 12
1.0
 22
0.0
 32
0.0
 13
1.0
 23
0.0
 33
0.0
 40
0.0
 40
0.0
 40
0.0
 40
0.0
 40
1.0
 40
1.0
 40
1.0
 40
2.0
 40
2.0
 40
2.0
 40
3.0
 40
3.0
 40
3.0
 40
4.0
 40
4.0
 40
4.0
 40
4.0
 10
14.82632660049065
 20
-0.6753788168379439
 30
0.0
 10
14.82632660048969
 20
-0.6971223109245682
 30
0.0
 10
14.84395318514248
 20
-0.7147488955789261
 30
0.0
 10
14.8656966792291
 20
-0.7147488955798609
 30
0.0
 10
14.88744017331568
 20
-0.7147488955808714
 30
0.0
 10
14.90506675796999
 20
-0.6971223109281052
 30
0.0
 10
14.905066757971
 20
-0.675378816841506
 30
0.0
 10
14.90506675797201
 20
-0.6536353227548817
 30
0.0
 10
14.88744017331922
 20
-0.6360087381004985
 30
0.0
 10
14.86569667923254
 20
-0.6360087380995638
 30
0.0
 10
14.84395318514602
 20
-0.6360087380985785
 30
0.0
 10
14.82632660049171
 20
-0.6536353227513447
 30
0.0
 10
14.82632660049065
 20
-0.6753788168379439
 30
0.0
  0
SPLINE
  5
A6
330
A1
100
AcDbEntity
  8
Layer 1
 62
   179
420
  2301728
370
    35
100
AcDbSpline
210
0.0
220
0.0
230
1.0
 70
    11
 71
     3
 72
    17
 73
    13
 74
     0
 42
0.0000000001
 43
0.0000000001
 12
1.0
 22
0.0
 32
0.0
 13
1.0
 23
0.0
 33
0.0
 40
0.0
 40
0.0
 40
0.0
 40
0.0
 40
1.0
 40
1.0
 40
1.0
 40
2.0
 40
2.0
 40
2.0
 40
3.0
 40
3.0
 40
3.0
 40
4.0
 40
4.0
 40
4.0
 40
4.0
 10
12.12013677527145
 20
-3.381568641814157
 30
0.0
 10
12.12013677527049
 20
-3.403312135900806
 30
0.0
 10
12.13776335992323
 20
-3.420938720555139
 30
0.0
 10
12.15950685400986
 20
-3.420938720556099
 30
0.0
 10
12.18125034809643
 20
-3.420938720557084
 30
0.0
 10
12.19887693275079
 20
-3.403312135904318
 30
0.0
 10
12.1988769327518
 20
-3.381568641817744
 30
0.0
 10
12.19887693275276
 20
-3.359825147731094
 30
0.0
 10
12.18125034810002
 20
-3.342198563076737
 30
0.0
 10
12.15950685401339
 20
-3.342198563075776
 30
0.0
 10
12.13776335992682
 20
-3.342198563074791
 30
0.0
 10
12.12013677527246
 20
-3.359825147727558
 30
0.0
 10
12.12013677527145
 20
-3.381568641814157
 30
0.0
  0
SPLINE
  5
A7
330
A1
100
AcDbEntity
  8
Layer 1
 62
   179
420
  2301728
370
    35
100
AcDbSpline
210
0.0
220
0.0
230
1.0
 70
    11
 71
     3
 72
    17
 73
    13
 74
     0
 42
0.0000000001
 43
0.0000000001
 12
1.0
 22
0.0
 32
0.0
 13
1.0
 23
0.0
 33
0.0
 40
0.0
 40
0.0
 40
0.0
 40
0.0
 40
1.0
 40
1.0
 40
1.0
 40
2.0
 40
2.0
 40
2.0
 40
3.0
 40
3.0
 40
3.0
 40
4.0
 40
4.0
 40
4.0
 40
4.0
 10
14.74775918035536
 20
-0.7539462369662335
 30
0.0
 10
14.74775918035435
 20
-0.775689731052858
 30
0.0
 10
14.76538576500714
 20
-0.7933163157072158
 30
0.0
 10
14.78712925909372
 20
-0.7933163157081758
 30
0.0
 10
14.80887275318029
 20
-0.7933163157091611
 30
0.0
 10
14.82649933783465
 20
-0.7756897310563949
 30
0.0
 10
14.82649933783566
 20
-0.7539462369697958
 30
0.0
 10
14.82649933783662
 20
-0.7322027428831461
 30
0.0
 10
14.80887275318388
 20
-0.7145761582288135
 30
0.0
 10
14.78712925909725
 20
-0.7145761582278283
 30
0.0
 10
14.76538576501068
 20
-0.7145761582268683
 30
0.0
 10
14.74775918035632
 20
-0.7322027428796092
 30
0.0
 10
14.74775918035536
 20
-0.7539462369662335
 30
0.0
  0
SPLINE
  5
A8
330
A1
100
AcDbEntity
  8
Layer 1
 62
   179
420
  2301728
370
    35
100
AcDbSpline
210
0.0
220
0.0
230
1.0
 70
    11
 71
     3
 72
    17
 73
    13
 74
     0
 42
0.0000000001
 43
0.0000000001
 12
1.0
 22
0.0
 32
0.0
 13
1.0
 23
0.0
 33
0.0
 40
0.0
 40
0.0
 40
0.0
 40
0.0
 40
1.0
 40
1.0
 40
1.0
 40
2.0
 40
2.0
 40
2.0
 40
3.0
 40
3.0
 40
3.0
 40
4.0
 40
4.0
 40
4.0
 40
4.0
 10
12.19870419540684
 20
-3.303001221685867
 30
0.0
 10
12.19870419540583
 20
-3.324744715772491
 30
0.0
 10
12.21633078005862
 20
-3.342371300426849
 30
0.0
 10
12.23807427414524
 20
-3.342371300427784
 30
0.0
 10
12.25981776823182
 20
-3.342371300428795
 30
0.0
 10
12.27744435288612
 20
-3.324744715776028
 30
0.0
 10
12.27744435288714
 20
-3.303001221689404
 30
0.0
 10
12.2774443528881
 20
-3.281257727602779
 30
0.0
 10
12.25981776823535
 20
-3.263631142948447
 30
0.0
 10
12.23807427414873
 20
-3.263631142947462
 30
0.0
 10
12.21633078006221
 20
-3.263631142946501
 30
0.0
 10
12.19870419540785
 20
-3.281257727599243
 30
0.0
 10
12.19870419540684
 20
-3.303001221685867
 30
0.0
  0
ENDBLK
  5
A4
330
A1
100
AcDbEntity
  8
0
100
AcDbBlockEnd
  0
BLOCK
  5
AB
330
A9
100
AcDbEntity
  8
0
100
AcDbBlockBegin
  2
block 7
 70
     0
 10
0.0
 20
0.0
 30
0.0
  3
block 7
  1

  0
SPLINE
  5
AD
330
A9
100
AcDbEntity
  8
Layer 1
 62
   179
420
  2301728
370
    35
100
AcDbSpline
210
0.0
220
0.0
230
1.0
 70
    11
 71
     3
 72
    17
 73
    13
 74
     0
 42
0.0000000001
 43
0.0000000001
 12
1.0
 22
0.0
 32
0.0
 13
1.0
 23
0.0
 33
0.0
 40
0.0
 40
0.0
 40
0.0
 40
0.0
 40
1.0
 40
1.0
 40
1.0
 40
2.0
 40
2.0
 40
2.0
 40
3.0
 40
3.0
 40
3.0
 40
4.0
 40
4.0
 40
4.0
 40
4.0
 10
15.23052764912571
 20
-0.6753788167790288
 30
0.0
 10
15.23052764912571
 20
-0.6971223108656532
 30
0.0
 10
15.21290106447216
 20
-0.7147488955192279
 30
0.0
 10
15.19115757038558
 20
-0.7147488955191773
 30
0.0
 10
15.16941407629901
 20
-0.7147488955192279
 30
0.0
 10
15.15178749164541
 20
-0.6971223108656532
 30
0.0
 10
15.15178749164541
 20
-0.6753788167790541
 30
0.0
 10
15.15178749164541
 20
-0.6536353226924297
 30
0.0
 10
15.16941407629896
 20
-0.636008738038855
 30
0.0
 10
15.19115757038558
 20
-0.6360087380388803
 30
0.0
 10
15.21290106447216
 20
-0.6360087380388803
 30
0.0
 10
15.23052764912571
 20
-0.6536353226924297
 30
0.0
 10
15.23052764912571
 20
-0.6753788167790288
 30
0.0
  0
SPLINE
  5
AE
330
A9
100
AcDbEntity
  8
Layer 1
 62
   179
420
  2301728
370
    35
100
AcDbSpline
210
0.0
220
0.0
230
1.0
 70
    11
 71
     3
 72
    17
 73
    13
 74
     0
 42
0.0000000001
 43
0.0000000001
 12
1.0
 22
0.0
 32
0.0
 13
1.0
 23
0.0
 33
0.0
 40
0.0
 40
0.0
 40
0.0
 40
0.0
 40
1.0
 40
1.0
 40
1.0
 40
2.0
 40
2.0
 40
2.0
 40
3.0
 40
3.0
 40
3.0
 40
4.0
 40
4.0
 40
4.0
 40
4.0
 10
17.93671747422344
 20
-3.381568641876735
 30
0.0
 10
17.93671747422344
 20
-3.403312135963385
 30
0.0
 10
17.91909088956989
 20
-3.420938720616934
 30
0.0
 10
17.89734739548327
 20
-3.420938720616909
 30
0.0
 10
17.87560390139669
 20
-3.420938720616934
 30
0.0
 10
17.85797731674314
 20
-3.403312135963359
 30
0.0
 10
17.85797731674314
 20
-3.381568641876786
 30
0.0
 10
17.85797731674314
 20
-3.359825147790136
 30
0.0
 10
17.87560390139669
 20
-3.342198563136586
 30
0.0
 10
17.89734739548332
 20
-3.342198563136586
 30
0.0
 10
17.91909088956989
 20
-3.342198563136586
 30
0.0
 10
17.93671747422344
 20
-3.359825147790136
 30
0.0
 10
17.93671747422344
 20
-3.381568641876735
 30
0.0
  0
SPLINE
  5
AF
330
A9
100
AcDbEntity
  8
Layer 1
 62
   179
420
  2301728
370
    35
100
AcDbSpline
210
0.0
220
0.0
230
1.0
 70
    11
 71
     3
 72
    17
 73
    13
 74
     0
 42
0.0000000001
 43
0.0000000001
 12
1.0
 22
0.0
 32
0.0
 13
1.0
 23
0.0
 33
0.0
 40
0.0
 40
0.0
 40
0.0
 40
0.0
 40
1.0
 40
1.0
 40
1.0
 40
2.0
 40
2.0
 40
2.0
 40
3.0
 40
3.0
 40
3.0
 40
4.0
 40
4.0
 40
4.0
 40
4.0
 10
15.30909506925756
 20
-0.7539462369108555
 30
0.0
 10
15.30909506925756
 20
-0.7756897309974798
 30
0.0
 10
15.29146848460401
 20
-0.7933163156510292
 30
0.0
 10
15.26972499051739
 20
-0.7933163156510292
 30
0.0
 10
15.24798149643081
 20
-0.7933163156510292
 30
0.0
 10
15.23035491177726
 20
-0.7756897309974798
 30
0.0
 10
15.23035491177726
 20
-0.7539462369108807
 30
0.0
 10
15.23035491177726
 20
-0.732202742824231
 30
0.0
 10
15.24798149643081
 20
-0.7145761581706817
 30
0.0
 10
15.26972499051744
 20
-0.7145761581706817
 30
0.0
 10
15.29146848460401
 20
-0.7145761581706817
 30
0.0
 10
15.30909506925756
 20
-0.732202742824231
 30
0.0
 10
15.30909506925756
 20
-0.7539462369108555
 30
0.0
  0
SPLINE
  5
B0
330
A9
100
AcDbEntity
  8
Layer 1
 62
   179
420
  2301728
370
    35
100
AcDbSpline
210
0.0
220
0.0
230
1.0
 70
    11
 71
     3
 72
    17
 73
    13
 74
     0
 42
0.0000000001
 43
0.0000000001
 12
1.0
 22
0.0
 32
0.0
 13
1.0
 23
0.0
 33
0.0
 40
0.0
 40
0.0
 40
0.0
 40
0.0
 40
1.0
 40
1.0
 40
1.0
 40
2.0
 40
2.0
 40
2.0
 40
3.0
 40
3.0
 40
3.0
 40
4.0
 40
4.0
 40
4.0
 40
4.0
 10
17.85815005409164
 20
-3.303001221744934
 30
0.0
 10
17.85815005409164
 20
-3.324744715831558
 30
0.0
 10
17.84052346943804
 20
-3.342371300485107
 30
0.0
 10
17.81877997535146
 20
-3.342371300485082
 30
0.0
 10
17.79703648126489
 20
-3.342371300485107
 30
0.0
 10
17.77940989661134
 20
-3.324744715831558
 30
0.0
 10
17.77940989661129
 20
-3.303001221744934
 30
0.0
 10
17.77940989661129
 20
-3.281257727658309
 30
0.0
 10
17.79703648126484
 20
-3.26363114300476
 30
0.0
 10
17.81877997535146
 20
-3.26363114300476
 30
0.0
 10
17.84052346943804
 20
-3.26363114300476
 30
0.0
 10
17.85815005409159
 20
-3.281257727658309
 30
0.0
 10
17.85815005409164
 20
-3.303001221744934
 30
0.0
  0
ENDBLK
  5
AC
330
A9
100
AcDbEntity
  8
0
100
AcDbBlockEnd
  0
BLOCK
  5
B3
330
B1
100
AcDbEntity
  8
0
100
AcDbBlockBegin
  2
block 8
 70
     0
 10
0.0
 20
0.0
 30
0.0
  3
block 8
  1

  0
SPLINE
  5
B5
330
B1
100
AcDbEntity
  8
Layer 1
 62
   179
420
  2301728
370
    35
100
AcDbSpline
210
0.0
220
0.0
230
1.0
 70
    11
 71
     3
 72
    17
 73
    13
 74
     0
 42
0.0000000001
 43
0.0000000001
 12
1.0
 22
0.0
 32
0.0
 13
1.0
 23
0.0
 33
0.0
 40
0.0
 40
0.0
 40
0.0
 40
0.0
 40
1.0
 40
1.0
 40
1.0
 40
2.0
 40
2.0
 40
2.0
 40
3.0
 40
3.0
 40
3.0
 40
4.0
 40
4.0
 40
4.0
 40
4.0
 10
8.76947235087131
 20
-0.6753788164577246
 30
0.0
 10
8.769472350870348
 20
-0.6971223105443489
 30
0.0
 10
8.78709893552314
 20
-0.7147488951987068
 30
0.0
 10
8.808842429609715
 20
-0.7147488951996416
 30
0.0
 10
8.830585923696288
 20
-0.7147488952006774
 30
0.0
 10
8.848212508350645
 20
-0.6971223105478859
 30
0.0
 10
8.848212508351656
 20
-0.6753788164612867
 30
0.0
 10
8.848212508352617
 20
-0.6536353223746624
 30
0.0
 10
8.830585923699875
 20
-0.6360087377203045
 30
0.0
 10
8.8088424296132
 20
-0.6360087377193445
 30
0.0
 10
8.787098935526677
 20
-0.6360087377183592
 30
0.0
 10
8.76947235087232
 20
-0.6536353223711254
 30
0.0
 10
8.76947235087131
 20
-0.6753788164577246
 30
0.0
  0
SPLINE
  5
B6
330
B1
100
AcDbEntity
  8
Layer 1
 62
   179
420
  2301728
370
    35
100
AcDbSpline
210
0.0
220
0.0
230
1.0
 70
    11
 71
     3
 72
    17
 73
    13
 74
     0
 42
0.0000000001
 43
0.0000000001
 12
1.0
 22
0.0
 32
0.0
 13
1.0
 23
0.0
 33
0.0
 40
0.0
 40
0.0
 40
0.0
 40
0.0
 40
1.0
 40
1.0
 40
1.0
 40
2.0
 40
2.0
 40
2.0
 40
3.0
 40
3.0
 40
3.0
 40
4.0
 40
4.0
 40
4.0
 40
4.0
 10
6.063282525652109
 20
-3.381568641433937
 30
0.0
 10
6.063282525651149
 20
-3.403312135520587
 30
0.0
 10
6.080909110303891
 20
-3.42093872017492
 30
0.0
 10
6.102652604390514
 20
-3.420938720175879
 30
0.0
 10
6.124396098477089
 20
-3.42093872017689
 30
0.0
 10
6.142022683131446
 20
-3.403312135524099
 30
0.0
 10
6.142022683132407
 20
-3.381568641437525
 30
0.0
 10
6.142022683133417
 20
-3.359825147350875
 30
0.0
 10
6.124396098480625
 20
-3.342198562696542
 30
0.0
 10
6.102652604394001
 20
-3.342198562695557
 30
0.0
 10
6.080909110307427
 20
-3.342198562694572
 30
0.0
 10
6.06328252565312
 20
-3.359825147347338
 30
0.0
 10
6.063282525652109
 20
-3.381568641433937
 30
0.0
  0
SPLINE
  5
B7
330
B1
100
AcDbEntity
  8
Layer 1
 62
   179
420
  2301728
370
    35
100
AcDbSpline
210
0.0
220
0.0
230
1.0
 70
    11
 71
     3
 72
    17
 73
    13
 74
     0
 42
0.0000000001
 43
0.0000000001
 12
1.0
 22
0.0
 32
0.0
 13
1.0
 23
0.0
 33
0.0
 40
0.0
 40
0.0
 40
0.0
 40
0.0
 40
1.0
 40
1.0
 40
1.0
 40
2.0
 40
2.0
 40
2.0
 40
3.0
 40
3.0
 40
3.0
 40
4.0
 40
4.0
 40
4.0
 40
4.0
 10
8.690904930735972
 20
-0.7539462365860395
 30
0.0
 10
8.69090493073501
 20
-0.7756897306726639
 30
0.0
 10
8.708531515387751
 20
-0.7933163153269964
 30
0.0
 10
8.730275009474376
 20
-0.7933163153279565
 30
0.0
 10
8.75201850356095
 20
-0.7933163153289418
 30
0.0
 10
8.769645088215308
 20
-0.7756897306761755
 30
0.0
 10
8.769645088216269
 20
-0.7539462365895765
 30
0.0
 10
8.769645088217278
 20
-0.7322027425029268
 30
0.0
 10
8.752018503564488
 20
-0.7145761578485942
 30
0.0
 10
8.730275009477863
 20
-0.714576157847609
 30
0.0
 10
8.70853151539129
 20
-0.7145761578466489
 30
0.0
 10
8.69090493073698
 20
-0.7322027424994151
 30
0.0
 10
8.690904930735972
 20
-0.7539462365860395
 30
0.0
  0
SPLINE
  5
B8
330
B1
100
AcDbEntity
  8
Layer 1
 62
   179
420
  2301728
370
    35
100
AcDbSpline
210
0.0
220
0.0
230
1.0
 70
    11
 71
     3
 72
    17
 73
    13
 74
     0
 42
0.0000000001
 43
0.0000000001
 12
1.0
 22
0.0
 32
0.0
 13
1.0
 23
0.0
 33
0.0
 40
0.0
 40
0.0
 40
0.0
 40
0.0
 40
1.0
 40
1.0
 40
1.0
 40
2.0
 40
2.0
 40
2.0
 40
3.0
 40
3.0
 40
3.0
 40
4.0
 40
4.0
 40
4.0
 40
4.0
 10
6.141849945787448
 20
-3.303001221305673
 30
0.0
 10
6.141849945786488
 20
-3.324744715392297
 30
0.0
 10
6.159476530439279
 20
-3.34237130004663
 30
0.0
 10
6.181220024525853
 20
-3.34237130004759
 30
0.0
 10
6.202963518612427
 20
-3.342371300048575
 30
0.0
 10
6.220590103266785
 20
-3.324744715395809
 30
0.0
 10
6.220590103267796
 20
-3.303001221309184
 30
0.0
 10
6.220590103268756
 20
-3.28125772722256
 30
0.0
 10
6.202963518616015
 20
-3.263631142568228
 30
0.0
 10
6.18122002452939
 20
-3.263631142567267
 30
0.0
 10
6.159476530442817
 20
-3.263631142566283
 30
0.0
 10
6.141849945788509
 20
-3.281257727219049
 30
0.0
 10
6.141849945787448
 20
-3.303001221305673
 30
0.0
  0
ENDBLK
  5
B4
330
B1
100
AcDbEntity
  8
0
100
AcDbBlockEnd
  0
ENDSEC
  0
SECTION
  2
ENTITIES
  0
POLYLINE
  5
41
330
1F
100
AcDbEntity
  8
Layer 1
 62
   179
420
  2301728
370
    35
100
AcDb2dPolyline
 66
     1
 10
0.0
 20
0.0
 30
0.0
  0
VERTEX
  5
42
330
41
100
AcDbEntity
  8
Layer 1
 62
   179
420
  2301728
370
    35
100
AcDbVertex
100
AcDb2dVertex
 10
24.00000000000002
 20
-3.986111111111111
 30
0.0
  0
VERTEX
  5
43
330
41
100
AcDbEntity
  8
Layer 1
 62
   179
420
  2301728
370
    35
100
AcDbVertex
100
AcDb2dVertex
 10
-0.0000000000000253
 20
-3.986111111111111
 30
0.0
  0
SEQEND
  5
44
330
41
100
AcDbEntity
  8
Layer 1
 62
   179
420
  2301728
370
    35
  0
POLYLINE
  5
45
330
1F
100
AcDbEntity
  8
Layer 1
 62
   179
420
  2301728
370
    35
100
AcDb2dPolyline
 66
     1
 10
0.0
 20
0.0
 30
0.0
  0
VERTEX
  5
46
330
45
100
AcDbEntity
  8
Layer 1
 62
   179
420
  2301728
370
    35
100
AcDbVertex
100
AcDb2dVertex
 10
0.0
 20
-3.986111111111111
 30
0.0
  0
VERTEX
  5
47
330
45
100
AcDbEntity
  8
Layer 1
 62
   179
420
  2301728
370
    35
100
AcDbVertex
100
AcDb2dVertex
 10
0.0
 20
-17.98611111111111
 30
0.0
  0
SEQEND
  5
48
330
45
100
AcDbEntity
  8
Layer 1
 62
   179
420
  2301728
370
    35
  0
POLYLINE
  5
49
330
1F
100
AcDbEntity
  8
Layer 1
 62
   179
420
  2301728
370
    35
100
AcDb2dPolyline
 66
     1
 10
0.0
 20
0.0
 30
0.0
  0
VERTEX
  5
4A
330
49
100
AcDbEntity
  8
Layer 1
 62
   179
420
  2301728
370
    35
100
AcDbVertex
100
AcDb2dVertex
 10
4.0
 20
-3.986111111111111
 30
0.0
  0
VERTEX
  5
4B
330
49
100
AcDbEntity
  8
Layer 1
 62
   179
420
  2301728
370
    35
100
AcDbVertex
100
AcDb2dVertex
 10
4.0
 20
-17.98611111111111
 30
0.0
  0
SEQEND
  5
4C
330
49
100
AcDbEntity
  8
Layer 1
 62
   179
420
  2301728
370
    35
  0
POLYLINE
  5
4D
330
1F
100
AcDbEntity
  8
Layer 1
 62
   179
420
  2301728
370
    35
100
AcDb2dPolyline
 66
     1
 10
0.0
 20
0.0
 30
0.0
  0
VERTEX
  5
4E
330
4D
100
AcDbEntity
  8
Layer 1
 62
   179
420
  2301728
370
    35
100
AcDbVertex
100
AcDb2dVertex
 10
0.0
 20
-3.986111111111111
 30
0.0
  0
VERTEX
  5
4F
330
4D
100
AcDbEntity
  8
Layer 1
 62
   179
420
  2301728
370
    35
100
AcDbVertex
100
AcDb2dVertex
 10
0.0
 20
-17.98611111111111
 30
0.0
  0
SEQEND
  5
50
330
4D
100
AcDbEntity
  8
Layer 1
 62
   179
420
  2301728
370
    35
  0
SPLINE
  5
51
330
1F
100
AcDbEntity
  8
Layer 1
 62
   179
420
  2301728
370
    35
100
AcDbSpline
210
0.0
220
0.0
230
1.0
 70
    11
 71
     3
 72
    17
 73
    13
 74
     0
 42
0.0000000001
 43
0.0000000001
 12
1.0
 22
0.0
 32
0.0
 13
1.0
 23
0.0
 33
0.0
 40
0.0
 40
0.0
 40
0.0
 40
0.0
 40
1.0
 40
1.0
 40
1.0
 40
2.0
 40
2.0
 40
2.0
 40
3.0
 40
3.0
 40
3.0
 40
4.0
 40
4.0
 40
4.0
 40
4.0
 10
0.1197810244743525
 20
-4.04951019344743
 30
0.0
 10
0.1351559965896993
 20
-4.064885165562777
 30
0.0
 10
0.1351559965896993
 20
-4.089812920638147
 30
0.0
 10
0.1197810244743525
 20
-4.105187892753469
 30
0.0
 10
0.1044060523590562
 20
-4.12056286486879
 30
0.0
 10
0.0794782972836856
 20
-4.12056286486879
 30
0.0
 10
0.0641033251683388
 20
-4.105187892753469
 30
0.0
 10
0.048728353052992
 20
-4.089812920638122
 30
0.0
 10
0.048728353052992
 20
-4.064885165562751
 30
0.0
 10
0.0641033251683388
 20
-4.049510193447405
 30
0.0
 10
0.0794782972836351
 20
-4.034135221332109
 30
0.0
 10
0.1044060523590057
 20
-4.034135221332109
 30
0.0
 10
0.1197810244743525
 20
-4.04951019344743
 30
0.0
  0
SPLINE
  5
52
330
1F
100
AcDbEntity
  8
Layer 1
 62
   179
420
  2301728
370
    35
100
AcDbSpline
210
0.0
220
0.0
230
1.0
 70
    11
 71
     3
 72
    17
 73
    13
 74
     0
 42
0.0000000001
 43
0.0000000001
 12
1.0
 22
0.0
 32
0.0
 13
1.0
 23
0.0
 33
0.0
 40
0.0
 40
0.0
 40
0.0
 40
0.0
 40
1.0
 40
1.0
 40
1.0
 40
2.0
 40
2.0
 40
2.0
 40
3.0
 40
3.0
 40
3.0
 40
4.0
 40
4.0
 40
4.0
 40
4.0
 10
3.946911377483628
 20
-4.04951019344743
 30
0.0
 10
3.962286349598975
 20
-4.064885165562777
 30
0.0
 10
3.962286349598975
 20
-4.089812920638147
 30
0.0
 10
3.946911377483628
 20
-4.105187892753469
 30
0.0
 10
3.931536405368332
 20
-4.12056286486879
 30
0.0
 10
3.906608650292962
 20
-4.12056286486879
 30
0.0
 10
3.891233678177615
 20
-4.105187892753469
 30
0.0
 10
3.875858706062268
 20
-4.089812920638122
 30
0.0
 10
3.875858706062268
 20
-4.064885165562751
 30
0.0
 10
3.891233678177615
 20
-4.049510193447405
 30
0.0
 10
3.906608650292911
 20
-4.034135221332109
 30
0.0
 10
3.931536405368282
 20
-4.034135221332109
 30
0.0
 10
3.946911377483628
 20
-4.04951019344743
 30
0.0
  0
POLYLINE
  5
53
330
1F
100
AcDbEntity
  8
Layer 1
 62
   179
420
  2301728
370
    35
100
AcDb2dPolyline
 66
     1
 10
0.0
 20
0.0
 30
0.0
  0
VERTEX
  5
54
330
53
100
AcDbEntity
  8
Layer 1
 62
   179
420
  2301728
370
    35
100
AcDbVertex
100
AcDb2dVertex
 10
4.0
 20
-3.986111111111111
 30
0.0
  0
VERTEX
  5
55
330
53
100
AcDbEntity
  8
Layer 1
 62
   179
420
  2301728
370
    35
100
AcDbVertex
100
AcDb2dVertex
 10
4.0
 20
-17.98611111111111
 30
0.0
  0
SEQEND
  5
56
330
53
100
AcDbEntity
  8
Layer 1
 62
   179
420
  2301728
370
    35
  0
POLYLINE
  5
57
330
1F
100
AcDbEntity
  8
Layer 1
 62
   179
420
  2301728
370
    35
100
AcDb2dPolyline
 66
     1
 10
0.0
 20
0.0
 30
0.0
  0
VERTEX
  5
58
330
57
100
AcDbEntity
  8
Layer 1
 62
   179
420
  2301728
370
    35
100
AcDbVertex
100
AcDb2dVertex
 10
8.0
 20
-3.986111111111111
 30
0.0
  0
VERTEX
  5
59
330
57
100
AcDbEntity
  8
Layer 1
 62
   179
420
  2301728
370
    35
100
AcDbVertex
100
AcDb2dVertex
 10
8.0
 20
-17.98611111111111
 30
0.0
  0
SEQEND
  5
5A
330
57
100
AcDbEntity
  8
Layer 1
 62
   179
420
  2301728
370
    35
  0
SPLINE
  5
5B
330
1F
100
AcDbEntity
  8
Layer 1
 62
   179
420
  2301728
370
    35
100
AcDbSpline
210
0.0
220
0.0
230
1.0
 70
    11
 71
     3
 72
    17
 73
    13
 74
     0
 42
0.0000000001
 43
0.0000000001
 12
1.0
 22
0.0
 32
0.0
 13
1.0
 23
0.0
 33
0.0
 40
0.0
 40
0.0
 40
0.0
 40
0.0
 40
1.0
 40
1.0
 40
1.0
 40
2.0
 40
2.0
 40
2.0
 40
3.0
 40
3.0
 40
3.0
 40
4.0
 40
4.0
 40
4.0
 40
4.0
 10
4.119781024474352
 20
-4.04951019344743
 30
0.0
 10
4.135155996589699
 20
-4.064885165562777
 30
0.0
 10
4.135155996589699
 20
-4.089812920638147
 30
0.0
 10
4.119781024474352
 20
-4.105187892753469
 30
0.0
 10
4.104406052359056
 20
-4.12056286486879
 30
0.0
 10
4.079478297283686
 20
-4.12056286486879
 30
0.0
 10
4.064103325168339
 20
-4.105187892753469
 30
0.0
 10
4.048728353052992
 20
-4.089812920638122
 30
0.0
 10
4.048728353052992
 20
-4.064885165562751
 30
0.0
 10
4.064103325168339
 20
-4.049510193447405
 30
0.0
 10
4.079478297283635
 20
-4.034135221332109
 30
0.0
 10
4.104406052359005
 20
-4.034135221332109
 30
0.0
 10
4.119781024474352
 20
-4.04951019344743
 30
0.0
  0
SPLINE
  5
5C
330
1F
100
AcDbEntity
  8
Layer 1
 62
   179
420
  2301728
370
    35
100
AcDbSpline
210
0.0
220
0.0
230
1.0
 70
    11
 71
     3
 72
    17
 73
    13
 74
     0
 42
0.0000000001
 43
0.0000000001
 12
1.0
 22
0.0
 32
0.0
 13
1.0
 23
0.0
 33
0.0
 40
0.0
 40
0.0
 40
0.0
 40
0.0
 40
1.0
 40
1.0
 40
1.0
 40
2.0
 40
2.0
 40
2.0
 40
3.0
 40
3.0
 40
3.0
 40
4.0
 40
4.0
 40
4.0
 40
4.0
 10
7.946911377483628
 20
-4.04951019344743
 30
0.0
 10
7.962286349598975
 20
-4.064885165562777
 30
0.0
 10
7.962286349598975
 20
-4.089812920638147
 30
0.0
 10
7.946911377483628
 20
-4.105187892753469
 30
0.0
 10
7.931536405368332
 20
-4.12056286486879
 30
0.0
 10
7.906608650292961
 20
-4.12056286486879
 30
0.0
 10
7.891233678177614
 20
-4.105187892753469
 30
0.0
 10
7.875858706062267
 20
-4.089812920638122
 30
0.0
 10
7.875858706062267
 20
-4.064885165562751
 30
0.0
 10
7.891233678177614
 20
-4.049510193447405
 30
0.0
 10
7.90660865029291
 20
-4.034135221332109
 30
0.0
 10
7.931536405368282
 20
-4.034135221332109
 30
0.0
 10
7.946911377483628
 20
-4.04951019344743
 30
0.0
  0
POLYLINE
  5
5D
330
1F
100
AcDbEntity
  8
Layer 1
 62
   179
420
  2301728
370
    35
100
AcDb2dPolyline
 66
     1
 10
0.0
 20
0.0
 30
0.0
  0
VERTEX
  5
5E
330
5D
100
AcDbEntity
  8
Layer 1
 62
   179
420
  2301728
370
    35
100
AcDbVertex
100
AcDb2dVertex
 10
8.0
 20
-3.986111111111111
 30
0.0
  0
VERTEX
  5
5F
330
5D
100
AcDbEntity
  8
Layer 1
 62
   179
420
  2301728
370
    35
100
AcDbVertex
100
AcDb2dVertex
 10
8.0
 20
-17.98611111111111
 30
0.0
  0
SEQEND
  5
60
330
5D
100
AcDbEntity
  8
Layer 1
 62
   179
420
  2301728
370
    35
  0
POLYLINE
  5
61
330
1F
100
AcDbEntity
  8
Layer 1
 62
   179
420
  2301728
370
    35
100
AcDb2dPolyline
 66
     1
 10
0.0
 20
0.0
 30
0.0
  0
VERTEX
  5
62
330
61
100
AcDbEntity
  8
Layer 1
 62
   179
420
  2301728
370
    35
100
AcDbVertex
100
AcDb2dVertex
 10
12.0
 20
-3.986111111111111
 30
0.0
  0
VERTEX
  5
63
330
61
100
AcDbEntity
  8
Layer 1
 62
   179
420
  2301728
370
    35
100
AcDbVertex
100
AcDb2dVertex
 10
12.0
 20
-17.98611111111111
 30
0.0
  0
SEQEND
  5
64
330
61
100
AcDbEntity
  8
Layer 1
 62
   179
420
  2301728
370
    35
  0
SPLINE
  5
65
330
1F
100
AcDbEntity
  8
Layer 1
 62
   179
420
  2301728
370
    35
100
AcDbSpline
210
0.0
220
0.0
230
1.0
 70
    11
 71
     3
 72
    17
 73
    13
 74
     0
 42
0.0000000001
 43
0.0000000001
 12
1.0
 22
0.0
 32
0.0
 13
1.0
 23
0.0
 33
0.0
 40
0.0
 40
0.0
 40
0.0
 40
0.0
 40
1.0
 40
1.0
 40
1.0
 40
2.0
 40
2.0
 40
2.0
 40
3.0
 40
3.0
 40
3.0
 40
4.0
 40
4.0
 40
4.0
 40
4.0
 10
8.119781024474353
 20
-4.04951019344743
 30
0.0
 10
8.135155996589699
 20
-4.064885165562777
 30
0.0
 10
8.135155996589699
 20
-4.089812920638147
 30
0.0
 10
8.119781024474353
 20
-4.105187892753469
 30
0.0
 10
8.104406052359057
 20
-4.12056286486879
 30
0.0
 10
8.079478297283686
 20
-4.12056286486879
 30
0.0
 10
8.064103325168338
 20
-4.105187892753469
 30
0.0
 10
8.048728353052992
 20
-4.089812920638122
 30
0.0
 10
8.048728353052992
 20
-4.064885165562751
 30
0.0
 10
8.064103325168338
 20
-4.049510193447405
 30
0.0
 10
8.079478297283634
 20
-4.034135221332109
 30
0.0
 10
8.104406052359005
 20
-4.034135221332109
 30
0.0
 10
8.119781024474353
 20
-4.04951019344743
 30
0.0
  0
SPLINE
  5
66
330
1F
100
AcDbEntity
  8
Layer 1
 62
   179
420
  2301728
370
    35
100
AcDbSpline
210
0.0
220
0.0
230
1.0
 70
    11
 71
     3
 72
    17
 73
    13
 74
     0
 42
0.0000000001
 43
0.0000000001
 12
1.0
 22
0.0
 32
0.0
 13
1.0
 23
0.0
 33
0.0
 40
0.0
 40
0.0
 40
0.0
 40
0.0
 40
1.0
 40
1.0
 40
1.0
 40
2.0
 40
2.0
 40
2.0
 40
3.0
 40
3.0
 40
3.0
 40
4.0
 40
4.0
 40
4.0
 40
4.0
 10
11.94691137748363
 20
-4.04951019344743
 30
0.0
 10
11.96228634959897
 20
-4.064885165562777
 30
0.0
 10
11.96228634959897
 20
-4.089812920638147
 30
0.0
 10
11.94691137748363
 20
-4.105187892753469
 30
0.0
 10
11.93153640536833
 20
-4.12056286486879
 30
0.0
 10
11.90660865029296
 20
-4.12056286486879
 30
0.0
 10
11.89123367817762
 20
-4.105187892753469
 30
0.0
 10
11.87585870606227
 20
-4.089812920638122
 30
0.0
 10
11.87585870606227
 20
-4.064885165562751
 30
0.0
 10
11.89123367817762
 20
-4.049510193447405
 30
0.0
 10
11.90660865029291
 20
-4.034135221332109
 30
0.0
 10
11.93153640536828
 20
-4.034135221332109
 30
0.0
 10
11.94691137748363
 20
-4.04951019344743
 30
0.0
  0
POLYLINE
  5
67
330
1F
100
AcDbEntity
  8
Layer 1
 62
   179
420
  2301728
370
    35
100
AcDb2dPolyline
 66
     1
 10
0.0
 20
0.0
 30
0.0
  0
VERTEX
  5
68
330
67
100
AcDbEntity
  8
Layer 1
 62
   179
420
  2301728
370
    35
100
AcDbVertex
100
AcDb2dVertex
 10
12.0
 20
-3.986111111111111
 30
0.0
  0
VERTEX
  5
69
330
67
100
AcDbEntity
  8
Layer 1
 62
   179
420
  2301728
370
    35
100
AcDbVertex
100
AcDb2dVertex
 10
12.0
 20
-17.98611111111111
 30
0.0
  0
SEQEND
  5
6A
330
67
100
AcDbEntity
  8
Layer 1
 62
   179
420
  2301728
370
    35
  0
POLYLINE
  5
6B
330
1F
100
AcDbEntity
  8
Layer 1
 62
   179
420
  2301728
370
    35
100
AcDb2dPolyline
 66
     1
 10
0.0
 20
0.0
 30
0.0
  0
VERTEX
  5
6C
330
6B
100
AcDbEntity
  8
Layer 1
 62
   179
420
  2301728
370
    35
100
AcDbVertex
100
AcDb2dVertex
 10
16.0
 20
-3.986111111111111
 30
0.0
  0
VERTEX
  5
6D
330
6B
100
AcDbEntity
  8
Layer 1
 62
   179
420
  2301728
370
    35
100
AcDbVertex
100
AcDb2dVertex
 10
16.0
 20
-17.98611111111111
 30
0.0
  0
SEQEND
  5
6E
330
6B
100
AcDbEntity
  8
Layer 1
 62
   179
420
  2301728
370
    35
  0
SPLINE
  5
6F
330
1F
100
AcDbEntity
  8
Layer 1
 62
   179
420
  2301728
370
    35
100
AcDbSpline
210
0.0
220
0.0
230
1.0
 70
    11
 71
     3
 72
    17
 73
    13
 74
     0
 42
0.0000000001
 43
0.0000000001
 12
1.0
 22
0.0
 32
0.0
 13
1.0
 23
0.0
 33
0.0
 40
0.0
 40
0.0
 40
0.0
 40
0.0
 40
1.0
 40
1.0
 40
1.0
 40
2.0
 40
2.0
 40
2.0
 40
3.0
 40
3.0
 40
3.0
 40
4.0
 40
4.0
 40
4.0
 40
4.0
 10
12.11978102447435
 20
-4.04951019344743
 30
0.0
 10
12.1351559965897
 20
-4.064885165562777
 30
0.0
 10
12.1351559965897
 20
-4.089812920638147
 30
0.0
 10
12.11978102447435
 20
-4.105187892753469
 30
0.0
 10
12.10440605235905
 20
-4.12056286486879
 30
0.0
 10
12.07947829728369
 20
-4.12056286486879
 30
0.0
 10
12.06410332516834
 20
-4.105187892753469
 30
0.0
 10
12.04872835305299
 20
-4.089812920638122
 30
0.0
 10
12.04872835305299
 20
-4.064885165562751
 30
0.0
 10
12.06410332516834
 20
-4.049510193447405
 30
0.0
 10
12.07947829728363
 20
-4.034135221332109
 30
0.0
 10
12.10440605235901
 20
-4.034135221332109
 30
0.0
 10
12.11978102447435
 20
-4.04951019344743
 30
0.0
  0
SPLINE
  5
70
330
1F
100
AcDbEntity
  8
Layer 1
 62
   179
420
  2301728
370
    35
100
AcDbSpline
210
0.0
220
0.0
230
1.0
 70
    11
 71
     3
 72
    17
 73
    13
 74
     0
 42
0.0000000001
 43
0.0000000001
 12
1.0
 22
0.0
 32
0.0
 13
1.0
 23
0.0
 33
0.0
 40
0.0
 40
0.0
 40
0.0
 40
0.0
 40
1.0
 40
1.0
 40
1.0
 40
2.0
 40
2.0
 40
2.0
 40
3.0
 40
3.0
 40
3.0
 40
4.0
 40
4.0
 40
4.0
 40
4.0
 10
15.94691137748363
 20
-4.04951019344743
 30
0.0
 10
15.96228634959897
 20
-4.064885165562777
 30
0.0
 10
15.96228634959897
 20
-4.089812920638147
 30
0.0
 10
15.94691137748363
 20
-4.105187892753469
 30
0.0
 10
15.93153640536833
 20
-4.12056286486879
 30
0.0
 10
15.90660865029296
 20
-4.12056286486879
 30
0.0
 10
15.89123367817761
 20
-4.105187892753469
 30
0.0
 10
15.87585870606227
 20
-4.089812920638122
 30
0.0
 10
15.87585870606227
 20
-4.064885165562751
 30
0.0
 10
15.89123367817761
 20
-4.049510193447405
 30
0.0
 10
15.90660865029291
 20
-4.034135221332109
 30
0.0
 10
15.93153640536828
 20
-4.034135221332109
 30
0.0
 10
15.94691137748363
 20
-4.04951019344743
 30
0.0
  0
POLYLINE
  5
71
330
1F
100
AcDbEntity
  8
Layer 1
 62
   179
420
  2301728
370
    35
100
AcDb2dPolyline
 66
     1
 10
0.0
 20
0.0
 30
0.0
  0
VERTEX
  5
72
330
71
100
AcDbEntity
  8
Layer 1
 62
   179
420
  2301728
370
    35
100
AcDbVertex
100
AcDb2dVertex
 10
16.0
 20
-3.986111111111111
 30
0.0
  0
VERTEX
  5
73
330
71
100
AcDbEntity
  8
Layer 1
 62
   179
420
  2301728
370
    35
100
AcDbVertex
100
AcDb2dVertex
 10
16.0
 20
-17.98611111111111
 30
0.0
  0
SEQEND
  5
74
330
71
100
AcDbEntity
  8
Layer 1
 62
   179
420
  2301728
370
    35
  0
POLYLINE
  5
75
330
1F
100
AcDbEntity
  8
Layer 1
 62
   179
420
  2301728
370
    35
100
AcDb2dPolyline
 66
     1
 10
0.0
 20
0.0
 30
0.0
  0
VERTEX
  5
76
330
75
100
AcDbEntity
  8
Layer 1
 62
   179
420
  2301728
370
    35
100
AcDbVertex
100
AcDb2dVertex
 10
20.0
 20
-3.986111111111111
 30
0.0
  0
VERTEX
  5
77
330
75
100
AcDbEntity
  8
Layer 1
 62
   179
420
  2301728
370
    35
100
AcDbVertex
100
AcDb2dVertex
 10
20.0
 20
-17.98611111111111
 30
0.0
  0
SEQEND
  5
78
330
75
100
AcDbEntity
  8
Layer 1
 62
   179
420
  2301728
370
    35
  0
SPLINE
  5
79
330
1F
100
AcDbEntity
  8
Layer 1
 62
   179
420
  2301728
370
    35
100
AcDbSpline
210
0.0
220
0.0
230
1.0
 70
    11
 71
     3
 72
    17
 73
    13
 74
     0
 42
0.0000000001
 43
0.0000000001
 12
1.0
 22
0.0
 32
0.0
 13
1.0
 23
0.0
 33
0.0
 40
0.0
 40
0.0
 40
0.0
 40
0.0
 40
1.0
 40
1.0
 40
1.0
 40
2.0
 40
2.0
 40
2.0
 40
3.0
 40
3.0
 40
3.0
 40
4.0
 40
4.0
 40
4.0
 40
4.0
 10
16.11978102447435
 20
-4.04951019344743
 30
0.0
 10
16.1351559965897
 20
-4.064885165562777
 30
0.0
 10
16.1351559965897
 20
-4.089812920638147
 30
0.0
 10
16.11978102447435
 20
-4.105187892753469
 30
0.0
 10
16.10440605235906
 20
-4.12056286486879
 30
0.0
 10
16.07947829728369
 20
-4.12056286486879
 30
0.0
 10
16.06410332516834
 20
-4.105187892753469
 30
0.0
 10
16.04872835305299
 20
-4.089812920638122
 30
0.0
 10
16.04872835305299
 20
-4.064885165562751
 30
0.0
 10
16.06410332516834
 20
-4.049510193447405
 30
0.0
 10
16.07947829728364
 20
-4.034135221332109
 30
0.0
 10
16.104406052359
 20
-4.034135221332109
 30
0.0
 10
16.11978102447435
 20
-4.04951019344743
 30
0.0
  0
SPLINE
  5
7A
330
1F
100
AcDbEntity
  8
Layer 1
 62
   179
420
  2301728
370
    35
100
AcDbSpline
210
0.0
220
0.0
230
1.0
 70
    11
 71
     3
 72
    17
 73
    13
 74
     0
 42
0.0000000001
 43
0.0000000001
 12
1.0
 22
0.0
 32
0.0
 13
1.0
 23
0.0
 33
0.0
 40
0.0
 40
0.0
 40
0.0
 40
0.0
 40
1.0
 40
1.0
 40
1.0
 40
2.0
 40
2.0
 40
2.0
 40
3.0
 40
3.0
 40
3.0
 40
4.0
 40
4.0
 40
4.0
 40
4.0
 10
19.94691137748363
 20
-4.04951019344743
 30
0.0
 10
19.96228634959897
 20
-4.064885165562777
 30
0.0
 10
19.96228634959897
 20
-4.089812920638147
 30
0.0
 10
19.94691137748363
 20
-4.105187892753469
 30
0.0
 10
19.93153640536833
 20
-4.12056286486879
 30
0.0
 10
19.90660865029296
 20
-4.12056286486879
 30
0.0
 10
19.89123367817761
 20
-4.105187892753469
 30
0.0
 10
19.87585870606227
 20
-4.089812920638122
 30
0.0
 10
19.87585870606227
 20
-4.064885165562751
 30
0.0
 10
19.89123367817761
 20
-4.049510193447405
 30
0.0
 10
19.90660865029291
 20
-4.034135221332109
 30
0.0
 10
19.93153640536828
 20
-4.034135221332109
 30
0.0
 10
19.94691137748363
 20
-4.04951019344743
 30
0.0
  0
POLYLINE
  5
7B
330
1F
100
AcDbEntity
  8
Layer 1
 62
   179
420
  2301728
370
    35
100
AcDb2dPolyline
 66
     1
 10
0.0
 20
0.0
 30
0.0
  0
VERTEX
  5
7C
330
7B
100
AcDbEntity
  8
Layer 1
 62
   179
420
  2301728
370
    35
100
AcDbVertex
100
AcDb2dVertex
 10
20.0
 20
-3.986111111111111
 30
0.0
  0
VERTEX
  5
7D
330
7B
100
AcDbEntity
  8
Layer 1
 62
   179
420
  2301728
370
    35
100
AcDbVertex
100
AcDb2dVertex
 10
20.0
 20
-17.98611111111111
 30
0.0
  0
SEQEND
  5
7E
330
7B
100
AcDbEntity
  8
Layer 1
 62
   179
420
  2301728
370
    35
  0
POLYLINE
  5
7F
330
1F
100
AcDbEntity
  8
Layer 1
 62
   179
420
  2301728
370
    35
100
AcDb2dPolyline
 66
     1
 10
0.0
 20
0.0
 30
0.0
  0
VERTEX
  5
80
330
7F
100
AcDbEntity
  8
Layer 1
 62
   179
420
  2301728
370
    35
100
AcDbVertex
100
AcDb2dVertex
 10
24.0
 20
-3.986111111111111
 30
0.0
  0
VERTEX
  5
81
330
7F
100
AcDbEntity
  8
Layer 1
 62
   179
420
  2301728
370
    35
100
AcDbVertex
100
AcDb2dVertex
 10
24.0
 20
-17.98611111111111
 30
0.0
  0
SEQEND
  5
82
330
7F
100
AcDbEntity
  8
Layer 1
 62
   179
420
  2301728
370
    35
  0
SPLINE
  5
83
330
1F
100
AcDbEntity
  8
Layer 1
 62
   179
420
  2301728
370
    35
100
AcDbSpline
210
0.0
220
0.0
230
1.0
 70
    11
 71
     3
 72
    17
 73
    13
 74
     0
 42
0.0000000001
 43
0.0000000001
 12
1.0
 22
0.0
 32
0.0
 13
1.0
 23
0.0
 33
0.0
 40
0.0
 40
0.0
 40
0.0
 40
0.0
 40
1.0
 40
1.0
 40
1.0
 40
2.0
 40
2.0
 40
2.0
 40
3.0
 40
3.0
 40
3.0
 40
4.0
 40
4.0
 40
4.0
 40
4.0
 10
20.11978102447435
 20
-4.04951019344743
 30
0.0
 10
20.1351559965897
 20
-4.064885165562777
 30
0.0
 10
20.1351559965897
 20
-4.089812920638147
 30
0.0
 10
20.11978102447435
 20
-4.105187892753469
 30
0.0
 10
20.10440605235906
 20
-4.12056286486879
 30
0.0
 10
20.07947829728369
 20
-4.12056286486879
 30
0.0
 10
20.06410332516834
 20
-4.105187892753469
 30
0.0
 10
20.04872835305299
 20
-4.089812920638122
 30
0.0
 10
20.04872835305299
 20
-4.064885165562751
 30
0.0
 10
20.06410332516834
 20
-4.049510193447405
 30
0.0
 10
20.07947829728363
 20
-4.034135221332109
 30
0.0
 10
20.104406052359
 20
-4.034135221332109
 30
0.0
 10
20.11978102447435
 20
-4.04951019344743
 30
0.0
  0
SPLINE
  5
84
330
1F
100
AcDbEntity
  8
Layer 1
 62
   179
420
  2301728
370
    35
100
AcDbSpline
210
0.0
220
0.0
230
1.0
 70
    11
 71
     3
 72
    17
 73
    13
 74
     0
 42
0.0000000001
 43
0.0000000001
 12
1.0
 22
0.0
 32
0.0
 13
1.0
 23
0.0
 33
0.0
 40
0.0
 40
0.0
 40
0.0
 40
0.0
 40
1.0
 40
1.0
 40
1.0
 40
2.0
 40
2.0
 40
2.0
 40
3.0
 40
3.0
 40
3.0
 40
4.0
 40
4.0
 40
4.0
 40
4.0
 10
23.94691137748363
 20
-4.04951019344743
 30
0.0
 10
23.96228634959897
 20
-4.064885165562777
 30
0.0
 10
23.96228634959897
 20
-4.089812920638147
 30
0.0
 10
23.94691137748363
 20
-4.105187892753469
 30
0.0
 10
23.93153640536833
 20
-4.12056286486879
 30
0.0
 10
23.90660865029296
 20
-4.12056286486879
 30
0.0
 10
23.89123367817761
 20
-4.105187892753469
 30
0.0
 10
23.87585870606227
 20
-4.089812920638122
 30
0.0
 10
23.87585870606227
 20
-4.064885165562751
 30
0.0
 10
23.89123367817761
 20
-4.049510193447405
 30
0.0
 10
23.90660865029291
 20
-4.034135221332109
 30
0.0
 10
23.93153640536828
 20
-4.034135221332109
 30
0.0
 10
23.94691137748363
 20
-4.04951019344743
 30
0.0
  0
INSERT
  5
86
330
1F
100
AcDbEntity
  8
Layer 1
100
AcDbBlockReference
  2
block 2
 10
0.0
 20
0.0
 30
0.0
  0
SPLINE
  5
B9
330
1F
100
AcDbEntity
  8
Layer 1
 62
   179
420
  2301728
370
    35
100
AcDbSpline
210
0.0
220
0.0
230
1.0
 70
    11
 71
     3
 72
    17
 73
    13
 74
     0
 42
0.0000000001
 43
0.0000000001
 12
1.0
 22
0.0
 32
0.0
 13
1.0
 23
0.0
 33
0.0
 40
0.0
 40
0.0
 40
0.0
 40
0.0
 40
1.0
 40
1.0
 40
1.0
 40
2.0
 40
2.0
 40
2.0
 40
3.0
 40
3.0
 40
3.0
 40
4.0
 40
4.0
 40
4.0
 40
4.0
 10
23.6361519362795
 20
-3.701926281405399
 30
0.0
 10
23.62077696416347
 20
-3.717301253520064
 30
0.0
 10
23.62077696416231
 20
-3.742229008595435
 30
0.0
 10
23.636151936277
 20
-3.757603980711438
 30
0.0
 10
23.65152690839159
 20
-3.772978952827467
 30
0.0
 10
23.67645466346701
 20
-3.772978952828554
 30
0.0
 10
23.69182963558299
 20
-3.757603980713939
 30
0.0
 10
23.70720460769902
 20
-3.742229008599249
 30
0.0
 10
23.70720460770013
 20
-3.717301253523904
 30
0.0
 10
23.69182963558549
 20
-3.701926281407875
 30
0.0
 10
23.67645466347087
 20
-3.686551309291897
 30
0.0
 10
23.6515269083955
 20
-3.686551309290735
 30
0.0
 10
23.6361519362795
 20
-3.701926281405399
 30
0.0
  0
SPLINE
  5
BA
330
1F
100
AcDbEntity
  8
Layer 1
 62
   179
420
  2301728
370
    35
100
AcDbSpline
210
0.0
220
0.0
230
1.0
 70
    11
 71
     3
 72
    17
 73
    13
 74
     0
 42
0.0000000001
 43
0.0000000001
 12
1.0
 22
0.0
 32
0.0
 13
1.0
 23
0.0
 33
0.0
 40
0.0
 40
0.0
 40
0.0
 40
0.0
 40
1.0
 40
1.0
 40
1.0
 40
2.0
 40
2.0
 40
2.0
 40
3.0
 40
3.0
 40
3.0
 40
4.0
 40
4.0
 40
4.0
 40
4.0
 10
23.74726304739056
 20
-3.701926281410376
 30
0.0
 10
23.7318880752745
 20
-3.717301253525016
 30
0.0
 10
23.73188807527345
 20
-3.742229008600437
 30
0.0
 10
23.74726304738808
 20
-3.757603980716415
 30
0.0
 10
23.76263801950267
 20
-3.772978952832444
 30
0.0
 10
23.78756577457802
 20
-3.77297895283353
 30
0.0
 10
23.80294074669412
 20
-3.757603980718942
 30
0.0
 10
23.81831571881013
 20
-3.742229008604277
 30
0.0
 10
23.81831571881126
 20
-3.717301253528932
 30
0.0
 10
23.8029407466966
 20
-3.701926281412877
 30
0.0
 10
23.78756577458201
 20
-3.686551309296899
 30
0.0
 10
23.76263801950661
 20
-3.686551309295762
 30
0.0
 10
23.74726304739056
 20
-3.701926281410376
 30
0.0
  0
SPLINE
  5
BB
330
1F
100
AcDbEntity
  8
Layer 1
 62
   179
420
  2301728
370
    35
100
AcDbSpline
210
0.0
220
0.0
230
1.0
 70
    11
 71
     3
 72
    17
 73
    13
 74
     0
 42
0.0000000001
 43
0.0000000001
 12
1.0
 22
0.0
 32
0.0
 13
1.0
 23
0.0
 33
0.0
 40
0.0
 40
0.0
 40
0.0
 40
0.0
 40
1.0
 40
1.0
 40
1.0
 40
2.0
 40
2.0
 40
2.0
 40
3.0
 40
3.0
 40
3.0
 40
4.0
 40
4.0
 40
4.0
 40
4.0
 10
23.6361519362795
 20
-0.1880373925165107
 30
0.0
 10
23.62077696416347
 20
-0.2034123646311754
 30
0.0
 10
23.62077696416231
 20
-0.228340119706546
 30
0.0
 10
23.636151936277
 20
-0.2437150918225497
 30
0.0
 10
23.65152690839159
 20
-0.2590900639385786
 30
0.0
 10
23.67645466346701
 20
-0.2590900639396649
 30
0.0
 10
23.69182963558299
 20
-0.2437150918250508
 30
0.0
 10
23.70720460769902
 20
-0.2283401197103608
 30
0.0
 10
23.70720460770013
 20
-0.2034123646350154
 30
0.0
 10
23.69182963558549
 20
-0.1880373925189865
 30
0.0
 10
23.67645466347087
 20
-0.1726624204030082
 30
0.0
 10
23.6515269083955
 20
-0.172662420401846
 30
0.0
 10
23.6361519362795
 20
-0.1880373925165107
 30
0.0
  0
SPLINE
  5
BC
330
1F
100
AcDbEntity
  8
Layer 1
 62
   179
420
  2301728
370
    35
100
AcDbSpline
210
0.0
220
0.0
230
1.0
 70
    11
 71
     3
 72
    17
 73
    13
 74
     0
 42
0.0000000001
 43
0.0000000001
 12
1.0
 22
0.0
 32
0.0
 13
1.0
 23
0.0
 33
0.0
 40
0.0
 40
0.0
 40
0.0
 40
0.0
 40
1.0
 40
1.0
 40
1.0
 40
2.0
 40
2.0
 40
2.0
 40
3.0
 40
3.0
 40
3.0
 40
4.0
 40
4.0
 40
4.0
 40
4.0
 10
23.74726304739056
 20
-0.1880373925214877
 30
0.0
 10
23.7318880752745
 20
-0.2034123646361271
 30
0.0
 10
23.73188807527345
 20
-0.2283401197115482
 30
0.0
 10
23.74726304738808
 20
-0.2437150918275266
 30
0.0
 10
23.76263801950267
 20
-0.2590900639435555
 30
0.0
 10
23.78756577457802
 20
-0.2590900639446418
 30
0.0
 10
23.80294074669412
 20
-0.243715091830053
 30
0.0
 10
23.81831571881013
 20
-0.2283401197153883
 30
0.0
 10
23.81831571881126
 20
-0.2034123646400429
 30
0.0
 10
23.8029407466966
 20
-0.1880373925239888
 30
0.0
 10
23.78756577458201
 20
-0.1726624204080104
 30
0.0
 10
23.76263801950661
 20
-0.1726624204068735
 30
0.0
 10
23.74726304739056
 20
-0.1880373925214877
 30
0.0
  0
SPLINE
  5
BD
330
1F
100
AcDbEntity
  8
Layer 1
 62
   179
420
  2301728
370
    35
100
AcDbSpline
210
0.0
220
0.0
230
1.0
 70
    11
 71
     3
 72
    17
 73
    13
 74
     0
 42
0.0000000001
 43
0.0000000001
 12
1.0
 22
0.0
 32
0.0
 13
1.0
 23
0.0
 33
0.0
 40
0.0
 40
0.0
 40
0.0
 40
0.0
 40
1.0
 40
1.0
 40
1.0
 40
2.0
 40
2.0
 40
2.0
 40
3.0
 40
3.0
 40
3.0
 40
4.0
 40
4.0
 40
4.0
 40
4.0
 10
0.1986519362795005
 20
-3.701926281405399
 30
0.0
 10
0.1832769641634715
 20
-3.717301253520064
 30
0.0
 10
0.1832769641623094
 20
-3.742229008595435
 30
0.0
 10
0.1986519362769993
 20
-3.757603980711438
 30
0.0
 10
0.2140269083915882
 20
-3.772978952827467
 30
0.0
 10
0.2389546634670094
 20
-3.772978952828554
 30
0.0
 10
0.2543296355829878
 20
-3.757603980713939
 30
0.0
 10
0.2697046076990167
 20
-3.742229008599249
 30
0.0
 10
0.2697046077001283
 20
-3.717301253523904
 30
0.0
 10
0.2543296355854889
 20
-3.701926281407875
 30
0.0
 10
0.2389546634708747
 20
-3.686551309291897
 30
0.0
 10
0.2140269083955041
 20
-3.686551309290735
 30
0.0
 10
0.1986519362795005
 20
-3.701926281405399
 30
0.0
  0
SPLINE
  5
BE
330
1F
100
AcDbEntity
  8
Layer 1
 62
   179
420
  2301728
370
    35
100
AcDbSpline
210
0.0
220
0.0
230
1.0
 70
    11
 71
     3
 72
    17
 73
    13
 74
     0
 42
0.0000000001
 43
0.0000000001
 12
1.0
 22
0.0
 32
0.0
 13
1.0
 23
0.0
 33
0.0
 40
0.0
 40
0.0
 40
0.0
 40
0.0
 40
1.0
 40
1.0
 40
1.0
 40
2.0
 40
2.0
 40
2.0
 40
3.0
 40
3.0
 40
3.0
 40
4.0
 40
4.0
 40
4.0
 40
4.0
 10
0.309763047390561
 20
-3.701926281410376
 30
0.0
 10
0.2943880752745068
 20
-3.717301253525016
 30
0.0
 10
0.2943880752734458
 20
-3.742229008600437
 30
0.0
 10
0.3097630473880852
 20
-3.757603980716415
 30
0.0
 10
0.3251380195026741
 20
-3.772978952832444
 30
0.0
 10
0.3500657745780194
 20
-3.77297895283353
 30
0.0
 10
0.3654407466941241
 20
-3.757603980718942
 30
0.0
 10
0.3808157188101278
 20
-3.742229008604277
 30
0.0
 10
0.3808157188112646
 20
-3.717301253528932
 30
0.0
 10
0.3654407466966
 20
-3.701926281412877
 30
0.0
 10
0.3500657745820111
 20
-3.686551309296899
 30
0.0
 10
0.3251380195066152
 20
-3.686551309295762
 30
0.0
 10
0.309763047390561
 20
-3.701926281410376
 30
0.0
  0
SPLINE
  5
BF
330
1F
100
AcDbEntity
  8
Layer 1
 62
   179
420
  2301728
370
    35
100
AcDbSpline
210
0.0
220
0.0
230
1.0
 70
    11
 71
     3
 72
    17
 73
    13
 74
     0
 42
0.0000000001
 43
0.0000000001
 12
1.0
 22
0.0
 32
0.0
 13
1.0
 23
0.0
 33
0.0
 40
0.0
 40
0.0
 40
0.0
 40
0.0
 40
1.0
 40
1.0
 40
1.0
 40
2.0
 40
2.0
 40
2.0
 40
3.0
 40
3.0
 40
3.0
 40
4.0
 40
4.0
 40
4.0
 40
4.0
 10
0.1986519362795005
 20
-0.1880373925165107
 30
0.0
 10
0.1832769641634715
 20
-0.2034123646311754
 30
0.0
 10
0.1832769641623094
 20
-0.228340119706546
 30
0.0
 10
0.1986519362769993
 20
-0.2437150918225497
 30
0.0
 10
0.2140269083915882
 20
-0.2590900639385786
 30
0.0
 10
0.2389546634670094
 20
-0.2590900639396649
 30
0.0
 10
0.2543296355829878
 20
-0.2437150918250508
 30
0.0
 10
0.2697046076990167
 20
-0.2283401197103608
 30
0.0
 10
0.2697046077001283
 20
-0.2034123646350154
 30
0.0
 10
0.2543296355854889
 20
-0.1880373925189865
 30
0.0
 10
0.2389546634708747
 20
-0.1726624204030082
 30
0.0
 10
0.2140269083955041
 20
-0.172662420401846
 30
0.0
 10
0.1986519362795005
 20
-0.1880373925165107
 30
0.0
  0
SPLINE
  5
C0
330
1F
100
AcDbEntity
  8
Layer 1
 62
   179
420
  2301728
370
    35
100
AcDbSpline
210
0.0
220
0.0
230
1.0
 70
    11
 71
     3
 72
    17
 73
    13
 74
     0
 42
0.0000000001
 43
0.0000000001
 12
1.0
 22
0.0
 32
0.0
 13
1.0
 23
0.0
 33
0.0
 40
0.0
 40
0.0
 40
0.0
 40
0.0
 40
1.0
 40
1.0
 40
1.0
 40
2.0
 40
2.0
 40
2.0
 40
3.0
 40
3.0
 40
3.0
 40
4.0
 40
4.0
 40
4.0
 40
4.0
 10
0.309763047390561
 20
-0.1880373925214877
 30
0.0
 10
0.2943880752745068
 20
-0.2034123646361271
 30
0.0
 10
0.2943880752734458
 20
-0.2283401197115482
 30
0.0
 10
0.3097630473880852
 20
-0.2437150918275266
 30
0.0
 10
0.3251380195026741
 20
-0.2590900639435555
 30
0.0
 10
0.3500657745780194
 20
-0.2590900639446418
 30
0.0
 10
0.3654407466941241
 20
-0.243715091830053
 30
0.0
 10
0.3808157188101278
 20
-0.2283401197153883
 30
0.0
 10
0.3808157188112646
 20
-0.2034123646400429
 30
0.0
 10
0.3654407466966
 20
-0.1880373925239888
 30
0.0
 10
0.3500657745820111
 20
-0.1726624204080104
 30
0.0
 10
0.3251380195066152
 20
-0.1726624204068735
 30
0.0
 10
0.309763047390561
 20
-0.1880373925214877
 30
0.0
  0
ENDSEC
  0
SECTION
  2
OBJECTS
  0
DICTIONARY
  5
C
330
0
100
AcDbDictionary
281
     1
  3
ACAD_GROUP
350
D
  3
ACAD_LAYOUT
350
1A
  3
ACAD_MATERIAL
350
3B
  3
ACAD_MLEADERSTYLE
350
C2
  3
ACAD_MLINESTYLE
350
17
  3
ACAD_PLOTSETTINGS
350
19
  3
ACAD_PLOTSTYLENAME
350
E
  3
ACAD_TABLESTYLE
350
C1
  3
ACAD_VISUALSTYLE
350
2A
  0
SUN
  5
3F
330
29
100
AcDbSun
 90
        1
290
     0
 63
     7
421
 16777215
 40
1.0
291
     1
 91
  2455826
 92
 54000000
292
     0
 70
     2
 71
   256
280
     1
  0
DICTIONARY
  5
D
102
{ACAD_REACTORS
330
C
102
}
330
C
100
AcDbDictionary
281
     1
  0
DICTIONARY
  5
1A
102
{ACAD_REACTORS
330
C
102
}
330
C
100
AcDbDictionary
281
     1
  3
Layout1
350
1E
  3
Layout2
350
26
  3
Model
350
22
  0
DICTIONARY
  5
3B
102
{ACAD_REACTORS
330
C
102
}
330
C
100
AcDbDictionary
281
     1
  3
ByBlock
350
3D
  3
ByLayer
350
3C
  3
Global
350
3E
  0
DICTIONARY
  5
C2
102
{ACAD_REACTORS
330
C
102
}
330
C
100
AcDbDictionary
281
     1
  0
DICTIONARY
  5
17
102
{ACAD_REACTORS
330
C
102
}
330
C
100
AcDbDictionary
281
     1
  3
Standard
350
18
  0
DICTIONARY
  5
19
102
{ACAD_REACTORS
330
C
102
}
330
C
100
AcDbDictionary
281
     1
  0
ACDBDICTIONARYWDFLT
  5
E
102
{ACAD_REACTORS
330
C
102
}
330
C
100
AcDbDictionary
281
     1
  3
Normal
350
F
100
AcDbDictionaryWithDefault
340
F
  0
DICTIONARY
  5
C1
102
{ACAD_REACTORS
330
C
102
}
330
C
100
AcDbDictionary
281
     1
  0
DICTIONARY
  5
2A
102
{ACAD_REACTORS
330
C
102
}
330
C
100
AcDbDictionary
281
     1
  3
2dWireframe
350
2F
  3
3D Hidden
350
31
  3
3dWireframe
350
30
  3
Basic
350
32
  3
Brighten
350
36
  3
ColorChange
350
3A
  3
Conceptual
350
34
  3
Dim
350
35
  3
Facepattern
350
39
  3
Flat
350
2B
  3
FlatWithEdges
350
2C
  3
Gouraud
350
2D
  3
GouraudWithEdges
350
2E
  3
Linepattern
350
38
  3
Realistic
350
33
  3
Thicken
350
37
  0
LAYOUT
  5
1E
102
{ACAD_REACTORS
330
1A
102
}
330
1A
100
AcDbPlotSettings
  1

  2
none_device
  4

  6

 40
0.0
 41
0.0
 42
0.0
 43
0.0
 44
0.0
 45
0.0
 46
0.0
 47
0.0
 48
0.0
 49
0.0
140
0.0
141
0.0
142
1.0
143
1.0
 70
   688
 72
     0
 73
     0
 74
     5
  7

 75
    16
 76
     0
 77
     2
 78
   300
147
1.0
148
0.0
149
0.0
100
AcDbLayout
  1
Layout1
 70
     1
 71
     1
 10
0.0
 20
0.0
 11
12.0
 21
9.0
 12
0.0
 22
0.0
 32
0.0
 14
1.000000000000000E+20
 24
1.000000000000000E+20
 34
1.000000000000000E+20
 15
-1.000000000000000E+20
 25
-1.000000000000000E+20
 35
-1.000000000000000E+20
146
0.0
 13
0.0
 23
0.0
 33
0.0
 16
1.0
 26
0.0
 36
0.0
 17
0.0
 27
1.0
 37
0.0
 76
     0
330
1B
  0
LAYOUT
  5
26
102
{ACAD_REACTORS
330
1A
102
}
330
1A
100
AcDbPlotSettings
  1

  2
none_device
  4

  6

 40
0.0
 41
0.0
 42
0.0
 43
0.0
 44
0.0
 45
0.0
 46
0.0
 47
0.0
 48
0.0
 49
0.0
140
0.0
141
0.0
142
1.0
143
1.0
 70
   688
 72
     0
 73
     0
 74
     5
  7

 75
    16
 76
     0
 77
     2
 78
   300
147
1.0
148
0.0
149
0.0
100
AcDbLayout
  1
Layout2
 70
     1
 71
     2
 10
0.0
 20
0.0
 11
0.0
 21
0.0
 12
0.0
 22
0.0
 32
0.0
 14
0.0
 24
0.0
 34
0.0
 15
0.0
 25
0.0
 35
0.0
146
0.0
 13
0.0
 23
0.0
 33
0.0
 16
1.0
 26
0.0
 36
0.0
 17
0.0
 27
1.0
 37
0.0
 76
     0
330
23
  0
LAYOUT
  5
22
102
{ACAD_REACTORS
330
1A
102
}
330
1A
100
AcDbPlotSettings
  1

  2
none_device
  4

  6

 40
0.0
 41
0.0
 42
0.0
 43
0.0
 44
0.0
 45
0.0
 46
0.0
 47
0.0
 48
0.0
 49
0.0
140
0.0
141
0.0
142
1.0
143
1.0
 70
  1712
 72
     0
 73
     0
 74
     0
  7

 75
     0
 76
     0
 77
     2
 78
   300
147
1.0
148
0.0
149
0.0
100
AcDbLayout
  1
Model
 70
     1
 71
     0
 10
0.0
 20
0.0
 11
12.0
 21
9.0
 12
0.0
 22
0.0
 32
0.0
 14
1.000000000000000E+20
 24
1.000000000000000E+20
 34
1.000000000000000E+20
 15
-1.000000000000000E+20
 25
-1.000000000000000E+20
 35
-1.000000000000000E+20
146
0.0
 13
0.0
 23
0.0
 33
0.0
 16
1.0
 26
0.0
 36
0.0
 17
0.0
 27
1.0
 37
0.0
 76
     0
330
1F
331
29
  0
MATERIAL
  5
3D
102
{ACAD_REACTORS
330
3B
102
}
330
3B
100
AcDbMaterial
  1
ByBlock
 72
     1
 94
      127
  0
MATERIAL
  5
3C
102
{ACAD_REACTORS
330
3B
102
}
330
3B
100
AcDbMaterial
  1
ByLayer
 72
     1
 94
      127
  0
MATERIAL
  5
3E
102
{ACAD_REACTORS
330
3B
102
}
330
3B
100
AcDbMaterial
  1
Global
 72
     1
 94
      127
  0
MLINESTYLE
  5
18
102
{ACAD_REACTORS
330
17
102
}
330
17
100
AcDbMlineStyle
  2
Standard
 70
     0
  3

 62
   256
 51
90.0
 52
90.0
 71
     2
 49
0.5
 62
   256
  6
BYLAYER
 49
-0.5
 62
   256
  6
BYLAYER
  0
ACDBPLACEHOLDER
  5
F
102
{ACAD_REACTORS
330
E
102
}
330
E
  0
VISUALSTYLE
  5
2F
102
{ACAD_REACTORS
330
2A
102
}
330
2A
100
AcDbVisualStyle
  2
2dWireframe
 70
     4
177
     2
291
     0
 71
     0
176
     1
 72
     2
176
     1
 73
     0
176
     1
 90
        0
176
     1
 40
-0.6
176
     1
 41
-30.0
176
     1
 62
     5
 63
     7
421
 16777215
176
     1
 74
     1
176
     1
 91
        4
176
     1
 64
     7
176
     1
 65
   257
176
     1
 75
     1
176
     1
175
     1
176
     1
 42
1.0
176
     1
 92
        0
176
     1
 66
   257
176
     1
 43
1.0
176
     1
 76
     1
176
     1
 77
     6
176
     1
 78
     2
176
     1
 67
     7
176
     1
 79
     5
176
     1
170
     0
176
     1
171
     0
176
     1
290
     0
176
     1
 93
        1
176
     1
 44
0.0
176
     1
173
     0
176
     1
  0
VISUALSTYLE
  5
31
102
{ACAD_REACTORS
330
2A
102
}
330
2A
100
AcDbVisualStyle
  2
3D Hidden
 70
     6
177
     2
291
     0
 71
     1
176
     1
 72
     2
176
     1
 73
     2
176
     1
 90
        0
176
     1
 40
-0.6
176
     1
 41
-30.0
176
     1
 62
     5
 63
     7
421
 16777215
176
     1
 74
     2
176
     1
 91
        2
176
     1
 64
     7
176
     1
 65
   257
176
     1
 75
     2
176
     1
175
     1
176
     1
 42
40.0
176
     1
 92
        0
176
     1
 66
   257
176
     1
 43
1.0
176
     1
 76
     1
176
     1
 77
     6
176
     1
 78
     2
176
     1
 67
     7
176
     1
 79
     3
176
     1
170
     0
176
     1
171
     0
176
     1
290
     0
176
     1
 93
        1
176
     1
 44
0.0
176
     1
173
     0
176
     1
  0
VISUALSTYLE
  5
30
102
{ACAD_REACTORS
330
2A
102
}
330
2A
100
AcDbVisualStyle
  2
3dWireframe
 70
     5
177
     2
291
     0
 71
     0
176
     1
 72
     2
176
     1
 73
     0
176
     1
 90
        0
176
     1
 40
-0.6
176
     1
 41
-30.0
176
     1
 62
     5
 63
     7
421
 16777215
176
     1
 74
     1
176
     1
 91
        4
176
     1
 64
     7
176
     1
 65
   257
176
     1
 75
     1
176
     1
175
     1
176
     1
 42
1.0
176
     1
 92
        0
176
     1
 66
   257
176
     1
 43
1.0
176
     1
 76
     1
176
     1
 77
     6
176
     1
 78
     2
176
     1
 67
     7
176
     1
 79
     5
176
     1
170
     0
176
     1
171
     0
176
     1
290
     0
176
     1
 93
        1
176
     1
 44
0.0
176
     1
173
     0
176
     1
  0
VISUALSTYLE
  5
32
102
{ACAD_REACTORS
330
2A
102
}
330
2A
100
AcDbVisualStyle
  2
Basic
 70
     7
177
     2
291
     1
 71
     1
176
     1
 72
     0
176
     1
 73
     1
176
     1
 90
        0
176
     1
 40
-0.6
176
     1
 41
-30.0
176
     1
 62
     5
 63
     7
421
 16777215
176
     1
 74
     0
176
     1
 91
        4
176
     1
 64
     7
176
     1
 65
   257
176
     1
 75
     1
176
     1
175
     1
176
     1
 42
1.0
176
     1
 92
        8
176
     1
 66
     7
176
     1
 43
1.0
176
     1
 76
     1
176
     1
 77
     6
176
     1
 78
     2
176
     1
 67
     7
176
     1
 79
     5
176
     1
170
     0
176
     1
171
     0
176
     1
290
     0
176
     1
 93
        1
176
     1
 44
0.0
176
     1
173
     0
176
     1
  0
VISUALSTYLE
  5
36
102
{ACAD_REACTORS
330
2A
102
}
330
2A
100
AcDbVisualStyle
  2
Brighten
 70
    12
177
     2
291
     1
 71
     2
176
     1
 72
     2
176
     1
 73
     0
176
     1
 90
        0
176
     1
 40
-0.6
176
     1
 41
-30.0
176
     1
 62
     5
 63
     7
421
 16777215
176
     1
 74
     1
176
     1
 91
        4
176
     1
 64
     7
176
     1
 65
   257
176
     1
 75
     1
176
     1
175
     1
176
     1
 42
1.0
176
     1
 92
        8
176
     1
 66
     7
176
     1
 43
1.0
176
     1
 76
     1
176
     1
 77
     6
176
     1
 78
     2
176
     1
 67
     7
176
     1
 79
     5
176
     1
170
     0
176
     1
171
     0
176
     1
290
     0
176
     1
 93
        1
176
     1
 44
50.0
176
     1
173
     0
176
     1
  0
VISUALSTYLE
  5
3A
102
{ACAD_REACTORS
330
2A
102
}
330
2A
100
AcDbVisualStyle
  2
ColorChange
 70
    16
177
     2
291
     1
 71
     2
176
     1
 72
     2
176
     1
 73
     3
176
     1
 90
        0
176
     1
 40
-0.6
176
     1
 41
-30.0
176
     1
 62
     5
 63
     8
421
  8421504
176
     1
 74
     1
176
     1
 91
        4
176
     1
 64
     7
176
     1
 65
   257
176
     1
 75
     1
176
     1
175
     1
176
     1
 42
1.0
176
     1
 92
        8
176
     1
 66
     8
424
  8421504
176
     1
 43
1.0
176
     1
 76
     1
176
     1
 77
     6
176
     1
 78
     2
176
     1
 67
     7
176
     1
 79
     5
176
     1
170
     0
176
     1
171
     0
176
     1
290
     0
176
     1
 93
        1
176
     1
 44
0.0
176
     1
173
     0
176
     1
  0
VISUALSTYLE
  5
34
102
{ACAD_REACTORS
330
2A
102
}
330
2A
100
AcDbVisualStyle
  2
Conceptual
 70
     9
177
     2
291
     0
 71
     3
176
     1
 72
     2
176
     1
 73
     0
176
     1
 90
        0
176
     1
 40
-0.6
176
     1
 41
-30.0
176
     1
 62
     5
 63
     7
421
 16777215
176
     1
 74
     2
176
     1
 91
        2
176
     1
 64
     7
176
     1
 65
   257
176
     1
 75
     1
176
     1
175
     1
176
     1
 42
40.0
176
     1
 92
        8
176
     1
 66
     7
176
     1
 43
1.0
176
     1
 76
     1
176
     1
 77
     6
176
     1
 78
     2
176
     1
 67
     7
176
     1
 79
     3
176
     1
170
     0
176
     1
171
     0
176
     1
290
     0
176
     1
 93
        1
176
     1
 44
0.0
176
     1
173
     0
176
     1
  0
VISUALSTYLE
  5
35
102
{ACAD_REACTORS
330
2A
102
}
330
2A
100
AcDbVisualStyle
  2
Dim
 70
    11
177
     2
291
     1
 71
     2
176
     1
 72
     2
176
     1
 73
     0
176
     1
 90
        0
176
     1
 40
-0.6
176
     1
 41
-30.0
176
     1
 62
     5
 63
     7
421
 16777215
176
     1
 74
     1
176
     1
 91
        4
176
     1
 64
     7
176
     1
 65
   257
176
     1
 75
     1
176
     1
175
     1
176
     1
 42
1.0
176
     1
 92
        8
176
     1
 66
     7
176
     1
 43
1.0
176
     1
 76
     1
176
     1
 77
     6
176
     1
 78
     2
176
     1
 67
     7
176
     1
 79
     5
176
     1
170
     0
176
     1
171
     0
176
     1
290
     0
176
     1
 93
        1
176
     1
 44
-50.0
176
     1
173
     0
176
     1
  0
VISUALSTYLE
  5
39
102
{ACAD_REACTORS
330
2A
102
}
330
2A
100
AcDbVisualStyle
  2
Facepattern
 70
    15
177
     2
291
     1
 71
     2
176
     1
 72
     2
176
     1
 73
     0
176
     1
 90
        0
176
     1
 40
-0.6
176
     1
 41
-30.0
176
     1
 62
     5
 63
     7
421
 16777215
176
     1
 74
     1
176
     1
 91
        4
176
     1
 64
     7
176
     1
 65
   257
176
     1
 75
     1
176
     1
175
     1
176
     1
 42
1.0
176
     1
 92
        8
176
     1
 66
     7
176
     1
 43
1.0
176
     1
 76
     1
176
     1
 77
     6
176
     1
 78
     2
176
     1
 67
     7
176
     1
 79
     5
176
     1
170
     0
176
     1
171
     0
176
     1
290
     0
176
     1
 93
        1
176
     1
 44
0.0
176
     1
173
     0
176
     1
  0
VISUALSTYLE
  5
2B
102
{ACAD_REACTORS
330
2A
102
}
330
2A
100
AcDbVisualStyle
  2
Flat
 70
     0
177
     2
291
     1
 71
     2
176
     1
 72
     1
176
     1
 73
     1
176
     1
 90
        2
176
     1
 40
-0.6
176
     1
 41
30.0
176
     1
 62
     5
 63
     7
421
 16777215
176
     1
 74
     0
176
     1
 91
        4
176
     1
 64
     7
176
     1
 65
   257
176
     1
 75
     1
176
     1
175
     1
176
     1
 42
1.0
176
     1
 92
        8
176
     1
 66
     7
176
     1
 43
1.0
176
     1
 76
     1
176
     1
 77
     6
176
     1
 78
     2
176
     1
 67
     7
176
     1
 79
     5
176
     1
170
     0
176
     1
171
     0
176
     1
290
     0
176
     1
 93
       13
176
     1
 44
0.0
176
     1
173
     0
176
     1
  0
VISUALSTYLE
  5
2C
102
{ACAD_REACTORS
330
2A
102
}
330
2A
100
AcDbVisualStyle
  2
FlatWithEdges
 70
     1
177
     2
291
     1
 71
     2
176
     1
 72
     1
176
     1
 73
     1
176
     1
 90
        2
176
     1
 40
-0.6
176
     1
 41
30.0
176
     1
 62
     5
 63
     7
421
 16777215
176
     1
 74
     1
176
     1
 91
        4
176
     1
 64
     7
176
     1
 65
   257
176
     1
 75
     1
176
     1
175
     1
176
     1
 42
1.0
176
     1
 92
        0
176
     1
 66
   257
176
     1
 43
1.0
176
     1
 76
     1
176
     1
 77
     6
176
     1
 78
     2
176
     1
 67
     7
176
     1
 79
     5
176
     1
170
     0
176
     1
171
     0
176
     1
290
     0
176
     1
 93
       13
176
     1
 44
0.0
176
     1
173
     0
176
     1
  0
VISUALSTYLE
  5
2D
102
{ACAD_REACTORS
330
2A
102
}
330
2A
100
AcDbVisualStyle
  2
Gouraud
 70
     2
177
     2
291
     1
 71
     2
176
     1
 72
     2
176
     1
 73
     1
176
     1
 90
        2
176
     1
 40
-0.6
176
     1
 41
30.0
176
     1
 62
     5
 63
     7
421
 16777215
176
     1
 74
     0
176
     1
 91
        4
176
     1
 64
     7
176
     1
 65
   257
176
     1
 75
     1
176
     1
175
     1
176
     1
 42
1.0
176
     1
 92
        0
176
     1
 66
     7
176
     1
 43
1.0
176
     1
 76
     1
176
     1
 77
     6
176
     1
 78
     2
176
     1
 67
     7
176
     1
 79
     5
176
     1
170
     0
176
     1
171
     0
176
     1
290
     0
176
     1
 93
       13
176
     1
 44
0.0
176
     1
173
     0
176
     1
  0
VISUALSTYLE
  5
2E
102
{ACAD_REACTORS
330
2A
102
}
330
2A
100
AcDbVisualStyle
  2
GouraudWithEdges
 70
     3
177
     2
291
     1
 71
     2
176
     1
 72
     2
176
     1
 73
     1
176
     1
 90
        2
176
     1
 40
-0.6
176
     1
 41
30.0
176
     1
 62
     5
 63
     7
421
 16777215
176
     1
 74
     1
176
     1
 91
        4
176
     1
 64
     7
176
     1
 65
   257
176
     1
 75
     1
176
     1
175
     1
176
     1
 42
1.0
176
     1
 92
        0
176
     1
 66
   257
176
     1
 43
1.0
176
     1
 76
     1
176
     1
 77
     6
176
     1
 78
     2
176
     1
 67
     7
176
     1
 79
     5
176
     1
170
     0
176
     1
171
     0
176
     1
290
     0
176
     1
 93
       13
176
     1
 44
0.0
176
     1
173
     0
176
     1
  0
VISUALSTYLE
  5
38
102
{ACAD_REACTORS
330
2A
102
}
330
2A
100
AcDbVisualStyle
  2
Linepattern
 70
    14
177
     2
291
     1
 71
     2
176
     1
 72
     2
176
     1
 73
     0
176
     1
 90
        0
176
     1
 40
-0.6
176
     1
 41
-30.0
176
     1
 62
     5
 63
     7
421
 16777215
176
     1
 74
     1
176
     1
 91
        4
176
     1
 64
     7
176
     1
 65
   257
176
     1
 75
     7
176
     1
175
     7
176
     1
 42
1.0
176
     1
 92
        8
176
     1
 66
     7
176
     1
 43
1.0
176
     1
 76
     1
176
     1
 77
     6
176
     1
 78
     2
176
     1
 67
     7
176
     1
 79
     5
176
     1
170
     0
176
     1
171
     0
176
     1
290
     0
176
     1
 93
        1
176
     1
 44
0.0
176
     1
173
     0
176
     1
  0
VISUALSTYLE
  5
33
102
{ACAD_REACTORS
330
2A
102
}
330
2A
100
AcDbVisualStyle
  2
Realistic
 70
     8
177
     2
291
     0
 71
     2
176
     1
 72
     2
176
     1
 73
     0
176
     1
 90
        0
176
     1
 40
-0.6
176
     1
 41
-30.0
176
     1
 62
     5
 63
     7
421
 16777215
176
     1
 74
     1
176
     1
 91
        0
176
     1
 64
     7
176
     1
 65
   257
176
     1
 75
     1
176
     1
175
     1
176
     1
 42
1.0
176
     1
 92
        8
176
     1
 66
     8
424
  7895160
176
     1
 43
1.0
176
     1
 76
     1
176
     1
 77
     6
176
     1
 78
     2
176
     1
 67
     7
176
     1
 79
     5
176
     1
170
     0
176
     1
171
     0
176
     1
290
     0
176
     1
 93
       13
176
     1
 44
0.0
176
     1
173
     0
176
     1
  0
VISUALSTYLE
  5
37
102
{ACAD_REACTORS
330
2A
102
}
330
2A
100
AcDbVisualStyle
  2
Thicken
 70
    13
177
     2
291
     1
 71
     2
176
     1
 72
     2
176
     1
 73
     0
176
     1
 90
        0
176
     1
 40
-0.6
176
     1
 41
-30.0
176
     1
 62
     5
 63
     7
421
 16777215
176
     1
 74
     1
176
     1
 91
        4
176
     1
 64
     7
176
     1
 65
   257
176
     1
 75
     1
176
     1
175
     1
176
     1
 42
1.0
176
     1
 92
       12
176
     1
 66
     7
176
     1
 43
1.0
176
     1
 76
     1
176
     1
 77
     6
176
     1
 78
     2
176
     1
 67
     7
176
     1
 79
     5
176
     1
170
     0
176
     1
171
     0
176
     1
290
     0
176
     1
 93
        1
176
     1
 44
0.0
176
     1
173
     0
176
     1
  0
ENDSEC
  0
EOF
