  0
SECTION
  2
HEADER
  9
$ACADVER
  1
AC1024
  9
$ACADMAINTVER
 70
     6
  9
$DWGCODEPAGE
  3
UNDEFINED
  9
$INSBASE
 10
0.0
 20
0.0
 30
0.0
  9
$EXTMIN
 10
1.000000000000000E+20
 20
1.000000000000000E+20
 30
1.000000000000000E+20
  9
$EXTMAX
 10
-1.000000000000000E+20
 20
-1.000000000000000E+20
 30
-1.000000000000000E+20
  9
$LIMMIN
 10
0.0
 20
0.0
  9
$LIMMAX
 10
12.0
 20
9.0
  9
$ORTHOMODE
 70
     0
  9
$REGENMODE
 70
     1
  9
$FILLMODE
 70
     1
  9
$QTEXTMODE
 70
     0
  9
$MIRRTEXT
 70
     1
  9
$LTSCALE
 40
1.0
  9
$ATTMODE
 70
     1
  9
$TEXTSIZE
 40
0.2
  9
$TRACEWID
 40
0.05
  9
$TEXTSTYLE
  7
Standard
  9
$CLAYER
  8
0
  9
$CELTYPE
  6
ByLayer
  9
$CECOLOR
 62
   256
  9
$CELTSCALE
 40
1.0
  9
$DISPSILH
 70
     0
  9
$DIMSCALE
 40
1.0
  9
$DIMASZ
 40
0.18
  9
$DIMEXO
 40
0.0625
  9
$DIMDLI
 40
0.38
  9
$DIMRND
 40
0.0
  9
$DIMDLE
 40
0.0
  9
$DIMEXE
 40
0.18
  9
$DIMTP
 40
0.0
  9
$DIMTM
 40
0.0
  9
$DIMTXT
 40
0.18
  9
$DIMCEN
 40
0.09
  9
$DIMTSZ
 40
0.0
  9
$DIMTOL
 70
     0
  9
$DIMLIM
 70
     0
  9
$DIMTIH
 70
     1
  9
$DIMTOH
 70
     1
  9
$DIMSE1
 70
     0
  9
$DIMSE2
 70
     0
  9
$DIMTAD
 70
     0
  9
$DIMZIN
 70
     0
  9
$DIMBLK
  1

  9
$DIMASO
 70
     1
  9
$DIMSHO
 70
     1
  9
$DIMPOST
  1

  9
$DIMAPOST
  1

  9
$DIMALT
 70
     0
  9
$DIMALTD
 70
     2
  9
$DIMALTF
 40
25.4
  9
$DIMLFAC
 40
1.0
  9
$DIMTOFL
 70
     0
  9
$DIMTVP
 40
0.0
  9
$DIMTIX
 70
     0
  9
$DIMSOXD
 70
     0
  9
$DIMSAH
 70
     0
  9
$DIMBLK1
  1

  9
$DIMBLK2
  1

  9
$DIMSTYLE
  2
Standard
  9
$DIMCLRD
 70
     0
  9
$DIMCLRE
 70
     0
  9
$DIMCLRT
 70
     0
  9
$DIMTFAC
 40
1.0
  9
$DIMGAP
 40
0.09
  9
$DIMJUST
 70
     0
  9
$DIMSD1
 70
     0
  9
$DIMSD2
 70
     0
  9
$DIMTOLJ
 70
     1
  9
$DIMTZIN
 70
     0
  9
$DIMALTZ
 70
     0
  9
$DIMALTTZ
 70
     0
  9
$DIMUPT
 70
     0
  9
$DIMDEC
 70
     4
  9
$DIMTDEC
 70
     4
  9
$DIMALTU
 70
     2
  9
$DIMALTTD
 70
     2
  9
$DIMTXSTY
  7
Standard
  9
$DIMAUNIT
 70
     0
  9
$DIMADEC
 70
     0
  9
$DIMALTRND
 40
0.0
  9
$DIMAZIN
 70
     0
  9
$DIMDSEP
 70
    46
  9
$DIMATFIT
 70
     3
  9
$DIMFRAC
 70
     0
  9
$DIMLDRBLK
  1

  9
$DIMLUNIT
 70
     2
  9
$DIMLWD
 70
    -2
  9
$DIMLWE
 70
    -2
  9
$DIMTMOVE
 70
     0
  9
$DIMFXL
 40
1.0
  9
$DIMFXLON
 70
     0
  9
$DIMJOGANG
 40
0.7853981633974483
  9
$DIMTFILL
 70
     0
  9
$DIMTFILLCLR
 70
     0
  9
$DIMARCSYM
 70
     0
  9
$DIMLTYPE
  6

  9
$DIMLTEX1
  6

  9
$DIMLTEX2
  6

  9
$DIMTXTDIRECTION
 70
     0
  9
$LUNITS
 70
     2
  9
$LUPREC
 70
     4
  9
$SKETCHINC
 40
0.1
  9
$FILLETRAD
 40
0.5
  9
$AUNITS
 70
     0
  9
$AUPREC
 70
     0
  9
$MENU
  1
.
  9
$ELEVATION
 40
0.0
  9
$PELEVATION
 40
0.0
  9
$THICKNESS
 40
0.0
  9
$LIMCHECK
 70
     0
  9
$CHAMFERA
 40
0.5
  9
$CHAMFERB
 40
0.5
  9
$CHAMFERC
 40
1.0
  9
$CHAMFERD
 40
0.0
  9
$SKPOLY
 70
     0
  9
$TDCREATE
 40
2458424.734826377
  9
$TDUCREATE
 40
2458425.068159722
  9
$TDUPDATE
 40
2458424.734826377
  9
$TDUUPDATE
 40
2458425.068159722
  9
$TDINDWG
 40
0.0000000116
  9
$TDUSRTIMER
 40
0.0000000116
  9
$USRTIMER
 70
     1
  9
$ANGBASE
 50
0.0
  9
$ANGDIR
 70
     0
  9
$PDMODE
 70
     0
  9
$PDSIZE
 40
0.0
  9
$PLINEWID
 40
0.0
  9
$SPLFRAME
 70
     0
  9
$SPLINETYPE
 70
     6
  9
$SPLINESEGS
 70
     8
  9
$HANDSEED
  5
53
  9
$SURFTAB1
 70
     6
  9
$SURFTAB2
 70
     6
  9
$SURFTYPE
 70
     6
  9
$SURFU
 70
     6
  9
$SURFV
 70
     6
  9
$UCSBASE
  2

  9
$UCSNAME
  2

  9
$UCSORG
 10
0.0
 20
0.0
 30
0.0
  9
$UCSXDIR
 10
1.0
 20
0.0
 30
0.0
  9
$UCSYDIR
 10
0.0
 20
1.0
 30
0.0
  9
$UCSORTHOREF
  2

  9
$UCSORTHOVIEW
 70
     0
  9
$UCSORGTOP
 10
0.0
 20
0.0
 30
0.0
  9
$UCSORGBOTTOM
 10
0.0
 20
0.0
 30
0.0
  9
$UCSORGLEFT
 10
0.0
 20
0.0
 30
0.0
  9
$UCSORGRIGHT
 10
0.0
 20
0.0
 30
0.0
  9
$UCSORGFRONT
 10
0.0
 20
0.0
 30
0.0
  9
$UCSORGBACK
 10
0.0
 20
0.0
 30
0.0
  9
$PUCSBASE
  2

  9
$PUCSNAME
  2

  9
$PUCSORG
 10
0.0
 20
0.0
 30
0.0
  9
$PUCSXDIR
 10
1.0
 20
0.0
 30
0.0
  9
$PUCSYDIR
 10
0.0
 20
1.0
 30
0.0
  9
$PUCSORTHOREF
  2

  9
$PUCSORTHOVIEW
 70
     0
  9
$PUCSORGTOP
 10
0.0
 20
0.0
 30
0.0
  9
$PUCSORGBOTTOM
 10
0.0
 20
0.0
 30
0.0
  9
$PUCSORGLEFT
 10
0.0
 20
0.0
 30
0.0
  9
$PUCSORGRIGHT
 10
0.0
 20
0.0
 30
0.0
  9
$PUCSORGFRONT
 10
0.0
 20
0.0
 30
0.0
  9
$PUCSORGBACK
 10
0.0
 20
0.0
 30
0.0
  9
$USERI1
 70
     0
  9
$USERI2
 70
     0
  9
$USERI3
 70
     0
  9
$USERI4
 70
     0
  9
$USERI5
 70
     0
  9
$USERR1
 40
0.0
  9
$USERR2
 40
0.0
  9
$USERR3
 40
0.0
  9
$USERR4
 40
0.0
  9
$USERR5
 40
0.0
  9
$WORLDVIEW
 70
     1
  9
$SHADEDGE
 70
     3
  9
$SHADEDIF
 70
    70
  9
$TILEMODE
 70
     1
  9
$MAXACTVP
 70
    64
  9
$PINSBASE
 10
0.0
 20
0.0
 30
0.0
  9
$PLIMCHECK
 70
     0
  9
$PEXTMIN
 10
1.000000000000000E+20
 20
1.000000000000000E+20
 30
1.000000000000000E+20
  9
$PEXTMAX
 10
-1.000000000000000E+20
 20
-1.000000000000000E+20
 30
-1.000000000000000E+20
  9
$PLIMMIN
 10
0.0
 20
0.0
  9
$PLIMMAX
 10
12.0
 20
9.0
  9
$UNITMODE
 70
     0
  9
$VISRETAIN
 70
     1
  9
$PLINEGEN
 70
     0
  9
$PSLTSCALE
 70
     1
  9
$TREEDEPTH
 70
  3020
  9
$CMLSTYLE
  2
Standard
  9
$CMLJUST
 70
     0
  9
$CMLSCALE
 40
1.0
  9
$PROXYGRAPHICS
 70
     1
  9
$MEASUREMENT
 70
     0
  9
$CELWEIGHT
370
    -1
  9
$ENDCAPS
280
     0
  9
$JOINSTYLE
280
     0
  9
$LWDISPLAY
290
     1
  9
$INSUNITS
 70
     1
  9
$HYPERLINKBASE
  1

  9
$STYLESHEET
  1

  9
$XEDIT
290
     1
  9
$CEPSNTYPE
380
     0
  9
$PSTYLEMODE
290
     1
  9
$FINGERPRINTGUID
  2
{F3E83407-E87F-73CD-5A87-80547A127C30}
  9
$VERSIONGUID
  2
{FAEB1C32-E019-11D5-929B-00C0DF256EC4}
  9
$EXTNAMES
290
     1
  9
$PSVPSCALE
 40
0.0
  9
$OLESTARTUP
290
     0
  9
$SORTENTS
280
   127
  9
$INDEXCTL
280
     0
  9
$HIDETEXT
280
     1
  9
$XCLIPFRAME
280
     2
  9
$HALOGAP
280
     0
  9
$OBSCOLOR
 70
   257
  9
$OBSLTYPE
280
     0
  9
$INTERSECTIONDISPLAY
280
     0
  9
$INTERSECTIONCOLOR
 70
   257
  9
$DIMASSOC
280
     2
  9
$PROJECTNAME
  1

  9
$CAMERADISPLAY
290
     0
  9
$LENSLENGTH
 40
50.0
  9
$CAMERAHEIGHT
 40
0.0
  9
$STEPSPERSEC
 40
2.0
  9
$STEPSIZE
 40
6.0
  9
$3DDWFPREC
 40
2.0
  9
$PSOLWIDTH
 40
0.25
  9
$PSOLHEIGHT
 40
4.0
  9
$LOFTANG1
 40
1.570796326794897
  9
$LOFTANG2
 40
1.570796326794897
  9
$LOFTMAG1
 40
0.0
  9
$LOFTMAG2
 40
0.0
  9
$LOFTPARAM
 70
     7
  9
$LOFTNORMALS
280
     1
  9
$LATITUDE
 40
37.795
  9
$LONGITUDE
 40
-122.394
  9
$NORTHDIRECTION
 40
0.0
  9
$TIMEZONE
 70
 -8000
  9
$LIGHTGLYPHDISPLAY
280
     1
  9
$TILEMODELIGHTSYNCH
280
     1
  9
$CMATERIAL
347
3C
  9
$SOLIDHIST
280
     1
  9
$SHOWHIST
280
     1
  9
$DWFFRAME
280
     2
  9
$DGNFRAME
280
     2
  9
$REALWORLDSCALE
290
     1
  9
$INTERFERECOLOR
 62
   256
  9
$CSHADOW
280
     0
  9
$SHADOWPLANELOCATION
 40
0.0
  0
ENDSEC
  0
SECTION
  2
CLASSES
  0
CLASS
  1
ACDBDICTIONARYWDFLT
  2
AcDbDictionaryWithDefault
  3
ObjectDBX Classes
 90
        0
 91
        4
280
     0
281
     0
  0
CLASS
  1
VISUALSTYLE
  2
AcDbVisualStyle
  3
ObjectDBX Classes
 90
     4095
 91
        4
280
     0
281
     0
  0
CLASS
  1
MATERIAL
  2
AcDbMaterial
  3
ObjectDBX Classes
 90
     1153
 91
        4
280
     0
281
     0
  0
CLASS
  1
SUN
  2
AcDbSun
  3
SCENEOE
 90
     1024
 91
        4
280
     0
281
     0
  0
ENDSEC
  0
SECTION
  2
TABLES
  0
TABLE
  2
VPORT
  5
8
330
0
100
AcDbSymbolTable
 70
     1
  0
VPORT
  5
29
330
8
100
AcDbSymbolTableRecord
100
AcDbViewportTableRecord
  2
*Active
 70
     0
 10
0.0
 20
0.0
 11
1.0
 21
1.0
 12
0.0
 22
0.0
 13
0.0
 23
0.0
 14
0.5
 24
0.5
 15
0.5
 25
0.5
 16
0.0
 26
0.0
 36
1.0
 17
12.0
 27
-9.0
 37
0.0
 40
18.0
 41
1.333333333333333
 42
50.0
 43
0.0
 44
0.0
 50
0.0
 51
0.0
 71
     0
 72
   100
 73
     1
 74
     3
 75
     0
 76
     0
 77
     0
 78
     0
281
     0
 65
     1
110
0.0
120
0.0
130
0.0
111
1.0
121
0.0
131
0.0
112
0.0
122
1.0
132
0.0
 79
     0
146
0.0
 60
     3
 61
     5
292
     1
282
     1
141
0.0
142
0.0
 63
   250
361
3F
  0
ENDTAB
  0
TABLE
  2
LTYPE
  5
5
330
0
100
AcDbSymbolTable
 70
     1
  0
LTYPE
  5
14
330
5
100
AcDbSymbolTableRecord
100
AcDbLinetypeTableRecord
  2
ByBlock
 70
     0
  3

 72
    65
 73
     0
 40
0.0
  0
LTYPE
  5
15
330
5
100
AcDbSymbolTableRecord
100
AcDbLinetypeTableRecord
  2
ByLayer
 70
     0
  3

 72
    65
 73
     0
 40
0.0
  0
LTYPE
  5
16
330
5
100
AcDbSymbolTableRecord
100
AcDbLinetypeTableRecord
  2
Continuous
 70
     0
  3
Solid line
 72
    65
 73
     0
 40
0.0
  0
ENDTAB
  0
TABLE
  2
LAYER
  5
2
330
0
100
AcDbSymbolTable
 70
     2
  0
LAYER
  5
10
330
2
100
AcDbSymbolTableRecord
100
AcDbLayerTableRecord
  2
0
 70
     0
 62
     7
  6
Continuous
370
    -3
390
F
347
3E
  0
LAYER
  5
40
330
2
100
AcDbSymbolTableRecord
100
AcDbLayerTableRecord
  2
Layer 1
 70
     0
 62
     7
  6
Continuous
370
    -3
390
F
347
3E
  0
ENDTAB
  0
TABLE
  2
STYLE
  5
3
330
0
100
AcDbSymbolTable
 70
     1
  0
STYLE
  5
11
330
3
100
AcDbSymbolTableRecord
100
AcDbTextStyleTableRecord
  2
Standard
 70
     0
 40
0.0
 41
1.0
 50
0.0
 71
     0
 42
0.2
  3
txt
  4

  0
ENDTAB
  0
TABLE
  2
VIEW
  5
6
330
0
100
AcDbSymbolTable
 70
     0
  0
ENDTAB
  0
TABLE
  2
UCS
  5
7
330
0
100
AcDbSymbolTable
 70
     0
  0
ENDTAB
  0
TABLE
  2
APPID
  5
9
330
0
100
AcDbSymbolTable
 70
     1
  0
APPID
  5
12
330
9
100
AcDbSymbolTableRecord
100
AcDbRegAppTableRecord
  2
ACAD
 70
     0
  0
ENDTAB
  0
TABLE
  2
DIMSTYLE
  5
A
330
0
100
AcDbSymbolTable
 70
     1
100
AcDbDimStyleTable
  0
DIMSTYLE
105
27
330
A
100
AcDbSymbolTableRecord
100
AcDbDimStyleTableRecord
  2
Standard
 70
     0
178
     0
340
11
  0
ENDTAB
  0
TABLE
  2
BLOCK_RECORD
  5
1
330
0
100
AcDbSymbolTable
 70
     1
  0
BLOCK_RECORD
  5
1F
330
1
100
AcDbSymbolTableRecord
100
AcDbBlockTableRecord
  2
*Model_Space
340
22
 70
     0
280
     1
281
     0
  0
BLOCK_RECORD
  5
1B
330
1
100
AcDbSymbolTableRecord
100
AcDbBlockTableRecord
  2
*Paper_Space
340
1E
 70
     0
280
     1
281
     0
  0
BLOCK_RECORD
  5
23
330
1
100
AcDbSymbolTableRecord
100
AcDbBlockTableRecord
  2
*Paper_Space0
340
26
 70
     0
280
     1
281
     0
  0
ENDTAB
  0
ENDSEC
  0
SECTION
  2
BLOCKS
  0
BLOCK
  5
20
330
1F
100
AcDbEntity
  8
0
100
AcDbBlockBegin
  2
*Model_Space
 70
     0
 10
0.0
 20
0.0
 30
0.0
  3
*Model_Space
  1

  0
ENDBLK
  5
21
330
1F
100
AcDbEntity
  8
0
100
AcDbBlockEnd
  0
BLOCK
  5
1C
330
1B
100
AcDbEntity
 67
     1
  8
0
100
AcDbBlockBegin
  2
*Paper_Space
 70
     0
 10
0.0
 20
0.0
 30
0.0
  3
*Paper_Space
  1

  0
ENDBLK
  5
1D
330
1B
100
AcDbEntity
 67
     1
  8
0
100
AcDbBlockEnd
  0
BLOCK
  5
24
330
23
100
AcDbEntity
  8
0
100
AcDbBlockBegin
  2
*Paper_Space0
 70
     0
 10
0.0
 20
0.0
 30
0.0
  3
*Paper_Space0
  1

  0
ENDBLK
  5
25
330
23
100
AcDbEntity
  8
0
100
AcDbBlockEnd
  0
ENDSEC
  0
SECTION
  2
ENTITIES
  0
SPLINE
  5
41
330
1F
100
AcDbEntity
  8
Layer 1
 62
   179
420
  2301728
370
    35
100
AcDbSpline
210
0.0
220
0.0
230
1.0
 70
    11
 71
     3
 72
    17
 73
    13
 74
     0
 42
0.0000000001
 43
0.0000000001
 12
1.0
 22
0.0
 32
0.0
 13
1.0
 23
0.0
 33
0.0
 40
0.0
 40
0.0
 40
0.0
 40
0.0
 40
1.0
 40
1.0
 40
1.0
 40
2.0
 40
2.0
 40
2.0
 40
3.0
 40
3.0
 40
3.0
 40
4.0
 40
4.0
 40
4.0
 40
4.0
 10
1.990370862073481
 20
-15.51487675993861
 30
0.0
 10
1.974995889957376
 20
-15.5302517320532
 30
0.0
 10
1.974995889956391
 20
-15.55517948712862
 30
0.0
 10
1.99037086207098
 20
-15.57055445924458
 30
0.0
 10
2.005745834185569
 20
-15.58592943136068
 30
0.0
 10
2.03067358926099
 20
-15.58592943136179
 30
0.0
 10
2.046048561377094
 20
-15.57055445924723
 30
0.0
 10
2.061423533493073
 20
-15.55517948713251
 30
0.0
 10
2.061423533494184
 20
-15.53025173205722
 30
0.0
 10
2.046048561379596
 20
-15.51487675994112
 30
0.0
 10
2.030673589264855
 20
-15.49950178782514
 30
0.0
 10
2.005745834189586
 20
-15.49950178782403
 30
0.0
 10
1.990370862073481
 20
-15.51487675993861
 30
0.0
  0
SPLINE
  5
42
330
1F
100
AcDbEntity
  8
Layer 1
 62
   179
420
  2301728
370
    35
100
AcDbSpline
210
0.0
220
0.0
230
1.0
 70
    11
 71
     3
 72
    17
 73
    13
 74
     0
 42
0.0000000001
 43
0.0000000001
 12
1.0
 22
0.0
 32
0.0
 13
1.0
 23
0.0
 33
0.0
 40
0.0
 40
0.0
 40
0.0
 40
0.0
 40
1.0
 40
1.0
 40
1.0
 40
2.0
 40
2.0
 40
2.0
 40
3.0
 40
3.0
 40
3.0
 40
4.0
 40
4.0
 40
4.0
 40
4.0
 10
2.029740940813048
 20
-11.11111111111111
 30
0.0
 10
2.014365968696944
 20
-11.1264860832257
 30
0.0
 10
2.014365968695958
 20
-11.15141383830112
 30
0.0
 10
2.029740940810547
 20
-11.16678881041707
 30
0.0
 10
2.045115912925136
 20
-11.18216378253318
 30
0.0
 10
2.070043668000557
 20
-11.18216378253429
 30
0.0
 10
2.085418640116662
 20
-11.16678881041973
 30
0.0
 10
2.10079361223264
 20
-11.15141383830501
 30
0.0
 10
2.100793612233752
 20
-11.12648608322972
 30
0.0
 10
2.085418640119163
 20
-11.11111111111361
 30
0.0
 10
2.070043668004423
 20
-11.09573613899763
 30
0.0
 10
2.045115912929153
 20
-11.09573613899652
 30
0.0
 10
2.029740940813048
 20
-11.11111111111111
 30
0.0
  0
SPLINE
  5
43
330
1F
100
AcDbEntity
  8
Layer 1
 62
   179
420
  2301728
370
    35
100
AcDbSpline
210
0.0
220
0.0
230
1.0
 70
    11
 71
     3
 72
    17
 73
    13
 74
     0
 42
0.0000000001
 43
0.0000000001
 12
1.0
 22
0.0
 32
0.0
 13
1.0
 23
0.0
 33
0.0
 40
0.0
 40
0.0
 40
0.0
 40
0.0
 40
1.0
 40
1.0
 40
1.0
 40
2.0
 40
2.0
 40
2.0
 40
3.0
 40
3.0
 40
3.0
 40
4.0
 40
4.0
 40
4.0
 40
4.0
 10
6.156915384992089
 20
-11.11111111111111
 30
0.0
 10
6.141540412875984
 20
-11.1264860832257
 30
0.0
 10
6.141540412874999
 20
-11.15141383830112
 30
0.0
 10
6.156915384989588
 20
-11.16678881041707
 30
0.0
 10
6.172290357104177
 20
-11.18216378253318
 30
0.0
 10
6.197218112179598
 20
-11.18216378253429
 30
0.0
 10
6.212593084295703
 20
-11.16678881041973
 30
0.0
 10
6.227968056411681
 20
-11.15141383830501
 30
0.0
 10
6.227968056412792
 20
-11.12648608322972
 30
0.0
 10
6.212593084298204
 20
-11.11111111111361
 30
0.0
 10
6.197218112183464
 20
-11.09573613899763
 30
0.0
 10
6.172290357108194
 20
-11.09573613899652
 30
0.0
 10
6.156915384992089
 20
-11.11111111111111
 30
0.0
  0
SPLINE
  5
44
330
1F
100
AcDbEntity
  8
Layer 1
 62
   179
420
  2301728
370
    35
100
AcDbSpline
210
0.0
220
0.0
230
1.0
 70
    11
 71
     3
 72
    17
 73
    13
 74
     0
 42
0.0000000001
 43
0.0000000001
 12
1.0
 22
0.0
 32
0.0
 13
1.0
 23
0.0
 33
0.0
 40
0.0
 40
0.0
 40
0.0
 40
0.0
 40
1.0
 40
1.0
 40
1.0
 40
2.0
 40
2.0
 40
2.0
 40
3.0
 40
3.0
 40
3.0
 40
4.0
 40
4.0
 40
4.0
 40
4.0
 10
1.462470940547645
 20
-4.400481189850603
 30
0.0
 10
1.44709596843154
 20
-4.415856161965191
 30
0.0
 10
1.447095968430555
 20
-4.440783917040613
 30
0.0
 10
1.462470940545144
 20
-4.456158889156566
 30
0.0
 10
1.477845912659733
 20
-4.47153386127267
 30
0.0
 10
1.502773667735154
 20
-4.471533861273782
 30
0.0
 10
1.518148639851258
 20
-4.456158889159219
 30
0.0
 10
1.533523611967237
 20
-4.440783917044503
 30
0.0
 10
1.533523611968349
 20
-4.415856161969208
 30
0.0
 10
1.51814863985376
 20
-4.400481189853104
 30
0.0
 10
1.502773667739019
 20
-4.385106217737126
 30
0.0
 10
1.47784591266375
 20
-4.385106217736014
 30
0.0
 10
1.462470940547645
 20
-4.400481189850603
 30
0.0
  0
SPLINE
  5
45
330
1F
100
AcDbEntity
  8
Layer 1
 62
   179
420
  2301728
370
    35
100
AcDbSpline
210
0.0
220
0.0
230
1.0
 70
    11
 71
     3
 72
    17
 73
    13
 74
     0
 42
0.0000000001
 43
0.0000000001
 12
1.0
 22
0.0
 32
0.0
 13
1.0
 23
0.0
 33
0.0
 40
0.0
 40
0.0
 40
0.0
 40
0.0
 40
1.0
 40
1.0
 40
1.0
 40
2.0
 40
2.0
 40
2.0
 40
3.0
 40
3.0
 40
3.0
 40
4.0
 40
4.0
 40
4.0
 40
4.0
 10
7.823704195406814
 20
-9.61111111111111
 30
0.0
 10
7.808329223290709
 20
-9.6264860832257
 30
0.0
 10
7.808329223289724
 20
-9.65141383830112
 30
0.0
 10
7.823704195404313
 20
-9.666788810417074
 30
0.0
 10
7.839079167518902
 20
-9.682163782533179
 30
0.0
 10
7.864006922594323
 20
-9.68216378253429
 30
0.0
 10
7.879381894710427
 20
-9.666788810419726
 30
0.0
 10
7.894756866826405
 20
-9.651413838305011
 30
0.0
 10
7.894756866827517
 20
-9.626486083229716
 30
0.0
 10
7.879381894712928
 20
-9.611111111113612
 30
0.0
 10
7.864006922598188
 20
-9.595736138997633
 30
0.0
 10
7.839079167522918
 20
-9.595736138996521
 30
0.0
 10
7.823704195406814
 20
-9.61111111111111
 30
0.0
  0
SPLINE
  5
46
330
1F
100
AcDbEntity
  8
Layer 1
 62
   179
420
  2301728
370
    35
100
AcDbSpline
210
0.0
220
0.0
230
1.0
 70
    11
 71
     3
 72
    17
 73
    13
 74
     0
 42
0.0000000001
 43
0.0000000001
 12
1.0
 22
0.0
 32
0.0
 13
1.0
 23
0.0
 33
0.0
 40
0.0
 40
0.0
 40
0.0
 40
0.0
 40
1.0
 40
1.0
 40
1.0
 40
2.0
 40
2.0
 40
2.0
 40
3.0
 40
3.0
 40
3.0
 40
4.0
 40
4.0
 40
4.0
 40
4.0
 10
14.4625930842957
 20
-14.52777777777778
 30
0.0
 10
14.4472181121796
 20
-14.54315274989237
 30
0.0
 10
14.44721811217861
 20
-14.56808050496779
 30
0.0
 10
14.4625930842932
 20
-14.58345547708374
 30
0.0
 10
14.47796805640779
 20
-14.59883044919984
 30
0.0
 10
14.50289581148321
 20
-14.59883044920096
 30
0.0
 10
14.51827078359932
 20
-14.58345547708639
 30
0.0
 10
14.53364575571529
 20
-14.56808050497168
 30
0.0
 10
14.53364575571641
 20
-14.54315274989638
 30
0.0
 10
14.51827078360182
 20
-14.52777777778028
 30
0.0
 10
14.50289581148708
 20
-14.5124028056643
 30
0.0
 10
14.47796805641181
 20
-14.51240280566319
 30
0.0
 10
14.4625930842957
 20
-14.52777777777778
 30
0.0
  0
SPLINE
  5
47
330
1F
100
AcDbEntity
  8
Layer 1
 62
   179
420
  2301728
370
    35
100
AcDbSpline
210
0.0
220
0.0
230
1.0
 70
    11
 71
     3
 72
    17
 73
    13
 74
     0
 42
0.0000000001
 43
0.0000000001
 12
1.0
 22
0.0
 32
0.0
 13
1.0
 23
0.0
 33
0.0
 40
0.0
 40
0.0
 40
0.0
 40
0.0
 40
1.0
 40
1.0
 40
1.0
 40
2.0
 40
2.0
 40
2.0
 40
3.0
 40
3.0
 40
3.0
 40
4.0
 40
4.0
 40
4.0
 40
4.0
 10
20.37925975096239
 20
-17.04488836004485
 30
0.0
 10
20.36388477884629
 20
-17.06026333215944
 30
0.0
 10
20.3638847788453
 20
-17.08519108723486
 30
0.0
 10
20.37925975095989
 20
-17.10056605935081
 30
0.0
 10
20.39463472307448
 20
-17.11594103146692
 30
0.0
 10
20.4195624781499
 20
-17.11594103146803
 30
0.0
 10
20.43493745026601
 20
-17.10056605935347
 30
0.0
 10
20.45031242238199
 20
-17.08519108723875
 30
0.0
 10
20.4503124223831
 20
-17.06026333216346
 30
0.0
 10
20.43493745026851
 20
-17.04488836004735
 30
0.0
 10
20.41956247815377
 20
-17.02951338793137
 30
0.0
 10
20.3946347230785
 20
-17.02951338793026
 30
0.0
 10
20.37925975096239
 20
-17.04488836004485
 30
0.0
  0
SPLINE
  5
48
330
1F
100
AcDbEntity
  8
Layer 1
 62
   179
420
  2301728
370
    35
100
AcDbSpline
210
0.0
220
0.0
230
1.0
 70
    11
 71
     3
 72
    17
 73
    13
 74
     0
 42
0.0000000001
 43
0.0000000001
 12
1.0
 22
0.0
 32
0.0
 13
1.0
 23
0.0
 33
0.0
 40
0.0
 40
0.0
 40
0.0
 40
0.0
 40
1.0
 40
1.0
 40
1.0
 40
2.0
 40
2.0
 40
2.0
 40
3.0
 40
3.0
 40
3.0
 40
4.0
 40
4.0
 40
4.0
 40
4.0
 10
20.33988967222288
 20
-6.12974630796412
 30
0.0
 10
20.32451470010677
 20
-6.145121280078708
 30
0.0
 10
20.32451470010579
 20
-6.17004903515413
 30
0.0
 10
20.33988967222038
 20
-6.185424007270083
 30
0.0
 10
20.35526464433497
 20
-6.200798979386187
 30
0.0
 10
20.38019239941039
 20
-6.200798979387299
 30
0.0
 10
20.39556737152649
 20
-6.185424007272736
 30
0.0
 10
20.41094234364247
 20
-6.17004903515802
 30
0.0
 10
20.41094234364358
 20
-6.145121280082726
 30
0.0
 10
20.39556737152899
 20
-6.129746307966621
 30
0.0
 10
20.38019239941425
 20
-6.114371335850643
 30
0.0
 10
20.35526464433898
 20
-6.114371335849531
 30
0.0
 10
20.33988967222288
 20
-6.12974630796412
 30
0.0
  0
SPLINE
  5
49
330
1F
100
AcDbEntity
  8
Layer 1
 62
   179
420
  2301728
370
    35
100
AcDbSpline
210
0.0
220
0.0
230
1.0
 70
    11
 71
     3
 72
    17
 73
    13
 74
     0
 42
0.0000000001
 43
0.0000000001
 12
1.0
 22
0.0
 32
0.0
 13
1.0
 23
0.0
 33
0.0
 40
0.0
 40
0.0
 40
0.0
 40
0.0
 40
1.0
 40
1.0
 40
1.0
 40
2.0
 40
2.0
 40
2.0
 40
3.0
 40
3.0
 40
3.0
 40
4.0
 40
4.0
 40
4.0
 40
4.0
 10
20.33988967222288
 20
-1.694322300691384
 30
0.0
 10
20.32451470010677
 20
-1.709697272805973
 30
0.0
 10
20.32451470010579
 20
-1.734625027881394
 30
0.0
 10
20.33988967222038
 20
-1.749999999997347
 30
0.0
 10
20.35526464433497
 20
-1.765374972113452
 30
0.0
 10
20.38019239941039
 20
-1.765374972114564
 30
0.0
 10
20.39556737152649
 20
-1.75
 30
0.0
 10
20.41094234364247
 20
-1.734625027885285
 30
0.0
 10
20.41094234364358
 20
-1.70969727280999
 30
0.0
 10
20.39556737152899
 20
-1.694322300693885
 30
0.0
 10
20.38019239941425
 20
-1.678947328577907
 30
0.0
 10
20.35526464433898
 20
-1.678947328576795
 30
0.0
 10
20.33988967222288
 20
-1.694322300691384
 30
0.0
  0
SPLINE
  5
4A
330
1F
100
AcDbEntity
  8
Layer 1
 62
   179
420
  2301728
370
    35
100
AcDbSpline
210
0.0
220
0.0
230
1.0
 70
    11
 71
     3
 72
    17
 73
    13
 74
     0
 42
0.0000000001
 43
0.0000000001
 12
1.0
 22
0.0
 32
0.0
 13
1.0
 23
0.0
 33
0.0
 40
0.0
 40
0.0
 40
0.0
 40
0.0
 40
1.0
 40
1.0
 40
1.0
 40
2.0
 40
2.0
 40
2.0
 40
3.0
 40
3.0
 40
3.0
 40
4.0
 40
4.0
 40
4.0
 40
4.0
 10
16.85456508989462
 20
-1.694322300691384
 30
0.0
 10
16.83919011777852
 20
-1.709697272805973
 30
0.0
 10
16.83919011777753
 20
-1.734625027881394
 30
0.0
 10
16.85456508989212
 20
-1.749999999997347
 30
0.0
 10
16.86994006200671
 20
-1.765374972113452
 30
0.0
 10
16.89486781708213
 20
-1.765374972114564
 30
0.0
 10
16.91024278919824
 20
-1.75
 30
0.0
 10
16.92561776131422
 20
-1.734625027885285
 30
0.0
 10
16.92561776131533
 20
-1.70969727280999
 30
0.0
 10
16.91024278920074
 20
-1.694322300693885
 30
0.0
 10
16.894867817086
 20
-1.678947328577907
 30
0.0
 10
16.86994006201073
 20
-1.678947328576795
 30
0.0
 10
16.85456508989462
 20
-1.694322300691384
 30
0.0
  0
SPLINE
  5
4B
330
1F
100
AcDbEntity
  8
Layer 1
 62
   179
420
  2301728
370
    35
100
AcDbSpline
210
0.0
220
0.0
230
1.0
 70
    11
 71
     3
 72
    17
 73
    13
 74
     0
 42
0.0000000001
 43
0.0000000001
 12
1.0
 22
0.0
 32
0.0
 13
1.0
 23
0.0
 33
0.0
 40
0.0
 40
0.0
 40
0.0
 40
0.0
 40
1.0
 40
1.0
 40
1.0
 40
2.0
 40
2.0
 40
2.0
 40
3.0
 40
3.0
 40
3.0
 40
4.0
 40
4.0
 40
4.0
 40
4.0
 10
16.81519501115506
 20
-5.7130379704637
 30
0.0
 10
16.79982003903895
 20
-5.728412942578289
 30
0.0
 10
16.79982003903797
 20
-5.75334069765371
 30
0.0
 10
16.81519501115256
 20
-5.768715669769663
 30
0.0
 10
16.83056998326715
 20
-5.784090641885768
 30
0.0
 10
16.85549773834257
 20
-5.78409064188688
 30
0.0
 10
16.87087271045867
 20
-5.768715669772316
 30
0.0
 10
16.88624768257465
 20
-5.753340697657601
 30
0.0
 10
16.88624768257576
 20
-5.728412942582306
 30
0.0
 10
16.87087271046117
 20
-5.713037970466202
 30
0.0
 10
16.85549773834643
 20
-5.697662998350223
 30
0.0
 10
16.83056998327116
 20
-5.697662998349111
 30
0.0
 10
16.81519501115506
 20
-5.7130379704637
 30
0.0
  0
SPLINE
  5
4C
330
1F
100
AcDbEntity
  8
Layer 1
 62
   179
420
  2301728
370
   106
100
AcDbSpline
210
0.0
220
0.0
230
1.0
 70
    11
 71
     3
 72
   140
 73
   136
 74
     0
 42
0.0000000001
 43
0.0000000001
 12
1.0
 22
0.0
 32
0.0
 13
1.0
 23
0.0
 33
0.0
 40
0.0
 40
0.0
 40
0.0
 40
0.0
 40
1.0
 40
1.0
 40
1.0
 40
2.0
 40
2.0
 40
2.0
 40
3.0
 40
3.0
 40
3.0
 40
4.0
 40
4.0
 40
4.0
 40
5.0
 40
5.0
 40
5.0
 40
6.0
 40
6.0
 40
6.0
 40
7.0
 40
7.0
 40
7.0
 40
8.0
 40
8.0
 40
8.0
 40
9.0
 40
9.0
 40
9.0
 40
10.0
 40
10.0
 40
10.0
 40
11.0
 40
11.0
 40
11.0
 40
12.0
 40
12.0
 40
12.0
 40
13.0
 40
13.0
 40
13.0
 40
14.0
 40
14.0
 40
14.0
 40
15.0
 40
15.0
 40
15.0
 40
16.0
 40
16.0
 40
16.0
 40
17.0
 40
17.0
 40
17.0
 40
18.0
 40
18.0
 40
18.0
 40
19.0
 40
19.0
 40
19.0
 40
20.0
 40
20.0
 40
20.0
 40
21.0
 40
21.0
 40
21.0
 40
22.0
 40
22.0
 40
22.0
 40
23.0
 40
23.0
 40
23.0
 40
24.0
 40
24.0
 40
24.0
 40
25.0
 40
25.0
 40
25.0
 40
26.0
 40
26.0
 40
26.0
 40
27.0
 40
27.0
 40
27.0
 40
28.0
 40
28.0
 40
28.0
 40
29.0
 40
29.0
 40
29.0
 40
30.0
 40
30.0
 40
30.0
 40
31.0
 40
31.0
 40
31.0
 40
32.0
 40
32.0
 40
32.0
 40
33.0
 40
33.0
 40
33.0
 40
34.0
 40
34.0
 40
34.0
 40
35.0
 40
35.0
 40
35.0
 40
36.0
 40
36.0
 40
36.0
 40
37.0
 40
37.0
 40
37.0
 40
38.0
 40
38.0
 40
38.0
 40
39.0
 40
39.0
 40
39.0
 40
40.0
 40
40.0
 40
40.0
 40
41.0
 40
41.0
 40
41.0
 40
42.0
 40
42.0
 40
42.0
 40
43.0
 40
43.0
 40
43.0
 40
44.0
 40
44.0
 40
44.0
 40
45.0
 40
45.0
 40
45.0
 40
45.0
 10
21.11226485078876
 20
-17.41206868489583
 30
0.0
 10
20.96361033689987
 20
-17.41206868489583
 30
0.0
 10
20.8128128108582
 20
-17.39607747395833
 30
0.0
 10
20.66166263724709
 20
-17.36275227864583
 30
0.0
 10
19.53807322752487
 20
-17.114990234375
 30
0.0
 10
18.82805803655265
 20
-16.00326877170139
 30
0.0
 10
19.07582008082348
 20
-14.87966579861111
 30
0.0
 10
19.10662248967765
 20
-14.739990234375
 30
0.0
 10
19.15726810599709
 20
-14.51033528645833
 30
0.0
 10
19.18424564505959
 20
-14.29317220052083
 30
0.0
 10
19.05556997231654
 20
-14.35283745659722
 30
0.0
 10
18.91700660426098
 20
-14.42228190104167
 30
0.0
 10
18.76832496363598
 20
-14.49750434027778
 30
0.0
 10
18.09828101832348
 20
-14.83643934461806
 30
0.0
 10
17.4892044124207
 20
-15.04621039496528
 30
0.0
 10
16.90629154349709
 20
-15.13883463541667
 30
0.0
 10
15.59874217283737
 20
-15.34659830729167
 30
0.0
 10
14.68653785426098
 20
-14.92047797309028
 30
0.0
 10
14.1515579280457
 20
-14.52643500434028
 30
0.0
 10
13.67589061033737
 20
-14.17606608072917
 30
0.0
 10
13.05443064939987
 20
-13.51898871527778
 30
0.0
 10
12.79524824922626
 20
-12.37843153211806
 30
0.0
 10
12.67357127439987
 20
-11.84300401475694
 30
0.0
 10
12.64148034558042
 20
-11.2554931640625
 30
0.0
 10
12.69713084471237
 20
-10.58235677083333
 30
0.0
 10
12.7028274592957
 20
-10.51353624131944
 30
0.0
 10
12.7089309749207
 20
-10.44418674045139
 30
0.0
 10
12.71507518064987
 20
-10.37445746527778
 30
0.0
 10
12.72930315374015
 20
-10.21295844184028
 30
0.0
 10
12.7495803889832
 20
-9.982923719618055
 30
0.0
 10
12.75419193412209
 20
-9.800767686631945
 30
0.0
 10
12.56751929957348
 20
-9.802571614583332
 30
0.0
 10
12.28868357908737
 20
-9.837090386284721
 30
0.0
 10
11.95692359644848
 20
-9.947428385416666
 30
0.0
 10
11.9229202327332
 20
-9.958753797743055
 30
0.0
 10
11.88865916502487
 20
-9.970201280381945
 30
0.0
 10
11.85418108342765
 20
-9.981743706597221
 30
0.0
 10
11.41433462075404
 20
-10.12887912326389
 30
0.0
 10
10.86694421276792
 20
-10.31198459201389
 30
0.0
 10
10.26525964245542
 20
-10.385986328125
 30
0.0
 10
9.852824746622092
 20
-10.43672688802083
 30
0.0
 10
9.455106105129035
 20
-10.43006727430556
 30
0.0
 10
9.083184989677648
 20
-10.36627875434028
 30
0.0
 10
8.591336573879037
 20
-10.28190104166667
 30
0.0
 10
8.137316391587369
 20
-10.09913465711806
 30
0.0
 10
7.733697684990148
 20
-9.823065863715277
 30
0.0
 10
7.048082993149869
 20
-9.354098849826388
 30
0.0
 10
6.561171643323481
 20
-8.644816080729166
 30
0.0
 10
6.325589503566536
 20
-7.771904839409721
 30
0.0
 10
6.184869559990148
 20
-7.250474717881944
 30
0.0
 10
6.130778848184591
 20
-6.656846788194444
 30
0.0
 10
6.164836465372091
 20
-6.007514105902778
 30
0.0
 10
6.17003123533737
 20
-5.908298068576388
 30
0.0
 10
6.176107624226258
 20
-5.811971028645833
 30
0.0
 10
6.18199412596237
 20
-5.718804253472222
 30
0.0
 10
6.193563678913758
 20
-5.535291883680555
 30
0.0
 10
6.209405692802648
 20
-5.2841796875
 30
0.0
 10
6.205214612073481
 20
-5.111395941840278
 30
0.0
 10
6.08653514158737
 20
-5.0830078125
 30
0.0
 10
5.894979694538758
 20
-5.057237413194444
 30
0.0
 10
5.63218943846237
 20
-5.071153428819444
 30
0.0
 10
5.42344920408737
 20
-5.082180447048611
 30
0.0
 10
5.191963201483203
 20
-5.107014973958333
 30
0.0
 10
4.946900267455425
 20
-5.13330078125
 30
0.0
 10
4.175836356865148
 20
-5.216010199652778
 30
0.0
 10
3.216241630302648
 20
-5.318929036458333
 30
0.0
 10
2.196723943670703
 20
-5.057508680555555
 30
0.0
 10
1.082181300441536
 20
-4.771755642361111
 30
0.0
 10
0.410319863809592
 20
-3.636583116319444
 30
0.0
 10
0.696086465372092
 20
-2.522054036458333
 30
0.0
 10
0.9818259401984808
 20
-1.407511393229167
 30
0.0
 10
2.116957776135981
 20
-0.7356635199652778
 30
0.0
 10
3.231554672837369
 20
-1.021402994791667
 30
0.0
 10
3.521132580823481
 20
-1.095621744791667
 30
0.0
 10
3.997844277872092
 20
-1.044514973958333
 30
0.0
 10
4.502564329955425
 20
-0.990383572048611
 30
0.0
 10
4.79185740721237
 20
-0.9593641493055555
 30
0.0
 10
5.091011053045703
 20
-0.9272867838541666
 30
0.0
 10
5.412110228392925
 20
-0.9102918836805555
 30
0.0
 10
6.192600679781814
 20
-0.8690728081597222
 30
0.0
 10
6.951037094712369
 20
-0.9631890190972222
 30
0.0
 10
7.605645927177648
 20
-1.182657877604167
 30
0.0
 10
8.57398902613598
 20
-1.507297092013889
 30
0.0
 10
9.337308253566535
 20
-2.105414496527778
 30
0.0
 10
9.813043388115148
 20
-2.912353515625
 30
0.0
 10
10.12390222058042
 20
-3.439615885416667
 30
0.0
 10
10.30102624401792
 20
-4.027899848090278
 30
0.0
 10
10.35457442110126
 20
-4.710842556423611
 30
0.0
 10
10.39111413464292
 20
-5.177029079861111
 30
0.0
 10
10.36416372231654
 20
-5.604207356770833
 30
0.0
 10
10.3404007014832
 20
-5.981106228298611
 30
0.0
 10
10.33791860512904
 20
-6.020480685763888
 30
0.0
 10
10.33549076224709
 20
-6.058837890625
 30
0.0
 10
10.33321211641376
 20
-6.096272786458333
 30
0.0
 10
10.40516578394848
 20
-6.072848849826388
 30
0.0
 10
10.47349803221237
 20
-6.049981011284722
 30
0.0
 10
10.53234948620542
 20
-6.030300564236111
 30
0.0
 10
10.56914690374015
 20
-6.017985026041666
 30
0.0
 10
10.60570018064987
 20
-6.005764431423611
 30
0.0
 10
10.64198219019848
 20
-5.993693033854166
 30
0.0
 10
11.27813127874015
 20
-5.782131618923611
 30
0.0
 10
12.25854577526792
 20
-5.552897135416666
 30
0.0
 10
13.3164749202332
 20
-5.662136501736111
 30
0.0
 10
14.60409970321931
 20
-5.795125325520833
 30
0.0
 10
15.66225942544154
 20
-6.412977430555555
 30
0.0
 10
16.29604848794154
 20
-7.40185546875
 30
0.0
 10
16.65394508082348
 20
-7.960272894965278
 30
0.0
 10
16.86021678221237
 20
-8.61935763888889
 30
0.0
 10
16.9091262874207
 20
-9.360772026909721
 30
0.0
 10
16.94254642630959
 20
-9.86758083767361
 30
0.0
 10
16.90169356172626
 20
-10.3311767578125
 30
0.0
 10
16.86565569280265
 20
-10.74019368489583
 30
0.0
 10
16.86410946884431
 20
-10.75774468315972
 30
0.0
 10
16.86256324488598
 20
-10.77528211805556
 30
0.0
 10
16.8610305842957
 20
-10.79277886284722
 30
0.0
 10
16.86977895669154
 20
-10.78842502170139
 30
0.0
 10
16.87862227266376
 20
-10.78397623697917
 30
0.0
 10
16.88757409558043
 20
-10.77944607204861
 30
0.0
 10
17.29858483776793
 20
-10.57154676649306
 30
0.0
 10
17.86150530217765
 20
-10.28679741753472
 30
0.0
 10
18.49297502874015
 20
-10.1131591796875
 30
0.0
 10
19.43935903481654
 20
-9.852945963541666
 30
0.0
 10
20.32417891328876
 20
-9.90102810329861
 30
0.0
 10
21.12280358776792
 20
-10.25606282552083
 30
0.0
 10
21.74281226832348
 20
-10.53169759114583
 30
0.0
 10
22.2776565608582
 20
-10.99163140190972
 30
0.0
 10
22.66957008082348
 20
-11.58615451388889
 30
0.0
 10
22.98867544106654
 20
-12.07024468315972
 30
0.0
 10
23.20837487683042
 20
-12.63789876302083
 30
0.0
 10
23.30491893064987
 20
-13.22776963975694
 30
0.0
 10
23.45540449922626
 20
-14.14723036024306
 30
0.0
 10
23.31686825790681
 20
-14.99631076388889
 30
0.0
 10
23.14474911728181
 20
-15.77689615885417
 30
0.0
 10
22.93031226832348
 20
-16.74936252170139
 30
0.0
 10
22.06860436901792
 20
-17.41206868489583
 30
0.0
 10
21.11226485078876
 20
-17.41206868489583
 30
0.0
  0
SPLINE
  5
4D
330
1F
100
AcDbEntity
  8
Layer 1
 62
   179
420
  2301728
370
   106
100
AcDbSpline
210
0.0
220
0.0
230
1.0
 70
    11
 71
     3
 72
    11
 73
     7
 74
     0
 42
0.0000000001
 43
0.0000000001
 12
1.0
 22
0.0
 32
0.0
 13
1.0
 23
0.0
 33
0.0
 40
0.0
 40
0.0
 40
0.0
 40
0.0
 40
1.0
 40
1.0
 40
1.0
 40
2.0
 40
2.0
 40
2.0
 40
2.0
 10
12.74174076224709
 20
-9.553073459201388
 30
0.0
 10
12.74174076224709
 20
-9.553087022569445
 30
0.0
 10
12.74174076224709
 20
-9.5531005859375
 30
0.0
 10
12.74175432561515
 20
-9.553114149305555
 30
0.0
 10
12.74174076224709
 20
-9.5531005859375
 30
0.0
 10
12.74174076224709
 20
-9.5531005859375
 30
0.0
 10
12.74174076224709
 20
-9.553073459201388
 30
0.0
  0
SPLINE
  5
4E
330
1F
100
AcDbEntity
  8
Layer 1
 62
   179
420
  2301728
370
   106
100
AcDbSpline
210
0.0
220
0.0
230
1.0
 70
    11
 71
     3
 72
    41
 73
    37
 74
     0
 42
0.0000000001
 43
0.0000000001
 12
1.0
 22
0.0
 32
0.0
 13
1.0
 23
0.0
 33
0.0
 40
0.0
 40
0.0
 40
0.0
 40
0.0
 40
1.0
 40
1.0
 40
1.0
 40
2.0
 40
2.0
 40
2.0
 40
3.0
 40
3.0
 40
3.0
 40
4.0
 40
4.0
 40
4.0
 40
5.0
 40
5.0
 40
5.0
 40
6.0
 40
6.0
 40
6.0
 40
7.0
 40
7.0
 40
7.0
 40
8.0
 40
8.0
 40
8.0
 40
9.0
 40
9.0
 40
9.0
 40
10.0
 40
10.0
 40
10.0
 40
11.0
 40
11.0
 40
11.0
 40
12.0
 40
12.0
 40
12.0
 40
12.0
 10
4.164850028740148
 20
-16.51569281684028
 30
0.0
 10
3.708374876830425
 20
-16.51570638020833
 30
0.0
 10
3.278660250094314
 20
-16.43660481770833
 30
0.0
 10
2.883233817802648
 20
-16.2794189453125
 30
0.0
 10
2.352051634642925
 20
-16.06822374131944
 30
0.0
 10
1.885078435858203
 20
-15.71272786458333
 30
0.0
 10
1.532742823879036
 20
-15.25130208333333
 30
0.0
 10
1.180366521795703
 20
-14.78983561197917
 30
0.0
 10
0.9603822553026475
 20
-14.24570041232639
 30
0.0
 10
0.8965801719693142
 20
-13.67770724826389
 30
0.0
 10
0.8327645252679252
 20
-13.10978190104167
 30
0.0
 10
0.9265145252679252
 20
-12.5303955078125
 30
0.0
 10
1.167684772663758
 20
-12.00223795572917
 30
0.0
 10
1.408868583427648
 20
-11.47410753038194
 30
0.0
 10
1.785333427177648
 20
-11.02383083767361
 30
0.0
 10
2.256375636379036
 20
-10.70008680555556
 30
0.0
 10
2.819608058254036
 20
-10.31300184461806
 30
0.0
 10
3.505914481865148
 20
-10.24064127604167
 30
0.0
 10
4.106948010510981
 20
-10.44441731770833
 30
0.0
 10
4.544678587767925
 20
-10.38202582465278
 30
0.0
 10
4.998007038288758
 20
-10.41647677951389
 30
0.0
 10
5.430244451483203
 20
-10.54915364583333
 30
0.0
 10
6.09080760252487
 20
-10.75188530815972
 30
0.0
 10
6.663412311726258
 20
-11.17205132378472
 30
0.0
 10
7.042603392455425
 20
-11.73227267795139
 30
0.0
 10
7.421794473184591
 20
-12.29249403211806
 30
0.0
 10
7.599067693670703
 20
-12.98025173611111
 30
0.0
 10
7.541803153740148
 20
-13.66883680555556
 30
0.0
 10
7.484538613809591
 20
-14.357421875
 30
0.0
 10
7.196086465372091
 20
-15.00644259982639
 30
0.0
 10
6.729574421101258
 20
-15.49632432725694
 30
0.0
 10
6.180868366413758
 20
-16.07253689236111
 30
0.0
 10
5.422052177177648
 20
-16.41921657986111
 30
0.0
 10
4.535170666760981
 20
-16.49884711371528
 30
0.0
 10
4.409940089504036
 20
-16.51009114583333
 30
0.0
 10
4.286432059990148
 20
-16.51569281684028
 30
0.0
 10
4.164850028740148
 20
-16.51569281684028
 30
0.0
  0
SPLINE
  5
4F
330
1F
100
AcDbEntity
  8
Layer 1
 62
   179
420
  2301728
370
   106
100
AcDbSpline
210
0.0
220
0.0
230
1.0
 70
    11
 71
     3
 72
    11
 73
     7
 74
     0
 42
0.0000000001
 43
0.0000000001
 12
1.0
 22
0.0
 32
0.0
 13
1.0
 23
0.0
 33
0.0
 40
0.0
 40
0.0
 40
0.0
 40
0.0
 40
1.0
 40
1.0
 40
1.0
 40
2.0
 40
2.0
 40
2.0
 40
2.0
 10
4.97813670408737
 20
-14.49319118923611
 30
0.0
 10
4.977553479260981
 20
-14.49342176649306
 30
0.0
 10
4.977024507906814
 20
-14.49363878038194
 30
0.0
 10
4.976441283080425
 20
-14.49386935763889
 30
0.0
 10
4.977010944538758
 20
-14.49363878038194
 30
0.0
 10
4.977567042629036
 20
-14.49342176649306
 30
0.0
 10
4.97813670408737
 20
-14.49319118923611
 30
0.0
  0
SPLINE
  5
50
330
1F
100
AcDbEntity
  8
Layer 1
 62
   179
420
  2301728
370
   106
100
AcDbSpline
210
0.0
220
0.0
230
1.0
 70
    11
 71
     3
 72
    44
 73
    40
 74
     0
 42
0.0000000001
 43
0.0000000001
 12
1.0
 22
0.0
 32
0.0
 13
1.0
 23
0.0
 33
0.0
 40
0.0
 40
0.0
 40
0.0
 40
0.0
 40
1.0
 40
1.0
 40
1.0
 40
2.0
 40
2.0
 40
2.0
 40
3.0
 40
3.0
 40
3.0
 40
4.0
 40
4.0
 40
4.0
 40
5.0
 40
5.0
 40
5.0
 40
6.0
 40
6.0
 40
6.0
 40
7.0
 40
7.0
 40
7.0
 40
8.0
 40
8.0
 40
8.0
 40
9.0
 40
9.0
 40
9.0
 40
10.0
 40
10.0
 40
10.0
 40
11.0
 40
11.0
 40
11.0
 40
12.0
 40
12.0
 40
12.0
 40
13.0
 40
13.0
 40
13.0
 40
13.0
 10
18.82407040634431
 20
-6.8394775390625
 30
0.0
 10
18.43423208169154
 20
-6.839491102430555
 30
0.0
 10
18.04264408255959
 20
-6.752712673611111
 30
0.0
 10
17.68617164332348
 20
-6.5867919921875
 30
0.0
 10
17.36419084905265
 20
-6.436916775173611
 30
0.0
 10
17.07397546276793
 20
-6.227077907986111
 30
0.0
 10
16.82360925183043
 20
-5.963107638888888
 30
0.0
 10
16.38316600096237
 20
-5.498738606770833
 30
0.0
 10
16.09715525877487
 20
-4.89404296875
 30
0.0
 10
16.0182571467957
 20
-4.260430230034722
 30
0.0
 10
15.89664798880959
 20
-3.283474392361111
 30
0.0
 10
16.2437210139832
 20
-2.465643988715278
 30
0.0
 10
16.51535458603181
 20
-1.935465494791667
 30
0.0
 10
17.04002635252487
 20
-0.9114583333333333
 30
0.0
 10
18.29546526311515
 20
-0.5066596137152778
 30
0.0
 10
19.31947242457348
 20
-1.031304253472222
 30
0.0
 10
19.50354089245542
 20
-1.1256103515625
 30
0.0
 10
19.66765764592765
 20
-1.243584526909722
 30
0.0
 10
19.80991025009431
 20
-1.379530164930556
 30
0.0
 10
19.9693069514832
 20
-1.409003363715278
 30
0.0
 10
20.12246450356654
 20
-1.448947482638889
 30
0.0
 10
20.26879968151792
 20
-1.499294704861111
 30
0.0
 10
20.63454946450404
 20
-1.625135633680555
 30
0.0
 10
20.9568557796082
 20
-1.815036349826389
 30
0.0
 10
21.22676680391376
 20
-2.063680013020833
 30
0.0
 10
21.60606639158737
 20
-2.413113064236111
 30
0.0
 10
21.86459775009431
 20
-2.863593207465278
 30
0.0
 10
21.97440677787209
 20
-3.366414388020833
 30
0.0
 10
22.14847904349709
 20
-4.163275824652778
 30
0.0
 10
21.92312368325404
 20
-4.986911349826388
 30
0.0
 10
21.35609351832348
 20
-5.6259765625
 30
0.0
 10
21.10572730738598
 20
-5.908148871527778
 30
0.0
 10
20.79625193846237
 20
-6.151258680555555
 30
0.0
 10
20.40994008950404
 20
-6.369194878472221
 30
0.0
 10
20.15336185599709
 20
-6.513943142361111
 30
0.0
 10
19.61954837943459
 20
-6.815090603298611
 30
0.0
 10
18.90859731606654
 20
-6.838107638888888
 30
0.0
 10
18.88046689071931
 20
-6.839016384548611
 30
0.0
 10
18.8522415217957
 20
-6.8394775390625
 30
0.0
 10
18.82407040634431
 20
-6.8394775390625
 30
0.0
  0
ENDSEC
  0
SECTION
  2
OBJECTS
  0
DICTIONARY
  5
C
330
0
100
AcDbDictionary
281
     1
  3
ACAD_GROUP
350
D
  3
ACAD_LAYOUT
350
1A
  3
ACAD_MATERIAL
350
3B
  3
ACAD_MLEADERSTYLE
350
52
  3
ACAD_MLINESTYLE
350
17
  3
ACAD_PLOTSETTINGS
350
19
  3
ACAD_PLOTSTYLENAME
350
E
  3
ACAD_TABLESTYLE
350
51
  3
ACAD_VISUALSTYLE
350
2A
  0
SUN
  5
3F
330
29
100
AcDbSun
 90
        1
290
     0
 63
     7
421
 16777215
 40
1.0
291
     1
 91
  2455826
 92
 54000000
292
     0
 70
     2
 71
   256
280
     1
  0
DICTIONARY
  5
D
102
{ACAD_REACTORS
330
C
102
}
330
C
100
AcDbDictionary
281
     1
  0
DICTIONARY
  5
1A
102
{ACAD_REACTORS
330
C
102
}
330
C
100
AcDbDictionary
281
     1
  3
Layout1
350
1E
  3
Layout2
350
26
  3
Model
350
22
  0
DICTIONARY
  5
3B
102
{ACAD_REACTORS
330
C
102
}
330
C
100
AcDbDictionary
281
     1
  3
ByBlock
350
3D
  3
ByLayer
350
3C
  3
Global
350
3E
  0
DICTIONARY
  5
52
102
{ACAD_REACTORS
330
C
102
}
330
C
100
AcDbDictionary
281
     1
  0
DICTIONARY
  5
17
102
{ACAD_REACTORS
330
C
102
}
330
C
100
AcDbDictionary
281
     1
  3
Standard
350
18
  0
DICTIONARY
  5
19
102
{ACAD_REACTORS
330
C
102
}
330
C
100
AcDbDictionary
281
     1
  0
ACDBDICTIONARYWDFLT
  5
E
102
{ACAD_REACTORS
330
C
102
}
330
C
100
AcDbDictionary
281
     1
  3
Normal
350
F
100
AcDbDictionaryWithDefault
340
F
  0
DICTIONARY
  5
51
102
{ACAD_REACTORS
330
C
102
}
330
C
100
AcDbDictionary
281
     1
  0
DICTIONARY
  5
2A
102
{ACAD_REACTORS
330
C
102
}
330
C
100
AcDbDictionary
281
     1
  3
2dWireframe
350
2F
  3
3D Hidden
350
31
  3
3dWireframe
350
30
  3
Basic
350
32
  3
Brighten
350
36
  3
ColorChange
350
3A
  3
Conceptual
350
34
  3
Dim
350
35
  3
Facepattern
350
39
  3
Flat
350
2B
  3
FlatWithEdges
350
2C
  3
Gouraud
350
2D
  3
GouraudWithEdges
350
2E
  3
Linepattern
350
38
  3
Realistic
350
33
  3
Thicken
350
37
  0
LAYOUT
  5
1E
102
{ACAD_REACTORS
330
1A
102
}
330
1A
100
AcDbPlotSettings
  1

  2
none_device
  4

  6

 40
0.0
 41
0.0
 42
0.0
 43
0.0
 44
0.0
 45
0.0
 46
0.0
 47
0.0
 48
0.0
 49
0.0
140
0.0
141
0.0
142
1.0
143
1.0
 70
   688
 72
     0
 73
     0
 74
     5
  7

 75
    16
 76
     0
 77
     2
 78
   300
147
1.0
148
0.0
149
0.0
100
AcDbLayout
  1
Layout1
 70
     1
 71
     1
 10
0.0
 20
0.0
 11
12.0
 21
9.0
 12
0.0
 22
0.0
 32
0.0
 14
1.000000000000000E+20
 24
1.000000000000000E+20
 34
1.000000000000000E+20
 15
-1.000000000000000E+20
 25
-1.000000000000000E+20
 35
-1.000000000000000E+20
146
0.0
 13
0.0
 23
0.0
 33
0.0
 16
1.0
 26
0.0
 36
0.0
 17
0.0
 27
1.0
 37
0.0
 76
     0
330
1B
  0
LAYOUT
  5
26
102
{ACAD_REACTORS
330
1A
102
}
330
1A
100
AcDbPlotSettings
  1

  2
none_device
  4

  6

 40
0.0
 41
0.0
 42
0.0
 43
0.0
 44
0.0
 45
0.0
 46
0.0
 47
0.0
 48
0.0
 49
0.0
140
0.0
141
0.0
142
1.0
143
1.0
 70
   688
 72
     0
 73
     0
 74
     5
  7

 75
    16
 76
     0
 77
     2
 78
   300
147
1.0
148
0.0
149
0.0
100
AcDbLayout
  1
Layout2
 70
     1
 71
     2
 10
0.0
 20
0.0
 11
0.0
 21
0.0
 12
0.0
 22
0.0
 32
0.0
 14
0.0
 24
0.0
 34
0.0
 15
0.0
 25
0.0
 35
0.0
146
0.0
 13
0.0
 23
0.0
 33
0.0
 16
1.0
 26
0.0
 36
0.0
 17
0.0
 27
1.0
 37
0.0
 76
     0
330
23
  0
LAYOUT
  5
22
102
{ACAD_REACTORS
330
1A
102
}
330
1A
100
AcDbPlotSettings
  1

  2
none_device
  4

  6

 40
0.0
 41
0.0
 42
0.0
 43
0.0
 44
0.0
 45
0.0
 46
0.0
 47
0.0
 48
0.0
 49
0.0
140
0.0
141
0.0
142
1.0
143
1.0
 70
  1712
 72
     0
 73
     0
 74
     0
  7

 75
     0
 76
     0
 77
     2
 78
   300
147
1.0
148
0.0
149
0.0
100
AcDbLayout
  1
Model
 70
     1
 71
     0
 10
0.0
 20
0.0
 11
12.0
 21
9.0
 12
0.0
 22
0.0
 32
0.0
 14
1.000000000000000E+20
 24
1.000000000000000E+20
 34
1.000000000000000E+20
 15
-1.000000000000000E+20
 25
-1.000000000000000E+20
 35
-1.000000000000000E+20
146
0.0
 13
0.0
 23
0.0
 33
0.0
 16
1.0
 26
0.0
 36
0.0
 17
0.0
 27
1.0
 37
0.0
 76
     0
330
1F
331
29
  0
MATERIAL
  5
3D
102
{ACAD_REACTORS
330
3B
102
}
330
3B
100
AcDbMaterial
  1
ByBlock
 72
     1
 94
      127
  0
MATERIAL
  5
3C
102
{ACAD_REACTORS
330
3B
102
}
330
3B
100
AcDbMaterial
  1
ByLayer
 72
     1
 94
      127
  0
MATERIAL
  5
3E
102
{ACAD_REACTORS
330
3B
102
}
330
3B
100
AcDbMaterial
  1
Global
 72
     1
 94
      127
  0
MLINESTYLE
  5
18
102
{ACAD_REACTORS
330
17
102
}
330
17
100
AcDbMlineStyle
  2
Standard
 70
     0
  3

 62
   256
 51
90.0
 52
90.0
 71
     2
 49
0.5
 62
   256
  6
BYLAYER
 49
-0.5
 62
   256
  6
BYLAYER
  0
ACDBPLACEHOLDER
  5
F
102
{ACAD_REACTORS
330
E
102
}
330
E
  0
VISUALSTYLE
  5
2F
102
{ACAD_REACTORS
330
2A
102
}
330
2A
100
AcDbVisualStyle
  2
2dWireframe
 70
     4
177
     2
291
     0
 71
     0
176
     1
 72
     2
176
     1
 73
     0
176
     1
 90
        0
176
     1
 40
-0.6
176
     1
 41
-30.0
176
     1
 62
     5
 63
     7
421
 16777215
176
     1
 74
     1
176
     1
 91
        4
176
     1
 64
     7
176
     1
 65
   257
176
     1
 75
     1
176
     1
175
     1
176
     1
 42
1.0
176
     1
 92
        0
176
     1
 66
   257
176
     1
 43
1.0
176
     1
 76
     1
176
     1
 77
     6
176
     1
 78
     2
176
     1
 67
     7
176
     1
 79
     5
176
     1
170
     0
176
     1
171
     0
176
     1
290
     0
176
     1
 93
        1
176
     1
 44
0.0
176
     1
173
     0
176
     1
  0
VISUALSTYLE
  5
31
102
{ACAD_REACTORS
330
2A
102
}
330
2A
100
AcDbVisualStyle
  2
3D Hidden
 70
     6
177
     2
291
     0
 71
     1
176
     1
 72
     2
176
     1
 73
     2
176
     1
 90
        0
176
     1
 40
-0.6
176
     1
 41
-30.0
176
     1
 62
     5
 63
     7
421
 16777215
176
     1
 74
     2
176
     1
 91
        2
176
     1
 64
     7
176
     1
 65
   257
176
     1
 75
     2
176
     1
175
     1
176
     1
 42
40.0
176
     1
 92
        0
176
     1
 66
   257
176
     1
 43
1.0
176
     1
 76
     1
176
     1
 77
     6
176
     1
 78
     2
176
     1
 67
     7
176
     1
 79
     3
176
     1
170
     0
176
     1
171
     0
176
     1
290
     0
176
     1
 93
        1
176
     1
 44
0.0
176
     1
173
     0
176
     1
  0
VISUALSTYLE
  5
30
102
{ACAD_REACTORS
330
2A
102
}
330
2A
100
AcDbVisualStyle
  2
3dWireframe
 70
     5
177
     2
291
     0
 71
     0
176
     1
 72
     2
176
     1
 73
     0
176
     1
 90
        0
176
     1
 40
-0.6
176
     1
 41
-30.0
176
     1
 62
     5
 63
     7
421
 16777215
176
     1
 74
     1
176
     1
 91
        4
176
     1
 64
     7
176
     1
 65
   257
176
     1
 75
     1
176
     1
175
     1
176
     1
 42
1.0
176
     1
 92
        0
176
     1
 66
   257
176
     1
 43
1.0
176
     1
 76
     1
176
     1
 77
     6
176
     1
 78
     2
176
     1
 67
     7
176
     1
 79
     5
176
     1
170
     0
176
     1
171
     0
176
     1
290
     0
176
     1
 93
        1
176
     1
 44
0.0
176
     1
173
     0
176
     1
  0
VISUALSTYLE
  5
32
102
{ACAD_REACTORS
330
2A
102
}
330
2A
100
AcDbVisualStyle
  2
Basic
 70
     7
177
     2
291
     1
 71
     1
176
     1
 72
     0
176
     1
 73
     1
176
     1
 90
        0
176
     1
 40
-0.6
176
     1
 41
-30.0
176
     1
 62
     5
 63
     7
421
 16777215
176
     1
 74
     0
176
     1
 91
        4
176
     1
 64
     7
176
     1
 65
   257
176
     1
 75
     1
176
     1
175
     1
176
     1
 42
1.0
176
     1
 92
        8
176
     1
 66
     7
176
     1
 43
1.0
176
     1
 76
     1
176
     1
 77
     6
176
     1
 78
     2
176
     1
 67
     7
176
     1
 79
     5
176
     1
170
     0
176
     1
171
     0
176
     1
290
     0
176
     1
 93
        1
176
     1
 44
0.0
176
     1
173
     0
176
     1
  0
VISUALSTYLE
  5
36
102
{ACAD_REACTORS
330
2A
102
}
330
2A
100
AcDbVisualStyle
  2
Brighten
 70
    12
177
     2
291
     1
 71
     2
176
     1
 72
     2
176
     1
 73
     0
176
     1
 90
        0
176
     1
 40
-0.6
176
     1
 41
-30.0
176
     1
 62
     5
 63
     7
421
 16777215
176
     1
 74
     1
176
     1
 91
        4
176
     1
 64
     7
176
     1
 65
   257
176
     1
 75
     1
176
     1
175
     1
176
     1
 42
1.0
176
     1
 92
        8
176
     1
 66
     7
176
     1
 43
1.0
176
     1
 76
     1
176
     1
 77
     6
176
     1
 78
     2
176
     1
 67
     7
176
     1
 79
     5
176
     1
170
     0
176
     1
171
     0
176
     1
290
     0
176
     1
 93
        1
176
     1
 44
50.0
176
     1
173
     0
176
     1
  0
VISUALSTYLE
  5
3A
102
{ACAD_REACTORS
330
2A
102
}
330
2A
100
AcDbVisualStyle
  2
ColorChange
 70
    16
177
     2
291
     1
 71
     2
176
     1
 72
     2
176
     1
 73
     3
176
     1
 90
        0
176
     1
 40
-0.6
176
     1
 41
-30.0
176
     1
 62
     5
 63
     8
421
  8421504
176
     1
 74
     1
176
     1
 91
        4
176
     1
 64
     7
176
     1
 65
   257
176
     1
 75
     1
176
     1
175
     1
176
     1
 42
1.0
176
     1
 92
        8
176
     1
 66
     8
424
  8421504
176
     1
 43
1.0
176
     1
 76
     1
176
     1
 77
     6
176
     1
 78
     2
176
     1
 67
     7
176
     1
 79
     5
176
     1
170
     0
176
     1
171
     0
176
     1
290
     0
176
     1
 93
        1
176
     1
 44
0.0
176
     1
173
     0
176
     1
  0
VISUALSTYLE
  5
34
102
{ACAD_REACTORS
330
2A
102
}
330
2A
100
AcDbVisualStyle
  2
Conceptual
 70
     9
177
     2
291
     0
 71
     3
176
     1
 72
     2
176
     1
 73
     0
176
     1
 90
        0
176
     1
 40
-0.6
176
     1
 41
-30.0
176
     1
 62
     5
 63
     7
421
 16777215
176
     1
 74
     2
176
     1
 91
        2
176
     1
 64
     7
176
     1
 65
   257
176
     1
 75
     1
176
     1
175
     1
176
     1
 42
40.0
176
     1
 92
        8
176
     1
 66
     7
176
     1
 43
1.0
176
     1
 76
     1
176
     1
 77
     6
176
     1
 78
     2
176
     1
 67
     7
176
     1
 79
     3
176
     1
170
     0
176
     1
171
     0
176
     1
290
     0
176
     1
 93
        1
176
     1
 44
0.0
176
     1
173
     0
176
     1
  0
VISUALSTYLE
  5
35
102
{ACAD_REACTORS
330
2A
102
}
330
2A
100
AcDbVisualStyle
  2
Dim
 70
    11
177
     2
291
     1
 71
     2
176
     1
 72
     2
176
     1
 73
     0
176
     1
 90
        0
176
     1
 40
-0.6
176
     1
 41
-30.0
176
     1
 62
     5
 63
     7
421
 16777215
176
     1
 74
     1
176
     1
 91
        4
176
     1
 64
     7
176
     1
 65
   257
176
     1
 75
     1
176
     1
175
     1
176
     1
 42
1.0
176
     1
 92
        8
176
     1
 66
     7
176
     1
 43
1.0
176
     1
 76
     1
176
     1
 77
     6
176
     1
 78
     2
176
     1
 67
     7
176
     1
 79
     5
176
     1
170
     0
176
     1
171
     0
176
     1
290
     0
176
     1
 93
        1
176
     1
 44
-50.0
176
     1
173
     0
176
     1
  0
VISUALSTYLE
  5
39
102
{ACAD_REACTORS
330
2A
102
}
330
2A
100
AcDbVisualStyle
  2
Facepattern
 70
    15
177
     2
291
     1
 71
     2
176
     1
 72
     2
176
     1
 73
     0
176
     1
 90
        0
176
     1
 40
-0.6
176
     1
 41
-30.0
176
     1
 62
     5
 63
     7
421
 16777215
176
     1
 74
     1
176
     1
 91
        4
176
     1
 64
     7
176
     1
 65
   257
176
     1
 75
     1
176
     1
175
     1
176
     1
 42
1.0
176
     1
 92
        8
176
     1
 66
     7
176
     1
 43
1.0
176
     1
 76
     1
176
     1
 77
     6
176
     1
 78
     2
176
     1
 67
     7
176
     1
 79
     5
176
     1
170
     0
176
     1
171
     0
176
     1
290
     0
176
     1
 93
        1
176
     1
 44
0.0
176
     1
173
     0
176
     1
  0
VISUALSTYLE
  5
2B
102
{ACAD_REACTORS
330
2A
102
}
330
2A
100
AcDbVisualStyle
  2
Flat
 70
     0
177
     2
291
     1
 71
     2
176
     1
 72
     1
176
     1
 73
     1
176
     1
 90
        2
176
     1
 40
-0.6
176
     1
 41
30.0
176
     1
 62
     5
 63
     7
421
 16777215
176
     1
 74
     0
176
     1
 91
        4
176
     1
 64
     7
176
     1
 65
   257
176
     1
 75
     1
176
     1
175
     1
176
     1
 42
1.0
176
     1
 92
        8
176
     1
 66
     7
176
     1
 43
1.0
176
     1
 76
     1
176
     1
 77
     6
176
     1
 78
     2
176
     1
 67
     7
176
     1
 79
     5
176
     1
170
     0
176
     1
171
     0
176
     1
290
     0
176
     1
 93
       13
176
     1
 44
0.0
176
     1
173
     0
176
     1
  0
VISUALSTYLE
  5
2C
102
{ACAD_REACTORS
330
2A
102
}
330
2A
100
AcDbVisualStyle
  2
FlatWithEdges
 70
     1
177
     2
291
     1
 71
     2
176
     1
 72
     1
176
     1
 73
     1
176
     1
 90
        2
176
     1
 40
-0.6
176
     1
 41
30.0
176
     1
 62
     5
 63
     7
421
 16777215
176
     1
 74
     1
176
     1
 91
        4
176
     1
 64
     7
176
     1
 65
   257
176
     1
 75
     1
176
     1
175
     1
176
     1
 42
1.0
176
     1
 92
        0
176
     1
 66
   257
176
     1
 43
1.0
176
     1
 76
     1
176
     1
 77
     6
176
     1
 78
     2
176
     1
 67
     7
176
     1
 79
     5
176
     1
170
     0
176
     1
171
     0
176
     1
290
     0
176
     1
 93
       13
176
     1
 44
0.0
176
     1
173
     0
176
     1
  0
VISUALSTYLE
  5
2D
102
{ACAD_REACTORS
330
2A
102
}
330
2A
100
AcDbVisualStyle
  2
Gouraud
 70
     2
177
     2
291
     1
 71
     2
176
     1
 72
     2
176
     1
 73
     1
176
     1
 90
        2
176
     1
 40
-0.6
176
     1
 41
30.0
176
     1
 62
     5
 63
     7
421
 16777215
176
     1
 74
     0
176
     1
 91
        4
176
     1
 64
     7
176
     1
 65
   257
176
     1
 75
     1
176
     1
175
     1
176
     1
 42
1.0
176
     1
 92
        0
176
     1
 66
     7
176
     1
 43
1.0
176
     1
 76
     1
176
     1
 77
     6
176
     1
 78
     2
176
     1
 67
     7
176
     1
 79
     5
176
     1
170
     0
176
     1
171
     0
176
     1
290
     0
176
     1
 93
       13
176
     1
 44
0.0
176
     1
173
     0
176
     1
  0
VISUALSTYLE
  5
2E
102
{ACAD_REACTORS
330
2A
102
}
330
2A
100
AcDbVisualStyle
  2
GouraudWithEdges
 70
     3
177
     2
291
     1
 71
     2
176
     1
 72
     2
176
     1
 73
     1
176
     1
 90
        2
176
     1
 40
-0.6
176
     1
 41
30.0
176
     1
 62
     5
 63
     7
421
 16777215
176
     1
 74
     1
176
     1
 91
        4
176
     1
 64
     7
176
     1
 65
   257
176
     1
 75
     1
176
     1
175
     1
176
     1
 42
1.0
176
     1
 92
        0
176
     1
 66
   257
176
     1
 43
1.0
176
     1
 76
     1
176
     1
 77
     6
176
     1
 78
     2
176
     1
 67
     7
176
     1
 79
     5
176
     1
170
     0
176
     1
171
     0
176
     1
290
     0
176
     1
 93
       13
176
     1
 44
0.0
176
     1
173
     0
176
     1
  0
VISUALSTYLE
  5
38
102
{ACAD_REACTORS
330
2A
102
}
330
2A
100
AcDbVisualStyle
  2
Linepattern
 70
    14
177
     2
291
     1
 71
     2
176
     1
 72
     2
176
     1
 73
     0
176
     1
 90
        0
176
     1
 40
-0.6
176
     1
 41
-30.0
176
     1
 62
     5
 63
     7
421
 16777215
176
     1
 74
     1
176
     1
 91
        4
176
     1
 64
     7
176
     1
 65
   257
176
     1
 75
     7
176
     1
175
     7
176
     1
 42
1.0
176
     1
 92
        8
176
     1
 66
     7
176
     1
 43
1.0
176
     1
 76
     1
176
     1
 77
     6
176
     1
 78
     2
176
     1
 67
     7
176
     1
 79
     5
176
     1
170
     0
176
     1
171
     0
176
     1
290
     0
176
     1
 93
        1
176
     1
 44
0.0
176
     1
173
     0
176
     1
  0
VISUALSTYLE
  5
33
102
{ACAD_REACTORS
330
2A
102
}
330
2A
100
AcDbVisualStyle
  2
Realistic
 70
     8
177
     2
291
     0
 71
     2
176
     1
 72
     2
176
     1
 73
     0
176
     1
 90
        0
176
     1
 40
-0.6
176
     1
 41
-30.0
176
     1
 62
     5
 63
     7
421
 16777215
176
     1
 74
     1
176
     1
 91
        0
176
     1
 64
     7
176
     1
 65
   257
176
     1
 75
     1
176
     1
175
     1
176
     1
 42
1.0
176
     1
 92
        8
176
     1
 66
     8
424
  7895160
176
     1
 43
1.0
176
     1
 76
     1
176
     1
 77
     6
176
     1
 78
     2
176
     1
 67
     7
176
     1
 79
     5
176
     1
170
     0
176
     1
171
     0
176
     1
290
     0
176
     1
 93
       13
176
     1
 44
0.0
176
     1
173
     0
176
     1
  0
VISUALSTYLE
  5
37
102
{ACAD_REACTORS
330
2A
102
}
330
2A
100
AcDbVisualStyle
  2
Thicken
 70
    13
177
     2
291
     1
 71
     2
176
     1
 72
     2
176
     1
 73
     0
176
     1
 90
        0
176
     1
 40
-0.6
176
     1
 41
-30.0
176
     1
 62
     5
 63
     7
421
 16777215
176
     1
 74
     1
176
     1
 91
        4
176
     1
 64
     7
176
     1
 65
   257
176
     1
 75
     1
176
     1
175
     1
176
     1
 42
1.0
176
     1
 92
       12
176
     1
 66
     7
176
     1
 43
1.0
176
     1
 76
     1
176
     1
 77
     6
176
     1
 78
     2
176
     1
 67
     7
176
     1
 79
     5
176
     1
170
     0
176
     1
171
     0
176
     1
290
     0
176
     1
 93
        1
176
     1
 44
0.0
176
     1
173
     0
176
     1
  0
ENDSEC
  0
EOF
