  0
SECTION
  2
HEADER
  9
$ACADVER
  1
AC1024
  9
$ACADMAINTVER
 70
     6
  9
$DWGCODEPAGE
  3
UNDEFINED
  9
$INSBASE
 10
0.0
 20
0.0
 30
0.0
  9
$EXTMIN
 10
1.000000000000000E+20
 20
1.000000000000000E+20
 30
1.000000000000000E+20
  9
$EXTMAX
 10
-1.000000000000000E+20
 20
-1.000000000000000E+20
 30
-1.000000000000000E+20
  9
$LIMMIN
 10
0.0
 20
0.0
  9
$LIMMAX
 10
12.0
 20
9.0
  9
$ORTHOMODE
 70
     0
  9
$REGENMODE
 70
     1
  9
$FILLMODE
 70
     1
  9
$QTEXTMODE
 70
     0
  9
$MIRRTEXT
 70
     1
  9
$LTSCALE
 40
1.0
  9
$ATTMODE
 70
     1
  9
$TEXTSIZE
 40
0.2
  9
$TRACEWID
 40
0.05
  9
$TEXTSTYLE
  7
Standard
  9
$CLAYER
  8
0
  9
$CELTYPE
  6
ByLayer
  9
$CECOLOR
 62
   256
  9
$CELTSCALE
 40
1.0
  9
$DISPSILH
 70
     0
  9
$DIMSCALE
 40
1.0
  9
$DIMASZ
 40
0.18
  9
$DIMEXO
 40
0.0625
  9
$DIMDLI
 40
0.38
  9
$DIMRND
 40
0.0
  9
$DIMDLE
 40
0.0
  9
$DIMEXE
 40
0.18
  9
$DIMTP
 40
0.0
  9
$DIMTM
 40
0.0
  9
$DIMTXT
 40
0.18
  9
$DIMCEN
 40
0.09
  9
$DIMTSZ
 40
0.0
  9
$DIMTOL
 70
     0
  9
$DIMLIM
 70
     0
  9
$DIMTIH
 70
     1
  9
$DIMTOH
 70
     1
  9
$DIMSE1
 70
     0
  9
$DIMSE2
 70
     0
  9
$DIMTAD
 70
     0
  9
$DIMZIN
 70
     0
  9
$DIMBLK
  1

  9
$DIMASO
 70
     1
  9
$DIMSHO
 70
     1
  9
$DIMPOST
  1

  9
$DIMAPOST
  1

  9
$DIMALT
 70
     0
  9
$DIMALTD
 70
     2
  9
$DIMALTF
 40
25.4
  9
$DIMLFAC
 40
1.0
  9
$DIMTOFL
 70
     0
  9
$DIMTVP
 40
0.0
  9
$DIMTIX
 70
     0
  9
$DIMSOXD
 70
     0
  9
$DIMSAH
 70
     0
  9
$DIMBLK1
  1

  9
$DIMBLK2
  1

  9
$DIMSTYLE
  2
Standard
  9
$DIMCLRD
 70
     0
  9
$DIMCLRE
 70
     0
  9
$DIMCLRT
 70
     0
  9
$DIMTFAC
 40
1.0
  9
$DIMGAP
 40
0.09
  9
$DIMJUST
 70
     0
  9
$DIMSD1
 70
     0
  9
$DIMSD2
 70
     0
  9
$DIMTOLJ
 70
     1
  9
$DIMTZIN
 70
     0
  9
$DIMALTZ
 70
     0
  9
$DIMALTTZ
 70
     0
  9
$DIMUPT
 70
     0
  9
$DIMDEC
 70
     4
  9
$DIMTDEC
 70
     4
  9
$DIMALTU
 70
     2
  9
$DIMALTTD
 70
     2
  9
$DIMTXSTY
  7
Standard
  9
$DIMAUNIT
 70
     0
  9
$DIMADEC
 70
     0
  9
$DIMALTRND
 40
0.0
  9
$DIMAZIN
 70
     0
  9
$DIMDSEP
 70
    46
  9
$DIMATFIT
 70
     3
  9
$DIMFRAC
 70
     0
  9
$DIMLDRBLK
  1

  9
$DIMLUNIT
 70
     2
  9
$DIMLWD
 70
    -2
  9
$DIMLWE
 70
    -2
  9
$DIMTMOVE
 70
     0
  9
$DIMFXL
 40
1.0
  9
$DIMFXLON
 70
     0
  9
$DIMJOGANG
 40
0.7853981633974483
  9
$DIMTFILL
 70
     0
  9
$DIMTFILLCLR
 70
     0
  9
$DIMARCSYM
 70
     0
  9
$DIMLTYPE
  6

  9
$DIMLTEX1
  6

  9
$DIMLTEX2
  6

  9
$DIMTXTDIRECTION
 70
     0
  9
$LUNITS
 70
     2
  9
$LUPREC
 70
     4
  9
$SKETCHINC
 40
0.1
  9
$FILLETRAD
 40
0.5
  9
$AUNITS
 70
     0
  9
$AUPREC
 70
     0
  9
$MENU
  1
.
  9
$ELEVATION
 40
0.0
  9
$PELEVATION
 40
0.0
  9
$THICKNESS
 40
0.0
  9
$LIMCHECK
 70
     0
  9
$CHAMFERA
 40
0.5
  9
$CHAMFERB
 40
0.5
  9
$CHAMFERC
 40
1.0
  9
$CHAMFERD
 40
0.0
  9
$SKPOLY
 70
     0
  9
$TDCREATE
 40
2458424.614016192
  9
$TDUCREATE
 40
2458424.947349537
  9
$TDUPDATE
 40
2458424.614016192
  9
$TDUUPDATE
 40
2458424.947349537
  9
$TDINDWG
 40
0.0000000116
  9
$TDUSRTIMER
 40
0.0000000116
  9
$USRTIMER
 70
     1
  9
$ANGBASE
 50
0.0
  9
$ANGDIR
 70
     0
  9
$PDMODE
 70
     0
  9
$PDSIZE
 40
0.0
  9
$PLINEWID
 40
0.0
  9
$SPLFRAME
 70
     0
  9
$SPLINETYPE
 70
     6
  9
$SPLINESEGS
 70
     8
  9
$HANDSEED
  5
84
  9
$SURFTAB1
 70
     6
  9
$SURFTAB2
 70
     6
  9
$SURFTYPE
 70
     6
  9
$SURFU
 70
     6
  9
$SURFV
 70
     6
  9
$UCSBASE
  2

  9
$UCSNAME
  2

  9
$UCSORG
 10
0.0
 20
0.0
 30
0.0
  9
$UCSXDIR
 10
1.0
 20
0.0
 30
0.0
  9
$UCSYDIR
 10
0.0
 20
1.0
 30
0.0
  9
$UCSORTHOREF
  2

  9
$UCSORTHOVIEW
 70
     0
  9
$UCSORGTOP
 10
0.0
 20
0.0
 30
0.0
  9
$UCSORGBOTTOM
 10
0.0
 20
0.0
 30
0.0
  9
$UCSORGLEFT
 10
0.0
 20
0.0
 30
0.0
  9
$UCSORGRIGHT
 10
0.0
 20
0.0
 30
0.0
  9
$UCSORGFRONT
 10
0.0
 20
0.0
 30
0.0
  9
$UCSORGBACK
 10
0.0
 20
0.0
 30
0.0
  9
$PUCSBASE
  2

  9
$PUCSNAME
  2

  9
$PUCSORG
 10
0.0
 20
0.0
 30
0.0
  9
$PUCSXDIR
 10
1.0
 20
0.0
 30
0.0
  9
$PUCSYDIR
 10
0.0
 20
1.0
 30
0.0
  9
$PUCSORTHOREF
  2

  9
$PUCSORTHOVIEW
 70
     0
  9
$PUCSORGTOP
 10
0.0
 20
0.0
 30
0.0
  9
$PUCSORGBOTTOM
 10
0.0
 20
0.0
 30
0.0
  9
$PUCSORGLEFT
 10
0.0
 20
0.0
 30
0.0
  9
$PUCSORGRIGHT
 10
0.0
 20
0.0
 30
0.0
  9
$PUCSORGFRONT
 10
0.0
 20
0.0
 30
0.0
  9
$PUCSORGBACK
 10
0.0
 20
0.0
 30
0.0
  9
$USERI1
 70
     0
  9
$USERI2
 70
     0
  9
$USERI3
 70
     0
  9
$USERI4
 70
     0
  9
$USERI5
 70
     0
  9
$USERR1
 40
0.0
  9
$USERR2
 40
0.0
  9
$USERR3
 40
0.0
  9
$USERR4
 40
0.0
  9
$USERR5
 40
0.0
  9
$WORLDVIEW
 70
     1
  9
$SHADEDGE
 70
     3
  9
$SHADEDIF
 70
    70
  9
$TILEMODE
 70
     1
  9
$MAXACTVP
 70
    64
  9
$PINSBASE
 10
0.0
 20
0.0
 30
0.0
  9
$PLIMCHECK
 70
     0
  9
$PEXTMIN
 10
1.000000000000000E+20
 20
1.000000000000000E+20
 30
1.000000000000000E+20
  9
$PEXTMAX
 10
-1.000000000000000E+20
 20
-1.000000000000000E+20
 30
-1.000000000000000E+20
  9
$PLIMMIN
 10
0.0
 20
0.0
  9
$PLIMMAX
 10
12.0
 20
9.0
  9
$UNITMODE
 70
     0
  9
$VISRETAIN
 70
     1
  9
$PLINEGEN
 70
     0
  9
$PSLTSCALE
 70
     1
  9
$TREEDEPTH
 70
  3020
  9
$CMLSTYLE
  2
Standard
  9
$CMLJUST
 70
     0
  9
$CMLSCALE
 40
1.0
  9
$PROXYGRAPHICS
 70
     1
  9
$MEASUREMENT
 70
     0
  9
$CELWEIGHT
370
    -1
  9
$ENDCAPS
280
     0
  9
$JOINSTYLE
280
     0
  9
$LWDISPLAY
290
     1
  9
$INSUNITS
 70
     1
  9
$HYPERLINKBASE
  1

  9
$STYLESHEET
  1

  9
$XEDIT
290
     1
  9
$CEPSNTYPE
380
     0
  9
$PSTYLEMODE
290
     1
  9
$FINGERPRINTGUID
  2
{07AB96EA-F1DE-8D0B-1415-43B05B64AD1C}
  9
$VERSIONGUID
  2
{FAEB1C32-E019-11D5-929B-00C0DF256EC4}
  9
$EXTNAMES
290
     1
  9
$PSVPSCALE
 40
0.0
  9
$OLESTARTUP
290
     0
  9
$SORTENTS
280
   127
  9
$INDEXCTL
280
     0
  9
$HIDETEXT
280
     1
  9
$XCLIPFRAME
280
     2
  9
$HALOGAP
280
     0
  9
$OBSCOLOR
 70
   257
  9
$OBSLTYPE
280
     0
  9
$INTERSECTIONDISPLAY
280
     0
  9
$INTERSECTIONCOLOR
 70
   257
  9
$DIMASSOC
280
     2
  9
$PROJECTNAME
  1

  9
$CAMERADISPLAY
290
     0
  9
$LENSLENGTH
 40
50.0
  9
$CAMERAHEIGHT
 40
0.0
  9
$STEPSPERSEC
 40
2.0
  9
$STEPSIZE
 40
6.0
  9
$3DDWFPREC
 40
2.0
  9
$PSOLWIDTH
 40
0.25
  9
$PSOLHEIGHT
 40
4.0
  9
$LOFTANG1
 40
1.570796326794897
  9
$LOFTANG2
 40
1.570796326794897
  9
$LOFTMAG1
 40
0.0
  9
$LOFTMAG2
 40
0.0
  9
$LOFTPARAM
 70
     7
  9
$LOFTNORMALS
280
     1
  9
$LATITUDE
 40
37.795
  9
$LONGITUDE
 40
-122.394
  9
$NORTHDIRECTION
 40
0.0
  9
$TIMEZONE
 70
 -8000
  9
$LIGHTGLYPHDISPLAY
280
     1
  9
$TILEMODELIGHTSYNCH
280
     1
  9
$CMATERIAL
347
3C
  9
$SOLIDHIST
280
     1
  9
$SHOWHIST
280
     1
  9
$DWFFRAME
280
     2
  9
$DGNFRAME
280
     2
  9
$REALWORLDSCALE
290
     1
  9
$INTERFERECOLOR
 62
   256
  9
$CSHADOW
280
     0
  9
$SHADOWPLANELOCATION
 40
0.0
  0
ENDSEC
  0
SECTION
  2
CLASSES
  0
CLASS
  1
ACDBDICTIONARYWDFLT
  2
AcDbDictionaryWithDefault
  3
ObjectDBX Classes
 90
        0
 91
        4
280
     0
281
     0
  0
CLASS
  1
VISUALSTYLE
  2
AcDbVisualStyle
  3
ObjectDBX Classes
 90
     4095
 91
        4
280
     0
281
     0
  0
CLASS
  1
MATERIAL
  2
AcDbMaterial
  3
ObjectDBX Classes
 90
     1153
 91
        4
280
     0
281
     0
  0
CLASS
  1
SUN
  2
AcDbSun
  3
SCENEOE
 90
     1024
 91
        4
280
     0
281
     0
  0
ENDSEC
  0
SECTION
  2
TABLES
  0
TABLE
  2
VPORT
  5
8
330
0
100
AcDbSymbolTable
 70
     1
  0
VPORT
  5
29
330
8
100
AcDbSymbolTableRecord
100
AcDbViewportTableRecord
  2
*Active
 70
     0
 10
0.0
 20
0.0
 11
1.0
 21
1.0
 12
0.0
 22
0.0
 13
0.0
 23
0.0
 14
0.5
 24
0.5
 15
0.5
 25
0.5
 16
0.0
 26
0.0
 36
1.0
 17
12.0
 27
-9.0
 37
0.0
 40
18.0
 41
1.333333333333333
 42
50.0
 43
0.0
 44
0.0
 50
0.0
 51
0.0
 71
     0
 72
   100
 73
     1
 74
     3
 75
     0
 76
     0
 77
     0
 78
     0
281
     0
 65
     1
110
0.0
120
0.0
130
0.0
111
1.0
121
0.0
131
0.0
112
0.0
122
1.0
132
0.0
 79
     0
146
0.0
 60
     3
 61
     5
292
     1
282
     1
141
0.0
142
0.0
 63
   250
361
3F
  0
ENDTAB
  0
TABLE
  2
LTYPE
  5
5
330
0
100
AcDbSymbolTable
 70
     1
  0
LTYPE
  5
14
330
5
100
AcDbSymbolTableRecord
100
AcDbLinetypeTableRecord
  2
ByBlock
 70
     0
  3

 72
    65
 73
     0
 40
0.0
  0
LTYPE
  5
15
330
5
100
AcDbSymbolTableRecord
100
AcDbLinetypeTableRecord
  2
ByLayer
 70
     0
  3

 72
    65
 73
     0
 40
0.0
  0
LTYPE
  5
16
330
5
100
AcDbSymbolTableRecord
100
AcDbLinetypeTableRecord
  2
Continuous
 70
     0
  3
Solid line
 72
    65
 73
     0
 40
0.0
  0
ENDTAB
  0
TABLE
  2
LAYER
  5
2
330
0
100
AcDbSymbolTable
 70
     2
  0
LAYER
  5
10
330
2
100
AcDbSymbolTableRecord
100
AcDbLayerTableRecord
  2
0
 70
     0
 62
     7
  6
Continuous
370
    -3
390
F
347
3E
  0
LAYER
  5
40
330
2
100
AcDbSymbolTableRecord
100
AcDbLayerTableRecord
  2
Layer 1
 70
     0
 62
     7
  6
Continuous
370
    -3
390
F
347
3E
  0
ENDTAB
  0
TABLE
  2
STYLE
  5
3
330
0
100
AcDbSymbolTable
 70
     1
  0
STYLE
  5
11
330
3
100
AcDbSymbolTableRecord
100
AcDbTextStyleTableRecord
  2
Standard
 70
     0
 40
0.0
 41
1.0
 50
0.0
 71
     0
 42
0.2
  3
txt
  4

  0
ENDTAB
  0
TABLE
  2
VIEW
  5
6
330
0
100
AcDbSymbolTable
 70
     0
  0
ENDTAB
  0
TABLE
  2
UCS
  5
7
330
0
100
AcDbSymbolTable
 70
     0
  0
ENDTAB
  0
TABLE
  2
APPID
  5
9
330
0
100
AcDbSymbolTable
 70
     1
  0
APPID
  5
12
330
9
100
AcDbSymbolTableRecord
100
AcDbRegAppTableRecord
  2
ACAD
 70
     0
  0
ENDTAB
  0
TABLE
  2
DIMSTYLE
  5
A
330
0
100
AcDbSymbolTable
 70
     1
100
AcDbDimStyleTable
  0
DIMSTYLE
105
27
330
A
100
AcDbSymbolTableRecord
100
AcDbDimStyleTableRecord
  2
Standard
 70
     0
178
     0
340
11
  0
ENDTAB
  0
TABLE
  2
BLOCK_RECORD
  5
1
330
0
100
AcDbSymbolTable
 70
     4
  0
BLOCK_RECORD
  5
1F
330
1
100
AcDbSymbolTableRecord
100
AcDbBlockTableRecord
  2
*Model_Space
340
22
 70
     0
280
     1
281
     0
  0
BLOCK_RECORD
  5
1B
330
1
100
AcDbSymbolTableRecord
100
AcDbBlockTableRecord
  2
*Paper_Space
340
1E
 70
     0
280
     1
281
     0
  0
BLOCK_RECORD
  5
23
330
1
100
AcDbSymbolTableRecord
100
AcDbBlockTableRecord
  2
*Paper_Space0
340
26
 70
     0
280
     1
281
     0
  0
BLOCK_RECORD
  5
41
330
1
100
AcDbSymbolTableRecord
100
AcDbBlockTableRecord
  2
block 2
340
0
102
{BLKREFS
331
42
102
}
 70
     0
280
     1
281
     0
  0
BLOCK_RECORD
  5
50
330
1
100
AcDbSymbolTableRecord
100
AcDbBlockTableRecord
  2
block 3
340
0
102
{BLKREFS
331
51
102
}
 70
     0
280
     1
281
     0
  0
BLOCK_RECORD
  5
63
330
1
100
AcDbSymbolTableRecord
100
AcDbBlockTableRecord
  2
block 4
340
0
102
{BLKREFS
331
64
102
}
 70
     0
280
     1
281
     0
  0
ENDTAB
  0
ENDSEC
  0
SECTION
  2
BLOCKS
  0
BLOCK
  5
20
330
1F
100
AcDbEntity
  8
0
100
AcDbBlockBegin
  2
*Model_Space
 70
     0
 10
0.0
 20
0.0
 30
0.0
  3
*Model_Space
  1

  0
ENDBLK
  5
21
330
1F
100
AcDbEntity
  8
0
100
AcDbBlockEnd
  0
BLOCK
  5
1C
330
1B
100
AcDbEntity
 67
     1
  8
0
100
AcDbBlockBegin
  2
*Paper_Space
 70
     0
 10
0.0
 20
0.0
 30
0.0
  3
*Paper_Space
  1

  0
ENDBLK
  5
1D
330
1B
100
AcDbEntity
 67
     1
  8
0
100
AcDbBlockEnd
  0
BLOCK
  5
24
330
23
100
AcDbEntity
  8
0
100
AcDbBlockBegin
  2
*Paper_Space0
 70
     0
 10
0.0
 20
0.0
 30
0.0
  3
*Paper_Space0
  1

  0
ENDBLK
  5
25
330
23
100
AcDbEntity
  8
0
100
AcDbBlockEnd
  0
BLOCK
  5
43
330
41
100
AcDbEntity
  8
0
100
AcDbBlockBegin
  2
block 2
 70
     0
 10
0.0
 20
0.0
 30
0.0
  3
block 2
  1

  0
SPLINE
  5
45
330
41
100
AcDbEntity
  8
Layer 1
 62
   179
420
  2301728
370
    35
100
AcDbSpline
210
0.0
220
0.0
230
1.0
 70
     8
 71
     3
 72
    17
 73
    13
 74
     0
 42
0.0000000001
 43
0.0000000001
 12
1.0
 22
0.0
 32
0.0
 13
1.0
 23
0.0
 33
0.0
 40
0.0
 40
0.0
 40
0.0
 40
0.0
 40
1.0
 40
1.0
 40
1.0
 40
2.0
 40
2.0
 40
2.0
 40
3.0
 40
3.0
 40
3.0
 40
4.0
 40
4.0
 40
4.0
 40
4.0
 10
22.6001663664038
 20
-5.677888331543348
 30
0.0
 10
22.6001663664038
 20
-8.092975020069767
 30
0.0
 10
20.64235177637607
 20
-10.05078961009758
 30
0.0
 10
18.2272650878497
 20
-10.05078961009758
 30
0.0
 10
15.81217839932333
 20
-10.05078961009758
 30
0.0
 10
13.85436380929549
 20
-8.092975020069767
 30
0.0
 10
13.85436380929549
 20
-5.677888331543348
 30
0.0
 10
13.85436380929549
 20
-3.866573315148596
 30
0.0
 10
12.38600286677461
 20
-2.398212372627717
 30
0.0
 10
10.57468785037983
 20
-2.398212372627717
 30
0.0
 10
8.763372833985057
 20
-2.398212372627717
 30
0.0
 10
7.295011891464203
 20
-3.866573315148596
 30
0.0
 10
7.295011891464203
 20
-5.677888331543348
 30
0.0
  0
SPLINE
  5
46
330
41
100
AcDbEntity
  8
Layer 1
 62
   179
420
  2301728
370
    35
100
AcDbSpline
210
0.0
220
0.0
230
1.0
 70
     8
 71
     3
 72
    17
 73
    13
 74
     0
 42
0.0000000001
 43
0.0000000001
 12
1.0
 22
0.0
 32
0.0
 13
1.0
 23
0.0
 33
0.0
 40
0.0
 40
0.0
 40
0.0
 40
0.0
 40
1.0
 40
1.0
 40
1.0
 40
2.0
 40
2.0
 40
2.0
 40
3.0
 40
3.0
 40
3.0
 40
4.0
 40
4.0
 40
4.0
 40
4.0
 10
21.50694104676535
 20
-5.677888331543348
 30
0.0
 10
21.50694104676535
 20
-7.489203347938226
 30
0.0
 10
20.03858010424445
 20
-8.957564290459004
 30
0.0
 10
18.2272650878497
 20
-8.957564290459004
 30
0.0
 10
16.41595007145495
 20
-8.957564290459004
 30
0.0
 10
14.94758912893397
 20
-7.489203347938226
 30
0.0
 10
14.94758912893397
 20
-5.677888331543348
 30
0.0
 10
14.94758912893397
 20
-3.262801643016978
 30
0.0
 10
12.98977453890623
 20
-1.30498705298914
 30
0.0
 10
10.57468785037983
 20
-1.30498705298914
 30
0.0
 10
8.159601161853464
 20
-1.30498705298914
 30
0.0
 10
6.201786571825601
 20
-3.262801643016978
 30
0.0
 10
6.201786571825601
 20
-5.677888331543348
 30
0.0
  0
SPLINE
  5
47
330
41
100
AcDbEntity
  8
Layer 1
 62
   179
420
  2301728
370
    35
100
AcDbSpline
210
0.0
220
0.0
230
1.0
 70
    11
 71
     3
 72
    35
 73
    31
 74
     0
 42
0.0000000001
 43
0.0000000001
 12
1.0
 22
0.0
 32
0.0
 13
1.0
 23
0.0
 33
0.0
 40
0.0
 40
0.0
 40
0.0
 40
0.0
 40
1.0
 40
1.0
 40
1.0
 40
2.0
 40
2.0
 40
2.0
 40
3.0
 40
3.0
 40
3.0
 40
4.0
 40
4.0
 40
4.0
 40
5.0
 40
5.0
 40
5.0
 40
6.0
 40
6.0
 40
6.0
 40
7.0
 40
7.0
 40
7.0
 40
8.0
 40
8.0
 40
8.0
 40
9.0
 40
9.0
 40
9.0
 40
10.0
 40
10.0
 40
10.0
 40
10.0
 10
12.76113848965689
 20
-5.677888331543348
 30
0.0
 10
12.76113848965689
 20
-8.696746692201385
 30
0.0
 10
15.20840672719169
 20
-11.14401492973606
 30
0.0
 10
18.2272650878497
 20
-11.14401492973606
 30
0.0
 10
21.24612344850761
 20
-11.14401492973606
 30
0.0
 10
23.69339168604241
 20
-8.696746692201385
 30
0.0
 10
23.69339168604241
 20
-5.677888331543348
 30
0.0
 10
23.69339168604241
 20
-5.677888331543348
 30
0.0
 10
20.41371572712675
 20
-5.677888331543348
 30
0.0
 10
20.41371572712675
 20
-5.677888331543348
 30
0.0
 10
20.41371572712675
 20
-6.885431675806608
 30
0.0
 10
19.43480843211283
 20
-7.864338970820427
 30
0.0
 10
18.2272650878497
 20
-7.864338970820427
 30
0.0
 10
17.01972174358646
 20
-7.864338970820427
 30
0.0
 10
16.04081444857254
 20
-6.885431675806608
 30
0.0
 10
16.04081444857254
 20
-5.677888331543348
 30
0.0
 10
16.04081444857254
 20
-2.659029970885361
 30
0.0
 10
13.59354621103785
 20
-0.2117617333505627
 30
0.0
 10
10.57468785037983
 20
-0.2117617333505627
 30
0.0
 10
7.555829489721847
 20
-0.2117617333505627
 30
0.0
 10
5.108561252187024
 20
-2.659029970885361
 30
0.0
 10
5.108561252187024
 20
-5.677888331543348
 30
0.0
 10
5.108561252187024
 20
-5.677888331543348
 30
0.0
 10
8.388237211102755
 20
-5.677888331543348
 30
0.0
 10
8.388237211102755
 20
-5.677888331543348
 30
0.0
 10
8.388237211102755
 20
-4.470344987280138
 30
0.0
 10
9.367144506116599
 20
-3.491437692266294
 30
0.0
 10
10.57468785037983
 20
-3.491437692266294
 30
0.0
 10
11.78223119464297
 20
-3.491437692266294
 30
0.0
 10
12.76113848965689
 20
-4.470344987280138
 30
0.0
 10
12.76113848965689
 20
-5.677888331543348
 30
0.0
  0
ENDBLK
  5
44
330
41
100
AcDbEntity
  8
0
100
AcDbBlockEnd
  0
BLOCK
  5
52
330
50
100
AcDbEntity
  8
0
100
AcDbBlockBegin
  2
block 3
 70
     0
 10
0.0
 20
0.0
 30
0.0
  3
block 3
  1

  0
SPLINE
  5
54
330
50
100
AcDbEntity
  8
Layer 1
 62
   179
420
  2301728
370
    35
100
AcDbSpline
210
0.0
220
0.0
230
1.0
 70
    11
 71
     3
 72
    35
 73
    31
 74
     0
 42
0.0000000001
 43
0.0000000001
 12
1.0
 22
0.0
 32
0.0
 13
1.0
 23
0.0
 33
0.0
 40
0.0
 40
0.0
 40
0.0
 40
0.0
 40
1.0
 40
1.0
 40
1.0
 40
2.0
 40
2.0
 40
2.0
 40
3.0
 40
3.0
 40
3.0
 40
4.0
 40
4.0
 40
4.0
 40
5.0
 40
5.0
 40
5.0
 40
6.0
 40
6.0
 40
6.0
 40
7.0
 40
7.0
 40
7.0
 40
8.0
 40
8.0
 40
8.0
 40
9.0
 40
9.0
 40
9.0
 40
10.0
 40
10.0
 40
10.0
 40
10.0
 10
11.51113848965689
 20
-12.23315014604949
 30
0.0
 10
11.51113848965689
 20
-15.25200850670752
 30
0.0
 10
13.95840672719169
 20
-17.69927674424219
 30
0.0
 10
16.9772650878497
 20
-17.69927674424219
 30
0.0
 10
19.99612344850761
 20
-17.69927674424219
 30
0.0
 10
22.44339168604241
 20
-15.25200850670752
 30
0.0
 10
22.44339168604241
 20
-12.23315014604949
 30
0.0
 10
22.44339168604241
 20
-12.23315014604949
 30
0.0
 10
19.16371572712675
 20
-12.23315014604949
 30
0.0
 10
19.16371572712675
 20
-12.23315014604949
 30
0.0
 10
19.16371572712675
 20
-13.44069349031275
 30
0.0
 10
18.18480843211283
 20
-14.41960078532657
 30
0.0
 10
16.9772650878497
 20
-14.41960078532657
 30
0.0
 10
15.76972174358646
 20
-14.41960078532657
 30
0.0
 10
14.79081444857254
 20
-13.44069349031275
 30
0.0
 10
14.79081444857254
 20
-12.23315014604949
 30
0.0
 10
14.79081444857254
 20
-9.214291785391499
 30
0.0
 10
12.34354621103785
 20
-6.767023547856701
 30
0.0
 10
9.324687850379833
 20
-6.767023547856701
 30
0.0
 10
6.305829489721847
 20
-6.767023547856701
 30
0.0
 10
3.858561252187024
 20
-9.214291785391499
 30
0.0
 10
3.858561252187024
 20
-12.23315014604949
 30
0.0
 10
3.858561252187024
 20
-12.23315014604949
 30
0.0
 10
7.138237211102755
 20
-12.23315014604949
 30
0.0
 10
7.138237211102755
 20
-12.23315014604949
 30
0.0
 10
7.138237211102755
 20
-11.02560680178628
 30
0.0
 10
8.117144506116599
 20
-10.04669950677243
 30
0.0
 10
9.324687850379833
 20
-10.04669950677243
 30
0.0
 10
10.53223119464297
 20
-10.04669950677243
 30
0.0
 10
11.51113848965689
 20
-11.02560680178628
 30
0.0
 10
11.51113848965689
 20
-12.23315014604949
 30
0.0
  0
ENDBLK
  5
53
330
50
100
AcDbEntity
  8
0
100
AcDbBlockEnd
  0
BLOCK
  5
65
330
63
100
AcDbEntity
  8
0
100
AcDbBlockBegin
  2
block 4
 70
     0
 10
0.0
 20
0.0
 30
0.0
  3
block 4
  1

  0
SPLINE
  5
67
330
63
100
AcDbEntity
  8
Layer 1
 62
   179
420
  2301728
370
    35
100
AcDbSpline
210
0.0
220
0.0
230
1.0
 70
    11
 71
     3
 72
    23
 73
    19
 74
     0
 42
0.0000000001
 43
0.0000000001
 12
1.0
 22
0.0
 32
0.0
 13
1.0
 23
0.0
 33
0.0
 40
0.0
 40
0.0
 40
0.0
 40
0.0
 40
1.0
 40
1.0
 40
1.0
 40
2.0
 40
2.0
 40
2.0
 40
3.0
 40
3.0
 40
3.0
 40
4.0
 40
4.0
 40
4.0
 40
5.0
 40
5.0
 40
5.0
 40
6.0
 40
6.0
 40
6.0
 40
6.0
 10
5.333777413433482
 20
-14.46274592690103
 30
0.0
 10
4.750269391381456
 20
-14.34286047473531
 30
0.0
 10
4.269332041330068
 20
-14.0007340994182
 30
0.0
 10
3.960812770263096
 20
-13.54289474465117
 30
0.0
 10
3.960812770263096
 20
-13.54289474465117
 30
0.0
 10
3.048031581109525
 20
-14.14453308941994
 30
0.0
 10
3.048031581109525
 20
-14.14453308941994
 30
0.0
 10
3.510546092373791
 20
-14.83596557560001
 30
0.0
 10
4.234545064031762
 20
-15.35296218309021
 30
0.0
 10
5.113762959848777
 20
-15.53360311861929
 30
0.0
 10
5.998986061234366
 20
-15.71547786201002
 30
0.0
 10
6.874118375556994
 20
-15.52208194336827
 30
0.0
 10
7.574175164694199
 20
-15.06229909825705
 30
0.0
 10
7.574175164694199
 20
-15.06229909825705
 30
0.0
 10
6.972541483566399
 20
-14.14951627102583
 30
0.0
 10
6.972541483566399
 20
-14.14951627102583
 30
0.0
 10
6.506086846596215
 20
-14.45532736474848
 30
0.0
 10
5.923297283980546
 20
-14.58386655176006
 30
0.0
 10
5.333777413433482
 20
-14.46274592690103
 30
0.0
  0
SPLINE
  5
68
330
63
100
AcDbEntity
  8
Layer 1
 62
   179
420
  2301728
370
    35
100
AcDbSpline
210
0.0
220
0.0
230
1.0
 70
    11
 71
     3
 72
    17
 73
    13
 74
     0
 42
0.0000000001
 43
0.0000000001
 12
1.0
 22
0.0
 32
0.0
 13
1.0
 23
0.0
 33
0.0
 40
0.0
 40
0.0
 40
0.0
 40
0.0
 40
1.0
 40
1.0
 40
1.0
 40
2.0
 40
2.0
 40
2.0
 40
3.0
 40
3.0
 40
3.0
 40
4.0
 40
4.0
 40
4.0
 40
4.0
 10
5.253714960104642
 20
-14.59676499214182
 30
0.0
 10
5.241749860381636
 20
-14.57860974352722
 30
0.0
 10
5.246766640522537
 20
-14.55419200639385
 30
0.0
 10
5.264920399009472
 20
-14.54222573509711
 30
0.0
 10
5.283074157496381
 20
-14.53025946380037
 30
0.0
 10
5.307493555361386
 20
-14.5352765851492
 30
0.0
 10
5.319458825688343
 20
-14.55343100339799
 30
0.0
 10
5.331424096015326
 20
-14.57158542164676
 30
0.0
 10
5.326407315874399
 20
-14.59600315878015
 30
0.0
 10
5.308253386783513
 20
-14.6079702604427
 30
0.0
 10
5.290099628296603
 20
-14.61993653173944
 30
0.0
 10
5.265680230431599
 20
-14.61491941039058
 30
0.0
 10
5.253714960104642
 20
-14.59676499214182
 30
0.0
  0
SPLINE
  5
69
330
63
100
AcDbEntity
  8
Layer 1
 62
   179
420
  2301728
370
    35
100
AcDbSpline
210
0.0
220
0.0
230
1.0
 70
    11
 71
     3
 72
    17
 73
    13
 74
     0
 42
0.0000000001
 43
0.0000000001
 12
1.0
 22
0.0
 32
0.0
 13
1.0
 23
0.0
 33
0.0
 40
0.0
 40
0.0
 40
0.0
 40
0.0
 40
1.0
 40
1.0
 40
1.0
 40
2.0
 40
2.0
 40
2.0
 40
3.0
 40
3.0
 40
3.0
 40
4.0
 40
4.0
 40
4.0
 40
4.0
 10
6.972541483566399
 20
-14.14951627102583
 30
0.0
 10
6.972541483566399
 20
-14.14951627102583
 30
0.0
 10
7.574175164694199
 20
-15.06229909825705
 30
0.0
 10
7.574175164694199
 20
-15.06229909825705
 30
0.0
 10
8.27724082367427
 20
-14.60054165388758
 30
0.0
 10
8.803722275373477
 20
-13.87010291236887
 30
0.0
 10
8.98637872612345
 20
-12.98107507482251
 30
0.0
 10
8.98637872612345
 20
-12.98107507482251
 30
0.0
 10
7.915519043307742
 20
-12.76106010942592
 30
0.0
 10
7.915519043307742
 20
-12.76106010942592
 30
0.0
 10
7.793617734713229
 20
-13.35437973393891
 30
0.0
 10
7.441998006245032
 20
-13.84173087394485
 30
0.0
 10
6.972541483566399
 20
-14.14951627102583
 30
0.0
  0
SPLINE
  5
6A
330
63
100
AcDbEntity
  8
Layer 1
 62
   179
420
  2301728
370
    35
100
AcDbSpline
210
0.0
220
0.0
230
1.0
 70
    11
 71
     3
 72
    17
 73
    13
 74
     0
 42
0.0000000001
 43
0.0000000001
 12
1.0
 22
0.0
 32
0.0
 13
1.0
 23
0.0
 33
0.0
 40
0.0
 40
0.0
 40
0.0
 40
0.0
 40
1.0
 40
1.0
 40
1.0
 40
2.0
 40
2.0
 40
2.0
 40
3.0
 40
3.0
 40
3.0
 40
4.0
 40
4.0
 40
4.0
 40
4.0
 10
7.986559618955273
 20
-12.88947988490064
 30
0.0
 10
8.004713377442208
 20
-12.8775136136039
 30
0.0
 10
8.029132775307213
 20
-12.88253073495275
 30
0.0
 10
8.04109804563417
 20
-12.90068515320152
 30
0.0
 10
8.053063315961127
 20
-12.91883957145031
 30
0.0
 10
8.048046535820225
 20
-12.94325730858367
 30
0.0
 10
8.029892606729339
 20
-12.95522441024622
 30
0.0
 10
8.011738848242405
 20
-12.96719068154299
 30
0.0
 10
7.987319450377425
 20
-12.96217356019413
 30
0.0
 10
7.975354180050443
 20
-12.94401914194537
 30
0.0
 10
7.963389080327437
 20
-12.92586389333077
 30
0.0
 10
7.968405860468364
 20
-12.90144615619741
 30
0.0
 10
7.986559618955273
 20
-12.88947988490064
 30
0.0
  0
SPLINE
  5
6B
330
63
100
AcDbEntity
  8
Layer 1
 62
   179
420
  2301728
370
    35
100
AcDbSpline
210
0.0
220
0.0
230
1.0
 70
    11
 71
     3
 72
    17
 73
    13
 74
     0
 42
0.0000000001
 43
0.0000000001
 12
1.0
 22
0.0
 32
0.0
 13
1.0
 23
0.0
 33
0.0
 40
0.0
 40
0.0
 40
0.0
 40
0.0
 40
1.0
 40
1.0
 40
1.0
 40
2.0
 40
2.0
 40
2.0
 40
3.0
 40
3.0
 40
3.0
 40
4.0
 40
4.0
 40
4.0
 40
4.0
 10
3.632093597897917
 20
-11.88100297750306
 30
0.0
 10
3.632093597897917
 20
-11.88100297750306
 30
0.0
 10
2.561233915082211
 20
-11.66098801210647
 30
0.0
 10
2.561233915082211
 20
-11.66098801210647
 30
0.0
 10
2.377343315262679
 20
-12.55602271595303
 30
0.0
 10
2.577195839019371
 20
-13.44066323799749
 30
0.0
 10
3.048031581109525
 20
-14.14453308941994
 30
0.0
 10
3.048031581109525
 20
-14.14453308941994
 30
0.0
 10
3.960812770263096
 20
-13.54289474465117
 30
0.0
 10
3.960812770263096
 20
-13.54289474465117
 30
0.0
 10
3.64393819008986
 20
-13.07264910141081
 30
0.0
 10
3.508958481441772
 20
-12.4803278075846
 30
0.0
 10
3.632093597897917
 20
-11.88100297750306
 30
0.0
  0
SPLINE
  5
6C
330
63
100
AcDbEntity
  8
Layer 1
 62
   179
420
  2301728
370
    35
100
AcDbSpline
210
0.0
220
0.0
230
1.0
 70
    11
 71
     3
 72
    17
 73
    13
 74
     0
 42
0.0000000001
 43
0.0000000001
 12
1.0
 22
0.0
 32
0.0
 13
1.0
 23
0.0
 33
0.0
 40
0.0
 40
0.0
 40
0.0
 40
0.0
 40
1.0
 40
1.0
 40
1.0
 40
2.0
 40
2.0
 40
2.0
 40
3.0
 40
3.0
 40
3.0
 40
4.0
 40
4.0
 40
4.0
 40
4.0
 10
8.029892606729339
 20
-12.95522441024622
 30
0.0
 10
8.048046535820225
 20
-12.94325730858367
 30
0.0
 10
8.053063315961127
 20
-12.91883957145031
 30
0.0
 10
8.04109804563417
 20
-12.90068515320152
 30
0.0
 10
8.029132775307213
 20
-12.88253073495275
 30
0.0
 10
8.004713377442208
 20
-12.8775136136039
 30
0.0
 10
7.986559618955273
 20
-12.88947988490064
 30
0.0
 10
7.968405860468364
 20
-12.90144615619741
 30
0.0
 10
7.963389080327437
 20
-12.92586389333077
 30
0.0
 10
7.975354180050443
 20
-12.94401914194537
 30
0.0
 10
7.987319450377425
 20
-12.96217356019413
 30
0.0
 10
8.011738848242405
 20
-12.96719068154299
 30
0.0
 10
8.029892606729339
 20
-12.95522441024622
 30
0.0
  0
SPLINE
  5
6D
330
63
100
AcDbEntity
  8
Layer 1
 62
   179
420
  2301728
370
    35
100
AcDbSpline
210
0.0
220
0.0
230
1.0
 70
    11
 71
     3
 72
    17
 73
    13
 74
     0
 42
0.0000000001
 43
0.0000000001
 12
1.0
 22
0.0
 32
0.0
 13
1.0
 23
0.0
 33
0.0
 40
0.0
 40
0.0
 40
0.0
 40
0.0
 40
1.0
 40
1.0
 40
1.0
 40
2.0
 40
2.0
 40
2.0
 40
3.0
 40
3.0
 40
3.0
 40
4.0
 40
4.0
 40
4.0
 40
4.0
 10
5.319458825688343
 20
-14.55343100339799
 30
0.0
 10
5.307493555361386
 20
-14.5352765851492
 30
0.0
 10
5.283074157496381
 20
-14.53025946380037
 30
0.0
 10
5.264920399009472
 20
-14.54222573509711
 30
0.0
 10
5.246766640522537
 20
-14.55419200639385
 30
0.0
 10
5.241749860381636
 20
-14.57860974352722
 30
0.0
 10
5.253714960104642
 20
-14.59676499214182
 30
0.0
 10
5.265680230431599
 20
-14.61491941039058
 30
0.0
 10
5.290099628296603
 20
-14.61993653173944
 30
0.0
 10
5.308253386783513
 20
-14.6079702604427
 30
0.0
 10
5.326407315874399
 20
-14.59600315878015
 30
0.0
 10
5.331424096015326
 20
-14.57158542164676
 30
0.0
 10
5.319458825688343
 20
-14.55343100339799
 30
0.0
  0
SPLINE
  5
6E
330
63
100
AcDbEntity
  8
Layer 1
 62
   179
420
  2301728
370
    35
100
AcDbSpline
210
0.0
220
0.0
230
1.0
 70
    11
 71
     3
 72
    20
 73
    16
 74
     0
 42
0.0000000001
 43
0.0000000001
 12
1.0
 22
0.0
 32
0.0
 13
1.0
 23
0.0
 33
0.0
 40
0.0
 40
0.0
 40
0.0
 40
0.0
 40
1.0
 40
1.0
 40
1.0
 40
2.0
 40
2.0
 40
2.0
 40
3.0
 40
3.0
 40
3.0
 40
4.0
 40
4.0
 40
4.0
 40
5.0
 40
5.0
 40
5.0
 40
5.0
 10
8.98637872612345
 20
-12.98107507482251
 30
0.0
 10
8.803722275373477
 20
-13.87010291236887
 30
0.0
 10
8.27724082367427
 20
-14.60054165388758
 30
0.0
 10
7.574175164694199
 20
-15.06229909825705
 30
0.0
 10
7.574175164694199
 20
-15.06229909825705
 30
0.0
 10
8.175815147540586
 20
-15.97508495105158
 30
0.0
 10
8.175815147540586
 20
-15.97508495105158
 30
0.0
 10
9.112476486365114
 20
-15.35935356009605
 30
0.0
 10
9.813826474825822
 20
-14.38582775153044
 30
0.0
 10
10.05723840893918
 20
-13.20109004021906
 30
0.0
 10
10.05723840893918
 20
-13.20109004021906
 30
0.0
 10
10.05723176601267
 20
-13.20108867538736
 30
0.0
 10
10.05723176601267
 20
-13.20108867538736
 30
0.0
 10
10.05723176601267
 20
-13.20108867538736
 30
0.0
 10
8.98637872612345
 20
-12.98107507482251
 30
0.0
 10
8.98637872612345
 20
-12.98107507482251
 30
0.0
  0
SPLINE
  5
6F
330
63
100
AcDbEntity
  8
Layer 1
 62
   179
420
  2301728
370
    35
100
AcDbSpline
210
0.0
220
0.0
230
1.0
 70
    11
 71
     3
 72
    17
 73
    13
 74
     0
 42
0.0000000001
 43
0.0000000001
 12
1.0
 22
0.0
 32
0.0
 13
1.0
 23
0.0
 33
0.0
 40
0.0
 40
0.0
 40
0.0
 40
0.0
 40
1.0
 40
1.0
 40
1.0
 40
2.0
 40
2.0
 40
2.0
 40
3.0
 40
3.0
 40
3.0
 40
4.0
 40
4.0
 40
4.0
 40
4.0
 10
2.561233915082211
 20
-11.66098801210647
 30
0.0
 10
2.561233915082211
 20
-11.66098801210647
 30
0.0
 10
1.490380875193018
 20
-11.44097441154162
 30
0.0
 10
1.490380875193018
 20
-11.44097441154162
 30
0.0
 10
1.245735133218027
 20
-12.63171732842155
 30
0.0
 10
1.510451270097368
 20
-13.80868816933978
 30
0.0
 10
2.135244090237342
 20
-14.74616840862536
 30
0.0
 10
2.135244090237342
 20
-14.74616840862536
 30
0.0
 10
3.048031581109525
 20
-14.14453308941994
 30
0.0
 10
3.048031581109525
 20
-14.14453308941994
 30
0.0
 10
2.577195839019371
 20
-13.44066323799749
 30
0.0
 10
2.377343315262679
 20
-12.55602271595303
 30
0.0
 10
2.561233915082211
 20
-11.66098801210647
 30
0.0
  0
SPLINE
  5
70
330
63
100
AcDbEntity
  8
Layer 1
 62
   179
420
  2301728
370
    35
100
AcDbSpline
210
0.0
220
0.0
230
1.0
 70
    11
 71
     3
 72
    23
 73
    19
 74
     0
 42
0.0000000001
 43
0.0000000001
 12
1.0
 22
0.0
 32
0.0
 13
1.0
 23
0.0
 33
0.0
 40
0.0
 40
0.0
 40
0.0
 40
0.0
 40
1.0
 40
1.0
 40
1.0
 40
2.0
 40
2.0
 40
2.0
 40
3.0
 40
3.0
 40
3.0
 40
4.0
 40
4.0
 40
4.0
 40
5.0
 40
5.0
 40
5.0
 40
6.0
 40
6.0
 40
6.0
 40
6.0
 10
5.113762959848777
 20
-15.53360311861929
 30
0.0
 10
4.234545064031762
 20
-15.35296218309021
 30
0.0
 10
3.510546092373791
 20
-14.83596557560001
 30
0.0
 10
3.048031581109525
 20
-14.14453308941994
 30
0.0
 10
3.048031581109525
 20
-14.14453308941994
 30
0.0
 10
2.135244090237342
 20
-14.74616840862536
 30
0.0
 10
2.135244090237342
 20
-14.74616840862536
 30
0.0
 10
2.751745663336755
 20
-15.67120013467911
 30
0.0
 10
3.718820736682068
 20
-16.36306389144508
 30
0.0
 10
4.893748506264122
 20
-16.60446031033757
 30
0.0
 10
6.074681481414674
 20
-16.84709053709169
 30
0.0
 10
7.242156206236359
 20
-16.58883954755139
 30
0.0
 10
8.175815147540586
 20
-15.97508495105158
 30
0.0
 10
8.175815147540586
 20
-15.97508495105158
 30
0.0
 10
7.574175164694199
 20
-15.06229909825705
 30
0.0
 10
7.574175164694199
 20
-15.06229909825705
 30
0.0
 10
6.874118375556994
 20
-15.52208194336827
 30
0.0
 10
5.998986061234366
 20
-15.71547786201002
 30
0.0
 10
5.113762959848777
 20
-15.53360311861929
 30
0.0
  0
SPLINE
  5
71
330
63
100
AcDbEntity
  8
Layer 1
 62
   179
420
  2301728
370
    35
100
AcDbSpline
210
0.0
220
0.0
230
1.0
 70
    11
 71
     3
 72
    23
 73
    19
 74
     0
 42
0.0000000001
 43
0.0000000001
 12
1.0
 22
0.0
 32
0.0
 13
1.0
 23
0.0
 33
0.0
 40
0.0
 40
0.0
 40
0.0
 40
0.0
 40
1.0
 40
1.0
 40
1.0
 40
2.0
 40
2.0
 40
2.0
 40
3.0
 40
3.0
 40
3.0
 40
4.0
 40
4.0
 40
4.0
 40
5.0
 40
5.0
 40
5.0
 40
6.0
 40
6.0
 40
6.0
 40
6.0
 10
4.893748506264122
 20
-16.60446031033757
 30
0.0
 10
3.718820736682068
 20
-16.36306389144508
 30
0.0
 10
2.751745663336755
 20
-15.67120013467911
 30
0.0
 10
2.135244090237342
 20
-14.74616840862536
 30
0.0
 10
2.135244090237342
 20
-14.74616840862536
 30
0.0
 10
1.22235079246866
 20
-15.34788064672143
 30
0.0
 10
1.22235079246866
 20
-15.34788064672143
 30
0.0
 10
1.992825800342315
 20
-16.50651054371709
 30
0.0
 10
3.203096409332375
 20
-17.37316559979995
 30
0.0
 10
4.673734052679416
 20
-17.67531750205583
 30
0.0
 10
6.150376901595008
 20
-17.97870321217336
 30
0.0
 10
7.610209529992239
 20
-17.65562283574081
 30
0.0
 10
8.777464151140924
 20
-16.88789429265492
 30
0.0
 10
8.777464151140924
 20
-16.88789429265492
 30
0.0
 10
8.175815147540586
 20
-15.97508495105158
 30
0.0
 10
8.175815147540586
 20
-15.97508495105158
 30
0.0
 10
7.242156206236359
 20
-16.58883954755139
 30
0.0
 10
6.074681481414674
 20
-16.84709053709169
 30
0.0
 10
4.893748506264122
 20
-16.60446031033757
 30
0.0
  0
SPLINE
  5
72
330
63
100
AcDbEntity
  8
Layer 1
 62
   179
420
  2301728
370
    35
100
AcDbSpline
210
0.0
220
0.0
230
1.0
 70
    11
 71
     3
 72
    17
 73
    13
 74
     0
 42
0.0000000001
 43
0.0000000001
 12
1.0
 22
0.0
 32
0.0
 13
1.0
 23
0.0
 33
0.0
 40
0.0
 40
0.0
 40
0.0
 40
0.0
 40
1.0
 40
1.0
 40
1.0
 40
2.0
 40
2.0
 40
2.0
 40
3.0
 40
3.0
 40
3.0
 40
4.0
 40
4.0
 40
4.0
 40
4.0
 10
4.635981211612286
 20
-17.60340667573241
 30
0.0
 10
4.62401611188928
 20
-17.58525142711783
 30
0.0
 10
4.629032892030207
 20
-17.56083368998447
 30
0.0
 10
4.647186650517116
 20
-17.54886741868773
 30
0.0
 10
4.665340409004052
 20
-17.53690114739096
 30
0.0
 10
4.689759806869056
 20
-17.54191826873981
 30
0.0
 10
4.701725077196013
 20
-17.56007268698858
 30
0.0
 10
4.713690347522995
 20
-17.57822710523735
 30
0.0
 10
4.708673567382069
 20
-17.60264484237071
 30
0.0
 10
4.690519638291183
 20
-17.61461194403329
 30
0.0
 10
4.672365879804247
 20
-17.62657821533003
 30
0.0
 10
4.647946481939268
 20
-17.6215610939812
 30
0.0
 10
4.635981211612286
 20
-17.60340667573241
 30
0.0
  0
SPLINE
  5
73
330
63
100
AcDbEntity
  8
Layer 1
 62
   179
420
  2301728
370
    35
100
AcDbSpline
210
0.0
220
0.0
230
1.0
 70
    11
 71
     3
 72
    17
 73
    13
 74
     0
 42
0.0000000001
 43
0.0000000001
 12
1.0
 22
0.0
 32
0.0
 13
1.0
 23
0.0
 33
0.0
 40
0.0
 40
0.0
 40
0.0
 40
0.0
 40
1.0
 40
1.0
 40
1.0
 40
2.0
 40
2.0
 40
2.0
 40
3.0
 40
3.0
 40
3.0
 40
4.0
 40
4.0
 40
4.0
 40
4.0
 10
11.12809144882837
 20
-13.42110364078394
 30
0.0
 10
11.12809144882837
 20
-13.42110364078394
 30
0.0
 10
10.05723840893918
 20
-13.20109004021906
 30
0.0
 10
10.05723840893918
 20
-13.20109004021906
 30
0.0
 10
9.813826474825822
 20
-14.38582775153044
 30
0.0
 10
9.112476486365114
 20
-15.35935356009605
 30
0.0
 10
8.175815147540586
 20
-15.97508495105158
 30
0.0
 10
8.175815147540586
 20
-15.97508495105158
 30
0.0
 10
8.777464151140924
 20
-16.88789429265492
 30
0.0
 10
8.777464151140924
 20
-16.88789429265492
 30
0.0
 10
9.947734455662914
 20
-16.1181916847767
 30
0.0
 10
10.82392437255956
 20
-14.90154956512871
 30
0.0
 10
11.12809144882837
 20
-13.42110364078394
 30
0.0
  0
SPLINE
  5
74
330
63
100
AcDbEntity
  8
Layer 1
 62
   179
420
  2301728
370
    35
100
AcDbSpline
210
0.0
220
0.0
230
1.0
 70
    11
 71
     3
 72
    17
 73
    13
 74
     0
 42
0.0000000001
 43
0.0000000001
 12
1.0
 22
0.0
 32
0.0
 13
1.0
 23
0.0
 33
0.0
 40
0.0
 40
0.0
 40
0.0
 40
0.0
 40
1.0
 40
1.0
 40
1.0
 40
2.0
 40
2.0
 40
2.0
 40
3.0
 40
3.0
 40
3.0
 40
4.0
 40
4.0
 40
4.0
 40
4.0
 10
10.95238716204464
 20
-13.49882810739536
 30
0.0
 10
10.97054092053157
 20
-13.48686183609862
 30
0.0
 10
10.99496031839655
 20
-13.49187895744745
 30
0.0
 10
11.00692558872353
 20
-13.51003337569621
 30
0.0
 10
11.01889085905052
 20
-13.52818779394501
 30
0.0
 10
11.01387407890959
 20
-13.55260553107837
 30
0.0
 10
10.99572014981868
 20
-13.56457263274094
 30
0.0
 10
10.97756639133177
 20
-13.57653890403768
 30
0.0
 10
10.95314699346677
 20
-13.57152178268886
 30
0.0
 10
10.94118172313981
 20
-13.55336736444006
 30
0.0
 10
10.9292166234168
 20
-13.53521211582546
 30
0.0
 10
10.9342334035577
 20
-13.5107943786921
 30
0.0
 10
10.95238716204464
 20
-13.49882810739536
 30
0.0
  0
SPLINE
  5
75
330
63
100
AcDbEntity
  8
Layer 1
 62
   179
420
  2301728
370
    35
100
AcDbSpline
210
0.0
220
0.0
230
1.0
 70
    11
 71
     3
 72
    20
 73
    16
 74
     0
 42
0.0000000001
 43
0.0000000001
 12
1.0
 22
0.0
 32
0.0
 13
1.0
 23
0.0
 33
0.0
 40
0.0
 40
0.0
 40
0.0
 40
0.0
 40
1.0
 40
1.0
 40
1.0
 40
2.0
 40
2.0
 40
2.0
 40
3.0
 40
3.0
 40
3.0
 40
4.0
 40
4.0
 40
4.0
 40
5.0
 40
5.0
 40
5.0
 40
5.0
 10
1.490380875193018
 20
-11.44097441154162
 30
0.0
 10
1.490380875193018
 20
-11.44097441154162
 30
0.0
 10
1.490374232266504
 20
-11.44097304670992
 30
0.0
 10
1.490374232266504
 20
-11.44097304670992
 30
0.0
 10
1.490374232266504
 20
-11.44097304670992
 30
0.0
 10
0.4195211923772856
 20
-11.22095944614506
 30
0.0
 10
0.4195211923772856
 20
-11.22095944614506
 30
0.0
 10
0.1141201376428853
 20
-12.7074114064242
 30
0.0
 10
0.4435867554060324
 20
-14.17679144173839
 30
0.0
 10
1.22235079246866
 20
-15.34788064672143
 30
0.0
 10
1.22235079246866
 20
-15.34788064672143
 30
0.0
 10
2.135244090237342
 20
-14.74616840862536
 30
0.0
 10
2.135244090237342
 20
-14.74616840862536
 30
0.0
 10
1.510451270097368
 20
-13.80868816933978
 30
0.0
 10
1.245735133218027
 20
-12.63171732842155
 30
0.0
 10
1.490380875193018
 20
-11.44097441154162
 30
0.0
  0
SPLINE
  5
76
330
63
100
AcDbEntity
  8
Layer 1
 62
   179
420
  2301728
370
    35
100
AcDbSpline
210
0.0
220
0.0
230
1.0
 70
    11
 71
     3
 72
    17
 73
    13
 74
     0
 42
0.0000000001
 43
0.0000000001
 12
1.0
 22
0.0
 32
0.0
 13
1.0
 23
0.0
 33
0.0
 40
0.0
 40
0.0
 40
0.0
 40
0.0
 40
1.0
 40
1.0
 40
1.0
 40
2.0
 40
2.0
 40
2.0
 40
3.0
 40
3.0
 40
3.0
 40
4.0
 40
4.0
 40
4.0
 40
4.0
 10
10.99572014981868
 20
-13.56457263274094
 30
0.0
 10
11.01387407890959
 20
-13.55260553107837
 30
0.0
 10
11.01889085905052
 20
-13.52818779394501
 30
0.0
 10
11.00692558872353
 20
-13.51003337569621
 30
0.0
 10
10.99496031839655
 20
-13.49187895744745
 30
0.0
 10
10.97054092053157
 20
-13.48686183609862
 30
0.0
 10
10.95238716204464
 20
-13.49882810739536
 30
0.0
 10
10.9342334035577
 20
-13.5107943786921
 30
0.0
 10
10.9292166234168
 20
-13.53521211582546
 30
0.0
 10
10.94118172313981
 20
-13.55336736444006
 30
0.0
 10
10.95314699346677
 20
-13.57152178268886
 30
0.0
 10
10.97756639133177
 20
-13.57653890403768
 30
0.0
 10
10.99572014981868
 20
-13.56457263274094
 30
0.0
  0
SPLINE
  5
77
330
63
100
AcDbEntity
  8
Layer 1
 62
   179
420
  2301728
370
    35
100
AcDbSpline
210
0.0
220
0.0
230
1.0
 70
    11
 71
     3
 72
    17
 73
    13
 74
     0
 42
0.0000000001
 43
0.0000000001
 12
1.0
 22
0.0
 32
0.0
 13
1.0
 23
0.0
 33
0.0
 40
0.0
 40
0.0
 40
0.0
 40
0.0
 40
1.0
 40
1.0
 40
1.0
 40
2.0
 40
2.0
 40
2.0
 40
3.0
 40
3.0
 40
3.0
 40
4.0
 40
4.0
 40
4.0
 40
4.0
 10
4.701725077196013
 20
-17.56007268698858
 30
0.0
 10
4.689759806869056
 20
-17.54191826873981
 30
0.0
 10
4.665340409004052
 20
-17.53690114739096
 30
0.0
 10
4.647186650517116
 20
-17.54886741868773
 30
0.0
 10
4.629032892030207
 20
-17.56083368998447
 30
0.0
 10
4.62401611188928
 20
-17.58525142711783
 30
0.0
 10
4.635981211612286
 20
-17.60340667573241
 30
0.0
 10
4.647946481939268
 20
-17.6215610939812
 30
0.0
 10
4.672365879804247
 20
-17.62657821533003
 30
0.0
 10
4.690519638291183
 20
-17.61461194403329
 30
0.0
 10
4.708673567382069
 20
-17.60264484237071
 30
0.0
 10
4.713690347522995
 20
-17.57822710523735
 30
0.0
 10
4.701725077196013
 20
-17.56007268698858
 30
0.0
  0
ENDBLK
  5
66
330
63
100
AcDbEntity
  8
0
100
AcDbBlockEnd
  0
ENDSEC
  0
SECTION
  2
ENTITIES
  0
INSERT
  5
42
330
1F
100
AcDbEntity
  8
Layer 1
100
AcDbBlockReference
  2
block 2
 10
0.0
 20
0.0
 30
0.0
  0
SPLINE
  5
48
330
1F
100
AcDbEntity
  8
Layer 1
 62
   179
420
  2301728
370
    35
100
AcDbSpline
210
0.0
220
0.0
230
1.0
 70
    11
 71
     3
 72
    17
 73
    13
 74
     0
 42
0.0000000001
 43
0.0000000001
 12
1.0
 22
0.0
 32
0.0
 13
1.0
 23
0.0
 33
0.0
 40
0.0
 40
0.0
 40
0.0
 40
0.0
 40
1.0
 40
1.0
 40
1.0
 40
2.0
 40
2.0
 40
2.0
 40
3.0
 40
3.0
 40
3.0
 40
4.0
 40
4.0
 40
4.0
 40
4.0
 10
5.203589990313453
 20
-5.525495315432964
 30
0.0
 10
5.188215018197474
 20
-5.540870287547679
 30
0.0
 10
5.188215018196362
 20
-5.565798042622974
 30
0.0
 10
5.203589990310951
 20
-5.581173014739079
 30
0.0
 10
5.21896496242554
 20
-5.596547986855057
 30
0.0
 10
5.243892717500962
 20
-5.596547986856168
 30
0.0
 10
5.259267689617066
 20
-5.58117301474158
 30
0.0
 10
5.274642661733044
 20
-5.565798042626865
 30
0.0
 10
5.274642661734156
 20
-5.540870287551443
 30
0.0
 10
5.259267689619567
 20
-5.525495315435465
 30
0.0
 10
5.243892717504827
 20
-5.510120343319486
 30
0.0
 10
5.218964962429557
 20
-5.510120343318375
 30
0.0
 10
5.203589990313453
 20
-5.525495315432964
 30
0.0
  0
SPLINE
  5
49
330
1F
100
AcDbEntity
  8
Layer 1
 62
   179
420
  2301728
370
    35
100
AcDbSpline
210
0.0
220
0.0
230
1.0
 70
    11
 71
     3
 72
    17
 73
    13
 74
     0
 42
0.0000000001
 43
0.0000000001
 12
1.0
 22
0.0
 32
0.0
 13
1.0
 23
0.0
 33
0.0
 40
0.0
 40
0.0
 40
0.0
 40
0.0
 40
1.0
 40
1.0
 40
1.0
 40
2.0
 40
2.0
 40
2.0
 40
3.0
 40
3.0
 40
3.0
 40
4.0
 40
4.0
 40
4.0
 40
4.0
 10
8.24525665698012
 20
-5.525495315432964
 30
0.0
 10
8.229881684864141
 20
-5.540870287547679
 30
0.0
 10
8.22988168486303
 20
-5.565798042622974
 30
0.0
 10
8.245256656977618
 20
-5.581173014739079
 30
0.0
 10
8.260631629092206
 20
-5.596547986855057
 30
0.0
 10
8.285559384167628
 20
-5.596547986856168
 30
0.0
 10
8.300934356283733
 20
-5.58117301474158
 30
0.0
 10
8.316309328399711
 20
-5.565798042626865
 30
0.0
 10
8.316309328400823
 20
-5.540870287551443
 30
0.0
 10
8.300934356286234
 20
-5.525495315435465
 30
0.0
 10
8.285559384171494
 20
-5.510120343319486
 30
0.0
 10
8.260631629096224
 20
-5.510120343318375
 30
0.0
 10
8.24525665698012
 20
-5.525495315432964
 30
0.0
  0
SPLINE
  5
4A
330
1F
100
AcDbEntity
  8
Layer 1
 62
   179
420
  2301728
370
    35
100
AcDbSpline
210
0.0
220
0.0
230
1.0
 70
    11
 71
     3
 72
    17
 73
    13
 74
     0
 42
0.0000000001
 43
0.0000000001
 12
1.0
 22
0.0
 32
0.0
 13
1.0
 23
0.0
 33
0.0
 40
0.0
 40
0.0
 40
0.0
 40
0.0
 40
1.0
 40
1.0
 40
1.0
 40
2.0
 40
2.0
 40
2.0
 40
3.0
 40
3.0
 40
3.0
 40
4.0
 40
4.0
 40
4.0
 40
4.0
 10
20.50914554586901
 20
-5.789384204321853
 30
0.0
 10
20.49377057375303
 20
-5.804759176436568
 30
0.0
 10
20.49377057375192
 20
-5.829686931511863
 30
0.0
 10
20.50914554586651
 20
-5.845061903627967
 30
0.0
 10
20.5245205179811
 20
-5.860436875743946
 30
0.0
 10
20.54944827305652
 20
-5.860436875745058
 30
0.0
 10
20.56482324517262
 20
-5.845061903630469
 30
0.0
 10
20.5801982172886
 20
-5.829686931515753
 30
0.0
 10
20.58019821728971
 20
-5.804759176440332
 30
0.0
 10
20.56482324517512
 20
-5.789384204324354
 30
0.0
 10
20.54944827306038
 20
-5.774009232208376
 30
0.0
 10
20.52452051798511
 20
-5.774009232207264
 30
0.0
 10
20.50914554586901
 20
-5.789384204321853
 30
0.0
  0
SPLINE
  5
4B
330
1F
100
AcDbEntity
  8
Layer 1
 62
   179
420
  2301728
370
    35
100
AcDbSpline
210
0.0
220
0.0
230
1.0
 70
    11
 71
     3
 72
    17
 73
    13
 74
     0
 42
0.0000000001
 43
0.0000000001
 12
1.0
 22
0.0
 32
0.0
 13
1.0
 23
0.0
 33
0.0
 40
0.0
 40
0.0
 40
0.0
 40
0.0
 40
1.0
 40
1.0
 40
1.0
 40
2.0
 40
2.0
 40
2.0
 40
3.0
 40
3.0
 40
3.0
 40
4.0
 40
4.0
 40
4.0
 40
4.0
 10
23.53692332364679
 20
-5.789384204321853
 30
0.0
 10
23.52154835153081
 20
-5.804759176436568
 30
0.0
 10
23.5215483515297
 20
-5.829686931511863
 30
0.0
 10
23.53692332364428
 20
-5.845061903627967
 30
0.0
 10
23.55229829575887
 20
-5.860436875743946
 30
0.0
 10
23.57722605083429
 20
-5.860436875745058
 30
0.0
 10
23.5926010229504
 20
-5.845061903630469
 30
0.0
 10
23.60797599506638
 20
-5.829686931515753
 30
0.0
 10
23.60797599506749
 20
-5.804759176440332
 30
0.0
 10
23.5926010229529
 20
-5.789384204324354
 30
0.0
 10
23.57722605083816
 20
-5.774009232208376
 30
0.0
 10
23.55229829576289
 20
-5.774009232207264
 30
0.0
 10
23.53692332364679
 20
-5.789384204321853
 30
0.0
  0
SPLINE
  5
4C
330
1F
100
AcDbEntity
  8
Layer 1
 62
   179
420
  2301728
370
    35
100
AcDbSpline
210
0.0
220
0.0
230
1.0
 70
    11
 71
     3
 72
    17
 73
    13
 74
     0
 42
0.0000000001
 43
0.0000000001
 12
1.0
 22
0.0
 32
0.0
 13
1.0
 23
0.0
 33
0.0
 40
0.0
 40
0.0
 40
0.0
 40
0.0
 40
1.0
 40
1.0
 40
1.0
 40
2.0
 40
2.0
 40
2.0
 40
3.0
 40
3.0
 40
3.0
 40
4.0
 40
4.0
 40
4.0
 40
4.0
 10
10.57858999031345
 20
-0.3171619820996309
 30
0.0
 10
10.56321501819747
 20
-0.3325369542143461
 30
0.0
 10
10.56321501819636
 20
-0.357464709289641
 30
0.0
 10
10.57858999031095
 20
-0.3728396814057456
 30
0.0
 10
10.59396496242554
 20
-0.388214653521724
 30
0.0
 10
10.61889271750096
 20
-0.3882146535228356
 30
0.0
 10
10.63426768961707
 20
-0.3728396814082467
 30
0.0
 10
10.64964266173304
 20
-0.3574647092935316
 30
0.0
 10
10.64964266173416
 20
-0.3325369542181104
 30
0.0
 10
10.63426768961957
 20
-0.317161982102132
 30
0.0
 10
10.61889271750483
 20
-0.3017870099861537
 30
0.0
 10
10.59396496242956
 20
-0.301787009985042
 30
0.0
 10
10.57858999031345
 20
-0.3171619820996309
 30
0.0
  0
SPLINE
  5
4D
330
1F
100
AcDbEntity
  8
Layer 1
 62
   179
420
  2301728
370
    35
100
AcDbSpline
210
0.0
220
0.0
230
1.0
 70
    11
 71
     3
 72
    17
 73
    13
 74
     0
 42
0.0000000001
 43
0.0000000001
 12
1.0
 22
0.0
 32
0.0
 13
1.0
 23
0.0
 33
0.0
 40
0.0
 40
0.0
 40
0.0
 40
0.0
 40
1.0
 40
1.0
 40
1.0
 40
2.0
 40
2.0
 40
2.0
 40
3.0
 40
3.0
 40
3.0
 40
4.0
 40
4.0
 40
4.0
 40
4.0
 10
10.57858999031345
 20
-3.372717537655186
 30
0.0
 10
10.56321501819747
 20
-3.388092509769901
 30
0.0
 10
10.56321501819636
 20
-3.413020264845196
 30
0.0
 10
10.57858999031095
 20
-3.428395236961301
 30
0.0
 10
10.59396496242554
 20
-3.443770209077279
 30
0.0
 10
10.61889271750096
 20
-3.443770209078391
 30
0.0
 10
10.63426768961707
 20
-3.428395236963802
 30
0.0
 10
10.64964266173304
 20
-3.413020264849087
 30
0.0
 10
10.64964266173416
 20
-3.388092509773666
 30
0.0
 10
10.63426768961957
 20
-3.372717537657687
 30
0.0
 10
10.61889271750483
 20
-3.357342565541709
 30
0.0
 10
10.59396496242956
 20
-3.357342565540598
 30
0.0
 10
10.57858999031345
 20
-3.372717537655186
 30
0.0
  0
SPLINE
  5
4E
330
1F
100
AcDbEntity
  8
Layer 1
 62
   179
420
  2301728
370
    35
100
AcDbSpline
210
0.0
220
0.0
230
1.0
 70
    11
 71
     3
 72
    17
 73
    13
 74
     0
 42
0.0000000001
 43
0.0000000001
 12
1.0
 22
0.0
 32
0.0
 13
1.0
 23
0.0
 33
0.0
 40
0.0
 40
0.0
 40
0.0
 40
0.0
 40
1.0
 40
1.0
 40
1.0
 40
2.0
 40
2.0
 40
2.0
 40
3.0
 40
3.0
 40
3.0
 40
4.0
 40
4.0
 40
4.0
 40
4.0
 10
18.17581221253567
 20
-7.95605087098852
 30
0.0
 10
18.1604372404197
 20
-7.971425843103234
 30
0.0
 10
18.16043724041858
 20
-7.99635359817853
 30
0.0
 10
18.17581221253317
 20
-8.011728570294634
 30
0.0
 10
18.19118718464776
 20
-8.027103542410613
 30
0.0
 10
18.21611493972318
 20
-8.027103542411725
 30
0.0
 10
18.23148991183929
 20
-8.011728570297135
 30
0.0
 10
18.24686488395526
 20
-7.99635359818242
 30
0.0
 10
18.24686488395638
 20
-7.971425843106999
 30
0.0
 10
18.23148991184179
 20
-7.956050870991021
 30
0.0
 10
18.21611493972705
 20
-7.940675898875043
 30
0.0
 10
18.19118718465178
 20
-7.940675898873931
 30
0.0
 10
18.17581221253567
 20
-7.95605087098852
 30
0.0
  0
SPLINE
  5
4F
330
1F
100
AcDbEntity
  8
Layer 1
 62
   179
420
  2301728
370
    35
100
AcDbSpline
210
0.0
220
0.0
230
1.0
 70
    11
 71
     3
 72
    17
 73
    13
 74
     0
 42
0.0000000001
 43
0.0000000001
 12
1.0
 22
0.0
 32
0.0
 13
1.0
 23
0.0
 33
0.0
 40
0.0
 40
0.0
 40
0.0
 40
0.0
 40
1.0
 40
1.0
 40
1.0
 40
2.0
 40
2.0
 40
2.0
 40
3.0
 40
3.0
 40
3.0
 40
4.0
 40
4.0
 40
4.0
 40
4.0
 10
18.17581221253567
 20
-11.02549531543296
 30
0.0
 10
18.1604372404197
 20
-11.04087028754768
 30
0.0
 10
18.16043724041858
 20
-11.06579804262297
 30
0.0
 10
18.17581221253317
 20
-11.08117301473908
 30
0.0
 10
18.19118718464776
 20
-11.09654798685506
 30
0.0
 10
18.21611493972318
 20
-11.09654798685617
 30
0.0
 10
18.23148991183929
 20
-11.08117301474158
 30
0.0
 10
18.24686488395526
 20
-11.06579804262686
 30
0.0
 10
18.24686488395638
 20
-11.04087028755144
 30
0.0
 10
18.23148991184179
 20
-11.02549531543547
 30
0.0
 10
18.21611493972705
 20
-11.01012034331949
 30
0.0
 10
18.19118718465178
 20
-11.01012034331838
 30
0.0
 10
18.17581221253567
 20
-11.02549531543296
 30
0.0
  0
INSERT
  5
51
330
1F
100
AcDbEntity
  8
Layer 1
100
AcDbBlockReference
  2
block 3
 10
0.0
 20
0.0
 30
0.0
  0
SPLINE
  5
55
330
1F
100
AcDbEntity
  8
Layer 1
 62
   179
420
  2301728
370
    35
100
AcDbSpline
210
0.0
220
0.0
230
1.0
 70
    11
 71
     3
 72
    17
 73
    13
 74
     0
 42
0.0000000001
 43
0.0000000001
 12
1.0
 22
0.0
 32
0.0
 13
1.0
 23
0.0
 33
0.0
 40
0.0
 40
0.0
 40
0.0
 40
0.0
 40
1.0
 40
1.0
 40
1.0
 40
2.0
 40
2.0
 40
2.0
 40
3.0
 40
3.0
 40
3.0
 40
4.0
 40
4.0
 40
4.0
 40
4.0
 10
6.995256656980119
 20
-12.0807571299391
 30
0.0
 10
6.97988168486414
 20
-12.09613210205382
 30
0.0
 10
6.979881684863029
 20
-12.12105985712911
 30
0.0
 10
6.995256656977618
 20
-12.13643482924522
 30
0.0
 10
7.010631629092207
 20
-12.1518098013612
 30
0.0
 10
7.035559384167628
 20
-12.15180980136231
 30
0.0
 10
7.050934356283733
 20
-12.13643482924772
 30
0.0
 10
7.066309328399711
 20
-12.121059857133
 30
0.0
 10
7.066309328400822
 20
-12.09613210205758
 30
0.0
 10
7.050934356286234
 20
-12.0807571299416
 30
0.0
 10
7.035559384171493
 20
-12.06538215782563
 30
0.0
 10
7.010631629096224
 20
-12.06538215782451
 30
0.0
 10
6.995256656980119
 20
-12.0807571299391
 30
0.0
  0
SPLINE
  5
56
330
1F
100
AcDbEntity
  8
Layer 1
 62
   179
420
  2301728
370
    35
100
AcDbSpline
210
0.0
220
0.0
230
1.0
 70
    11
 71
     3
 72
    17
 73
    13
 74
     0
 42
0.0000000001
 43
0.0000000001
 12
1.0
 22
0.0
 32
0.0
 13
1.0
 23
0.0
 33
0.0
 40
0.0
 40
0.0
 40
0.0
 40
0.0
 40
1.0
 40
1.0
 40
1.0
 40
2.0
 40
2.0
 40
2.0
 40
3.0
 40
3.0
 40
3.0
 40
4.0
 40
4.0
 40
4.0
 40
4.0
 10
19.25914554586901
 20
-12.34464601882799
 30
0.0
 10
19.24377057375303
 20
-12.36002099094271
 30
0.0
 10
19.24377057375192
 20
-12.384948746018
 30
0.0
 10
19.25914554586651
 20
-12.40032371813411
 30
0.0
 10
19.2745205179811
 20
-12.41569869025008
 30
0.0
 10
19.29944827305652
 20
-12.4156986902512
 30
0.0
 10
19.31482324517262
 20
-12.40032371813661
 30
0.0
 10
19.3301982172886
 20
-12.38494874602189
 30
0.0
 10
19.33019821728971
 20
-12.36002099094647
 30
0.0
 10
19.31482324517512
 20
-12.34464601883049
 30
0.0
 10
19.29944827306038
 20
-12.32927104671451
 30
0.0
 10
19.27452051798511
 20
-12.3292710467134
 30
0.0
 10
19.25914554586901
 20
-12.34464601882799
 30
0.0
  0
SPLINE
  5
57
330
1F
100
AcDbEntity
  8
Layer 1
 62
   179
420
  2301728
370
    35
100
AcDbSpline
210
0.0
220
0.0
230
1.0
 70
    11
 71
     3
 72
    17
 73
    13
 74
     0
 42
0.0000000001
 43
0.0000000001
 12
1.0
 22
0.0
 32
0.0
 13
1.0
 23
0.0
 33
0.0
 40
0.0
 40
0.0
 40
0.0
 40
0.0
 40
1.0
 40
1.0
 40
1.0
 40
2.0
 40
2.0
 40
2.0
 40
3.0
 40
3.0
 40
3.0
 40
4.0
 40
4.0
 40
4.0
 40
4.0
 10
22.28692332364679
 20
-12.34464601882799
 30
0.0
 10
22.27154835153081
 20
-12.36002099094271
 30
0.0
 10
22.2715483515297
 20
-12.384948746018
 30
0.0
 10
22.28692332364428
 20
-12.40032371813411
 30
0.0
 10
22.30229829575887
 20
-12.41569869025008
 30
0.0
 10
22.32722605083429
 20
-12.4156986902512
 30
0.0
 10
22.3426010229504
 20
-12.40032371813661
 30
0.0
 10
22.35797599506638
 20
-12.38494874602189
 30
0.0
 10
22.35797599506749
 20
-12.36002099094647
 30
0.0
 10
22.3426010229529
 20
-12.34464601883049
 30
0.0
 10
22.32722605083816
 20
-12.32927104671451
 30
0.0
 10
22.30229829576289
 20
-12.3292710467134
 30
0.0
 10
22.28692332364679
 20
-12.34464601882799
 30
0.0
  0
SPLINE
  5
58
330
1F
100
AcDbEntity
  8
Layer 1
 62
   179
420
  2301728
370
    35
100
AcDbSpline
210
0.0
220
0.0
230
1.0
 70
    11
 71
     3
 72
    17
 73
    13
 74
     0
 42
0.0000000001
 43
0.0000000001
 12
1.0
 22
0.0
 32
0.0
 13
1.0
 23
0.0
 33
0.0
 40
0.0
 40
0.0
 40
0.0
 40
0.0
 40
1.0
 40
1.0
 40
1.0
 40
2.0
 40
2.0
 40
2.0
 40
3.0
 40
3.0
 40
3.0
 40
4.0
 40
4.0
 40
4.0
 40
4.0
 10
9.328589990313452
 20
-6.872423796605769
 30
0.0
 10
9.313215018197473
 20
-6.887798768720485
 30
0.0
 10
9.313215018196361
 20
-6.912726523795779
 30
0.0
 10
9.32858999031095
 20
-6.928101495911884
 30
0.0
 10
9.34396496242554
 20
-6.943476468027862
 30
0.0
 10
9.36889271750096
 20
-6.943476468028974
 30
0.0
 10
9.384267689617065
 20
-6.928101495914385
 30
0.0
 10
9.399642661733044
 20
-6.91272652379967
 30
0.0
 10
9.399642661734156
 20
-6.887798768724249
 30
0.0
 10
9.384267689619566
 20
-6.87242379660827
 30
0.0
 10
9.368892717504826
 20
-6.857048824492292
 30
0.0
 10
9.343964962429556
 20
-6.85704882449118
 30
0.0
 10
9.328589990313452
 20
-6.872423796605769
 30
0.0
  0
SPLINE
  5
59
330
1F
100
AcDbEntity
  8
Layer 1
 62
   179
420
  2301728
370
    35
100
AcDbSpline
210
0.0
220
0.0
230
1.0
 70
    11
 71
     3
 72
    17
 73
    13
 74
     0
 42
0.0000000001
 43
0.0000000001
 12
1.0
 22
0.0
 32
0.0
 13
1.0
 23
0.0
 33
0.0
 40
0.0
 40
0.0
 40
0.0
 40
0.0
 40
1.0
 40
1.0
 40
1.0
 40
2.0
 40
2.0
 40
2.0
 40
3.0
 40
3.0
 40
3.0
 40
4.0
 40
4.0
 40
4.0
 40
4.0
 10
9.328589990313452
 20
-9.927979352161325
 30
0.0
 10
9.313215018197473
 20
-9.94335432427604
 30
0.0
 10
9.313215018196361
 20
-9.968282079351335
 30
0.0
 10
9.32858999031095
 20
-9.98365705146744
 30
0.0
 10
9.34396496242554
 20
-9.999032023583418
 30
0.0
 10
9.36889271750096
 20
-9.99903202358453
 30
0.0
 10
9.384267689617065
 20
-9.98365705146994
 30
0.0
 10
9.399642661733044
 20
-9.968282079355225
 30
0.0
 10
9.399642661734156
 20
-9.943354324279804
 30
0.0
 10
9.384267689619566
 20
-9.927979352163826
 30
0.0
 10
9.368892717504826
 20
-9.912604380047847
 30
0.0
 10
9.343964962429556
 20
-9.912604380046735
 30
0.0
 10
9.328589990313452
 20
-9.927979352161325
 30
0.0
  0
SPLINE
  5
5A
330
1F
100
AcDbEntity
  8
Layer 1
 62
   179
420
  2301728
370
    35
100
AcDbSpline
210
0.0
220
0.0
230
1.0
 70
    11
 71
     3
 72
    17
 73
    13
 74
     0
 42
0.0000000001
 43
0.0000000001
 12
1.0
 22
0.0
 32
0.0
 13
1.0
 23
0.0
 33
0.0
 40
0.0
 40
0.0
 40
0.0
 40
0.0
 40
1.0
 40
1.0
 40
1.0
 40
2.0
 40
2.0
 40
2.0
 40
3.0
 40
3.0
 40
3.0
 40
4.0
 40
4.0
 40
4.0
 40
4.0
 10
16.92581221253567
 20
-14.51131268549466
 30
0.0
 10
16.9104372404197
 20
-14.52668765760937
 30
0.0
 10
16.91043724041858
 20
-14.55161541268467
 30
0.0
 10
16.92581221253317
 20
-14.56699038480077
 30
0.0
 10
16.94118718464776
 20
-14.58236535691675
 30
0.0
 10
16.96611493972318
 20
-14.58236535691786
 30
0.0
 10
16.98148991183929
 20
-14.56699038480327
 30
0.0
 10
16.99686488395526
 20
-14.55161541268856
 30
0.0
 10
16.99686488395638
 20
-14.52668765761314
 30
0.0
 10
16.98148991184179
 20
-14.51131268549716
 30
0.0
 10
16.96611493972705
 20
-14.49593771338118
 30
0.0
 10
16.94118718465178
 20
-14.49593771338007
 30
0.0
 10
16.92581221253567
 20
-14.51131268549466
 30
0.0
  0
SPLINE
  5
5B
330
1F
100
AcDbEntity
  8
Layer 1
 62
   179
420
  2301728
370
    35
100
AcDbSpline
210
0.0
220
0.0
230
1.0
 70
    11
 71
     3
 72
    17
 73
    13
 74
     0
 42
0.0000000001
 43
0.0000000001
 12
1.0
 22
0.0
 32
0.0
 13
1.0
 23
0.0
 33
0.0
 40
0.0
 40
0.0
 40
0.0
 40
0.0
 40
1.0
 40
1.0
 40
1.0
 40
2.0
 40
2.0
 40
2.0
 40
3.0
 40
3.0
 40
3.0
 40
4.0
 40
4.0
 40
4.0
 40
4.0
 10
16.92581221253567
 20
-17.5807571299391
 30
0.0
 10
16.9104372404197
 20
-17.59613210205382
 30
0.0
 10
16.91043724041858
 20
-17.62105985712911
 30
0.0
 10
16.92581221253317
 20
-17.63643482924522
 30
0.0
 10
16.94118718464776
 20
-17.6518098013612
 30
0.0
 10
16.96611493972318
 20
-17.65180980136231
 30
0.0
 10
16.98148991183929
 20
-17.63643482924772
 30
0.0
 10
16.99686488395526
 20
-17.621059857133
 30
0.0
 10
16.99686488395638
 20
-17.59613210205758
 30
0.0
 10
16.98148991184179
 20
-17.5807571299416
 30
0.0
 10
16.96611493972705
 20
-17.56538215782562
 30
0.0
 10
16.94118718465178
 20
-17.56538215782451
 30
0.0
 10
16.92581221253567
 20
-17.5807571299391
 30
0.0
  0
SPLINE
  5
5C
330
1F
100
AcDbEntity
  8
Layer 1
 62
   179
420
  2301728
370
    35
100
AcDbSpline
210
0.0
220
0.0
230
1.0
 70
    11
 71
     3
 72
    23
 73
    19
 74
     0
 42
0.0000000001
 43
0.0000000001
 12
1.0
 22
0.0
 32
0.0
 13
1.0
 23
0.0
 33
0.0
 40
0.0
 40
0.0
 40
0.0
 40
0.0
 40
1.0
 40
1.0
 40
1.0
 40
2.0
 40
2.0
 40
2.0
 40
3.0
 40
3.0
 40
3.0
 40
4.0
 40
4.0
 40
4.0
 40
5.0
 40
5.0
 40
5.0
 40
6.0
 40
6.0
 40
6.0
 40
6.0
 10
1.467458729362938
 20
-4.444174698030312
 30
0.0
 10
1.467458729362938
 20
-3.228557836051146
 30
0.0
 10
1.96362623017674
 20
-2.128941679367118
 30
0.0
 10
2.764311688889848
 20
-1.336386612092813
 30
0.0
 10
2.764311688889848
 20
-1.336386612092813
 30
0.0
 10
1.991189537197139
 20
-0.5632678512421181
 30
0.0
 10
1.991189537197139
 20
-0.5632678512421181
 30
0.0
 10
0.992673878288719
 20
-1.553664986658785
 30
0.0
 10
0.3742334621645871
 20
-2.926671171554618
 30
0.0
 10
0.3742334621645871
 20
-4.444174698030312
 30
0.0
 10
0.3742334621645871
 20
-5.955547582144896
 30
0.0
 10
0.9876452595821218
 20
-7.323630264436562
 30
0.0
 10
1.979063038444969
 20
-8.31310509082545
 30
0.0
 10
1.979063038444969
 20
-8.31310509082545
 30
0.0
 10
2.752112287034379
 20
-7.540054146815034
 30
0.0
 10
2.752112287034379
 20
-7.540054146815034
 30
0.0
 10
1.958528946919361
 20
-6.748414606884479
 30
0.0
 10
1.467458729362938
 20
-5.653660917648367
 30
0.0
 10
1.467458729362938
 20
-4.444174698030312
 30
0.0
  0
SPLINE
  5
5D
330
1F
100
AcDbEntity
  8
Layer 1
 62
   179
420
  2301728
370
    35
100
AcDbSpline
210
0.0
220
0.0
230
1.0
 70
    11
 71
     3
 72
    17
 73
    13
 74
     0
 42
0.0000000001
 43
0.0000000001
 12
1.0
 22
0.0
 32
0.0
 13
1.0
 23
0.0
 33
0.0
 40
0.0
 40
0.0
 40
0.0
 40
0.0
 40
1.0
 40
1.0
 40
1.0
 40
2.0
 40
2.0
 40
2.0
 40
3.0
 40
3.0
 40
3.0
 40
4.0
 40
4.0
 40
4.0
 40
4.0
 10
0.4796335476138059
 20
-4.44027522971434
 30
0.0
 10
0.4642586222123302
 20
-4.424901152023368
 30
0.0
 10
0.4642586222123302
 20
-4.399971681537257
 30
0.0
 10
0.4796335476138059
 20
-4.384597603846284
 30
0.0
 10
0.4950084730152816
 20
-4.369223526155312
 30
0.0
 10
0.5199362480803857
 20
-4.369223526155312
 30
0.0
 10
0.5353120211923649
 20
-4.384597603846284
 30
0.0
 10
0.5506869465938407
 20
-4.399971681537257
 30
0.0
 10
0.5506869465938407
 20
-4.424901152023368
 30
0.0
 10
0.5353120211923649
 20
-4.44027522971434
 30
0.0
 10
0.5199362480803857
 20
-4.455649307405312
 30
0.0
 10
0.4950084730152816
 20
-4.455649307405312
 30
0.0
 10
0.4796335476138059
 20
-4.44027522971434
 30
0.0
  0
SPLINE
  5
5E
330
1F
100
AcDbEntity
  8
Layer 1
 62
   179
420
  2301728
370
    35
100
AcDbSpline
210
0.0
220
0.0
230
1.0
 70
    11
 71
     3
 72
    20
 73
    16
 74
     0
 42
0.0000000001
 43
0.0000000001
 12
1.0
 22
0.0
 32
0.0
 13
1.0
 23
0.0
 33
0.0
 40
0.0
 40
0.0
 40
0.0
 40
0.0
 40
1.0
 40
1.0
 40
1.0
 40
2.0
 40
2.0
 40
2.0
 40
3.0
 40
3.0
 40
3.0
 40
4.0
 40
4.0
 40
4.0
 40
5.0
 40
5.0
 40
5.0
 40
5.0
 10
22.5345774942798
 20
-4.244435695584646
 30
0.0
 10
22.5345774942798
 20
-4.244435695584646
 30
0.0
 10
22.53458427596383
 20
-4.244435695584646
 30
0.0
 10
22.53458427596383
 20
-4.244435695584646
 30
0.0
 10
22.53458427596383
 20
-4.244435695584646
 30
0.0
 10
23.62780530460966
 20
-4.244435695584646
 30
0.0
 10
23.62780530460966
 20
-4.244435695584646
 30
0.0
 10
23.62780530460966
 20
-2.743078511068587
 30
0.0
 10
23.02245184323813
 20
-1.383156737793848
 30
0.0
 10
22.04258666311661
 20
-0.3952645869149415
 30
0.0
 10
22.04258666311661
 20
-0.3952645869149415
 30
0.0
 10
21.26946790226591
 20
-1.16838673860765
 30
0.0
 10
21.26946790226591
 20
-1.16838673860765
 30
0.0
 10
22.05149779592911
 20
-1.958436821344195
 30
0.0
 10
22.5345774942798
 20
-3.044965175565115
 30
0.0
 10
22.5345774942798
 20
-4.244435695584646
 30
0.0
  0
SPLINE
  5
5F
330
1F
100
AcDbEntity
  8
Layer 1
 62
   179
420
  2301728
370
    35
100
AcDbSpline
210
0.0
220
0.0
230
1.0
 70
    11
 71
     3
 72
    17
 73
    13
 74
     0
 42
0.0000000001
 43
0.0000000001
 12
1.0
 22
0.0
 32
0.0
 13
1.0
 23
0.0
 33
0.0
 40
0.0
 40
0.0
 40
0.0
 40
0.0
 40
1.0
 40
1.0
 40
1.0
 40
2.0
 40
2.0
 40
2.0
 40
3.0
 40
3.0
 40
3.0
 40
4.0
 40
4.0
 40
4.0
 40
4.0
 10
18.81976624103562
 20
-3.153504539978207
 30
0.0
 10
18.81976624103562
 20
-3.153504539978207
 30
0.0
 10
18.04671529702521
 20
-2.380455291388797
 30
0.0
 10
18.04671529702521
 20
-2.380455291388797
 30
0.0
 10
17.05978360214673
 20
-3.369326547899214
 30
0.0
 10
16.44952020153909
 20
-4.734264224222998
 30
0.0
 10
16.44952020153909
 20
-6.241752898810672
 30
0.0
 10
16.44952020153909
 20
-6.241752898810672
 30
0.0
 10
17.54274123018493
 20
-6.241752898810672
 30
0.0
 10
17.54274123018493
 20
-6.241752898810672
 30
0.0
 10
17.54274123018493
 20
-5.036150041009023
 30
0.0
 10
18.03066983261548
 20
-3.94454051003029
 30
0.0
 10
18.81976624103562
 20
-3.153504539978207
 30
0.0
  0
SPLINE
  5
60
330
1F
100
AcDbEntity
  8
Layer 1
 62
   179
420
  2301728
370
    35
100
AcDbSpline
210
0.0
220
0.0
230
1.0
 70
    11
 71
     3
 72
    17
 73
    13
 74
     0
 42
0.0000000001
 43
0.0000000001
 12
1.0
 22
0.0
 32
0.0
 13
1.0
 23
0.0
 33
0.0
 40
0.0
 40
0.0
 40
0.0
 40
0.0
 40
1.0
 40
1.0
 40
1.0
 40
2.0
 40
2.0
 40
2.0
 40
3.0
 40
3.0
 40
3.0
 40
4.0
 40
4.0
 40
4.0
 40
4.0
 10
16.60022278400437
 20
-6.145037607469527
 30
0.0
 10
16.5848487063134
 20
-6.160412532871002
 30
0.0
 10
16.55991923582729
 20
-6.160412532871002
 30
0.0
 10
16.54454515813632
 20
-6.145037607469527
 30
0.0
 10
16.52917108044534
 20
-6.129661834357547
 30
0.0
 10
16.52917108044534
 20
-6.104734059292443
 30
0.0
 10
16.54454515813632
 20
-6.089359133890967
 30
0.0
 10
16.55991923582729
 20
-6.073984208489492
 30
0.0
 10
16.5848487063134
 20
-6.073984208489492
 30
0.0
 10
16.60022278400437
 20
-6.089359133890967
 30
0.0
 10
16.61559686169534
 20
-6.104734059292443
 30
0.0
 10
16.61559686169534
 20
-6.129661834357547
 30
0.0
 10
16.60022278400437
 20
-6.145037607469527
 30
0.0
  0
SPLINE
  5
61
330
1F
100
AcDbEntity
  8
Layer 1
 62
   179
420
  2301728
370
    35
100
AcDbSpline
210
0.0
220
0.0
230
1.0
 70
    11
 71
     3
 72
    17
 73
    13
 74
     0
 42
0.0000000001
 43
0.0000000001
 12
1.0
 22
0.0
 32
0.0
 13
1.0
 23
0.0
 33
0.0
 40
0.0
 40
0.0
 40
0.0
 40
0.0
 40
1.0
 40
1.0
 40
1.0
 40
2.0
 40
2.0
 40
2.0
 40
3.0
 40
3.0
 40
3.0
 40
4.0
 40
4.0
 40
4.0
 40
4.0
 10
16.54454515813632
 20
-6.089359133890967
 30
0.0
 10
16.52917108044534
 20
-6.104734059292443
 30
0.0
 10
16.52917108044534
 20
-6.129661834357547
 30
0.0
 10
16.54454515813632
 20
-6.145037607469527
 30
0.0
 10
16.55991923582729
 20
-6.160412532871002
 30
0.0
 10
16.5848487063134
 20
-6.160412532871002
 30
0.0
 10
16.60022278400437
 20
-6.145037607469527
 30
0.0
 10
16.61559686169534
 20
-6.129661834357547
 30
0.0
 10
16.61559686169534
 20
-6.104734059292443
 30
0.0
 10
16.60022278400437
 20
-6.089359133890967
 30
0.0
 10
16.5848487063134
 20
-6.073984208489492
 30
0.0
 10
16.55991923582729
 20
-6.073984208489492
 30
0.0
 10
16.54454515813632
 20
-6.089359133890967
 30
0.0
  0
SPLINE
  5
62
330
1F
100
AcDbEntity
  8
Layer 1
 62
   179
420
  2301728
370
    35
100
AcDbSpline
210
0.0
220
0.0
230
1.0
 70
    11
 71
     3
 72
    17
 73
    13
 74
     0
 42
0.0000000001
 43
0.0000000001
 12
1.0
 22
0.0
 32
0.0
 13
1.0
 23
0.0
 33
0.0
 40
0.0
 40
0.0
 40
0.0
 40
0.0
 40
1.0
 40
1.0
 40
1.0
 40
2.0
 40
2.0
 40
2.0
 40
3.0
 40
3.0
 40
3.0
 40
4.0
 40
4.0
 40
4.0
 40
4.0
 10
0.5353120211923649
 20
-4.384597603846284
 30
0.0
 10
0.5199362480803857
 20
-4.369223526155312
 30
0.0
 10
0.4950084730152816
 20
-4.369223526155312
 30
0.0
 10
0.4796335476138059
 20
-4.384597603846284
 30
0.0
 10
0.4642586222123302
 20
-4.399971681537257
 30
0.0
 10
0.4642586222123302
 20
-4.424901152023368
 30
0.0
 10
0.4796335476138059
 20
-4.44027522971434
 30
0.0
 10
0.4950084730152816
 20
-4.455649307405312
 30
0.0
 10
0.5199362480803857
 20
-4.455649307405312
 30
0.0
 10
0.5353120211923649
 20
-4.44027522971434
 30
0.0
 10
0.5506869465938407
 20
-4.424901152023368
 30
0.0
 10
0.5506869465938407
 20
-4.399971681537257
 30
0.0
 10
0.5353120211923649
 20
-4.384597603846284
 30
0.0
  0
INSERT
  5
64
330
1F
100
AcDbEntity
  8
Layer 1
100
AcDbBlockReference
  2
block 4
 10
0.0
 20
0.0
 30
0.0
  0
SPLINE
  5
78
330
1F
100
AcDbEntity
  8
Layer 1
 62
   179
420
  2301728
370
    35
100
AcDbSpline
210
0.0
220
0.0
230
1.0
 70
    11
 71
     3
 72
    23
 73
    19
 74
     0
 42
0.0000000001
 43
0.0000000001
 12
1.0
 22
0.0
 32
0.0
 13
1.0
 23
0.0
 33
0.0
 40
0.0
 40
0.0
 40
0.0
 40
0.0
 40
1.0
 40
1.0
 40
1.0
 40
2.0
 40
2.0
 40
2.0
 40
3.0
 40
3.0
 40
3.0
 40
4.0
 40
4.0
 40
4.0
 40
5.0
 40
5.0
 40
5.0
 40
6.0
 40
6.0
 40
6.0
 40
6.0
 10
3.653909263759639
 20
-4.444174698030312
 30
0.0
 10
3.653909263759639
 20
-3.832331165044201
 30
0.0
 10
3.905331721984465
 20
-3.279291614262951
 30
0.0
 10
4.310366105122486
 20
-2.882441028325451
 30
0.0
 10
4.310366105122486
 20
-2.882441028325451
 30
0.0
 10
3.537338049295663
 20
-2.109410429367118
 30
0.0
 10
3.537338049295663
 20
-2.109410429367118
 30
0.0
 10
2.934481943067365
 20
-2.704123428499063
 30
0.0
 10
2.560683996561288
 20
-3.530444500547674
 30
0.0
 10
2.560683996561288
 20
-4.444174698030312
 30
0.0
 10
2.560683996561288
 20
-5.35177425315184
 30
0.0
 10
2.929391441494014
 20
-6.173226076068507
 30
0.0
 10
3.525140342861202
 20
-6.767023547856701
 30
0.0
 10
3.525140342861202
 20
-6.767023547856701
 30
0.0
 10
4.298166703267017
 20
-5.993999730582396
 30
0.0
 10
4.298166703267017
 20
-5.993999730582396
 30
0.0
 10
3.90025224064766
 20
-5.598030763568507
 30
0.0
 10
3.653909263759639
 20
-5.049887588655312
 30
0.0
 10
3.653909263759639
 20
-4.444174698030312
 30
0.0
  0
SPLINE
  5
79
330
1F
100
AcDbEntity
  8
Layer 1
 62
   179
420
  2301728
370
    35
100
AcDbSpline
210
0.0
220
0.0
230
1.0
 70
    11
 71
     3
 72
    17
 73
    13
 74
     0
 42
0.0000000001
 43
0.0000000001
 12
1.0
 22
0.0
 32
0.0
 13
1.0
 23
0.0
 33
0.0
 40
0.0
 40
0.0
 40
0.0
 40
0.0
 40
1.0
 40
1.0
 40
1.0
 40
2.0
 40
2.0
 40
2.0
 40
3.0
 40
3.0
 40
3.0
 40
4.0
 40
4.0
 40
4.0
 40
4.0
 10
3.535189103169361
 20
-4.44027522971434
 30
0.0
 10
3.519814177767886
 20
-4.424901152023368
 30
0.0
 10
3.519814177767886
 20
-4.399971681537257
 30
0.0
 10
3.535189103169361
 20
-4.384597603846284
 30
0.0
 10
3.550564028570837
 20
-4.369223526155312
 30
0.0
 10
3.575491803635941
 20
-4.369223526155312
 30
0.0
 10
3.59086757674792
 20
-4.384597603846284
 30
0.0
 10
3.606242502149396
 20
-4.399971681537257
 30
0.0
 10
3.606242502149396
 20
-4.424901152023368
 30
0.0
 10
3.59086757674792
 20
-4.44027522971434
 30
0.0
 10
3.575491803635941
 20
-4.455649307405312
 30
0.0
 10
3.550564028570837
 20
-4.455649307405312
 30
0.0
 10
3.535189103169361
 20
-4.44027522971434
 30
0.0
  0
SPLINE
  5
7A
330
1F
100
AcDbEntity
  8
Layer 1
 62
   179
420
  2301728
370
    35
100
AcDbSpline
210
0.0
220
0.0
230
1.0
 70
    11
 71
     3
 72
    17
 73
    13
 74
     0
 42
0.0000000001
 43
0.0000000001
 12
1.0
 22
0.0
 32
0.0
 13
1.0
 23
0.0
 33
0.0
 40
0.0
 40
0.0
 40
0.0
 40
0.0
 40
1.0
 40
1.0
 40
1.0
 40
2.0
 40
2.0
 40
2.0
 40
3.0
 40
3.0
 40
3.0
 40
4.0
 40
4.0
 40
4.0
 40
4.0
 10
19.72341348603327
 20
-2.714441154840288
 30
0.0
 10
20.10979315183188
 20
-3.108786756240028
 30
0.0
 10
20.34812865530411
 20
-3.648736809137163
 30
0.0
 10
20.34812865530411
 20
-4.244435695584646
 30
0.0
 10
20.34812865530411
 20
-4.244435695584646
 30
0.0
 10
21.44135646563397
 20
-4.244435695584646
 30
0.0
 10
21.44135646563397
 20
-4.244435695584646
 30
0.0
 10
21.44135646563397
 20
-3.346850992351139
 30
0.0
 10
21.08064547388049
 20
-2.533616875055132
 30
0.0
 10
20.49644408499161
 20
-1.941413099013466
 30
0.0
 10
20.49644408499161
 20
-1.941413099013466
 30
0.0
 10
19.72341348603327
 20
-2.714441154840288
 30
0.0
 10
19.72341348603327
 20
-2.714441154840288
 30
0.0
  0
SPLINE
  5
7B
330
1F
100
AcDbEntity
  8
Layer 1
 62
   179
420
  2301728
370
    35
100
AcDbSpline
210
0.0
220
0.0
230
1.0
 70
    11
 71
     3
 72
    17
 73
    13
 74
     0
 42
0.0000000001
 43
0.0000000001
 12
1.0
 22
0.0
 32
0.0
 13
1.0
 23
0.0
 33
0.0
 40
0.0
 40
0.0
 40
0.0
 40
0.0
 40
1.0
 40
1.0
 40
1.0
 40
2.0
 40
2.0
 40
2.0
 40
3.0
 40
3.0
 40
3.0
 40
4.0
 40
4.0
 40
4.0
 40
4.0
 10
20.36582065726826
 20
-4.699558956210845
 30
0.0
 10
20.36582065726826
 20
-4.699558956210845
 30
0.0
 10
19.59279683999396
 20
-3.92653259580503
 30
0.0
 10
19.59279683999396
 20
-3.92653259580503
 30
0.0
 10
19.00152893634812
 20
-4.519732431688277
 30
0.0
 10
18.63596904051479
 20
-5.338035857795047
 30
0.0
 10
18.63596904051479
 20
-6.241752898810672
 30
0.0
 10
18.63596904051479
 20
-6.241752898810672
 30
0.0
 10
19.72919685084465
 20
-6.241752898810672
 30
0.0
 10
19.72919685084465
 20
-6.241752898810672
 30
0.0
 10
19.72919685084465
 20
-5.639921674581071
 30
0.0
 10
19.97239482176479
 20
-5.094923505635759
 30
0.0
 10
20.36582065726826
 20
-4.699558956210845
 30
0.0
  0
SPLINE
  5
7C
330
1F
100
AcDbEntity
  8
Layer 1
 62
   179
420
  2301728
370
    35
100
AcDbSpline
210
0.0
220
0.0
230
1.0
 70
    11
 71
     3
 72
    17
 73
    13
 74
     0
 42
0.0000000001
 43
0.0000000001
 12
1.0
 22
0.0
 32
0.0
 13
1.0
 23
0.0
 33
0.0
 40
0.0
 40
0.0
 40
0.0
 40
0.0
 40
1.0
 40
1.0
 40
1.0
 40
2.0
 40
2.0
 40
2.0
 40
3.0
 40
3.0
 40
3.0
 40
4.0
 40
4.0
 40
4.0
 40
4.0
 10
19.64188945067104
 20
-6.145037607469527
 30
0.0
 10
19.62651537298007
 20
-6.160412532871002
 30
0.0
 10
19.60158590249396
 20
-6.160412532871002
 30
0.0
 10
19.58621182480298
 20
-6.145037607469527
 30
0.0
 10
19.57083774711201
 20
-6.129661834357547
 30
0.0
 10
19.57083774711201
 20
-6.104734059292443
 30
0.0
 10
19.58621182480298
 20
-6.089359133890967
 30
0.0
 10
19.60158590249396
 20
-6.073984208489492
 30
0.0
 10
19.62651537298007
 20
-6.073984208489492
 30
0.0
 10
19.64188945067104
 20
-6.089359133890967
 30
0.0
 10
19.65726352836201
 20
-6.104734059292443
 30
0.0
 10
19.65726352836201
 20
-6.129661834357547
 30
0.0
 10
19.64188945067104
 20
-6.145037607469527
 30
0.0
  0
SPLINE
  5
7D
330
1F
100
AcDbEntity
  8
Layer 1
 62
   179
420
  2301728
370
    35
100
AcDbSpline
210
0.0
220
0.0
230
1.0
 70
    11
 71
     3
 72
    17
 73
    13
 74
     0
 42
0.0000000001
 43
0.0000000001
 12
1.0
 22
0.0
 32
0.0
 13
1.0
 23
0.0
 33
0.0
 40
0.0
 40
0.0
 40
0.0
 40
0.0
 40
1.0
 40
1.0
 40
1.0
 40
2.0
 40
2.0
 40
2.0
 40
3.0
 40
3.0
 40
3.0
 40
4.0
 40
4.0
 40
4.0
 40
4.0
 10
19.58621182480298
 20
-6.089359133890967
 30
0.0
 10
19.57083774711201
 20
-6.104734059292443
 30
0.0
 10
19.57083774711201
 20
-6.129661834357547
 30
0.0
 10
19.58621182480298
 20
-6.145037607469527
 30
0.0
 10
19.60158590249396
 20
-6.160412532871002
 30
0.0
 10
19.62651537298007
 20
-6.160412532871002
 30
0.0
 10
19.64188945067104
 20
-6.145037607469527
 30
0.0
 10
19.65726352836201
 20
-6.129661834357547
 30
0.0
 10
19.65726352836201
 20
-6.104734059292443
 30
0.0
 10
19.64188945067104
 20
-6.089359133890967
 30
0.0
 10
19.62651537298007
 20
-6.073984208489492
 30
0.0
 10
19.60158590249396
 20
-6.073984208489492
 30
0.0
 10
19.58621182480298
 20
-6.089359133890967
 30
0.0
  0
SPLINE
  5
7E
330
1F
100
AcDbEntity
  8
Layer 1
 62
   179
420
  2301728
370
    35
100
AcDbSpline
210
0.0
220
0.0
230
1.0
 70
    11
 71
     3
 72
    17
 73
    13
 74
     0
 42
0.0000000001
 43
0.0000000001
 12
1.0
 22
0.0
 32
0.0
 13
1.0
 23
0.0
 33
0.0
 40
0.0
 40
0.0
 40
0.0
 40
0.0
 40
1.0
 40
1.0
 40
1.0
 40
2.0
 40
2.0
 40
2.0
 40
3.0
 40
3.0
 40
3.0
 40
4.0
 40
4.0
 40
4.0
 40
4.0
 10
3.59086757674792
 20
-4.384597603846284
 30
0.0
 10
3.575491803635941
 20
-4.369223526155312
 30
0.0
 10
3.550564028570837
 20
-4.369223526155312
 30
0.0
 10
3.535189103169361
 20
-4.384597603846284
 30
0.0
 10
3.519814177767886
 20
-4.399971681537257
 30
0.0
 10
3.519814177767886
 20
-4.424901152023368
 30
0.0
 10
3.535189103169361
 20
-4.44027522971434
 30
0.0
 10
3.550564028570837
 20
-4.455649307405312
 30
0.0
 10
3.575491803635941
 20
-4.455649307405312
 30
0.0
 10
3.59086757674792
 20
-4.44027522971434
 30
0.0
 10
3.606242502149396
 20
-4.424901152023368
 30
0.0
 10
3.606242502149396
 20
-4.399971681537257
 30
0.0
 10
3.59086757674792
 20
-4.384597603846284
 30
0.0
  0
SPLINE
  5
7F
330
1F
100
AcDbEntity
  8
Layer 1
 62
   179
420
  2301728
370
    35
100
AcDbSpline
210
0.0
220
0.0
230
1.0
 70
    11
 71
     3
 72
    17
 73
    13
 74
     0
 42
0.0000000001
 43
0.0000000001
 12
1.0
 22
0.0
 32
0.0
 13
1.0
 23
0.0
 33
0.0
 40
0.0
 40
0.0
 40
0.0
 40
0.0
 40
1.0
 40
1.0
 40
1.0
 40
2.0
 40
2.0
 40
2.0
 40
3.0
 40
3.0
 40
3.0
 40
4.0
 40
4.0
 40
4.0
 40
4.0
 10
21.44135646563397
 20
-4.244435695584646
 30
0.0
 10
21.44135646563397
 20
-4.244435695584646
 30
0.0
 10
22.5345774942798
 20
-4.244435695584646
 30
0.0
 10
22.5345774942798
 20
-4.244435695584646
 30
0.0
 10
22.5345774942798
 20
-3.044965175565115
 30
0.0
 10
22.05149779592911
 20
-1.958436821344195
 30
0.0
 10
21.26946790226591
 20
-1.16838673860765
 30
0.0
 10
21.26946790226591
 20
-1.16838673860765
 30
0.0
 10
20.49644408499161
 20
-1.941413099013466
 30
0.0
 10
20.49644408499161
 20
-1.941413099013466
 30
0.0
 10
21.08064547388049
 20
-2.533616875055132
 30
0.0
 10
21.44135646563397
 20
-3.346850992351139
 30
0.0
 10
21.44135646563397
 20
-4.244435695584646
 30
0.0
  0
SPLINE
  5
80
330
1F
100
AcDbEntity
  8
Layer 1
 62
   179
420
  2301728
370
    35
100
AcDbSpline
210
0.0
220
0.0
230
1.0
 70
    11
 71
     3
 72
    23
 73
    19
 74
     0
 42
0.0000000001
 43
0.0000000001
 12
1.0
 22
0.0
 32
0.0
 13
1.0
 23
0.0
 33
0.0
 40
0.0
 40
0.0
 40
0.0
 40
0.0
 40
1.0
 40
1.0
 40
1.0
 40
2.0
 40
2.0
 40
2.0
 40
3.0
 40
3.0
 40
3.0
 40
4.0
 40
4.0
 40
4.0
 40
5.0
 40
5.0
 40
5.0
 40
6.0
 40
6.0
 40
6.0
 40
6.0
 10
2.560683996561288
 20
-4.444174698030312
 30
0.0
 10
2.560683996561288
 20
-3.530444500547674
 30
0.0
 10
2.934481943067365
 20
-2.704123428499063
 30
0.0
 10
3.537338049295663
 20
-2.109410429367118
 30
0.0
 10
3.537338049295663
 20
-2.109410429367118
 30
0.0
 10
2.764311688889848
 20
-1.336386612092813
 30
0.0
 10
2.764311688889848
 20
-1.336386612092813
 30
0.0
 10
1.96362623017674
 20
-2.128941679367118
 30
0.0
 10
1.467458729362938
 20
-3.228557836051146
 30
0.0
 10
1.467458729362938
 20
-4.444174698030312
 30
0.0
 10
1.467458729362938
 20
-5.653660917648367
 30
0.0
 10
1.958528946919361
 20
-6.748414606884479
 30
0.0
 10
2.752112287034379
 20
-7.540054146815034
 30
0.0
 10
2.752112287034379
 20
-7.540054146815034
 30
0.0
 10
3.525140342861202
 20
-6.767023547856701
 30
0.0
 10
3.525140342861202
 20
-6.767023547856701
 30
0.0
 10
2.929391441494014
 20
-6.173226076068507
 30
0.0
 10
2.560683996561288
 20
-5.35177425315184
 30
0.0
 10
2.560683996561288
 20
-4.444174698030312
 30
0.0
  0
SPLINE
  5
81
330
1F
100
AcDbEntity
  8
Layer 1
 62
   179
420
  2301728
370
    35
100
AcDbSpline
210
0.0
220
0.0
230
1.0
 70
    11
 71
     3
 72
    20
 73
    16
 74
     0
 42
0.0000000001
 43
0.0000000001
 12
1.0
 22
0.0
 32
0.0
 13
1.0
 23
0.0
 33
0.0
 40
0.0
 40
0.0
 40
0.0
 40
0.0
 40
1.0
 40
1.0
 40
1.0
 40
2.0
 40
2.0
 40
2.0
 40
3.0
 40
3.0
 40
3.0
 40
4.0
 40
4.0
 40
4.0
 40
5.0
 40
5.0
 40
5.0
 40
5.0
 10
19.59279683999396
 20
-3.92653259580503
 30
0.0
 10
19.59279683999396
 20
-3.92653259580503
 30
0.0
 10
18.81976624103562
 20
-3.153504539978207
 30
0.0
 10
18.81976624103562
 20
-3.153504539978207
 30
0.0
 10
18.03066983261548
 20
-3.94454051003029
 30
0.0
 10
17.54274123018493
 20
-5.036150041009023
 30
0.0
 10
17.54274123018493
 20
-6.241752898810672
 30
0.0
 10
17.54274123018493
 20
-6.241752898810672
 30
0.0
 10
17.54274801186896
 20
-6.241752898810672
 30
0.0
 10
17.54274801186896
 20
-6.241752898810672
 30
0.0
 10
17.54274801186896
 20
-6.241752898810672
 30
0.0
 10
18.63596904051479
 20
-6.241752898810672
 30
0.0
 10
18.63596904051479
 20
-6.241752898810672
 30
0.0
 10
18.63596904051479
 20
-5.338035857795047
 30
0.0
 10
19.00152893634812
 20
-4.519732431688277
 30
0.0
 10
19.59279683999396
 20
-3.92653259580503
 30
0.0
  0
ENDSEC
  0
SECTION
  2
OBJECTS
  0
DICTIONARY
  5
C
330
0
100
AcDbDictionary
281
     1
  3
ACAD_GROUP
350
D
  3
ACAD_LAYOUT
350
1A
  3
ACAD_MATERIAL
350
3B
  3
ACAD_MLEADERSTYLE
350
83
  3
ACAD_MLINESTYLE
350
17
  3
ACAD_PLOTSETTINGS
350
19
  3
ACAD_PLOTSTYLENAME
350
E
  3
ACAD_TABLESTYLE
350
82
  3
ACAD_VISUALSTYLE
350
2A
  0
SUN
  5
3F
330
29
100
AcDbSun
 90
        1
290
     0
 63
     7
421
 16777215
 40
1.0
291
     1
 91
  2455826
 92
 54000000
292
     0
 70
     2
 71
   256
280
     1
  0
DICTIONARY
  5
D
102
{ACAD_REACTORS
330
C
102
}
330
C
100
AcDbDictionary
281
     1
  0
DICTIONARY
  5
1A
102
{ACAD_REACTORS
330
C
102
}
330
C
100
AcDbDictionary
281
     1
  3
Layout1
350
1E
  3
Layout2
350
26
  3
Model
350
22
  0
DICTIONARY
  5
3B
102
{ACAD_REACTORS
330
C
102
}
330
C
100
AcDbDictionary
281
     1
  3
ByBlock
350
3D
  3
ByLayer
350
3C
  3
Global
350
3E
  0
DICTIONARY
  5
83
102
{ACAD_REACTORS
330
C
102
}
330
C
100
AcDbDictionary
281
     1
  0
DICTIONARY
  5
17
102
{ACAD_REACTORS
330
C
102
}
330
C
100
AcDbDictionary
281
     1
  3
Standard
350
18
  0
DICTIONARY
  5
19
102
{ACAD_REACTORS
330
C
102
}
330
C
100
AcDbDictionary
281
     1
  0
ACDBDICTIONARYWDFLT
  5
E
102
{ACAD_REACTORS
330
C
102
}
330
C
100
AcDbDictionary
281
     1
  3
Normal
350
F
100
AcDbDictionaryWithDefault
340
F
  0
DICTIONARY
  5
82
102
{ACAD_REACTORS
330
C
102
}
330
C
100
AcDbDictionary
281
     1
  0
DICTIONARY
  5
2A
102
{ACAD_REACTORS
330
C
102
}
330
C
100
AcDbDictionary
281
     1
  3
2dWireframe
350
2F
  3
3D Hidden
350
31
  3
3dWireframe
350
30
  3
Basic
350
32
  3
Brighten
350
36
  3
ColorChange
350
3A
  3
Conceptual
350
34
  3
Dim
350
35
  3
Facepattern
350
39
  3
Flat
350
2B
  3
FlatWithEdges
350
2C
  3
Gouraud
350
2D
  3
GouraudWithEdges
350
2E
  3
Linepattern
350
38
  3
Realistic
350
33
  3
Thicken
350
37
  0
LAYOUT
  5
1E
102
{ACAD_REACTORS
330
1A
102
}
330
1A
100
AcDbPlotSettings
  1

  2
none_device
  4

  6

 40
0.0
 41
0.0
 42
0.0
 43
0.0
 44
0.0
 45
0.0
 46
0.0
 47
0.0
 48
0.0
 49
0.0
140
0.0
141
0.0
142
1.0
143
1.0
 70
   688
 72
     0
 73
     0
 74
     5
  7

 75
    16
 76
     0
 77
     2
 78
   300
147
1.0
148
0.0
149
0.0
100
AcDbLayout
  1
Layout1
 70
     1
 71
     1
 10
0.0
 20
0.0
 11
12.0
 21
9.0
 12
0.0
 22
0.0
 32
0.0
 14
1.000000000000000E+20
 24
1.000000000000000E+20
 34
1.000000000000000E+20
 15
-1.000000000000000E+20
 25
-1.000000000000000E+20
 35
-1.000000000000000E+20
146
0.0
 13
0.0
 23
0.0
 33
0.0
 16
1.0
 26
0.0
 36
0.0
 17
0.0
 27
1.0
 37
0.0
 76
     0
330
1B
  0
LAYOUT
  5
26
102
{ACAD_REACTORS
330
1A
102
}
330
1A
100
AcDbPlotSettings
  1

  2
none_device
  4

  6

 40
0.0
 41
0.0
 42
0.0
 43
0.0
 44
0.0
 45
0.0
 46
0.0
 47
0.0
 48
0.0
 49
0.0
140
0.0
141
0.0
142
1.0
143
1.0
 70
   688
 72
     0
 73
     0
 74
     5
  7

 75
    16
 76
     0
 77
     2
 78
   300
147
1.0
148
0.0
149
0.0
100
AcDbLayout
  1
Layout2
 70
     1
 71
     2
 10
0.0
 20
0.0
 11
0.0
 21
0.0
 12
0.0
 22
0.0
 32
0.0
 14
0.0
 24
0.0
 34
0.0
 15
0.0
 25
0.0
 35
0.0
146
0.0
 13
0.0
 23
0.0
 33
0.0
 16
1.0
 26
0.0
 36
0.0
 17
0.0
 27
1.0
 37
0.0
 76
     0
330
23
  0
LAYOUT
  5
22
102
{ACAD_REACTORS
330
1A
102
}
330
1A
100
AcDbPlotSettings
  1

  2
none_device
  4

  6

 40
0.0
 41
0.0
 42
0.0
 43
0.0
 44
0.0
 45
0.0
 46
0.0
 47
0.0
 48
0.0
 49
0.0
140
0.0
141
0.0
142
1.0
143
1.0
 70
  1712
 72
     0
 73
     0
 74
     0
  7

 75
     0
 76
     0
 77
     2
 78
   300
147
1.0
148
0.0
149
0.0
100
AcDbLayout
  1
Model
 70
     1
 71
     0
 10
0.0
 20
0.0
 11
12.0
 21
9.0
 12
0.0
 22
0.0
 32
0.0
 14
1.000000000000000E+20
 24
1.000000000000000E+20
 34
1.000000000000000E+20
 15
-1.000000000000000E+20
 25
-1.000000000000000E+20
 35
-1.000000000000000E+20
146
0.0
 13
0.0
 23
0.0
 33
0.0
 16
1.0
 26
0.0
 36
0.0
 17
0.0
 27
1.0
 37
0.0
 76
     0
330
1F
331
29
  0
MATERIAL
  5
3D
102
{ACAD_REACTORS
330
3B
102
}
330
3B
100
AcDbMaterial
  1
ByBlock
 72
     1
 94
      127
  0
MATERIAL
  5
3C
102
{ACAD_REACTORS
330
3B
102
}
330
3B
100
AcDbMaterial
  1
ByLayer
 72
     1
 94
      127
  0
MATERIAL
  5
3E
102
{ACAD_REACTORS
330
3B
102
}
330
3B
100
AcDbMaterial
  1
Global
 72
     1
 94
      127
  0
MLINESTYLE
  5
18
102
{ACAD_REACTORS
330
17
102
}
330
17
100
AcDbMlineStyle
  2
Standard
 70
     0
  3

 62
   256
 51
90.0
 52
90.0
 71
     2
 49
0.5
 62
   256
  6
BYLAYER
 49
-0.5
 62
   256
  6
BYLAYER
  0
ACDBPLACEHOLDER
  5
F
102
{ACAD_REACTORS
330
E
102
}
330
E
  0
VISUALSTYLE
  5
2F
102
{ACAD_REACTORS
330
2A
102
}
330
2A
100
AcDbVisualStyle
  2
2dWireframe
 70
     4
177
     2
291
     0
 71
     0
176
     1
 72
     2
176
     1
 73
     0
176
     1
 90
        0
176
     1
 40
-0.6
176
     1
 41
-30.0
176
     1
 62
     5
 63
     7
421
 16777215
176
     1
 74
     1
176
     1
 91
        4
176
     1
 64
     7
176
     1
 65
   257
176
     1
 75
     1
176
     1
175
     1
176
     1
 42
1.0
176
     1
 92
        0
176
     1
 66
   257
176
     1
 43
1.0
176
     1
 76
     1
176
     1
 77
     6
176
     1
 78
     2
176
     1
 67
     7
176
     1
 79
     5
176
     1
170
     0
176
     1
171
     0
176
     1
290
     0
176
     1
 93
        1
176
     1
 44
0.0
176
     1
173
     0
176
     1
  0
VISUALSTYLE
  5
31
102
{ACAD_REACTORS
330
2A
102
}
330
2A
100
AcDbVisualStyle
  2
3D Hidden
 70
     6
177
     2
291
     0
 71
     1
176
     1
 72
     2
176
     1
 73
     2
176
     1
 90
        0
176
     1
 40
-0.6
176
     1
 41
-30.0
176
     1
 62
     5
 63
     7
421
 16777215
176
     1
 74
     2
176
     1
 91
        2
176
     1
 64
     7
176
     1
 65
   257
176
     1
 75
     2
176
     1
175
     1
176
     1
 42
40.0
176
     1
 92
        0
176
     1
 66
   257
176
     1
 43
1.0
176
     1
 76
     1
176
     1
 77
     6
176
     1
 78
     2
176
     1
 67
     7
176
     1
 79
     3
176
     1
170
     0
176
     1
171
     0
176
     1
290
     0
176
     1
 93
        1
176
     1
 44
0.0
176
     1
173
     0
176
     1
  0
VISUALSTYLE
  5
30
102
{ACAD_REACTORS
330
2A
102
}
330
2A
100
AcDbVisualStyle
  2
3dWireframe
 70
     5
177
     2
291
     0
 71
     0
176
     1
 72
     2
176
     1
 73
     0
176
     1
 90
        0
176
     1
 40
-0.6
176
     1
 41
-30.0
176
     1
 62
     5
 63
     7
421
 16777215
176
     1
 74
     1
176
     1
 91
        4
176
     1
 64
     7
176
     1
 65
   257
176
     1
 75
     1
176
     1
175
     1
176
     1
 42
1.0
176
     1
 92
        0
176
     1
 66
   257
176
     1
 43
1.0
176
     1
 76
     1
176
     1
 77
     6
176
     1
 78
     2
176
     1
 67
     7
176
     1
 79
     5
176
     1
170
     0
176
     1
171
     0
176
     1
290
     0
176
     1
 93
        1
176
     1
 44
0.0
176
     1
173
     0
176
     1
  0
VISUALSTYLE
  5
32
102
{ACAD_REACTORS
330
2A
102
}
330
2A
100
AcDbVisualStyle
  2
Basic
 70
     7
177
     2
291
     1
 71
     1
176
     1
 72
     0
176
     1
 73
     1
176
     1
 90
        0
176
     1
 40
-0.6
176
     1
 41
-30.0
176
     1
 62
     5
 63
     7
421
 16777215
176
     1
 74
     0
176
     1
 91
        4
176
     1
 64
     7
176
     1
 65
   257
176
     1
 75
     1
176
     1
175
     1
176
     1
 42
1.0
176
     1
 92
        8
176
     1
 66
     7
176
     1
 43
1.0
176
     1
 76
     1
176
     1
 77
     6
176
     1
 78
     2
176
     1
 67
     7
176
     1
 79
     5
176
     1
170
     0
176
     1
171
     0
176
     1
290
     0
176
     1
 93
        1
176
     1
 44
0.0
176
     1
173
     0
176
     1
  0
VISUALSTYLE
  5
36
102
{ACAD_REACTORS
330
2A
102
}
330
2A
100
AcDbVisualStyle
  2
Brighten
 70
    12
177
     2
291
     1
 71
     2
176
     1
 72
     2
176
     1
 73
     0
176
     1
 90
        0
176
     1
 40
-0.6
176
     1
 41
-30.0
176
     1
 62
     5
 63
     7
421
 16777215
176
     1
 74
     1
176
     1
 91
        4
176
     1
 64
     7
176
     1
 65
   257
176
     1
 75
     1
176
     1
175
     1
176
     1
 42
1.0
176
     1
 92
        8
176
     1
 66
     7
176
     1
 43
1.0
176
     1
 76
     1
176
     1
 77
     6
176
     1
 78
     2
176
     1
 67
     7
176
     1
 79
     5
176
     1
170
     0
176
     1
171
     0
176
     1
290
     0
176
     1
 93
        1
176
     1
 44
50.0
176
     1
173
     0
176
     1
  0
VISUALSTYLE
  5
3A
102
{ACAD_REACTORS
330
2A
102
}
330
2A
100
AcDbVisualStyle
  2
ColorChange
 70
    16
177
     2
291
     1
 71
     2
176
     1
 72
     2
176
     1
 73
     3
176
     1
 90
        0
176
     1
 40
-0.6
176
     1
 41
-30.0
176
     1
 62
     5
 63
     8
421
  8421504
176
     1
 74
     1
176
     1
 91
        4
176
     1
 64
     7
176
     1
 65
   257
176
     1
 75
     1
176
     1
175
     1
176
     1
 42
1.0
176
     1
 92
        8
176
     1
 66
     8
424
  8421504
176
     1
 43
1.0
176
     1
 76
     1
176
     1
 77
     6
176
     1
 78
     2
176
     1
 67
     7
176
     1
 79
     5
176
     1
170
     0
176
     1
171
     0
176
     1
290
     0
176
     1
 93
        1
176
     1
 44
0.0
176
     1
173
     0
176
     1
  0
VISUALSTYLE
  5
34
102
{ACAD_REACTORS
330
2A
102
}
330
2A
100
AcDbVisualStyle
  2
Conceptual
 70
     9
177
     2
291
     0
 71
     3
176
     1
 72
     2
176
     1
 73
     0
176
     1
 90
        0
176
     1
 40
-0.6
176
     1
 41
-30.0
176
     1
 62
     5
 63
     7
421
 16777215
176
     1
 74
     2
176
     1
 91
        2
176
     1
 64
     7
176
     1
 65
   257
176
     1
 75
     1
176
     1
175
     1
176
     1
 42
40.0
176
     1
 92
        8
176
     1
 66
     7
176
     1
 43
1.0
176
     1
 76
     1
176
     1
 77
     6
176
     1
 78
     2
176
     1
 67
     7
176
     1
 79
     3
176
     1
170
     0
176
     1
171
     0
176
     1
290
     0
176
     1
 93
        1
176
     1
 44
0.0
176
     1
173
     0
176
     1
  0
VISUALSTYLE
  5
35
102
{ACAD_REACTORS
330
2A
102
}
330
2A
100
AcDbVisualStyle
  2
Dim
 70
    11
177
     2
291
     1
 71
     2
176
     1
 72
     2
176
     1
 73
     0
176
     1
 90
        0
176
     1
 40
-0.6
176
     1
 41
-30.0
176
     1
 62
     5
 63
     7
421
 16777215
176
     1
 74
     1
176
     1
 91
        4
176
     1
 64
     7
176
     1
 65
   257
176
     1
 75
     1
176
     1
175
     1
176
     1
 42
1.0
176
     1
 92
        8
176
     1
 66
     7
176
     1
 43
1.0
176
     1
 76
     1
176
     1
 77
     6
176
     1
 78
     2
176
     1
 67
     7
176
     1
 79
     5
176
     1
170
     0
176
     1
171
     0
176
     1
290
     0
176
     1
 93
        1
176
     1
 44
-50.0
176
     1
173
     0
176
     1
  0
VISUALSTYLE
  5
39
102
{ACAD_REACTORS
330
2A
102
}
330
2A
100
AcDbVisualStyle
  2
Facepattern
 70
    15
177
     2
291
     1
 71
     2
176
     1
 72
     2
176
     1
 73
     0
176
     1
 90
        0
176
     1
 40
-0.6
176
     1
 41
-30.0
176
     1
 62
     5
 63
     7
421
 16777215
176
     1
 74
     1
176
     1
 91
        4
176
     1
 64
     7
176
     1
 65
   257
176
     1
 75
     1
176
     1
175
     1
176
     1
 42
1.0
176
     1
 92
        8
176
     1
 66
     7
176
     1
 43
1.0
176
     1
 76
     1
176
     1
 77
     6
176
     1
 78
     2
176
     1
 67
     7
176
     1
 79
     5
176
     1
170
     0
176
     1
171
     0
176
     1
290
     0
176
     1
 93
        1
176
     1
 44
0.0
176
     1
173
     0
176
     1
  0
VISUALSTYLE
  5
2B
102
{ACAD_REACTORS
330
2A
102
}
330
2A
100
AcDbVisualStyle
  2
Flat
 70
     0
177
     2
291
     1
 71
     2
176
     1
 72
     1
176
     1
 73
     1
176
     1
 90
        2
176
     1
 40
-0.6
176
     1
 41
30.0
176
     1
 62
     5
 63
     7
421
 16777215
176
     1
 74
     0
176
     1
 91
        4
176
     1
 64
     7
176
     1
 65
   257
176
     1
 75
     1
176
     1
175
     1
176
     1
 42
1.0
176
     1
 92
        8
176
     1
 66
     7
176
     1
 43
1.0
176
     1
 76
     1
176
     1
 77
     6
176
     1
 78
     2
176
     1
 67
     7
176
     1
 79
     5
176
     1
170
     0
176
     1
171
     0
176
     1
290
     0
176
     1
 93
       13
176
     1
 44
0.0
176
     1
173
     0
176
     1
  0
VISUALSTYLE
  5
2C
102
{ACAD_REACTORS
330
2A
102
}
330
2A
100
AcDbVisualStyle
  2
FlatWithEdges
 70
     1
177
     2
291
     1
 71
     2
176
     1
 72
     1
176
     1
 73
     1
176
     1
 90
        2
176
     1
 40
-0.6
176
     1
 41
30.0
176
     1
 62
     5
 63
     7
421
 16777215
176
     1
 74
     1
176
     1
 91
        4
176
     1
 64
     7
176
     1
 65
   257
176
     1
 75
     1
176
     1
175
     1
176
     1
 42
1.0
176
     1
 92
        0
176
     1
 66
   257
176
     1
 43
1.0
176
     1
 76
     1
176
     1
 77
     6
176
     1
 78
     2
176
     1
 67
     7
176
     1
 79
     5
176
     1
170
     0
176
     1
171
     0
176
     1
290
     0
176
     1
 93
       13
176
     1
 44
0.0
176
     1
173
     0
176
     1
  0
VISUALSTYLE
  5
2D
102
{ACAD_REACTORS
330
2A
102
}
330
2A
100
AcDbVisualStyle
  2
Gouraud
 70
     2
177
     2
291
     1
 71
     2
176
     1
 72
     2
176
     1
 73
     1
176
     1
 90
        2
176
     1
 40
-0.6
176
     1
 41
30.0
176
     1
 62
     5
 63
     7
421
 16777215
176
     1
 74
     0
176
     1
 91
        4
176
     1
 64
     7
176
     1
 65
   257
176
     1
 75
     1
176
     1
175
     1
176
     1
 42
1.0
176
     1
 92
        0
176
     1
 66
     7
176
     1
 43
1.0
176
     1
 76
     1
176
     1
 77
     6
176
     1
 78
     2
176
     1
 67
     7
176
     1
 79
     5
176
     1
170
     0
176
     1
171
     0
176
     1
290
     0
176
     1
 93
       13
176
     1
 44
0.0
176
     1
173
     0
176
     1
  0
VISUALSTYLE
  5
2E
102
{ACAD_REACTORS
330
2A
102
}
330
2A
100
AcDbVisualStyle
  2
GouraudWithEdges
 70
     3
177
     2
291
     1
 71
     2
176
     1
 72
     2
176
     1
 73
     1
176
     1
 90
        2
176
     1
 40
-0.6
176
     1
 41
30.0
176
     1
 62
     5
 63
     7
421
 16777215
176
     1
 74
     1
176
     1
 91
        4
176
     1
 64
     7
176
     1
 65
   257
176
     1
 75
     1
176
     1
175
     1
176
     1
 42
1.0
176
     1
 92
        0
176
     1
 66
   257
176
     1
 43
1.0
176
     1
 76
     1
176
     1
 77
     6
176
     1
 78
     2
176
     1
 67
     7
176
     1
 79
     5
176
     1
170
     0
176
     1
171
     0
176
     1
290
     0
176
     1
 93
       13
176
     1
 44
0.0
176
     1
173
     0
176
     1
  0
VISUALSTYLE
  5
38
102
{ACAD_REACTORS
330
2A
102
}
330
2A
100
AcDbVisualStyle
  2
Linepattern
 70
    14
177
     2
291
     1
 71
     2
176
     1
 72
     2
176
     1
 73
     0
176
     1
 90
        0
176
     1
 40
-0.6
176
     1
 41
-30.0
176
     1
 62
     5
 63
     7
421
 16777215
176
     1
 74
     1
176
     1
 91
        4
176
     1
 64
     7
176
     1
 65
   257
176
     1
 75
     7
176
     1
175
     7
176
     1
 42
1.0
176
     1
 92
        8
176
     1
 66
     7
176
     1
 43
1.0
176
     1
 76
     1
176
     1
 77
     6
176
     1
 78
     2
176
     1
 67
     7
176
     1
 79
     5
176
     1
170
     0
176
     1
171
     0
176
     1
290
     0
176
     1
 93
        1
176
     1
 44
0.0
176
     1
173
     0
176
     1
  0
VISUALSTYLE
  5
33
102
{ACAD_REACTORS
330
2A
102
}
330
2A
100
AcDbVisualStyle
  2
Realistic
 70
     8
177
     2
291
     0
 71
     2
176
     1
 72
     2
176
     1
 73
     0
176
     1
 90
        0
176
     1
 40
-0.6
176
     1
 41
-30.0
176
     1
 62
     5
 63
     7
421
 16777215
176
     1
 74
     1
176
     1
 91
        0
176
     1
 64
     7
176
     1
 65
   257
176
     1
 75
     1
176
     1
175
     1
176
     1
 42
1.0
176
     1
 92
        8
176
     1
 66
     8
424
  7895160
176
     1
 43
1.0
176
     1
 76
     1
176
     1
 77
     6
176
     1
 78
     2
176
     1
 67
     7
176
     1
 79
     5
176
     1
170
     0
176
     1
171
     0
176
     1
290
     0
176
     1
 93
       13
176
     1
 44
0.0
176
     1
173
     0
176
     1
  0
VISUALSTYLE
  5
37
102
{ACAD_REACTORS
330
2A
102
}
330
2A
100
AcDbVisualStyle
  2
Thicken
 70
    13
177
     2
291
     1
 71
     2
176
     1
 72
     2
176
     1
 73
     0
176
     1
 90
        0
176
     1
 40
-0.6
176
     1
 41
-30.0
176
     1
 62
     5
 63
     7
421
 16777215
176
     1
 74
     1
176
     1
 91
        4
176
     1
 64
     7
176
     1
 65
   257
176
     1
 75
     1
176
     1
175
     1
176
     1
 42
1.0
176
     1
 92
       12
176
     1
 66
     7
176
     1
 43
1.0
176
     1
 76
     1
176
     1
 77
     6
176
     1
 78
     2
176
     1
 67
     7
176
     1
 79
     5
176
     1
170
     0
176
     1
171
     0
176
     1
290
     0
176
     1
 93
        1
176
     1
 44
0.0
176
     1
173
     0
176
     1
  0
ENDSEC
  0
EOF
