<?xml version="1.0" encoding="utf-8"?>
<!-- Generator: Adobe Illustrator 21.1.0, SVG Export Plug-In . SVG Version: 6.00 Build 0)  -->
<svg version="1.1" id="Layer_1" xmlns="http://www.w3.org/2000/svg" xmlns:xlink="http://www.w3.org/1999/xlink" x="0px" y="0px"
	 viewBox="0 0 289.4 289.6" style="enable-background:new 0 0 289.4 289.6;" xml:space="preserve">
<style type="text/css">
	.st0{fill:none;stroke:#000000;stroke-miterlimit:10;}
</style>
<path class="st0" d="M144.7,289.1c-79.8,0-144.2-64.4-144.2-144.2S65.1,0.5,144.7,0.5s144.2,64.4,144.2,144.2
	S224.5,289.1,144.7,289.1z"/>
<path class="st0" d="M264.9,144.7c0-66.4-53.8-120.2-120.2-120.2S24.5,78.3,24.5,144.7s53.8,120.2,120.2,120.2
	S264.9,211.1,264.9,144.7z"/>
<path class="st0" d="M144.7,240.9c-53.2,0-96.2-43-96.2-96.2s43-96.2,96.2-96.2s96.2,43,96.2,96.2S197.9,240.9,144.7,240.9z"/>
<path class="st0" d="M216.9,144.7c0-39.8-32.2-72-72.2-72s-72.2,32.2-72.2,72s32.2,72.2,72.2,72.2S216.9,184.7,216.9,144.7z"/>
<path class="st0" d="M144.7,192.9c-26.6,0-48-21.6-48-48.2s21.6-48,48-48s48.2,21.6,48.2,48S171.3,192.9,144.7,192.9z"/>
<path class="st0" d="M168.7,144.7c0-13.4-10.8-24-24-24s-24,10.8-24,24s10.8,24,24,24S168.7,158.1,168.7,144.7z"/>
</svg>
