<?xml version="1.0" encoding="utf-8"?>
<!-- Generator: Adobe Illustrator 21.1.0, SVG Export Plug-In . SVG Version: 6.00 Build 0)  -->
<svg version="1.1" id="Layer_1" xmlns="http://www.w3.org/2000/svg" xmlns:xlink="http://www.w3.org/1999/xlink" x="0px" y="0px"
	 viewBox="0 0 327 327" style="enable-background:new 0 0 327 327;" xml:space="preserve">
<style type="text/css">
	.st0{fill:none;stroke:#000000;stroke-width:3;stroke-miterlimit:10;}
</style>
<path class="st0" d="M1.5,1.5v324h324V1.5H1.5z M299.1,51.1h-23.2V27.9h23.2V51.1z M176.7,100.7V77.5h23.2v23.2H176.7z M199.9,127.1
	v23.2h-23.2v-23.2H199.9z M150.3,100.7h-23.2V77.5h23.2V100.7z M150.3,127.1v23.2h-23.2v-23.2H150.3z M100.7,150.3H77.5v-23.2h23.2
	V150.3z M100.7,176.7v23.2H77.5v-23.2H100.7z M127.1,176.7h23.2v23.2h-23.2V176.7z M150.3,226.3v23.2h-23.2v-23.2H150.3z
	 M176.7,226.3h23.2v23.2h-23.2V226.3z M176.7,199.9v-23.2h23.2v23.2H176.7z M226.3,176.7h23.2v23.2h-23.2V176.7z M226.3,150.3v-23.2
	h23.2v23.2H226.3z M226.3,100.7V77.5h23.2v23.2H226.3z M226.3,51.1V27.9h23.2v23.2H226.3z M199.9,51.1h-23.2V27.9h23.2V51.1z
	 M150.3,51.1h-23.2V27.9h23.2V51.1z M100.7,51.1H77.5V27.9h23.2V51.1z M100.7,77.5v23.2H77.5V77.5H100.7z M51.1,100.7H27.9V77.5
	h23.2V100.7z M51.1,127.1v23.2H27.9v-23.2H51.1z M51.1,176.7v23.2H27.9v-23.2H51.1z M51.1,226.3v23.2H27.9v-23.2H51.1z M77.5,226.3
	h23.2v23.2H77.5V226.3z M100.7,275.9v23.2H77.5v-23.2H100.7z M127.1,275.9h23.2v23.2h-23.2V275.9z M176.7,275.9h23.2v23.2h-23.2
	V275.9z M226.3,275.9h23.2v23.2h-23.2V275.9z M226.3,249.5v-23.2h23.2v23.2H226.3z M275.9,226.3h23.2v23.2h-23.2V226.3z
	 M275.9,199.9v-23.2h23.2v23.2H275.9z M275.9,150.3v-23.2h23.2v23.2H275.9z M275.9,100.7V77.5h23.2v23.2H275.9z M51.1,27.9v23.2
	H27.9V27.9H51.1z M27.9,275.9h23.2v23.2H27.9V275.9z M275.9,299.1v-23.2h23.2v23.2H275.9z"/>
</svg>
