<?xml version="1.0" encoding="utf-8"?>
<!-- Generator: Adobe Illustrator 21.1.0, SVG Export Plug-In . SVG Version: 6.00 Build 0)  -->
<svg version="1.1" id="Layer_1" xmlns="http://www.w3.org/2000/svg" xmlns:xlink="http://www.w3.org/1999/xlink" x="0px" y="0px"
	 viewBox="0 0 294 265.1" style="enable-background:new 0 0 294 265.1;" xml:space="preserve">
<style type="text/css">
	.st0{fill:none;stroke:#000000;stroke-width:3;stroke-miterlimit:10;}
</style>
<path id="inner" class="st0" d="M125.5,244.8l43.2-74.8H255c20.7,0,37.5-16.8,37.5-37.5S275.7,95,255,95h-43l21.5-37.3
	c3.4-5.9,5-12.3,5-18.7c0-13-6.7-25.6-18.8-32.5c-17.9-10.4-40.8-4.2-51.2,13.7L125.3,95H39c-20.7,0-37.5,16.8-37.5,37.5
	S18.3,170,39,170h43l-21.5,37.3c-10.4,17.9-4.2,40.8,13.7,51.2C92.2,268.9,115.1,262.7,125.5,244.8z"/>
</svg>
