<?xml version="1.0" encoding="utf-8"?>
<!-- Generator: Adobe Illustrator 21.1.0, SVG Export Plug-In . SVG Version: 6.00 Build 0)  -->
<svg version="1.1" id="Layer_1" xmlns="http://www.w3.org/2000/svg" xmlns:xlink="http://www.w3.org/1999/xlink" x="0px" y="0px"
	 viewBox="0 0 427.8 325" style="enable-background:new 0 0 427.8 325;" xml:space="preserve">
<style type="text/css">
	.st0{fill:none;stroke:#000000;stroke-miterlimit:10;}
</style>
<g>
	<g>
		<path class="st0" d="M5.7,0.5C9.6,1.2,13.4,2.6,17,4.7c17.2,10,23,32,13,49.2s-4.2,39.2,13,49.2s39.2,4.2,49.2-13s32-23,49.2-13
			s23,32,13,49.2c-10,17.2-4.2,39.2,13,49.2s39.2,4.2,49.2-13s32-23,49.2-13c17.2,10,23,32,13,49.2c-10,17.2-4.2,39.2,13,49.2
			c17.2,10,39.2,4.2,49.2-13c10-17.2,32-23,49.2-13c17.2,10,23,32,13,49.2s-4.2,39.2,13,49.2c3.6,2.1,7.3,3.5,11.2,4.2H0.5V0.5H5.7z
			"/>
	</g>
</g>
</svg>
