<?xml version="1.0" encoding="utf-8"?>
<!-- Generator: Adobe Illustrator 21.1.0, SVG Export Plug-In . SVG Version: 6.00 Build 0)  -->
<svg version="1.1" id="Layer_1" xmlns="http://www.w3.org/2000/svg" xmlns:xlink="http://www.w3.org/1999/xlink" x="0px" y="0px"
	 viewBox="0 0 316.6 288" style="enable-background:new 0 0 316.6 288;" xml:space="preserve">
<style type="text/css">
	.st0{fill:none;stroke:#000000;stroke-width:3;stroke-miterlimit:10;}
</style>
<path class="st0" d="M156.3,286.5c-3.1,0-6.2-0.1-9.2-0.3c-23-1.3-44.6-7.4-64.1-18.2C68,259.9,54.6,249,43.1,236
	C32,223.4,22.9,209,16,193.1c-6.8-15.7-11.3-32.4-13.3-49.8C0.7,125.7,1.2,107.7,4.3,90c3.6-20.4,23-34,43.4-30.5
	c20.4,3.6,34,23,30.5,43.4c-1.9,10.6-2.2,21.3-1,31.7c1.2,10,3.7,19.6,7.6,28.6c3.8,8.7,8.7,16.4,14.5,23.1c5.8,6.6,12.5,12,19.8,16
	c9.6,5.3,20.4,8.3,32.1,9c11.3,0.6,23.4-1,34.9-4.7c11.5-3.7,22.2-9.4,31-16.4c8.1-6.5,14.2-13.8,17.6-21.1c1.5-3.3,2.7-6.7,3.5-10
	c-1.2,0.5-2.4,1.1-3.6,1.6c-11,5-23.5,10.6-37.3,13.9c-7.8,1.9-15.3,2.8-22.6,2.8c-11.2,0-21.8-2.2-31.6-6.5
	c-10.9-4.8-21.3-13.8-29.4-25.3c-8.9-12.7-14.2-27.3-15.3-42.4c-1.3-17.7,3.2-35.5,13.1-51.7c10-16.3,25.5-31.2,46.1-44.2
	c17.5-11,40.7-5.8,51.7,11.7c11,17.5,5.8,40.7-11.7,51.7c-17.4,11-24,20.8-24.4,25.8c-0.2,2.3,0.9,4.4,1.8,5.8
	c1.1,0,2.7-0.2,4.9-0.7c6.8-1.6,15.5-5.5,23.8-9.3c10.5-4.8,21.5-9.7,33.2-12.4c8.3-2,16.1-2.6,23.6-1.9c10.1,0.9,19.3,4.1,27.6,9.5
	c17.9,11.7,27.4,33.2,26.9,60.3c-0.3,17.7-4.9,37.1-12.5,53.2c-8.3,17.6-21.7,34.1-38.6,47.7c-15.8,12.6-34.7,22.8-54.7,29.2
	C191.8,283.6,174,286.5,156.3,286.5z"/>
</svg>
