<?xml version="1.0" encoding="utf-8"?>
<!-- Generator: Adobe Illustrator 21.1.0, SVG Export Plug-In . SVG Version: 6.00 Build 0)  -->
<svg version="1.1" id="Layer_1" xmlns="http://www.w3.org/2000/svg" xmlns:xlink="http://www.w3.org/1999/xlink" x="0px" y="0px"
	 viewBox="0 0 316.6 288" style="enable-background:new 0 0 316.6 288;" xml:space="preserve">
<style type="text/css">
	.st0{fill:none;stroke:#000000;stroke-width:3;stroke-miterlimit:10;}
</style>
<path class="st0" d="M156.3,286.5c-45.2,0-88.3-19.9-116.9-54.9C9.8,195.5-2.5,147.4,2.7,101.3c1.1-10,2.6-19.8,9-27.9
	c5.3-6.7,12.8-11.5,21.1-13.5c17.5-4.1,35.8,5.3,42.9,21.7c3.9,9.1,2.9,17.4,1.7,26.8c-1.5,11.6-1.1,23.5,1.3,35
	c4.4,21.7,16.1,42.5,34.5,55.2c21.3,14.6,48.8,15.7,72.9,8c22.6-7.3,46.2-23.2,52.1-47.5c-14.5,6.1-28.5,12.9-44,16.2
	c-15.9,3.3-32.5,2.8-47.7-3c-27.9-10.7-46.2-40.7-48.1-69.8c-2-30.9,14.2-58.6,36.8-78.5c10.2-9,22.6-19.7,36.4-21.9
	c11.9-1.9,24.3,2,32.7,10.6c8.7,8.8,12.5,21.5,10.1,33.6c-1.1,5.8-3.7,11.4-7.3,16c-4.4,5.5-10.3,8.7-15.9,12.8
	c-6.3,4.6-17.3,12.6-17.9,21.4c-0.1,1.4,0.2,3.8,1.2,4.9c1.1,1.2,1.4,0.9,3.1,0.7c3.3-0.5,6.6-1.6,9.7-2.7c7.5-2.7,14.7-6.3,22-9.5
	c15-6.7,31-12.7,47.7-12c14.1,0.5,28.1,5.7,38.5,15.5c20.4,19.1,22.2,50.1,17.3,76c-12.1,63.2-70,106-131.4,115.3
	C173,285.8,164.7,286.5,156.3,286.5z"/>
</svg>
