<?xml version="1.0" encoding="utf-8"?>
<!-- Generator: Adobe Illustrator 21.1.0, SVG Export Plug-In . SVG Version: 6.00 Build 0)  -->
<svg version="1.1" id="Layer_1" xmlns="http://www.w3.org/2000/svg" xmlns:xlink="http://www.w3.org/1999/xlink" x="0px" y="0px"
	 viewBox="0 0 398 273" style="enable-background:new 0 0 398 273;" xml:space="preserve">
<style type="text/css">
	.st0{fill:none;stroke:#000000;stroke-width:3;stroke-miterlimit:10;}
</style>
<path class="st0" d="M396.5,271.5h-125c0-19.4-7.5-37.6-21.2-51.3C236.6,206.5,218.4,199,199,199c-26.6,0-52.5-5.2-76.9-15.5
	c-23.5-9.9-44.7-24.2-62.8-42.3S27,102,17,78.4C6.7,54,1.5,28.1,1.5,1.5h125c0,19.4,7.5,37.6,21.2,51.3S179.6,74,199,74
	c26.6,0,52.5,5.2,76.9,15.5c23.5,9.9,44.7,24.2,62.8,42.3S371,171,381,194.6C391.3,219,396.5,244.9,396.5,271.5z"/>
</svg>
