<?xml version="1.0" encoding="utf-8"?>
<!-- Generator: Adobe Illustrator 21.1.0, SVG Export Plug-In . SVG Version: 6.00 Build 0)  -->
<svg version="1.1" id="Layer_1" xmlns="http://www.w3.org/2000/svg" xmlns:xlink="http://www.w3.org/1999/xlink" x="0px" y="0px"
	 viewBox="0 0 411 224.4" style="enable-background:new 0 0 411 224.4;" xml:space="preserve">
<style type="text/css">
	.st0{fill:none;stroke:#000000;stroke-miterlimit:10;}
</style>
<g>
	<g>
		<path class="st0" d="M1.3,123.3l0.5,2.8l0.9,4.7l0.3,1.9l0.3,1.2l1.2,4.1l0.8,3.2l0.2,0.8l0.5,1.5l1.5,4.8l1.2,3l1.6,3.5l2.8,5.1
			l0.4,0.7l0.1,0.2l0.2,0.4l3,5.7l2.1,3l1.7,2.5l2.5,3l1.6,2.2l1.4,1.6l2.9,3.5l3.5,3.3l1.2,1.3l1.4,1.2l3.4,3.3l3.3,2.5l1.9,1.6
			l3,1.9l2.5,1.9l1.9,1.2l3.8,2.4l3.5,1.8l2,1.1l0.6,0.3l1.5,0.6l4.8,2.4l2.4,1l4.3,1.6l1.2,0.4l3.9,1.3l2,0.6l7,1.6l0.4,0.1l0.2,0
			l1.4,0.2l6.4,1.3l1.3,0.2l1.8,0.2l5.2,0.6l2.4,0.3l2.8,0.1l3.7,0.1l2.9,0.1l3-0.1l3.5-0.1l2.8-0.1l2.6-0.2l4.7-0.5l2.1-0.2
			l1.7-0.2l7-1.1l0.6-0.1l0.4-0.1l2.3-0.4l5.7-0.9l0.9-0.2l1.5-0.3l5.4-1l2.5-0.6l3.9-0.9l1.2-0.2l4.2-1l3.5-0.7l3.1-0.8l2.7-0.6
			l1.9-0.3l6.7-1.1l0.8-0.1l0.6,0l8.2-0.6l0.5,0l0,0l0,0l1,0l8,0.3l0.3,0l0.4,0l7.5,1.1l1.5,0.2l2.1,0.5l4.1,1l3.1,0.6l4.3,1.2
			l0.9,0.2l4.1,1.1l2.3,0.7l6.2,1.5l0.8,0.2l0.4,0.1l1.8,0.4l5.5,1.6l1.6,0.4l2.5,0.6l3.5,0.9l3.4,0.7l4.4,0.8l0.6,0.1l4.3,0.7
			l3.2,0.4l3.3,0.3l2.8,0.4l2.3,0.2l4.9,0.2l2.1,0.1l2,0l5.3-0.1l2.1,0l2.2-0.2l4.5-0.3l2.6-0.2l3.3-0.5l2.4-0.3l3.6-0.6l4.2-1
			l1.4-0.4l3.8-0.9l2.2-0.7l5.9-2.2l1-0.3l0.3-0.1l0.7-0.3l5.8-2.2l2.8-1.3l3.4-1.7l5.6-3.4l0.2-0.1l0.1-0.1l0.4-0.2l5.4-3.2
			l3.6-2.7l1.7-1.3l1.9-1.7l3.2-2.5l2.5-2.5l2.3-2.1l2-2.3l2.5-2.5l2.5-3.3l1.7-1.9l1.2-1.7l2.8-3.7l2.6-4.5l0.7-1.1l0.2-0.3
			l0.3-0.6l3.1-5.3l1.5-3.1l1.4-3.2l1.5-4.3l0.7-1.7l0.3-0.8l0.8-3l1.4-4.1l0.4-1.4l0.4-2.2l0.9-4l0.6-3.1l0.5-4.2l0.1-0.9l0.4-4.3
			l0.1-4.5l0-0.2l0.1-4.5l-0.3-4.5l0-0.3l-0.3-4.5l-0.6-3.6l-0.5-2.7l-0.5-3.1l-0.5-2l-2-6.9l-0.1-0.3l0-0.1l0-0.1l-2.2-6.9
			l-0.9-2.3l-1.9-4.2l-1-1.9l-1.6-3.2l-0.5-1l-1-1.6l-2.3-4.4l-1.6-2.3l-2.1-3.2l-3.2-3.9l-0.9-1.3l-0.8-0.9l-3.4-4.2l-4.2-4
			l-0.6-0.6l-0.7-0.6l-4.1-4l-4-3.1l-1.3-1l-2-1.3l-3.4-2.7l-2.7-1.7l-3.1-1.9l-6.2-3.1l0,0l0,0l-0.1,0l-6.1-3.1l-3.2-1.3l-3.5-1.3
			l-3.4-1.1L331,13l-1.3-0.3l-5.3-1.3l-2.1-0.6l-0.6-0.2l-1-0.2l-6.1-1.3l-2.3-0.4l-3-0.4L306.4,8L303,7.6l-4-0.2l-1.3,0l-4-0.2
			l-4.2,0.1l-1.1,0l-4.1,0.1l-3.8,0.3l-1.9,0.2L275.1,8l-3,0.3L268.1,9l-2.4,0.3l-1.9,0.3l-6.8,1.3l-0.6,0.1l-0.5,0.1l-2.4,0.5
			l-5.6,0.9l-0.9,0.2l-1.4,0.3l-5.6,0.9l-2.3,0.5l-3.4,0.6l-2.2,0.3l-3.7,0.7l-4.5,0.5l-0.4,0l-4.5,0.5l-3.9,0.1l-1.6,0l-3.9,0.1
			l-4.1-0.3l-1-0.1l-4.2-0.3l-4.1-0.7l-1.4-0.2l-3.9-0.7l-2.5-0.7l-5.4-1.1l-1.4-0.3l-0.8-0.3l-3.2-0.8l-4.1-1.2l-1.2-0.3l-2-0.5
			l-4.1-1.3l-3.2-0.8l-4.2-1.1L157.8,6l-4-0.9l-2.5-0.6L146,3.6l-1.5-0.3l-1-0.2l-7.3-1l-0.9-0.1l-0.1,0l-0.2,0L126.9,1l-1.1-0.1
			l-1.2,0L118,0.5l-1.5,0L115,0.6l-6.6,0.2l-1.3,0l-1.1,0.1l-8,0.9l-0.2,0l-0.1,0L97,2l-7.3,1.2l-1.2,0.2l-1.8,0.5l-4.6,1.1
			l-2.9,0.8L75,7.2l-1.5,0.6l-3.6,1.3l-1.6,0.7l-3.1,1.6l-3.3,1.3l-1.3,0.7l-4.3,2.3l-0.5,0.3l-4.5,2.8L50,19.5l-1.6,1.2l-4,2.5
			l-2.5,2.1l-2.7,2.1L36.4,30l-2.1,1.7l-1.7,1.8l-2.9,2.8l-2.5,2.9l-1.9,2l-2,2.8l-2,2.4l-1.4,2l-2.5,3.5l-2.8,5.2L14.2,58l-0.1,0.2
			l-0.2,0.4l-3.1,5.6l-1.4,3.1l-1.4,3.4l-1.3,3.9l-0.8,2.1l-0.3,1l-1,4.1l-1,3.2l-0.3,1L3,87.5l-1.1,5.2l-0.5,2.6l-0.3,3.4L0.9,101
			l-0.3,3.7l0,4l0,1.3l0,4l0.3,3.7l0.2,2L1.3,123.3"/>
	</g>
	<g>
		<path class="st0" d="M191.1,75.9l0.5,0.3l0.6,0.5l4.6,3.7l3.7,3.4l1.9,0.3l6.7,1.1l0.8,0.1l1.5-0.9l4-2.4l3.9-2l1.6-1.9l1.6-1.6
			l3.3-2.9l2.9-2l2-2.4l2.4-2l2.6-2.3l2.3-1.6l2.8-2.7l4-2.8l1.4-1.1l1.1-0.6l4.4-3.2l1.3-0.7l3.7-2.1l0.9-0.6l2-0.9l4-2.3l2.3-1
			l4.2-1.8l1.5-0.4l3.7-1.4l1.8-0.6l7.5-1.7l0.1,0l0,0l0.2,0l7.6-1.5l1.5-0.2l1.8-0.1l5.3-0.4L303,37l2.2,0.1l5.3,0.3l1.9,0.1
			l1.5,0.2l7.7,1.5l0,0l0,0l0.1,0l7.4,1.8l1.8,0.6l3.8,1.5l1.2,0.4l4.3,2l2,1l3.1,2l2.8,1.4l1.4,1l4.1,2.8l4.5,4.1l0.4,0.3l0.3,0.3
			l4.6,4.2l3.7,4.6l0.5,0.6l0.6,0.9l3.5,4.4l2.1,3.5l1.4,2.3l2.3,5.4l0.6,1l0.2,0.6l0.5,1.3l2,4.7l1.1,3.3l0.9,4l0.3,1.6l0.8,3.7
			l0.3,2.7l0.3,4.3l0.2,2.3l-0.1,2.2l-0.1,4.9l-0.1,2.3l-0.4,2.7l-0.4,3.4l-0.5,3.2l-1.2,4.5l-0.2,0.6l-1.3,4.3l-0.8,2.2l-2.2,4.5
			l-0.7,2l-0.4,0.7l-1.3,2.3l-1.5,3.1l-2.7,3.8l-1.1,1.7l-1.7,2l-2.3,3.3l-2.4,2.3l-2.2,2.5l-2.5,2.1l-2.4,2.4l-3.6,2.4l-1.8,1.5
			l-1.5,1l-4.1,2.7l-2.1,1l-3.1,1.6l-1,0.5l-2.9,1l-3.7,1.8L331,191l-3.4,1l-1.9,0.6l-4,1.1l-3.6,0.6l-2.4,0.3l-3.3,0.5l-2.7,0.1
			l-4,0.2l-2.6,0.1l-2.7-0.2l-3.8-0.2l-2.9-0.2l-3.8-0.7l-1.6-0.2l-4-0.8l-3.6-1l-3.3-1.2l-2.4-0.7l-1.2-0.4l-2.7-1.2l-4-1.4
			l-1.4-0.7l-4.1-2l-0.7-0.3l-4.5-2.7l-1.4-0.7l-2-1.4l-3.7-2.2l-2.2-1.9L244,173l-3.5-3.1l-1.5-1.2l-1.2-1.4l-3.8-3l-3.7-3.8
			l-0.9-1l-1-1.3l-3.8-3.2l-3.7-3.8l-0.8-0.9l-0.9-1.4l-4.2-2.8l-3.7-2.8l-1.4-1l-0.4,0l-8.5,0.2l-0.5,0l-1.9,1.4l-3.2,2.4l-4.3,2.7
			l-1,1.3l-1,1l-3.8,3.6l-3.6,2.7l-1.4,1.7l-1.6,1.4l-3.3,3l-3,2.1l-2.1,2.1l-3,2.1l-2.4,1.9l-1.9,1.1l-3.6,2.7l-4.2,2.2l-1.4,0.8
			l-0.4,0.2l-0.8,0.4l-5.2,3l-3,1.3l-3.6,1.5l-3.1,0.9l-2.6,0.9l-1.3,0.4l-5.9,1.3l-1.6,0.5l-0.5,0.1l-0.7,0.1l-6.7,1.2l-1.9,0.3
			l-2.2,0.1l-4.6,0.3l-2.5,0.1l-2.4-0.2l-4.9-0.4l-2.1-0.1l-1.6-0.3l-7.6-1.6l-0.1,0l0,0l0,0l-7.4-1.9l-1.9-0.6l-4.3-1.8l-0.5-0.2
			l-4.5-2.2l-1.7-0.9l-2.5-1.7l-3.3-1.7l-1.7-1.3l-3.7-2.6l-3.9-3.7l-1-0.7l-0.7-0.8l-4-3.8l-3.2-4l-1-1.1l-1.1-1.9l-2.8-3.6
			l-1.6-2.8l-1.8-3.1l-2.2-5.3L33,142l-0.1-0.3l-0.3-1.1l-2.3-5.6l-0.7-2.3l-0.9-3.9l-0.3-1.1l-0.9-4.2l-0.4-3.8l-0.1-1.8l-0.3-3.7
			l0.1-3.4l0-2.4l0.1-3.5l0.6-4.2l0.1-0.8l0.7-4.3l0.9-3.5l1.2-3.6L31,86l0.4-1.2l1.2-2.5l1.5-4.2l0.7-1.5l2.4-4.7l0,0l3.1-4.7
			l0.6-1l1-1.1l2.9-4.3l2.9-2.9l1.6-1.9l1.9-1.7l2.8-2.9l4-2.8l1.3-1.2l1.2-0.8l4.4-3l1.2-0.6l3.7-2.1l1.1-0.6l3-1.1l3.5-1.8
			l1.8-0.7l3.7-1.2l1.5-0.5l4.2-1.2l3.3-0.6l3.2-0.5l2.8-0.5l2.2-0.1l5.2-0.3l1.9-0.1l1.9,0.1l5.4,0.2l2.1,0.1l2.6,0.4l3.7,0.4
			l3,0.5l4.6,1.2l0.2,0.1l4.5,1.3l2.4,0.8l5.4,2.4l1.1,0.4l0.4,0.2l1.1,0.5l5,2.1l3.2,1.9l2.7,1.5l3.8,2.7l1.7,1l1,0.9l4.4,3
			l4.9,4.4l0,0l0,0l0,0l5.2,4.1l4.1,4.5l0.4,0.3l0.5,0.4l4.4,4L191.1,75.9"/>
	</g>
</g>
<g>
	<path class="st0" d="M325.6,172.8l-3.8,1.2l-2.2,0.4l-5.7,0.7l-1.5,0.3l-1.2,0l-7.1,0.1l-1.1,0l-1.2-0.2l-6.3-0.6l-1.8-0.3
		l-2.9-0.8l-2.9-0.6l-3.5-1.2l-3.3-1.3l-5.9-3.3l-0.1,0l0,0l-0.2-0.1l-5.8-3.1l-3.3-2.8l-1.9-1.3l-1.8-1.9l-3.1-2.6l-2.6-3.6
		l-1.6-1.6l-1.1-1.6l-2.8-3.8l-1.5-3.2l-1.2-2.3l-0.3-0.7l-0.7-2.2l-2.1-4.3l-0.8-2.1l-0.9-3.8l-0.4-1.4l-0.9-4.2l-0.2-4.1l0-1.2
		l-0.2-4l0.5-4.4l0-0.5l0.6-4.4l1-3.4l1.6-4.2l0.6-1.8l0.4-0.8l0.8-1.4l2-5.1l1.2-2l2.4-3.8l3.8-4.2l0.5-0.8l0.5-0.5l3.9-4.4
		l4.4-3.5l0.7-0.7l1.3-0.7l4.1-3.2l3.2-1.8l2.8-1.6l5.8-2l0.7-0.3l0.3-0.1l1.3-0.3l5.7-2l2-0.5l2.8-0.4l3.2-0.5l3.3-0.4l3.6,0.1
		l2.1,0.1l3.6,0.1l3,0.5l4.3,0.9l2.1,0.4l1.3,0.4l3.2,1.3l3.8,1l1,0.4l2.8,1.3l2.6,1.1l3.9,2.5l1.8,1.1l2.1,1.8l3.3,2.1l2.1,2.3
		l2.6,2.3l2,2.6l2.3,2.4l2.4,4.3l1.2,1.5l0.6,1.2l2.1,3.9l0.6,1l1.9,4.5l0.8,2.2l1.3,6.2l0.3,0.9l0.1,0.6l0.6,6.3l0.3,2.2l0,0.3
		l0,0.3l-0.3,7.7l0,1.2l0,0l0,0l-1.2,8l-0.3,1.2l-0.8,2.3l-1,3.7l-1.4,3.3l-1.5,3.1l-3.1,4.5l-0.6,1.2l-0.5,0.6l-2.5,3.5l-0.9,1.4
		L350,158l-0.1,0.1l-0.1,0.1l-4.6,4.4l-0.2,0.1l-4.5,3l-0.9,0.6l-2.1,0.9l-3.9,2.5l-2.5,1.1l-4.2,1.6L325.6,172.8"/>
</g>
<g>
	<path class="st0" d="M102,174.6l1.1,0.1l4.1,0.2l4-0.4l1.6-0.2l3.8-0.4l2.8-0.6l5.5-1.7l1-0.3l0.6-0.2l1.2-0.6l5.7-1.9l1.9-1
		l4.2-2.2l3.9-3l1.3-0.9l0.2-0.1l0.2-0.2l5.2-3.7l3.7-4.3l0.7-0.6l0.6-0.7l3.8-4.3l1-1.7l2.1-3.3l0.5-0.8l0.8-2l2.5-4.1l1.1-2.5
		l1.4-4.3l0.2-0.8l1.2-4.1l0.3-2.6l0.4-4.5l0.3-2.2l-0.1-2.1l-0.2-5l-0.1-2.3l-0.7-3l-0.5-2.8l-0.8-3.5l-1.3-3.6l-2.1-4.2l-0.7-1.5
		l-0.3-0.5l-0.5-0.8l-2.6-5.4l-2-2.6l-2-2.7l-2.7-2.7l-1.7-2.2l-2.1-1.7l-2.8-2.8l-2.8-1.9l-2.6-2.1l-5.1-2.6l-1-0.7l-0.7-0.3
		l-1.9-0.9l-3.6-1.9l-3.8-1.4l-3.1-0.9l-3.7-0.7l-2.5-0.6l-1.6-0.2l-6.5-0.5l-1.2-0.1l-1.1,0.1l-6.9,0.3l-1.4,0.1l-1.8,0.4l-5,0.8
		l-2.6,0.6L84,54l-0.2,0.1L79.2,56l-1.8,0.9l-2.7,1.8l-3.3,1.5l-1.5,1.2L66,64L62.1,68l-0.8,0.6l-0.6,0.8l-3.9,3.9l-2.7,3.9
		l-1.2,1.5L51.3,82l-1.9,2.8l-0.9,1.9l-2,4.6l0,0.1L45,95.9l-0.6,2.5l-0.8,5.1l-0.3,1.7l-0.1,1.3l-0.2,6.9l-0.1,1.1l0.1,1.2l0.5,6.4
		l0.2,1.7l0.7,2.7l0.7,3.3l1,3.3l1.4,3.5l3,5.3l0.3,0.5l0.1,0.2l0.2,0.2l3.1,5.8l2.8,3.1l1.5,1.9l1.9,1.8l2.6,3l3.8,2.6l1.5,1.4
		l1.4,0.9l4.1,2.8l1.8,0.8l3.3,1.7l1.1,0.5l3.8,1.1l3,1.3l1.3,0.4l2.3,0.5l3.8,1l3.2,0.6L102,174.6"/>
</g>
<g>
	<path class="st0" d="M35.2,49.3l3.1-3.7l3.7-3.4l1.1-1.2l1.5-1.1l3.5-3.2l3.2-2.3l2.1-1.6l3.8-2.1l2-1.4l1.4-0.8l4.6-2.5l0.3-0.1
		l4.5-2.1l1.7-0.7l5.1-1.7l1.8-0.8l0.8-0.3l1.5-0.4l4.9-1.5l3-0.8l4.6-0.8l0.1,0l4.6-0.8l3.6-0.3l2.3-0.2l3.4-0.3l3.2,0l3,0l3.1,0
		l3.5,0.3l2.3,0.1l3.6,0.3l4.7,0.7l0,0l4.7,0.8l3.2,0.7l4.2,1.2l2,0.5l1.2,0.3l3.5,1.2l3.7,1l1,0.4l2.2,0.8l3.7,1.2l3.4,1.4l3.3,1.2
		l5.2,2.4l0.9,0.4l0.4,0.1l0.8,0.4l5.8,2.3l2.3,1.1l4.3,1.6l1.2,0.5l3.8,1.6l1.8,0.4l6.3,1.8l0.9,0.3l0.3,0.1l0.4,0l7.9,0.7l1.1,0.1
		l1.1-0.1l7.9-0.8l0.3,0l0.2-0.1l0.8-0.2l6.5-1.8l1.8-0.4l3.3-1.2l1.9-0.7l4.1-1.3l2.8-1.2l5.4-1.7l1.1-0.4l0.5-0.2l1.6-0.5l5.3-1.9
		l1.9-0.5l3.6-1.1l1.6-0.6l4.1-1.1l3.3-0.8l3.4-0.6l2.7-0.6l1.7-0.3l6.7-0.9l0.9-0.1l0.7-0.1l8.6-0.6l0.1,0l0.1,0l9.2,0l0.1,0l0.1,0
		l8.5,0.6l0.7,0.1l0.9,0.2l6.5,1l1.9,0.3l3,0.8l2.6,0.6l3.6,1l3.4,1.2l4.3,1.8l1.6,0.6l0.7,0.3l1.2,0.7l5.2,2.2l2.2,1.2l3.7,2.1
		l5.2,3.7l0.2,0.1l0.1,0.1l0.9,0.7l4.4,3.1l4,3.7l0.9,0.7l0.8,0.9l4,3.7l3.7,4.6l0.5,0.5l0.4,0.5l3.3,4.1l0.5,0.6l2.9,4.6L386,69
		l1.1,2.2l2.3,3.7l1.1,2.3l1.9,4.1l0.6,1.7l1.4,3.5l0.5,1.6l1.6,6.5l0.3,0.9l0.1,0.3l0.1,0.5l1.5,6.9l0.3,1.9l0.2,2.5l0.4,4l0.2,2.9
		l-0.1,3l-0.1,3.4l-0.1,2.9l-0.3,2.6l-0.7,4.9l-0.2,1.9l-0.3,1.4l-1.4,5.2l-0.4,2.3l-0.1,0.4l-0.3,0.8l-1.7,5.9l-1,2.6l-1.7,4.1
		l-1.5,2.7l-1.3,2.6l-0.4,0.8l-0.8,1.3l-2.5,4.7l-1.8,2.5l-2,3l-3,3.4l-1.3,1.7l-1.3,1.3l-3.2,3.6l-3.6,3.2l-1.3,1.3l-1.7,1.3
		l-3.4,3l-3,2l-2.5,1.8l-4.7,2.5l-1.3,0.8l-0.8,0.5l-2.7,1.4l-2.6,1.4l-4.1,1.8l-2.5,1l-6.3,1.9l-0.5,0.2l-0.3,0.1l-1.3,0.3l-6,1.7
		l-1.7,0.4l-2.5,0.4l-3.6,0.6l-3.2,0.5l-3.9,0.3l-1.4,0.1l-4,0.3L299,212l-1.1,0l-4.1-0.1l-3.7-0.4l-2.3-0.3l-3.3-0.4l-2.6-0.4
		l-5.4-1.2l-1.4-0.3l-0.9-0.2l-3.2-0.9l-4.2-1l-1-0.3l-1.9-0.6l-4.3-1.2l-3.1-1.2l-3.7-1.3l-3.4-1.5l-2.2-0.9l-1-0.3l-2.1-1
		l-4.5-1.8l-1.8-0.9l-4.5-1.8l-0.3-0.1l-4.6-2.1l-2-0.6l-5.1-2l-1.7-0.6l-0.6-0.3l-1.2-0.3l-5.8-1.2l-2.4-0.6l-3.1-0.1l-3-0.1
		l-3.2-0.1l-2.8,0.5l-4.4,0.6l-2.2,0.4l-1.3,0.5l-4.4,1.3l-2.7,0.9l-0.9,0.2l-1.8,0.7l-4.1,1.7l-3.5,1.2l-3.2,1.4l-4.2,1.4l-1.9,0.7
		l-0.8,0.4l-2.6,0.8l-4.3,1.6l-1.6,0.5l-3,0.9l-2.4,0.9l-3.9,1l-3.5,0.9l-2.8,0.5l-3,0.7l-2,0.4l-6.2,0.8l-1.2,0.2L125,207l-8,0.5
		l-0.4,0l-0.4,0l-8.6,0l-0.4,0l-0.4,0l-7.8-0.6l-1-0.1l-1.4-0.2l-5.7-0.9l-2.3-0.4l-3.7-1l-1.6-0.4l-4-1.2l-3-1.1l-5.9-2.6l-0.4-0.2
		l-0.2-0.1l-0.3-0.2l-6.1-2.7l-2.7-1.5l-3.2-1.9l-4.4-3.2l-1-0.6l-0.6-0.5L47,185l-0.5-0.3l-4.6-4.4l-0.2-0.2l-0.2-0.2l-4.6-4.3
		l-2.4-3l-1.6-2l-0.2-0.2l-0.2-0.3l-3.9-4.9l-2.5-3.9l-1.1-1.8l-1.8-3.7l-1.5-2.4l-0.7-1.5l-1.8-3.9l-0.5-1l-1.7-4.4l-0.8-2.4
		l-1.5-6l-0.3-0.9l-0.1-0.5l-0.5-3.4l-0.9-4.4l-0.2-0.9l-0.1-1.2l-0.6-6.3l-0.2-1.8l0-2l0.1-5.5l0-1.9l0.2-1.6l0.9-7l0.1-0.7
		l0.1-0.5l0.5-2.1l1-5.6l0.3-1l0.6-1.9l1.2-4.3l1.1-3.1l1.5-3.6l2.3-4.5l0.6-1.3l0.2-0.4l0.4-0.7l2.8-5.4l1.9-2.8l1.8-2.8l2.8-3.3
		l1.3-1.9L35.2,49.3"/>
</g>
</svg>
