<?xml version="1.0" encoding="utf-8"?>
<!-- Generator: Adobe Illustrator 21.1.0, SVG Export Plug-In . SVG Version: 6.00 Build 0)  -->
<svg version="1.1" id="Layer_1" xmlns="http://www.w3.org/2000/svg" xmlns:xlink="http://www.w3.org/1999/xlink" x="0px" y="0px"
	 viewBox="0 0 411 224.4" style="enable-background:new 0 0 411 224.4;" xml:space="preserve">
<style type="text/css">
	.st0{fill:none;stroke:#000000;stroke-miterlimit:10;}
</style>
<path class="st0" d="M1.3,123.3C7,156.2,24,184.5,53,202.1c28.7,17.4,61.9,19.5,94.3,14c17.8-3,35.2-8.7,53.3-9.3l0,0
	c25.9,0.1,49.7,11.5,75.1,15c25.3,3.4,51,1,74.2-10.1c47.7-22.8,71.1-77.1,55.9-127.4c-8.5-28-29.4-51.2-55.4-64.2
	C325,9,297.2,4.6,269.5,8.8c-27.5,4.1-53.5,11.7-81.3,5.4c-27.3-6.2-53.4-15.3-81.9-13.3c-27.7,2-54.7,13.5-74.3,33.3
	c-20.5,20.6-32,49.3-31.3,78.5C0.7,116.2,1.1,119.7,1.3,123.3"/>
<path class="st0" d="M35.2,49.3c-12,9.6-18.6,29.5-21.4,43.9c-3,15.7-2.1,31.5,2.4,46.8c9.3,31.6,37.7,55.8,68.9,64.3
	c15.4,4.2,32.8,4.3,48.4,1.5c16.8-3,32.1-10,48.1-15.6c16.4-5.8,30.8-4.8,46.8,1.5c15.3,6,29.7,12.9,45.8,16.9
	c33.1,8.2,68.2,0.9,94-21.7c25.2-22,36.7-58.1,28.9-90.6c-7.9-32.9-30.9-57.3-62.2-69.3c-30.5-11.7-64-4.5-93.5,6.1
	c-15.6,5.6-29.4,10-45.9,5.5c-15.8-4.3-30.4-12.6-46.1-17.5c-32.7-10.1-66.7-7.1-95.7,11.5C46.7,37.1,40.4,43.1,35.2,49.3"/>
<path class="st0" d="M191.1,75.9c5.8,4,9.8,9.9,17.7,9.3c6.8-0.6,12.4-7.8,17.4-11.9c11.4-9.1,21.6-18.6,34.8-25.5
	c7.5-4,15.3-6.7,23.7-8.4c12.9-1.9,23.9-2.7,36.9-0.2l0,0c30.4,6.6,54.9,30.7,61.4,61.2c6.8,32-8.1,64.8-35.3,82.3
	c-27.5,17.7-62.5,15.8-90.2-0.4c-13.3-7.8-25.9-18.9-36-30.5c-5.1-5.8-12.2-11.8-20.5-9.3c-6.5,2-13,9.7-18,14.1
	c-11.8,10.5-23.8,20.6-38.6,27c-13.9,5.9-29.8,8.6-44.8,7.1c-3.8-0.4-7.4-1.3-11.1-2l0,0C49.1,178.6,21.4,141,27.6,99.9
	c6.2-41.1,43.2-69.7,84.2-68c22.6,0.9,43.8,10.9,60.5,25.9l0,0C179.1,63.1,185.4,69.4,191.1,75.9"/>
<path class="st0" d="M102,174.6c-25.7-3.4-50.2-18.9-57-45.3c-6.4-25.1,3.1-55.6,26.4-69.1c23.2-13.4,51.7-12.7,73.5,3.2
	c21.3,15.5,32,44.2,22.3,69.4C157.6,158.1,129.4,177.1,102,174.6"/>
<path class="st0" d="M325.6,172.8c23.8-7.3,39.3-28.3,42.9-52.2c0-18-2.6-34.1-15.2-48c-12.1-13.3-29.2-20.5-47.2-20.9
	c-35.5-0.8-68.5,32.9-64,68.7c2.5,19.6,15.8,37.8,33,46.8C291.1,175,308.1,178.3,325.6,172.8"/>
</svg>
