<?xml version="1.0" encoding="utf-8"?>
<!-- Generator: Adobe Illustrator 21.1.0, SVG Export Plug-In . SVG Version: 6.00 Build 0)  -->
<svg version="1.1" id="Layer_1" xmlns="http://www.w3.org/2000/svg" xmlns:xlink="http://www.w3.org/1999/xlink" x="0px" y="0px"
	 viewBox="0 0 202.6 302.3" style="enable-background:new 0 0 202.6 302.3;" xml:space="preserve">
<style type="text/css">
	.st0{fill:none;stroke:#000000;stroke-width:3;stroke-miterlimit:10;}
</style>
<path class="st0" d="M51.5,300.8c20.2,0,39.8-4,58.3-11.8c17.8-7.5,33.8-18.3,47.5-32s24.5-29.7,32-47.5
	c7.8-18.5,11.8-38.1,11.8-58.3s-4-39.8-11.8-58.3c-7.5-17.8-18.3-33.8-32-47.5s-29.7-24.5-47.5-32C91.3,5.5,71.7,1.5,51.5,1.5
	c-13.3,0-26,5.3-35.4,14.6C6.8,25.5,1.5,38.2,1.5,51.5s5.3,26,14.6,35.4c9.4,9.4,22.1,14.6,35.4,14.6s25.7,5.2,35.1,14.5
	s14.5,21.8,14.5,35.1s-5.2,25.7-14.5,35.1s-21.8,14.5-35.1,14.5s-26,5.3-35.4,14.6c-9.4,9.4-14.6,22.1-14.6,35.4s5.3,26,14.6,35.4
	C25.5,295.5,38.2,300.8,51.5,300.8z"/>
</svg>
