<?xml version="1.0" encoding="utf-8"?>
<!-- Generator: Adobe Illustrator 21.1.0, SVG Export Plug-In . SVG Version: 6.00 Build 0)  -->
<svg version="1.1" id="Layer_1" xmlns="http://www.w3.org/2000/svg" xmlns:xlink="http://www.w3.org/1999/xlink" x="0px" y="0px"
	 viewBox="0 0 202.6 302.3" style="enable-background:new 0 0 202.6 302.3;" xml:space="preserve">
<style type="text/css">
	.st0{fill:none;stroke:#010101;stroke-width:3;stroke-miterlimit:10;}
</style>
<g>
	<path class="st0" d="M186.5,286.1c9.3-9.4,14.6-22.1,14.6-35.4s-5.2-26-14.6-35.4c-9.4-9.3-22.1-14.6-35.4-14.6
		s-25.8-5.1-35.1-14.5s-14.5-21.8-14.5-35.1s5.1-25.8,14.5-35.1s21.8-14.5,35.1-14.5s26-5.2,35.4-14.6c9.3-9.4,14.6-22.1,14.6-35.4
		s-5.3-26-14.6-35.4c-9.4-9.3-22.1-14.6-35.4-14.6c-20.2,0-39.8,4-58.3,11.9C75,20.9,59,31.7,45.3,45.4s-24.5,29.7-32,47.5
		C5.5,111.4,1.5,131,1.5,151.2s4,39.8,11.8,58.3c7.5,17.8,18.3,33.8,32,47.5s29.7,24.5,47.5,32c18.5,7.8,38.1,11.8,58.3,11.8
		C164.4,300.8,177.1,295.5,186.5,286.1z"/>
</g>
</svg>
