<?xml version="1.0" encoding="utf-8"?>
<!-- Generator: Adobe Illustrator 21.1.0, SVG Export Plug-In . SVG Version: 6.00 Build 0)  -->
<svg version="1.1" id="Layer_1" xmlns="http://www.w3.org/2000/svg" xmlns:xlink="http://www.w3.org/1999/xlink" x="0px" y="0px"
	 viewBox="0 0 202.6 302.3" style="enable-background:new 0 0 202.6 302.3;" xml:space="preserve">
<style type="text/css">
	.st0{fill:none;stroke:#010101;stroke-width:3;stroke-miterlimit:10;}
</style>
<path class="st0" d="M186.5,286.1c21.8-22,18.3-59.8-7.6-77c-5.7-3.8-12.2-6.4-19-7.6c-7.6-1.4-15.2-0.6-22.7-2.7
	c-14.3-4.1-26.2-14.9-31.9-28.6c-11.6-28.1,5.3-60.8,35-67.4c6.8-1.5,13.8-0.8,20.6-2.2c7.5-1.5,14.6-4.7,20.6-9.3
	c11.6-8.9,18.9-22.9,19.5-37.5c0.6-14.6-5.3-29.3-16.1-39.1C173.3,4,158.8,0.9,143.6,1.7c-32,1.6-63.3,13.9-88,34.4
	C4.4,78.6-12.6,151.9,14.7,212.7c14.2,31.6,39.6,57.8,70.7,73C114.4,299.8,160.6,312,186.5,286.1z"/>
</svg>
