<?xml version="1.0" encoding="utf-8"?>
<!-- Generator: Adobe Illustrator 21.1.0, SVG Export Plug-In . SVG Version: 6.00 Build 0)  -->
<svg version="1.1" id="Layer_1" xmlns="http://www.w3.org/2000/svg" xmlns:xlink="http://www.w3.org/1999/xlink" x="0px" y="0px"
	 viewBox="0 0 435 254.8" style="enable-background:new 0 0 435 254.8;" xml:space="preserve">
<style type="text/css">
	.st0{fill:none;stroke:#000000;stroke-width:3;stroke-miterlimit:10;}
</style>
<path id="bottom" class="st0" d="M109.5,109.5c19.9,0,36,16.1,36,36s16.1,36,36,36s36-16.1,36-36s16.1-36,36-36s36,16.1,36,36
	s16.1,36,36,36s36-16.1,36-36s16.1-36,36-36s36,16.1,36,36v107.8H1.5V145.5c0,19.9,16.1,36,36,36s36-16.1,36-36
	S89.6,109.5,109.5,109.5z"/>
<path id="top" class="st0" d="M433.5,37.5v108c0-19.9-16.1-36-36-36s-36,16.1-36,36s-16.1,36-36,36s-36-16.1-36-36s-16.1-36-36-36
	s-36,16.1-36,36s-16.1,36-36,36s-36-16.1-36-36s-16.1-36-36-36s-36,16.1-36,36s-16.1,36-36,36s-36-16.1-36-36v-108
	c0,19.9,16.1,36,36,36s36-16.1,36-36s16.1-36,36-36s36,16.1,36,36s16.1,36,36,36s36-16.1,36-36s16.1-36,36-36s36,16.1,36,36
	s16.1,36,36,36s36-16.1,36-36s16.1-36,36-36S433.5,17.6,433.5,37.5v108"/>
</svg>
