<?xml version="1.0" encoding="utf-8"?>
<!-- Generator: Adobe Illustrator 21.1.0, SVG Export Plug-In . SVG Version: 6.00 Build 0)  -->
<svg version="1.1" id="Layer_1" xmlns="http://www.w3.org/2000/svg" xmlns:xlink="http://www.w3.org/1999/xlink" x="0px" y="0px"
	 viewBox="0 0 497.3 807.5" style="enable-background:new 0 0 497.3 807.5;" xml:space="preserve">
<style type="text/css">
	.st0{fill:none;stroke:#000000;stroke-miterlimit:10;}
</style>
<g>
	<path class="st0" d="M0.5,558.9c0-33.5,6.6-66,19.5-96.6c12.5-29.6,30.4-56.1,53.1-78.8c22.8-22.8,49.3-40.6,78.8-53.1
		c30.7-13,63.2-19.5,96.6-19.5c34.2,0,62.1-27.8,62.1-62.1s-27.8-62.1-62.1-62.1c-24.7,0-48.3-9.8-65.8-27.2
		c-17.4-17.4-27.2-41.1-27.2-65.8s9.8-48.3,27.2-65.8C200.3,10.3,224,0.5,248.6,0.5c33.5,0,66,6.6,96.6,19.5
		c29.6,12.5,56.1,30.4,78.8,53.1c22.8,22.8,40.6,49.3,53.1,78.8c13,30.7,19.5,63.2,19.5,96.6s-6.6,66-19.5,96.6
		c-12.5,29.6-30.4,56.1-53.1,78.8c-22.8,22.8-49.3,40.6-78.8,53.1c-30.7,13-63.2,19.5-96.6,19.5c-34.2,0-62.1,27.8-62.1,62.1
		s27.8,62.1,62.1,62.1c24.7,0,48.3,9.8,65.8,27.2c17.4,17.4,27.2,41.1,27.2,65.8s-9.8,48.3-27.2,65.8C297,797.2,273.3,807,248.6,807
		c-33.5,0-66-6.6-96.6-19.5c-29.6-12.5-56.1-30.4-78.8-53.1C50.4,711.6,32.5,685,20,655.5C7.1,624.8,0.5,592.3,0.5,558.9z"/>
</g>
</svg>
