<?xml version="1.0" encoding="utf-8"?>
<!-- Generator: Adobe Illustrator 21.1.0, SVG Export Plug-In . SVG Version: 6.00 Build 0)  -->
<svg version="1.1" id="Layer_1" xmlns="http://www.w3.org/2000/svg" xmlns:xlink="http://www.w3.org/1999/xlink" x="0px" y="0px"
	 viewBox="0 0 249.1 404.2" style="enable-background:new 0 0 249.1 404.2;" xml:space="preserve">
<style type="text/css">
	.st0{fill:none;stroke:#000000;stroke-miterlimit:10;}
</style>
<g id="outer">
	<path class="st0" d="M0.5,279.7c0-16.8,3.3-33,9.8-48.3c6.2-14.8,15.2-28.1,26.5-39.4c11.4-11.4,24.6-20.3,39.4-26.6
		c15.3-6.5,31.6-9.8,48.3-9.8c17.1,0,31.1-13.9,31.1-31.1s-13.9-31.1-31.1-31.1c-12.3,0-24.2-4.9-32.9-13.6
		C82.9,71.3,78,59.4,78,47.1s4.9-24.1,13.6-32.9c8.8-8.8,20.7-13.7,33-13.7c16.8,0,33,3.3,48.3,9.8c14.8,6.2,28.1,15.2,39.4,26.5
		c11.4,11.4,20.3,24.6,26.6,39.4c6.5,15.3,9.8,31.6,9.8,48.3s-3.3,33-9.8,48.3c-6.2,14.8-15.2,28.1-26.6,39.4
		c-11.4,11.4-24.6,20.3-39.4,26.6c-15.4,6.5-31.6,9.8-48.3,9.8c-17.1,0-31.1,13.9-31.1,31.1s13.9,31,31.1,31
		c12.4,0,24.1,4.9,32.9,13.6c8.7,8.7,13.6,20.5,13.6,32.9s-4.9,24.1-13.6,32.9c-8.7,8.9-20.6,13.8-32.9,13.8
		c-16.8,0-33-3.3-48.3-9.8c-14.8-6.2-28-15.2-39.4-26.5C25.5,356,16.5,342.8,10.2,328C3.8,312.6,0.5,296.4,0.5,279.7z"/>
</g>
</svg>
